#N canvas 748 0 688 702 12;
#X obj 26 339 *~;
#X obj 25 184 line~;
#X msg 25 160 0 \, 1 \$1;
#N canvas 0 23 450 300 envelope~ 0;
#X obj 50 117 cos~;
#X obj 50 167 +~ 0.5;
#X obj 50 142 *~ -0.5;
#X obj 50 217 outlet~;
#X text 93 113 // 'rounds it';
#X text 109 139 // scales it to 0-1;
#X obj 50 43 inlet~;
#X connect 0 0 2 0;
#X connect 1 0 3 0;
#X connect 2 0 1 0;
#X connect 6 0 0 0;
#X restore 44 311 pd envelope~;
#X floatatom 165 258 10 0 0 0 - - -;
#X obj 26 246 *~;
#X obj 92 228 * 44.1;
#X text 163 236 // start;
#X obj 25 137 f;
#X obj 25 17 inlet;
#X obj 26 452 outlet~;
#X obj 25 100 t b f;
#X obj 26 276 tabread4~ sample;
#X obj 25 70 unpack f f;
#X obj 307 312 random 100;
#X obj 307 336 / 100;
#X obj 25 41 t l b;
#X obj 26 362 *~ 0.5;
#X obj 409 312 random 100;
#X obj 409 336 / 100;
#X obj 409 360 expr 1-$f1;
#X obj 26 416 *~;
#X obj 118 451 outlet~;
#X obj 118 415 *~;
#X connect 0 0 17 0;
#X connect 1 0 3 0;
#X connect 1 0 5 0;
#X connect 2 0 1 0;
#X connect 3 0 0 1;
#X connect 4 0 12 1;
#X connect 5 0 12 0;
#X connect 6 0 5 1;
#X connect 8 0 2 0;
#X connect 9 0 16 0;
#X connect 11 0 8 0;
#X connect 11 1 4 0;
#X connect 12 0 0 0;
#X connect 13 0 11 0;
#X connect 13 1 8 1;
#X connect 13 1 6 0;
#X connect 14 0 15 0;
#X connect 15 0 17 1;
#X connect 16 0 13 0;
#X connect 16 1 14 0;
#X connect 16 1 18 0;
#X connect 17 0 21 0;
#X connect 17 0 23 0;
#X connect 18 0 19 0;
#X connect 19 0 20 0;
#X connect 19 0 21 1;
#X connect 20 0 23 1;
#X connect 21 0 10 0;
#X connect 23 0 22 0;
