#N canvas 279 23 927 520 10;
#X obj 102 31 inlet;
#X obj 38 31 inlet~;
#X obj 364 51 loadbang;
#X msg 102 114 npeak \$1;
#X obj 329 183 unpack f f f;
#X obj 340 474 outlet;
#X obj 363 423 pack f f;
#X obj 408 375 abs;
#X obj 408 398 expr $f2*if($f1<=$f3 \, pow(cos(($f1/$f3)*1.57079) \,
2) \, 0);
#N canvas 452 189 791 420 acum 0;
#X obj 117 21 inlet;
#X obj 252 22 inlet;
#X obj 136 245 outlet;
#X obj 136 216 array get \$0-hpcp;
#X obj 252 152 array set \$0-hpcp;
#X obj 252 103 array get \$0-hpcp 0 1;
#X obj 252 126 +;
#X obj 252 78 t f f;
#X obj 252 53 unpack;
#X obj 156 185 array define \$0-hpcp 12;
#X obj 395 20 inlet;
#X obj 156 80 spigot 0;
#X msg 156 102 normalize;
#X obj 117 53 t b b b;
#X msg 117 125 const 0;
#X connect 0 0 13 0;
#X connect 1 0 8 0;
#X connect 3 0 2 0;
#X connect 5 0 6 0;
#X connect 6 0 4 0;
#X connect 7 0 5 0;
#X connect 7 1 4 1;
#X connect 8 0 7 0;
#X connect 8 1 6 1;
#X connect 10 0 11 1;
#X connect 11 0 12 0;
#X connect 12 0 9 0;
#X connect 13 0 14 0;
#X connect 13 1 3 0;
#X connect 13 2 11 0;
#X connect 14 0 9 0;
#X restore 340 451 pd acum;
#X obj 797 348 loadbang;
#X obj 797 372 1.33333;
#X obj 363 208 ftom;
#X obj 363 345 % 12;
#X obj 363 275 until;
#X obj 363 297 f;
#X obj 392 297 + 1;
#X obj 428 258 - 6;
#X obj 363 231 t b f;
#X obj 363 253 12;
#X obj 428 280 i;
#X obj 363 319 t f f;
#X obj 408 352 -;
#X obj 364 75 \$1;
#X obj 364 97 max 1;
#X obj 499 218 route 0;
#X msg 694 288 reset;
#X obj 499 240 list split 1;
#X obj 499 262 ftom;
#X obj 499 284 expr rint($f1)-$f1;
#X obj 102 53 route npeak normalize resetTuning;
#X obj 499 327 outlet;
#X obj 499 305 average 100;
#X obj 38 157 sigmund~ -maxfreq 5000 -npeak 20 env peaks;
#X obj 38 434 b;
#X connect 0 0 30 0;
#X connect 1 0 33 0;
#X connect 2 0 23 0;
#X connect 3 0 33 0;
#X connect 4 1 12 0;
#X connect 4 2 8 1;
#X connect 6 0 9 1;
#X connect 7 0 8 0;
#X connect 8 0 6 1;
#X connect 9 0 5 0;
#X connect 10 0 11 0;
#X connect 11 0 8 2;
#X connect 12 0 18 0;
#X connect 13 0 6 0;
#X connect 14 0 15 0;
#X connect 15 0 16 0;
#X connect 15 0 21 0;
#X connect 16 0 15 1;
#X connect 17 0 20 0;
#X connect 18 0 19 0;
#X connect 18 1 17 0;
#X connect 18 1 22 1;
#X connect 19 0 14 0;
#X connect 20 0 15 1;
#X connect 21 0 13 0;
#X connect 21 1 22 0;
#X connect 22 0 7 0;
#X connect 23 0 24 0;
#X connect 24 0 3 0;
#X connect 25 0 27 0;
#X connect 26 0 32 0;
#X connect 27 0 28 0;
#X connect 28 0 29 0;
#X connect 29 0 32 0;
#X connect 30 0 3 0;
#X connect 30 0 24 0;
#X connect 30 1 9 2;
#X connect 30 2 26 0;
#X connect 30 3 33 0;
#X connect 32 0 31 0;
#X connect 33 0 25 0;
#X connect 33 0 34 0;
#X connect 33 1 4 0;
#X connect 34 0 9 0;
