#N canvas 231 153 671 456 10;
#X msg 248 231 normalize \$1;
#X obj 248 210 tgl 15 0 empty empty empty 17 7 0 10 -260097 -1 -1 0
1;
#N canvas 0 22 450 300 (subpatch) 0;
#X array \$0-chromagramRT 12 float 3;
#A 0 0.386152 0.265678 0.260022 0.200254 0.387848 0.258731 0.199624
0.262482 0.321204 1 0.381044 0.250941;
#X coords 0 1 12 0 196 140 1 0 0;
#X restore 428 262 graph;
#N canvas 0 22 450 300 (subpatch) 0;
#X array \$0-chromaRT 12 float 3;
#A 0 0.00387206 0.00785252 0.0766347 0.0511245 0.0275638 0.00285356
0.00286512 0.00407281 0.0318044 0.0343537 0.00604573 0.00662926;
#X coords 0 1 12 0 196 140 1 0 0;
#X restore 428 100 graph;
#X obj 10 8 cnv 15 650 60 empty empty hpcp~ 20 12 0 14 -233017 -66577
0;
#N canvas 510 304 494 344 META 0;
#X text 12 45 LICENSE GPL v3;
#X text 12 202 RELEASE_DATE 2013;
#X text 12 182 WEBSITE https://sites.google.com/site/eargram/;
#X text 12 162 AUTHOR Gilberto Bernardes;
#X text 12 25 KEYWORDS;
#X text 12 142 LIBRARY earGram_abs;
#X text 12 65 DESCRIPTION harmonic pitch class profile or chroma;
#X text 12 84 INLET_0 list;
#X text 13 103 INLET_1 float (nr peaks to analyze);
#X text 14 122 OUTLET_0 list (hpcp);
#X restore 577 428 pd META;
#X text 28 48 harmonic pitch class profile or chroma;
#N canvas 0 22 379 200 openFile 0;
#X obj 57 127 dac~;
#X obj 35 156 outlet~;
#X obj 217 32 openpanel;
#X obj 217 98 soundfiler;
#X obj 35 20 inlet;
#X obj 217 10 inlet;
#X obj 217 120 table \$0-sound;
#X obj 35 89 tabplay~ \$0-sound;
#X obj 217 54 pack s \$0;
#X msg 217 76 read -resize \$1 \$2-sound;
#X obj 35 42 sel 0 1;
#X msg 35 64 stop;
#X connect 2 0 8 0;
#X connect 4 0 10 0;
#X connect 5 0 2 0;
#X connect 7 0 0 0;
#X connect 7 0 0 1;
#X connect 7 0 1 0;
#X connect 8 0 9 0;
#X connect 9 0 3 0;
#X connect 10 0 11 0;
#X connect 10 1 7 0;
#X connect 11 0 7 0;
#X restore 22 129 pd openFile;
#X obj 85 105 bng 15 250 50 0 empty empty 1)open 17 7 0 10 -260097
-1 -1;
#X msg 168 231 npeak \$1;
#X obj 22 105 tgl 15 0 empty empty 2)play 17 7 0 10 -260097 -1 -1 0
1;
#X obj 97 319 bng 15 250 50 0 empty empty clear 17 7 0 10 -260097 -1
-1;
#N canvas 547 194 321 301 chromagram 0;
#X obj 34 29 inlet;
#N canvas 0 22 450 300 list 0;
#N canvas 0 22 199 262 drip 0;
#X obj 53 174 list split 1;
#X obj 53 91 until;
#X obj 53 129 list append;
#X obj 79 58 t b l;
#X obj 135 176 bang;
#X obj 79 31 inlet;
#X obj 53 199 outlet;
#X connect 0 0 6 0;
#X connect 0 1 2 1;
#X connect 0 2 4 0;
#X connect 1 0 2 0;
#X connect 2 0 0 0;
#X connect 3 0 1 0;
#X connect 3 1 2 1;
#X connect 4 0 1 1;
#X connect 5 0 3 0;
#X restore 152 84 pd drip;
#X obj 153 219 list prepend;
#X obj 251 219 t a;
#N canvas 0 22 450 300 dripslow 0;
#X obj 158 196 list split 1;
#X obj 158 171 list append;
#X obj 158 247 outlet;
#X obj 158 47 inlet;
#X obj 239 247 outlet;
#X obj 232 45 inlet;
#X obj 158 82 b;
#X text 275 46 list;
#X text 113 47 bang;
#X text 283 247 EOL;
#X text 99 246 element;
#X obj 239 217 b;
#X connect 0 0 2 0;
#X connect 0 1 1 1;
#X connect 0 2 11 0;
#X connect 1 0 0 0;
#X connect 3 0 6 0;
#X connect 5 0 1 1;
#X connect 6 0 1 0;
#X connect 11 0 4 0;
#X restore 205 141 pd dripslow;
#X obj 268 106 inlet;
#X obj 152 110 t f b;
#X obj 132 254 list;
#X obj 152 182 + 0;
#X obj 133 24 inlet;
#X obj 132 274 outlet;
#X obj 132 50 t b a b;
#X msg 167 157 0;
#X connect 0 0 5 0;
#X connect 1 0 2 0;
#X connect 1 0 6 1;
#X connect 2 0 1 1;
#X connect 3 0 7 1;
#X connect 4 0 3 1;
#X connect 5 0 7 0;
#X connect 5 1 3 0;
#X connect 6 0 9 0;
#X connect 7 0 1 0;
#X connect 8 0 10 0;
#X connect 10 0 6 0;
#X connect 10 1 0 0;
#X connect 10 2 1 1;
#X connect 10 2 11 0;
#X connect 11 0 7 1;
#X restore 75 76 pd list add;
#X obj 160 93 list;
#N canvas 0 22 579 459 list 0;
#X obj 138 130 route float;
#X obj 116 232 f;
#X obj 116 259 outlet;
#X obj 116 20 inlet;
#N canvas 0 22 450 300 once 0;
#X obj 110 75 inlet;
#X obj 105 187 spigot 1;
#X obj 110 104 t b f;
#X msg 125 151 0;
#X msg 165 99 1;
#X obj 165 63 inlet;
#X obj 102 219 outlet;
#X connect 0 0 2 0;
#X connect 1 0 6 0;
#X connect 2 0 3 0;
#X connect 2 1 1 0;
#X connect 3 0 1 1;
#X connect 4 0 1 1;
#X connect 5 0 4 0;
#X restore 204 158 pd once;
#X obj 177 199 f;
#X obj 146 198 max;
#X obj 116 40 t b a b;
#X text 331 193 prime [min] and [max] with first item once;
#X obj 138 160 t a a;
#N canvas 0 22 199 243 drip 0;
#X obj 53 174 list split 1;
#X obj 53 91 until;
#X obj 53 129 list append;
#X obj 79 58 t b l;
#X obj 135 176 bang;
#X obj 79 31 inlet;
#X obj 53 199 outlet;
#X connect 0 0 6 0;
#X connect 0 1 2 1;
#X connect 0 2 4 0;
#X connect 1 0 2 0;
#X connect 2 0 0 0;
#X connect 3 0 1 0;
#X connect 3 1 2 1;
#X connect 4 0 1 1;
#X connect 5 0 3 0;
#X restore 137 98 pd drip;
#X connect 0 0 9 0;
#X connect 1 0 2 0;
#X connect 3 0 7 0;
#X connect 4 0 6 1;
#X connect 5 0 6 1;
#X connect 6 0 5 0;
#X connect 6 0 1 1;
#X connect 7 0 1 0;
#X connect 7 1 10 0;
#X connect 7 2 4 1;
#X connect 9 0 6 0;
#X connect 9 1 4 0;
#X connect 10 0 0 0;
#X restore 167 119 pd list max;
#X obj 75 102 t l l;
#X obj 152 147 /;
#N canvas 381 107 467 423 list 0;
#X obj 96 43 inlet;
#X obj 285 62 inlet;
#X obj 161 362 outlet;
#X obj 180 258 outlet;
#X obj 161 327 list;
#X obj 285 225 list prepend;
#X obj 364 195 t a;
#X obj 161 165 t b a a b;
#X obj 96 68 route bang;
#X obj 96 93 b;
#X obj 161 94 t b a;
#X obj 161 134 list;
#N canvas 0 22 199 262 drip 0;
#X obj 53 174 list split 1;
#X obj 53 91 until;
#X obj 53 129 list append;
#X obj 79 58 t b l;
#X obj 135 176 bang;
#X obj 79 31 inlet;
#X obj 53 199 outlet;
#X connect 0 0 6 0;
#X connect 0 1 2 1;
#X connect 0 2 4 0;
#X connect 1 0 2 0;
#X connect 2 0 0 0;
#X connect 3 0 1 0;
#X connect 3 1 2 1;
#X connect 4 0 1 1;
#X connect 5 0 3 0;
#X restore 179 218 pd drip;
#X connect 0 0 8 0;
#X connect 1 0 5 0;
#X connect 4 0 2 0;
#X connect 5 0 6 0;
#X connect 5 0 4 1;
#X connect 6 0 5 1;
#X connect 7 0 4 0;
#X connect 7 1 12 0;
#X connect 7 2 4 1;
#X connect 7 3 5 1;
#X connect 8 0 9 0;
#X connect 8 1 10 0;
#X connect 9 0 11 0;
#X connect 10 0 11 0;
#X connect 10 1 11 1;
#X connect 11 0 7 0;
#X connect 12 0 3 0;
#X restore 75 149 pd list map;
#X obj 75 174 list prepend 0;
#X msg 260 184 const 0;
#X obj 260 162 inlet;
#X obj 75 201 s \$0-chromagramRT;
#X obj 34 239 list prepend 0;
#X obj 34 261 s \$0-chromaRT;
#X connect 0 0 1 0;
#X connect 0 0 11 0;
#X connect 1 0 2 0;
#X connect 1 0 4 0;
#X connect 2 0 1 1;
#X connect 3 0 5 1;
#X connect 4 0 6 0;
#X connect 4 1 3 0;
#X connect 5 0 6 1;
#X connect 6 0 7 0;
#X connect 6 1 5 0;
#X connect 7 0 10 0;
#X connect 8 0 10 0;
#X connect 8 0 12 0;
#X connect 9 0 8 0;
#X connect 9 0 2 0;
#X connect 11 0 12 0;
#X restore 22 341 pd chromagram;
#X msg 100 231 npts \$1;
#X obj 22 248 hpcp~ 20;
#X text 486 32 Gilberto Bernardes et al.;
#X text 582 47 INESC TEC;
#X obj 100 211 nbx 5 14 -1e+37 1e+37 0 0 empty empty empty 0 -8 0 10
-260097 -1 -1 0 256;
#X obj 168 211 nbx 5 14 -1e+37 1e+37 0 0 empty empty empty 0 -8 0 10
-260097 -1 -1 0 256;
#X connect 0 0 14 1;
#X connect 1 0 0 0;
#X connect 7 0 14 0;
#X connect 8 0 7 1;
#X connect 9 0 14 1;
#X connect 10 0 7 0;
#X connect 11 0 12 1;
#X connect 13 0 14 1;
#X connect 14 0 12 0;
#X connect 17 0 13 0;
#X connect 18 0 9 0;
