#N struct 1548-f float x float pos;
#N canvas 327 23 953 734 10;
#N canvas 0 22 450 300 \$0-f 0;
#X obj 59 51 struct \$0-f float x float pos;
#X restore 453 61 pd \$0-f;
#N canvas 0 22 450 300 \$0-sort 0;
#X scalar 1548-f 41.9264 121 \;;
#X scalar 1548-f 42.588 123 \;;
#X scalar 1548-f 42.6596 55 \;;
#X scalar 1548-f 42.8157 83 \;;
#X scalar 1548-f 42.8481 122 \;;
#X scalar 1548-f 43.0387 110 \;;
#X scalar 1548-f 43.065 120 \;;
#X scalar 1548-f 43.2218 19 \;;
#X scalar 1548-f 43.8869 115 \;;
#X scalar 1548-f 46.8159 159 \;;
#X scalar 1548-f 47.3597 155 \;;
#X scalar 1548-f 47.9454 450 \;;
#X scalar 1548-f 47.9766 158 \;;
#X scalar 1548-f 48.0334 45 \;;
#X scalar 1548-f 48.0738 381 \;;
#X scalar 1548-f 48.1694 38 \;;
#X scalar 1548-f 48.3564 370 \;;
#X scalar 1548-f 48.4125 129 \;;
#X scalar 1548-f 48.414 160 \;;
#X scalar 1548-f 48.5379 36 \;;
#X scalar 1548-f 48.5637 431 \;;
#X scalar 1548-f 48.6056 453 \;;
#X scalar 1548-f 48.7743 127 \;;
#X scalar 1548-f 49.0493 1 \;;
#X scalar 1548-f 49.053 287 \;;
#X scalar 1548-f 49.0762 58 \;;
#X scalar 1548-f 49.177 4 \;;
#X scalar 1548-f 49.4216 100 \;;
#X scalar 1548-f 49.6201 425 \;;
#X scalar 1548-f 49.679 128 \;;
#X scalar 1548-f 49.7059 157 \;;
#X scalar 1548-f 49.7333 454 \;;
#X scalar 1548-f 49.7507 59 \;;
#X scalar 1548-f 49.8826 85 \;;
#X scalar 1548-f 49.9609 138 \;;
#X scalar 1548-f 50.1018 433 \;;
#X scalar 1548-f 50.1341 430 \;;
#X scalar 1548-f 50.1618 72 \;;
#X scalar 1548-f 50.1726 156 \;;
#X scalar 1548-f 50.1783 71 \;;
#X scalar 1548-f 50.1842 74 \;;
#X scalar 1548-f 50.2134 87 \;;
#X scalar 1548-f 50.2363 136 \;;
#X scalar 1548-f 50.3176 324 \;;
#X scalar 1548-f 50.3189 56 \;;
#X scalar 1548-f 50.3729 451 \;;
#X scalar 1548-f 50.4084 23 \;;
#X scalar 1548-f 50.4127 114 \;;
#X scalar 1548-f 50.4495 57 \;;
#X scalar 1548-f 50.4823 102 \;;
#X scalar 1548-f 50.4918 81 \;;
#X scalar 1548-f 50.5154 12 \;;
#X scalar 1548-f 50.5481 9 \;;
#X scalar 1548-f 50.5725 146 \;;
#X scalar 1548-f 50.5956 314 \;;
#X scalar 1548-f 50.6531 203 \;;
#X scalar 1548-f 50.6539 325 \;;
#X scalar 1548-f 50.6769 48 \;;
#X scalar 1548-f 50.6929 124 \;;
#X scalar 1548-f 50.7067 380 \;;
#X scalar 1548-f 50.7263 86 \;;
#X scalar 1548-f 50.7282 125 \;;
#X scalar 1548-f 50.7478 53 \;;
#X scalar 1548-f 50.7887 455 \;;
#X scalar 1548-f 50.8196 35 \;;
#X scalar 1548-f 50.8379 241 \;;
#X scalar 1548-f 50.9012 145 \;;
#X scalar 1548-f 50.9672 383 \;;
#X scalar 1548-f 50.9753 37 \;;
#X scalar 1548-f 50.9828 440 \;;
#X scalar 1548-f 50.9979 441 \;;
#X scalar 1548-f 51.0559 432 \;;
#X scalar 1548-f 51.056 175 \;;
#X scalar 1548-f 51.1338 230 \;;
#X scalar 1548-f 51.2583 22 \;;
#X scalar 1548-f 51.2659 382 \;;
#X scalar 1548-f 51.296 148 \;;
#X scalar 1548-f 51.327 73 \;;
#X scalar 1548-f 51.3407 25 \;;
#X scalar 1548-f 51.3656 112 \;;
#X scalar 1548-f 51.4162 21 \;;
#X scalar 1548-f 51.4752 54 \;;
#X scalar 1548-f 51.5057 375 \;;
#X scalar 1548-f 51.5133 326 \;;
#X scalar 1548-f 51.5424 113 \;;
#X scalar 1548-f 51.5615 130 \;;
#X scalar 1548-f 51.843 109 \;;
#X scalar 1548-f 51.8647 452 \;;
#X scalar 1548-f 51.8939 164 \;;
#X scalar 1548-f 51.9159 118 \;;
#X scalar 1548-f 51.9908 135 \;;
#X scalar 1548-f 52 30 \;;
#X scalar 1548-f 52.0005 66 \;;
#X scalar 1548-f 52.0059 126 \;;
#X scalar 1548-f 52.0335 17 \;;
#X scalar 1548-f 52.0362 89 \;;
#X scalar 1548-f 52.0519 147 \;;
#X scalar 1548-f 52.0736 319 \;;
#X scalar 1548-f 52.1405 243 \;;
#X scalar 1548-f 52.18 442 \;;
#X scalar 1548-f 52.1913 99 \;;
#X scalar 1548-f 52.2904 327 \;;
#X scalar 1548-f 52.3499 490 \;;
#X scalar 1548-f 52.4127 61 \;;
#X scalar 1548-f 52.454 84 \;;
#X scalar 1548-f 52.5422 240 \;;
#X scalar 1548-f 52.5564 493 \;;
#X scalar 1548-f 52.6134 82 \;;
#X scalar 1548-f 52.6571 101 \;;
#X scalar 1548-f 52.738 242 \;;
#X scalar 1548-f 52.7727 117 \;;
#X scalar 1548-f 52.7776 137 \;;
#X scalar 1548-f 52.8032 119 \;;
#X scalar 1548-f 52.8909 111 \;;
#X scalar 1548-f 52.9306 116 \;;
#X scalar 1548-f 52.9774 94 \;;
#X scalar 1548-f 52.9836 491 \;;
#X scalar 1548-f 53.2341 443 \;;
#X scalar 1548-f 53.2483 20 \;;
#X scalar 1548-f 53.572 235 \;;
#X scalar 1548-f 53.665 474 \;;
#X scalar 1548-f 53.7051 18 \;;
#X scalar 1548-f 53.7621 415 \;;
#X scalar 1548-f 53.7638 43 \;;
#X scalar 1548-f 53.8343 470 \;;
#X scalar 1548-f 53.8417 419 \;;
#X scalar 1548-f 53.9436 161 \;;
#X scalar 1548-f 53.9929 8 \;;
#X scalar 1548-f 54.0114 279 \;;
#X scalar 1548-f 54.0809 396 \;;
#X scalar 1548-f 54.0986 359 \;;
#X scalar 1548-f 54.3359 44 \;;
#X scalar 1548-f 54.3538 80 \;;
#X scalar 1548-f 54.377 162 \;;
#X scalar 1548-f 54.4049 0 \;;
#X scalar 1548-f 54.4049 480 \;;
#X scalar 1548-f 54.4379 459 \;;
#X scalar 1548-f 54.4586 107 \;;
#X scalar 1548-f 54.4691 220 \;;
#X scalar 1548-f 54.4737 285 \;;
#X scalar 1548-f 54.5061 289 \;;
#X scalar 1548-f 54.5139 275 \;;
#X scalar 1548-f 54.582 372 \;;
#X scalar 1548-f 54.6875 456 \;;
#X scalar 1548-f 54.7088 304 \;;
#X scalar 1548-f 54.7398 79 \;;
#X scalar 1548-f 54.7557 418 \;;
#X scalar 1548-f 54.8093 165 \;;
#X scalar 1548-f 54.8781 78 \;;
#X scalar 1548-f 54.8867 387 \;;
#X scalar 1548-f 55.0702 6 \;;
#X scalar 1548-f 55.0768 163 \;;
#X scalar 1548-f 55.1023 473 \;;
#X scalar 1548-f 55.1183 42 \;;
#X scalar 1548-f 55.1385 143 \;;
#X scalar 1548-f 55.1735 52 \;;
#X scalar 1548-f 55.1819 50 \;;
#X scalar 1548-f 55.1963 278 \;;
#X scalar 1548-f 55.3002 16 \;;
#X scalar 1548-f 55.3067 75 \;;
#X scalar 1548-f 55.3068 168 \;;
#X scalar 1548-f 55.3757 461 \;;
#X scalar 1548-f 55.3773 256 \;;
#X scalar 1548-f 55.4171 388 \;;
#X scalar 1548-f 55.4267 192 \;;
#X scalar 1548-f 55.4744 290 \;;
#X scalar 1548-f 55.4776 7 \;;
#X scalar 1548-f 55.497 492 \;;
#X scalar 1548-f 55.5043 106 \;;
#X scalar 1548-f 55.5732 14 \;;
#X scalar 1548-f 55.5879 362 \;;
#X scalar 1548-f 55.5928 331 \;;
#X scalar 1548-f 55.6122 363 \;;
#X scalar 1548-f 55.6829 374 \;;
#X scalar 1548-f 55.7514 398 \;;
#X scalar 1548-f 55.7687 108 \;;
#X scalar 1548-f 55.7691 384 \;;
#X scalar 1548-f 55.7786 437 \;;
#X scalar 1548-f 55.7994 438 \;;
#X scalar 1548-f 55.8331 291 \;;
#X scalar 1548-f 55.8478 288 \;;
#X scalar 1548-f 55.8576 76 \;;
#X scalar 1548-f 55.8896 483 \;;
#X scalar 1548-f 55.9251 144 \;;
#X scalar 1548-f 55.9551 258 \;;
#X scalar 1548-f 55.9628 328 \;;
#X scalar 1548-f 55.9986 29 \;;
#X scalar 1548-f 56.0667 222 \;;
#X scalar 1548-f 56.1055 77 \;;
#X scalar 1548-f 56.1461 303 \;;
#X scalar 1548-f 56.1613 5 \;;
#X scalar 1548-f 56.1757 484 \;;
#X scalar 1548-f 56.2205 475 \;;
#X scalar 1548-f 56.2205 194 \;;
#X scalar 1548-f 56.2217 205 \;;
#X scalar 1548-f 56.2387 293 \;;
#X scalar 1548-f 56.2659 280 \;;
#X scalar 1548-f 56.2796 329 \;;
#X scalar 1548-f 56.282 460 \;;
#X scalar 1548-f 56.2865 209 \;;
#X scalar 1548-f 56.3029 39 \;;
#X scalar 1548-f 56.3184 472 \;;
#X scalar 1548-f 56.3288 406 \;;
#X scalar 1548-f 56.3366 51 \;;
#X scalar 1548-f 56.3457 191 \;;
#X scalar 1548-f 56.3457 439 \;;
#X scalar 1548-f 56.3637 340 \;;
#X scalar 1548-f 56.3657 434 \;;
#X scalar 1548-f 56.3811 360 \;;
#X scalar 1548-f 56.3811 333 \;;
#X scalar 1548-f 56.4093 103 \;;
#X scalar 1548-f 56.4422 201 \;;
#X scalar 1548-f 56.456 389 \;;
#X scalar 1548-f 56.5533 306 \;;
#X scalar 1548-f 56.5811 93 \;;
#X scalar 1548-f 56.6198 65 \;;
#X scalar 1548-f 56.6281 457 \;;
#X scalar 1548-f 56.6372 142 \;;
#X scalar 1548-f 56.6549 369 \;;
#X scalar 1548-f 56.6717 373 \;;
#X scalar 1548-f 56.699 316 \;;
#X scalar 1548-f 56.7394 49 \;;
#X scalar 1548-f 56.743 463 \;;
#X scalar 1548-f 56.7756 361 \;;
#X scalar 1548-f 56.7933 152 \;;
#X scalar 1548-f 56.8074 91 \;;
#X scalar 1548-f 56.8102 390 \;;
#X scalar 1548-f 56.8138 41 \;;
#X scalar 1548-f 56.8391 154 \;;
#X scalar 1548-f 56.8572 420 \;;
#X scalar 1548-f 56.8844 2 \;;
#X scalar 1548-f 56.8854 277 \;;
#X scalar 1548-f 56.8969 364 \;;
#X scalar 1548-f 56.9007 349 \;;
#X scalar 1548-f 56.9032 395 \;;
#X scalar 1548-f 56.9061 481 \;;
#X scalar 1548-f 56.9234 153 \;;
#X scalar 1548-f 56.9411 46 \;;
#X scalar 1548-f 56.9557 181 \;;
#X scalar 1548-f 56.9617 332 \;;
#X scalar 1548-f 56.9676 286 \;;
#X scalar 1548-f 56.9845 339 \;;
#X scalar 1548-f 56.9845 318 \;;
#X scalar 1548-f 56.9914 173 \;;
#X scalar 1548-f 57.0011 177 \;;
#X scalar 1548-f 57.0417 458 \;;
#X scalar 1548-f 57.087 247 \;;
#X scalar 1548-f 57.1115 317 \;;
#X scalar 1548-f 57.1458 149 \;;
#X scalar 1548-f 57.1559 178 \;;
#X scalar 1548-f 57.1675 342 \;;
#X scalar 1548-f 57.2036 207 \;;
#X scalar 1548-f 57.2065 315 \;;
#X scalar 1548-f 57.2078 417 \;;
#X scalar 1548-f 57.2167 27 \;;
#X scalar 1548-f 57.2369 371 \;;
#X scalar 1548-f 57.2407 471 \;;
#X scalar 1548-f 57.2408 179 \;;
#X scalar 1548-f 57.2459 427 \;;
#X scalar 1548-f 57.2467 139 \;;
#X scalar 1548-f 57.2553 266 \;;
#X scalar 1548-f 57.3207 248 \;;
#X scalar 1548-f 57.3278 313 \;;
#X scalar 1548-f 57.3585 350 \;;
#X scalar 1548-f 57.4093 447 \;;
#X scalar 1548-f 57.4434 193 \;;
#X scalar 1548-f 57.4992 219 \;;
#X scalar 1548-f 57.5107 305 \;;
#X scalar 1548-f 57.5325 482 \;;
#X scalar 1548-f 57.5368 15 \;;
#X scalar 1548-f 57.5584 3 \;;
#X scalar 1548-f 57.5589 10 \;;
#X scalar 1548-f 57.572 63 \;;
#X scalar 1548-f 57.5723 232 \;;
#X scalar 1548-f 57.5791 276 \;;
#X scalar 1548-f 57.5792 249 \;;
#X scalar 1548-f 57.601 334 \;;
#X scalar 1548-f 57.6011 255 \;;
#X scalar 1548-f 57.6012 234 \;;
#X scalar 1548-f 57.6388 377 \;;
#X scalar 1548-f 57.6439 416 \;;
#X scalar 1548-f 57.6516 40 \;;
#X scalar 1548-f 57.6516 385 \;;
#X scalar 1548-f 57.6588 67 \;;
#X scalar 1548-f 57.6877 485 \;;
#X scalar 1548-f 57.7111 444 \;;
#X scalar 1548-f 57.7206 134 \;;
#X scalar 1548-f 57.7471 298 \;;
#X scalar 1548-f 57.752 70 \;;
#X scalar 1548-f 57.753 435 \;;
#X scalar 1548-f 57.753 176 \;;
#X scalar 1548-f 57.7596 250 \;;
#X scalar 1548-f 57.7697 69 \;;
#X scalar 1548-f 57.7762 141 \;;
#X scalar 1548-f 57.8547 47 \;;
#X scalar 1548-f 57.8831 105 \;;
#X scalar 1548-f 57.8847 405 \;;
#X scalar 1548-f 57.8933 462 \;;
#X scalar 1548-f 57.9095 150 \;;
#X scalar 1548-f 57.911 428 \;;
#X scalar 1548-f 57.9301 206 \;;
#X scalar 1548-f 57.9562 330 \;;
#X scalar 1548-f 57.9649 68 \;;
#X scalar 1548-f 57.9664 426 \;;
#X scalar 1548-f 57.9684 320 \;;
#X scalar 1548-f 57.9704 34 \;;
#X scalar 1548-f 58.0221 397 \;;
#X scalar 1548-f 58.0292 429 \;;
#X scalar 1548-f 58.1045 221 \;;
#X scalar 1548-f 58.1186 322 \;;
#X scalar 1548-f 58.1242 436 \;;
#X scalar 1548-f 58.1328 132 \;;
#X scalar 1548-f 58.1403 244 \;;
#X scalar 1548-f 58.17 64 \;;
#X scalar 1548-f 58.18 186 \;;
#X scalar 1548-f 58.2569 445 \;;
#X scalar 1548-f 58.2723 96 \;;
#X scalar 1548-f 58.3003 62 \;;
#X scalar 1548-f 58.3134 494 \;;
#X scalar 1548-f 58.3168 265 \;;
#X scalar 1548-f 58.3776 151 \;;
#X scalar 1548-f 58.4184 32 \;;
#X scalar 1548-f 58.4439 60 \;;
#X scalar 1548-f 58.4464 104 \;;
#X scalar 1548-f 58.4467 257 \;;
#X scalar 1548-f 58.4734 386 \;;
#X scalar 1548-f 58.4818 268 \;;
#X scalar 1548-f 58.5123 321 \;;
#X scalar 1548-f 58.5421 408 \;;
#X scalar 1548-f 58.5491 341 \;;
#X scalar 1548-f 58.5814 214 \;;
#X scalar 1548-f 58.611 13 \;;
#X scalar 1548-f 58.6195 28 \;;
#X scalar 1548-f 58.6284 449 \;;
#X scalar 1548-f 58.6966 351 \;;
#X scalar 1548-f 58.7276 378 \;;
#X scalar 1548-f 58.7484 98 \;;
#X scalar 1548-f 58.7577 233 \;;
#X scalar 1548-f 58.784 140 \;;
#X scalar 1548-f 58.819 352 \;;
#X scalar 1548-f 58.9163 92 \;;
#X scalar 1548-f 58.9163 448 \;;
#X scalar 1548-f 58.9438 88 \;;
#X scalar 1548-f 58.9479 204 \;;
#X scalar 1548-f 58.9645 133 \;;
#X scalar 1548-f 59.0062 33 \;;
#X scalar 1548-f 59.0145 376 \;;
#X scalar 1548-f 59.0229 174 \;;
#X scalar 1548-f 59.0533 131 \;;
#X scalar 1548-f 59.0675 424 \;;
#X scalar 1548-f 59.13 24 \;;
#X scalar 1548-f 59.1892 229 \;;
#X scalar 1548-f 59.1924 407 \;;
#X scalar 1548-f 59.1978 245 \;;
#X scalar 1548-f 59.221 11 \;;
#X scalar 1548-f 59.2795 379 \;;
#X scalar 1548-f 59.3673 267 \;;
#X scalar 1548-f 59.3993 479 \;;
#X scalar 1548-f 59.4063 284 \;;
#X scalar 1548-f 59.4181 26 \;;
#X scalar 1548-f 59.4477 323 \;;
#X scalar 1548-f 59.4737 90 \;;
#X scalar 1548-f 59.5117 202 \;;
#X scalar 1548-f 59.5126 231 \;;
#X scalar 1548-f 59.5219 368 \;;
#X scalar 1548-f 59.5263 97 \;;
#X scalar 1548-f 59.5415 365 \;;
#X scalar 1548-f 59.5619 31 \;;
#X scalar 1548-f 59.6778 403 \;;
#X scalar 1548-f 59.728 170 \;;
#X scalar 1548-f 59.7446 246 \;;
#X scalar 1548-f 59.8427 95 \;;
#X scalar 1548-f 59.9001 311 \;;
#X scalar 1548-f 59.9102 227 \;;
#X scalar 1548-f 60.0138 307 \;;
#X scalar 1548-f 60.0333 446 \;;
#X scalar 1548-f 60.075 237 \;;
#X scalar 1548-f 60.1136 310 \;;
#X scalar 1548-f 60.2431 421 \;;
#X scalar 1548-f 60.3714 172 \;;
#X scalar 1548-f 60.437 238 \;;
#X scalar 1548-f 60.4481 199 \;;
#X scalar 1548-f 60.4778 422 \;;
#X scalar 1548-f 60.5089 366 \;;
#X scalar 1548-f 60.5391 295 \;;
#X scalar 1548-f 60.571 477 \;;
#X scalar 1548-f 60.675 263 \;;
#X scalar 1548-f 60.7367 239 \;;
#X scalar 1548-f 60.7431 476 \;;
#X scalar 1548-f 60.8775 198 \;;
#X scalar 1548-f 60.9275 236 \;;
#X scalar 1548-f 60.9883 211 \;;
#X scalar 1548-f 60.9994 195 \;;
#X scalar 1548-f 61.0021 166 \;;
#X scalar 1548-f 61.0033 281 \;;
#X scalar 1548-f 61.0148 282 \;;
#X scalar 1548-f 61.0205 402 \;;
#X scalar 1548-f 61.0603 226 \;;
#X scalar 1548-f 61.084 486 \;;
#X scalar 1548-f 61.0964 200 \;;
#X scalar 1548-f 61.104 399 \;;
#X scalar 1548-f 61.1798 312 \;;
#X scalar 1548-f 61.1955 297 \;;
#X scalar 1548-f 61.2766 367 \;;
#X scalar 1548-f 61.2836 347 \;;
#X scalar 1548-f 61.3123 489 \;;
#X scalar 1548-f 61.4241 213 \;;
#X scalar 1548-f 61.5666 343 \;;
#X scalar 1548-f 61.5758 223 \;;
#X scalar 1548-f 61.6189 171 \;;
#X scalar 1548-f 61.7391 169 \;;
#X scalar 1548-f 61.7556 185 \;;
#X scalar 1548-f 61.8783 404 \;;
#X scalar 1548-f 61.8783 346 \;;
#X scalar 1548-f 61.8816 228 \;;
#X scalar 1548-f 61.9347 183 \;;
#X scalar 1548-f 61.9673 468 \;;
#X scalar 1548-f 62.0045 464 \;;
#X scalar 1548-f 62.0081 308 \;;
#X scalar 1548-f 62.0574 392 \;;
#X scalar 1548-f 62.0968 353 \;;
#X scalar 1548-f 62.1111 309 \;;
#X scalar 1548-f 62.1185 348 \;;
#X scalar 1548-f 62.1838 262 \;;
#X scalar 1548-f 62.202 487 \;;
#X scalar 1548-f 62.2165 264 \;;
#X scalar 1548-f 62.2373 478 \;;
#X scalar 1548-f 62.2374 197 \;;
#X scalar 1548-f 62.2876 294 \;;
#X scalar 1548-f 62.3395 467 \;;
#X scalar 1548-f 62.3449 196 \;;
#X scalar 1548-f 62.4162 300 \;;
#X scalar 1548-f 62.4492 283 \;;
#X scalar 1548-f 62.4724 259 \;;
#X scalar 1548-f 62.5322 423 \;;
#X scalar 1548-f 62.5341 409 \;;
#X scalar 1548-f 62.5892 296 \;;
#X scalar 1548-f 62.5999 292 \;;
#X scalar 1548-f 62.6069 356 \;;
#X scalar 1548-f 62.6613 412 \;;
#X scalar 1548-f 62.6745 413 \;;
#X scalar 1548-f 62.8165 345 \;;
#X scalar 1548-f 62.9433 354 \;;
#X scalar 1548-f 62.9583 401 \;;
#X scalar 1548-f 62.9929 469 \;;
#X scalar 1548-f 63.0469 167 \;;
#X scalar 1548-f 63.0856 336 \;;
#X scalar 1548-f 63.0901 394 \;;
#X scalar 1548-f 63.0906 344 \;;
#X scalar 1548-f 63.132 488 \;;
#X scalar 1548-f 63.2149 299 \;;
#X scalar 1548-f 63.2343 182 \;;
#X scalar 1548-f 63.2855 357 \;;
#X scalar 1548-f 63.3012 335 \;;
#X scalar 1548-f 63.3253 184 \;;
#X scalar 1548-f 63.3678 225 \;;
#X scalar 1548-f 63.375 273 \;;
#X scalar 1548-f 63.4197 358 \;;
#X scalar 1548-f 63.4852 261 \;;
#X scalar 1548-f 63.4932 216 \;;
#X scalar 1548-f 63.5204 338 \;;
#X scalar 1548-f 63.5274 188 \;;
#X scalar 1548-f 63.5631 272 \;;
#X scalar 1548-f 63.5822 252 \;;
#X scalar 1548-f 63.6033 302 \;;
#X scalar 1548-f 63.6351 466 \;;
#X scalar 1548-f 63.6399 269 \;;
#X scalar 1548-f 63.6603 212 \;;
#X scalar 1548-f 63.7049 301 \;;
#X scalar 1548-f 63.705 465 \;;
#X scalar 1548-f 63.7333 180 \;;
#X scalar 1548-f 63.8145 254 \;;
#X scalar 1548-f 63.8664 208 \;;
#X scalar 1548-f 63.8819 400 \;;
#X scalar 1548-f 63.8853 391 \;;
#X scalar 1548-f 63.8907 355 \;;
#X scalar 1548-f 63.9222 190 \;;
#X scalar 1548-f 63.9352 210 \;;
#X scalar 1548-f 63.9363 187 \;;
#X scalar 1548-f 63.9866 337 \;;
#X scalar 1548-f 64.0376 414 \;;
#X scalar 1548-f 64.1153 224 \;;
#X scalar 1548-f 64.1557 274 \;;
#X scalar 1548-f 64.2028 393 \;;
#X scalar 1548-f 64.2196 189 \;;
#X scalar 1548-f 64.4459 218 \;;
#X scalar 1548-f 64.5651 410 \;;
#X scalar 1548-f 64.588 260 \;;
#X scalar 1548-f 64.8548 411 \;;
#X scalar 1548-f 64.9758 251 \;;
#X scalar 1548-f 65.0659 270 \;;
#X scalar 1548-f 65.0935 253 \;;
#X scalar 1548-f 65.1605 271 \;;
#X scalar 1548-f 65.3581 217 \;;
#X scalar 1548-f 65.4302 215 \;;
#X restore 453 91 pd \$0-sort;
#X obj 245 238 pointer;
#X msg 245 214 traverse \$1 \, bang;
#X msg 372 190 clear;
#X obj 372 214 s pd-\$0-sort;
#X obj 103 138 t b a b b;
#X obj 348 407 s pd-\$0-sort;
#X msg 348 384 sort;
#X obj 103 53 inlet;
#X obj 245 190 symbol pd-\$0-sort;
#X obj 120 448 pointer;
#X obj 120 400 symbol pd-\$0-sort;
#X msg 120 424 traverse \$1 \, next;
#X obj 147 610 list prepend;
#X obj 103 650 list;
#X msg 181 448 next;
#X obj 120 475 t b p;
#X obj 103 675 outlet;
#X obj 665 21 loadbang;
#X obj 593 59 inlet;
#X obj 593 196 s \$0-direction;
#X obj 281 610 list append;
#N canvas 0 22 552 424 direction 0;
#X obj 40 52 inlet;
#X obj 255 49 inlet;
#X obj 40 266 spigot 1;
#X obj 153 266 spigot;
#X obj 255 223 unpack 0 0;
#X msg 255 177 1 0;
#X msg 306 195 0 1;
#X obj 357 92 select 0;
#X obj 255 70 select asc desc;
#X obj 40 317 outlet;
#X obj 153 322 outlet;
#X connect 0 0 2 0;
#X connect 0 0 3 0;
#X connect 1 0 8 0;
#X connect 2 0 9 0;
#X connect 3 0 10 0;
#X connect 4 0 2 1;
#X connect 4 1 3 1;
#X connect 5 0 4 0;
#X connect 6 0 4 0;
#X connect 7 0 5 0;
#X connect 7 1 6 0;
#X connect 8 0 5 0;
#X connect 8 1 6 0;
#X connect 8 2 7 0;
#X restore 147 534 pd direction;
#X obj 437 503 r \$0-direction;
#N canvas 0 22 450 300 list-drip 0;
#X obj 162 88 t a b;
#N canvas 473 338 450 300 count 0;
#X obj 131 154 f 0;
#X obj 156 153 + 1;
#X msg 147 133 0;
#X obj 131 183 outlet;
#X obj 131 59 inlet;
#X obj 131 96 b;
#X obj 178 61 inlet;
#X obj 178 98 b;
#X connect 0 0 1 0;
#X connect 0 0 3 0;
#X connect 1 0 0 1;
#X connect 2 0 0 1;
#X connect 4 0 5 0;
#X connect 5 0 0 0;
#X connect 6 0 7 0;
#X connect 7 0 2 0;
#X restore 241 180 pd count;
#X obj 162 138 t a b;
#X obj 162 58 inlet;
#X obj 162 206 list prepend;
#X obj 162 234 outlet;
#X obj 220 234 outlet;
#N canvas 0 22 450 300 list-drip 0;
#X obj 73 94 t a a;
#X obj 73 251 spigot;
#X obj 112 159 bang;
#X obj 112 178 1;
#X obj 233 159 route bang;
#X obj 193 160 bang;
#X obj 193 179 0;
#X obj 112 124 list split 2;
#X obj 242 389 list split;
#X obj 309 338 list length;
#X obj 309 360 >> 1;
#X obj 73 270 t a a a a;
#X obj 73 456 list split;
#X obj 140 408 list length;
#X obj 140 433 >> 1;
#X obj 41 29 inlet;
#X obj 300 185 outlet;
#X text 83 29 Copyright 2009 by Mathieu Bouchard;
#X obj 41 63 t b a;
#X obj 475 129 outlet;
#X text 530 131 signal end of list;
#X text 391 33 made compatible with [list-drip]: fbar 2009;
#X connect 0 0 1 0;
#X connect 0 1 7 0;
#X connect 1 0 11 0;
#X connect 2 0 3 0;
#X connect 3 0 1 1;
#X connect 4 1 16 0;
#X connect 5 0 6 0;
#X connect 6 0 1 1;
#X connect 7 0 2 0;
#X connect 7 2 4 0;
#X connect 7 2 5 0;
#X connect 8 0 0 0;
#X connect 9 0 10 0;
#X connect 10 0 8 1;
#X connect 11 0 12 0;
#X connect 11 1 13 0;
#X connect 11 2 8 0;
#X connect 11 3 9 0;
#X connect 12 1 0 0;
#X connect 13 0 14 0;
#X connect 14 0 12 1;
#X connect 15 0 18 0;
#X connect 18 0 19 0;
#X connect 18 1 0 0;
#X restore 162 113 pd list-drip;
#X connect 0 0 7 0;
#X connect 0 1 1 1;
#X connect 1 0 4 1;
#X connect 2 0 4 0;
#X connect 2 1 1 0;
#X connect 3 0 0 0;
#X connect 4 0 5 0;
#X connect 7 0 2 0;
#X connect 7 1 6 0;
#X restore 120 179 pd list-drip;
#X text 694 497 2011 Frank Barknecht;
#X obj 147 503 get \$0-f x pos;
#X obj 334 556 list prepend;
#X obj 468 556 list append;
#N canvas 0 23 552 424 direction 0;
#X obj 40 52 inlet;
#X obj 255 49 inlet;
#X obj 40 266 spigot 1;
#X obj 153 266 spigot;
#X obj 255 223 unpack 0 0;
#X msg 255 177 1 0;
#X msg 306 195 0 1;
#X obj 357 92 select 0;
#X obj 255 70 select asc desc;
#X obj 40 317 outlet;
#X obj 153 322 outlet;
#X connect 0 0 2 0;
#X connect 0 0 3 0;
#X connect 1 0 8 0;
#X connect 2 0 9 0;
#X connect 3 0 10 0;
#X connect 4 0 2 1;
#X connect 4 1 3 1;
#X connect 5 0 4 0;
#X connect 6 0 4 0;
#X connect 7 0 5 0;
#X connect 7 1 6 0;
#X connect 8 0 5 0;
#X connect 8 1 6 0;
#X connect 8 2 7 0;
#X restore 296 520 pd direction;
#X obj 456 666 list;
#X obj 456 690 outlet;
#X obj 120 255 append \$0-f pos x;
#X obj 593 87 t b a;
#X obj 593 168 list append;
#X obj 665 70 symbol \$1;
#X obj 620 114 route symbol;
#X obj 734 70 symbol asc;
#X obj 665 45 t b b;
#X text 503 685 (indexes);
#X text 150 674 (sorted list);
#X obj 103 328 t b b b b b;
#X obj 242 610 t l;
#X obj 376 610 t l;
#X obj 429 556 t l;
#X obj 563 556 t l;
#X connect 2 0 33 2;
#X connect 3 0 2 0;
#X connect 4 0 5 0;
#X connect 6 0 42 0;
#X connect 6 1 25 0;
#X connect 6 2 10 0;
#X connect 6 3 4 0;
#X connect 8 0 7 0;
#X connect 9 0 6 0;
#X connect 10 0 3 0;
#X connect 11 0 17 0;
#X connect 12 0 13 0;
#X connect 13 0 11 0;
#X connect 14 0 15 1;
#X connect 14 0 43 0;
#X connect 15 0 18 0;
#X connect 16 0 11 0;
#X connect 17 0 16 0;
#X connect 17 1 27 0;
#X connect 19 0 39 0;
#X connect 20 0 34 0;
#X connect 22 0 15 1;
#X connect 22 0 44 0;
#X connect 23 0 14 0;
#X connect 23 1 22 0;
#X connect 24 0 23 1;
#X connect 24 0 30 1;
#X connect 25 0 33 0;
#X connect 27 0 23 0;
#X connect 27 1 30 0;
#X connect 28 0 31 1;
#X connect 28 0 45 0;
#X connect 29 0 31 1;
#X connect 29 0 46 0;
#X connect 30 0 28 0;
#X connect 30 1 29 0;
#X connect 31 0 32 0;
#X connect 34 0 35 0;
#X connect 34 1 37 0;
#X connect 35 0 21 0;
#X connect 36 0 34 0;
#X connect 37 0 35 1;
#X connect 38 0 34 0;
#X connect 39 0 36 0;
#X connect 39 1 38 0;
#X connect 42 0 15 0;
#X connect 42 1 31 0;
#X connect 42 2 12 0;
#X connect 42 3 14 1;
#X connect 42 3 22 1;
#X connect 42 3 28 1;
#X connect 42 3 29 1;
#X connect 42 4 8 0;
#X connect 43 0 14 1;
#X connect 44 0 22 1;
#X connect 45 0 28 1;
#X connect 46 0 29 1;
