#N canvas 0 23 637 595 10;
#X obj 25 -70 inlet;
#X obj 270 -70 inlet;
#X obj 52 86 list length;
#N canvas 516 127 450 300 sum 0;
#X obj 222 146 f 0;
#X obj 192 145 + 1;
#X obj 222 121 0;
#X obj 192 61 inlet;
#X obj 192 181 outlet;
#X obj 192 93 route float;
#X obj 293 104 r \$0-reset;
#X connect 0 0 1 1;
#X connect 1 0 0 0;
#X connect 1 0 4 0;
#X connect 2 0 0 0;
#X connect 3 0 5 0;
#X connect 5 0 1 0;
#X connect 6 0 2 0;
#X restore 174 241 pd sum;
#X obj 25 146 list-drip;
#X obj 174 190 list-dripslow;
#X obj 27 207 *;
#N canvas 516 127 450 300 sum 0;
#X obj 222 146 f 0;
#X obj 192 145 + 1;
#X obj 222 121 0;
#X obj 192 61 inlet;
#X obj 192 181 outlet;
#X obj 192 93 route float;
#X obj 293 104 r \$0-reset;
#X connect 0 0 1 1;
#X connect 1 0 0 0;
#X connect 1 0 4 0;
#X connect 2 0 0 0;
#X connect 3 0 5 0;
#X connect 5 0 1 0;
#X connect 6 0 2 0;
#X restore -50 241 pd sum;
#N canvas 516 127 450 300 sum 0;
#X obj 222 146 f 0;
#X obj 192 145 + 1;
#X obj 222 121 0;
#X obj 192 61 inlet;
#X obj 192 181 outlet;
#X obj 192 93 route float;
#X obj 293 104 r \$0-reset;
#X connect 0 0 1 1;
#X connect 1 0 0 0;
#X connect 1 0 4 0;
#X connect 2 0 0 0;
#X connect 3 0 5 0;
#X connect 5 0 1 0;
#X connect 6 0 2 0;
#X restore 27 241 pd sum;
#X obj 88 242 pow 2;
#N canvas 516 127 450 300 sum 0;
#X obj 222 146 f 0;
#X obj 222 121 0;
#X obj 192 61 inlet;
#X obj 192 181 outlet;
#X obj 192 93 route float;
#X obj 293 104 r \$0-reset;
#X obj 192 145 + 1;
#X connect 0 0 6 1;
#X connect 1 0 0 0;
#X connect 2 0 4 0;
#X connect 4 0 6 0;
#X connect 5 0 1 0;
#X connect 6 0 0 0;
#X connect 6 0 3 0;
#X restore 88 273 pd sum;
#X obj 23 382 f;
#N canvas 516 127 450 300 sum 0;
#X obj 222 146 f 0;
#X obj 192 145 + 1;
#X obj 222 121 0;
#X obj 192 61 inlet;
#X obj 192 181 outlet;
#X obj 192 93 route float;
#X obj 293 104 r \$0-reset;
#X connect 0 0 1 1;
#X connect 1 0 0 0;
#X connect 1 0 4 0;
#X connect 2 0 0 0;
#X connect 3 0 5 0;
#X connect 5 0 1 0;
#X connect 6 0 2 0;
#X restore 251 273 pd sum;
#X obj 251 239 pow 2;
#X obj 24 455 outlet;
#X obj 25 173 t f b;
#X obj 142 73 s \$0-reset;
#X obj 25 56 t l l b;
#X obj 24 415 expr ($f1*$f2-$f3*$f4)/(sqrt(($f1*$f5-pow($f3 \, 2))*($f1*$f6-pow($f4
\, 2))));
#X obj 249 151 list;
#X obj 25 -43 route corr;
#N canvas 279 30 450 300 dump_lists 0;
#X obj 14 14 inlet;
#X obj 19 260 outlet;
#X obj 291 257 outlet;
#X obj 291 200 tabdump \$1;
#X obj 26 146 tabdump;
#X msg 51 119 set \$1;
#X obj 28 66 t b s b;
#X obj 26 41 symbol;
#X connect 0 0 7 0;
#X connect 3 0 2 0;
#X connect 4 0 1 0;
#X connect 5 0 4 0;
#X connect 6 0 4 0;
#X connect 6 1 5 0;
#X connect 6 2 3 0;
#X connect 7 0 6 0;
#X restore 25 -1 pd dump_lists;
#X connect 0 0 20 0;
#X connect 1 0 19 1;
#X connect 2 0 11 1;
#X connect 3 0 18 3;
#X connect 4 0 15 0;
#X connect 4 1 11 0;
#X connect 5 0 6 1;
#X connect 5 0 3 0;
#X connect 5 0 13 0;
#X connect 6 0 8 0;
#X connect 7 0 18 2;
#X connect 8 0 18 1;
#X connect 9 0 10 0;
#X connect 10 0 18 4;
#X connect 11 0 18 0;
#X connect 12 0 18 5;
#X connect 13 0 12 0;
#X connect 15 0 9 0;
#X connect 15 0 6 0;
#X connect 15 0 7 0;
#X connect 15 1 5 0;
#X connect 17 0 4 0;
#X connect 17 1 2 0;
#X connect 17 2 16 0;
#X connect 17 2 19 0;
#X connect 18 0 14 0;
#X connect 19 0 5 1;
#X connect 20 0 21 0;
#X connect 20 1 17 0;
#X connect 21 0 17 0;
#X connect 21 1 19 1;
