#N canvas 525 23 447 502 10;
#X obj 79 51 inlet;
#X obj 335 40 inlet;
#X obj 79 452 outlet;
#X obj 310 163 list;
#X obj 99 299 route float;
#X obj 236 273 route float;
#X obj 79 78 t b a b b;
#X obj 99 369 +;
#X obj 79 397 f;
#X obj 131 368 f 0;
#X obj 341 351 0;
#X obj 99 174 t a b;
#X obj 79 424 sqrt;
#X obj 99 325 expr pow($f1-$f2 \, 2);
#N canvas 188 98 705 575 drip 0;
#X obj 73 94 t a a;
#X obj 73 251 spigot;
#X obj 112 159 bang;
#X obj 112 178 1;
#X obj 233 159 route bang;
#X obj 193 160 bang;
#X obj 193 179 0;
#X obj 112 124 list split 2;
#X obj 242 389 list split;
#X obj 309 338 list length;
#X obj 309 360 >> 1;
#X obj 73 270 t a a a a;
#X obj 73 456 list split;
#X obj 140 408 list length;
#X obj 140 433 >> 1;
#X obj 41 29 inlet;
#X obj 300 185 outlet;
#X text 83 29 Copyright 2009 by Mathieu Bouchard;
#X obj 41 63 t b a;
#X connect 0 0 1 0;
#X connect 0 1 7 0;
#X connect 1 0 11 0;
#X connect 2 0 3 0;
#X connect 3 0 1 1;
#X connect 4 1 16 0;
#X connect 5 0 6 0;
#X connect 6 0 1 1;
#X connect 7 0 2 0;
#X connect 7 2 4 0;
#X connect 7 2 5 0;
#X connect 8 0 0 0;
#X connect 9 0 10 0;
#X connect 10 0 8 1;
#X connect 11 0 12 0;
#X connect 11 1 13 0;
#X connect 11 2 8 0;
#X connect 11 3 9 0;
#X connect 12 1 0 0;
#X connect 13 0 14 0;
#X connect 14 0 12 1;
#X connect 15 0 18 0;
#X connect 18 1 0 0;
#X restore 99 150 pd drip;
#N canvas 233 201 450 300 dripslow 0;
#X obj 158 196 list split 1;
#X obj 158 171 list append;
#X obj 158 247 outlet;
#X obj 158 47 inlet;
#X obj 239 247 outlet;
#X obj 232 45 inlet;
#X obj 158 82 b;
#X text 275 46 list;
#X text 113 47 bang;
#X text 283 247 EOL;
#X text 99 246 element;
#X obj 239 217 b;
#X connect 0 0 2 0;
#X connect 0 1 1 1;
#X connect 0 2 11 0;
#X connect 1 0 0 0;
#X connect 3 0 6 0;
#X connect 5 0 1 1;
#X connect 6 0 1 0;
#X connect 11 0 4 0;
#X restore 236 246 pd dripslow;
#X connect 0 0 6 0;
#X connect 1 0 3 1;
#X connect 3 0 15 1;
#X connect 4 0 13 0;
#X connect 5 0 13 1;
#X connect 6 0 8 0;
#X connect 6 1 14 0;
#X connect 6 2 3 0;
#X connect 6 3 10 0;
#X connect 7 0 9 0;
#X connect 7 0 8 1;
#X connect 8 0 12 0;
#X connect 9 0 7 1;
#X connect 10 0 9 0;
#X connect 11 0 4 0;
#X connect 11 1 15 0;
#X connect 12 0 2 0;
#X connect 13 0 7 0;
#X connect 14 0 11 0;
#X connect 15 0 5 0;
