#N canvas 525 23 585 502 10;
#N canvas 176 282 486 509 sortbasedonA 0;
#X obj 40 73 inlet;
#X text 35 59 list A;
#X obj 220 77 inlet;
#X text 215 63 list B;
#X obj 40 416 outlet;
#X text 29 433 list A sorted;
#X obj 188 424 outlet;
#X text 178 440 list B ordered acorrding to list A sorting;
#X obj 40 94 sort;
#X obj 149 253 packel;
#X obj 149 225 list;
#X obj 149 206 t b f;
#X obj 84 166 list split 1;
#X obj 84 189 t b f;
#X obj 110 244 list;
#X obj 149 283 list prepend;
#X obj 233 286 list;
#X obj 72 112 t b a b;
#X msg 288 222 bang;
#X obj 72 300 list;
#X obj 173 165 + 1;
#X text 40 16 sort two lists based on the ascending order of the one
on the left;
#X connect 0 0 8 0;
#X connect 2 0 10 1;
#X connect 8 0 4 0;
#X connect 8 1 17 0;
#X connect 9 0 15 0;
#X connect 10 0 9 0;
#X connect 11 0 10 0;
#X connect 11 1 9 1;
#X connect 12 0 13 0;
#X connect 12 1 14 1;
#X connect 13 0 14 0;
#X connect 13 1 20 0;
#X connect 14 0 12 0;
#X connect 15 0 16 0;
#X connect 15 0 19 1;
#X connect 16 0 15 1;
#X connect 17 0 19 0;
#X connect 17 1 12 0;
#X connect 17 2 18 0;
#X connect 18 0 15 1;
#X connect 19 0 6 0;
#X connect 20 0 11 0;
#X restore 40 73 pd sortbasedonA;
#X obj 67 160 list length;
#N canvas 722 377 450 300 ascedinglist 0;
#X obj 44 15 inlet;
#X obj 31 231 outlet;
#X obj 123 169 list;
#X obj 45 169 list prepend;
#X obj 44 86 t b f b;
#X obj 25 205 list;
#N canvas 829 499 450 300 for 0;
#X obj 34 13 inlet;
#X obj 46 253 outlet;
#X obj 46 48 t f b;
#X obj 46 75 until;
#X obj 54 108 f;
#X obj 91 109 + 1;
#X msg 99 70 0;
#X connect 0 0 2 0;
#X connect 2 0 3 0;
#X connect 2 1 6 0;
#X connect 3 0 4 0;
#X connect 4 0 5 0;
#X connect 4 0 1 0;
#X connect 5 0 4 1;
#X connect 6 0 4 1;
#X restore 45 111 pd for;
#X connect 0 0 4 0;
#X connect 2 0 3 1;
#X connect 3 0 2 0;
#X connect 3 0 5 1;
#X connect 4 0 5 0;
#X connect 4 1 6 0;
#X connect 4 2 3 1;
#X connect 5 0 1 0;
#X connect 6 0 3 0;
#X restore 67 179 pd ascedinglist;
#X obj 40 140 t a a;
#N canvas 598 353 450 388 addlist 0;
#X obj 76 27 inlet;
#X obj 89 102 list split 1;
#X obj 89 125 t b f;
#X obj 115 180 list;
#X obj 154 219 list prepend;
#X obj 238 222 list;
#X obj 77 48 t b a b;
#X msg 293 158 bang;
#X obj 77 236 list;
#X obj 171 162 + 1;
#X obj 77 259 outlet;
#X obj 243 25 inlet;
#X connect 0 0 6 0;
#X connect 1 0 2 0;
#X connect 1 1 3 1;
#X connect 2 0 3 0;
#X connect 2 1 9 0;
#X connect 3 0 1 0;
#X connect 4 0 5 0;
#X connect 4 0 8 1;
#X connect 5 0 4 1;
#X connect 6 0 8 0;
#X connect 6 1 1 0;
#X connect 6 2 7 0;
#X connect 7 0 4 1;
#X connect 8 0 10 0;
#X connect 9 0 4 0;
#X connect 11 0 9 1;
#X restore 67 199 pd addlist;
#X obj 171 165 loadbang;
#X msg 171 185 1;
#X obj 127 94 sort;
#N canvas 596 358 450 388 addlist 0;
#X obj 76 27 inlet;
#X obj 89 102 list split 1;
#X obj 89 125 t b f;
#X obj 115 180 list;
#X obj 154 219 list prepend;
#X obj 238 222 list;
#X obj 77 48 t b a b;
#X msg 293 158 bang;
#X obj 77 236 list;
#X obj 171 162 + 1;
#X obj 77 259 outlet;
#X obj 243 25 inlet;
#X connect 0 0 6 0;
#X connect 1 0 2 0;
#X connect 1 1 3 1;
#X connect 2 0 3 0;
#X connect 2 1 9 0;
#X connect 3 0 1 0;
#X connect 4 0 5 0;
#X connect 4 0 8 1;
#X connect 5 0 4 1;
#X connect 6 0 8 0;
#X connect 6 1 1 0;
#X connect 6 2 7 0;
#X connect 7 0 4 1;
#X connect 8 0 10 0;
#X connect 9 0 4 0;
#X connect 11 0 9 1;
#X restore 300 212 pd addlist;
#X obj 357 92 loadbang;
#X msg 357 112 1;
#X obj 148 114 sort;
#N canvas 594 363 450 388 sqrtlist 0;
#X obj 76 27 inlet;
#X obj 89 102 list split 1;
#X obj 115 180 list;
#X obj 154 219 list prepend;
#X obj 238 222 list;
#X obj 77 48 t b a b;
#X msg 293 158 bang;
#X obj 77 236 list;
#X obj 77 259 outlet;
#X obj 89 125 t b f f;
#X obj 171 162 *;
#X connect 0 0 5 0;
#X connect 1 0 9 0;
#X connect 1 1 2 1;
#X connect 2 0 1 0;
#X connect 3 0 4 0;
#X connect 3 0 7 1;
#X connect 4 0 3 1;
#X connect 5 0 7 0;
#X connect 5 1 1 0;
#X connect 5 2 6 0;
#X connect 6 0 3 1;
#X connect 7 0 8 0;
#X connect 9 0 2 0;
#X connect 9 1 10 0;
#X connect 9 2 10 1;
#X connect 10 0 3 0;
#X restore 67 249 pd sqrtlist;
#X obj 67 290 sum;
#X obj 67 311 * 6;
#X obj 67 367 /;
#X obj 94 344 - 1;
#X obj 94 364 *;
#X obj 94 305 t f f f;
#X obj 94 325 *;
#X obj 67 268 t a a;
#X obj 94 286 list length;
#X obj 67 386 - 1;
#X obj 67 405 * -1;
#X obj 40 48 inlet;
#X obj 127 51 inlet;
#X text 34 33 list A;
#X text 124 35 list B;
#X obj 67 425 outlet;
#X text 203 43 calculate spearman's rank correlation between two lists
of same length;
#N canvas 0 23 653 486 list-sub 0;
#X obj 59 31 inlet;
#X obj 287 28 inlet;
#X obj 59 437 outlet;
#X obj 264 131 list;
#X obj 78 262 route float;
#X obj 178 262 route float;
#X obj 78 162 t a b b;
#X obj 78 379 list prepend;
#X obj 182 396 t a;
#X obj 59 404 list;
#X obj 59 58 t b a b b;
#N canvas 0 22 737 538 drip 0;
#X obj 73 94 t a a;
#X obj 73 251 spigot;
#X obj 112 159 bang;
#X obj 112 178 1;
#X obj 233 159 route bang;
#X obj 193 160 bang;
#X obj 193 179 0;
#X obj 112 124 list split 2;
#X obj 242 389 list split;
#X obj 309 338 list length;
#X obj 309 360 >> 1;
#X obj 73 270 t a a a a;
#X obj 73 456 list split;
#X obj 140 408 list length;
#X obj 140 433 >> 1;
#X obj 73 32 inlet;
#X obj 300 185 outlet;
#X text 115 30 Copyright 2009 by Mathieu Bouchard;
#X connect 0 0 1 0;
#X connect 0 1 7 0;
#X connect 1 0 11 0;
#X connect 2 0 3 0;
#X connect 3 0 1 1;
#X connect 4 1 16 0;
#X connect 5 0 6 0;
#X connect 6 0 1 1;
#X connect 7 0 2 0;
#X connect 7 2 4 0;
#X connect 7 2 5 0;
#X connect 8 0 0 0;
#X connect 9 0 10 0;
#X connect 10 0 8 1;
#X connect 11 0 12 0;
#X connect 11 1 13 0;
#X connect 11 2 8 0;
#X connect 11 3 9 0;
#X connect 12 1 0 0;
#X connect 13 0 14 0;
#X connect 14 0 12 1;
#X connect 15 0 0 0;
#X restore 79 135 pd drip;
#N canvas 0 22 737 538 drip-slow 0;
#X obj 158 196 list split 1;
#X obj 158 171 list append;
#X obj 158 247 outlet;
#X obj 158 47 inlet;
#X obj 221 47 inlet;
#X obj 158 82 b;
#X connect 0 0 2 0;
#X connect 0 1 1 1;
#X connect 1 0 0 0;
#X connect 3 0 5 0;
#X connect 4 0 1 1;
#X connect 5 0 1 0;
#X restore 178 237 pd drip-slow;
#X obj 78 322 - 0;
#X connect 0 0 10 0;
#X connect 1 0 3 1;
#X connect 3 0 12 1;
#X connect 4 0 13 0;
#X connect 4 1 7 0;
#X connect 5 0 13 1;
#X connect 6 0 4 0;
#X connect 6 1 12 0;
#X connect 7 0 8 0;
#X connect 7 0 9 1;
#X connect 8 0 7 1;
#X connect 9 0 2 0;
#X connect 10 0 9 0;
#X connect 10 1 11 0;
#X connect 10 2 3 0;
#X connect 10 3 7 1;
#X connect 11 0 6 0;
#X connect 12 0 5 0;
#X connect 13 0 7 0;
#X restore 67 226 pd list-sub;
#X connect 0 0 3 0;
#X connect 0 1 7 0;
#X connect 1 0 2 0;
#X connect 2 0 4 0;
#X connect 3 1 1 0;
#X connect 4 0 30 0;
#X connect 5 0 6 0;
#X connect 6 0 4 1;
#X connect 7 1 11 0;
#X connect 8 0 30 1;
#X connect 9 0 10 0;
#X connect 10 0 8 1;
#X connect 11 1 8 0;
#X connect 12 0 20 0;
#X connect 13 0 14 0;
#X connect 14 0 15 0;
#X connect 15 0 22 0;
#X connect 16 0 17 0;
#X connect 17 0 15 1;
#X connect 18 0 19 0;
#X connect 18 1 19 1;
#X connect 18 2 17 1;
#X connect 19 0 16 0;
#X connect 20 0 13 0;
#X connect 20 1 21 0;
#X connect 21 0 18 0;
#X connect 22 0 23 0;
#X connect 23 0 28 0;
#X connect 24 0 0 0;
#X connect 25 0 0 1;
#X connect 30 0 12 0;
