#N canvas 572 68 464 592 10;
#X obj 16 26 inlet;
#X obj 16 80 list length;
#X obj 31 132 expr pow(2 \, $f1);
#X obj 31 157 until;
#X obj 161 189 expr fact($i1) / (fact($i1-$i2) * fact($i2));
#X obj 162 55 inlet;
#X obj 162 131 f 3;
#N canvas 650 393 630 381 dec2bin 0;
#X obj 59 6 inlet;
#X obj 80 222 f;
#X obj 149 30 inlet;
#X obj 134 72 f;
#X obj 134 123 until;
#X obj 134 148 f;
#X obj 166 148 + 1;
#X obj 134 96 t f b;
#X obj 202 131 0;
#X obj 134 172 t b f;
#X obj 80 270 list prepend;
#X obj 173 287 t l;
#X obj 59 32 t b b f b;
#X obj 59 305 list;
#X obj 59 331 outlet;
#X text 258 22 Start from 0 to 2^length and convert each number to
binary string padded with zeroes in front.;
#X obj 356 173 &;
#X obj 410 152 expr pow (2 \, $f1);
#X obj 353 230 >>;
#X connect 0 0 12 0;
#X connect 1 0 16 0;
#X connect 2 0 3 1;
#X connect 3 0 7 0;
#X connect 4 0 5 0;
#X connect 5 0 6 0;
#X connect 5 0 9 0;
#X connect 6 0 5 1;
#X connect 7 0 4 0;
#X connect 7 1 8 0;
#X connect 8 0 5 1;
#X connect 9 0 1 0;
#X connect 9 1 18 1;
#X connect 9 1 17 0;
#X connect 10 0 11 0;
#X connect 10 0 13 1;
#X connect 11 0 10 1;
#X connect 12 0 13 0;
#X connect 12 1 3 0;
#X connect 12 2 1 1;
#X connect 12 3 10 1;
#X connect 13 0 14 0;
#X connect 16 0 18 0;
#X connect 17 0 16 1;
#X connect 18 0 10 0;
#X restore 31 229 pd dec2bin;
#X obj 31 194 f;
#X obj 60 194 + 1;
#X obj 93 165 0;
#X obj 77 307 list-accum;
#X obj 77 332 == 3;
#X obj 16 104 t b f f f b;
#X obj 175 308 outlet;
#X obj 233 308 outlet;
#X obj 44 355 spigot;
#X obj 61 421 list-drip2;
#X obj 61 478 spigot;
#X obj 61 506 list prepend;
#X obj 153 523 t l;
#X obj 42 538 list;
#X obj 42 566 outlet;
#X obj 61 448 swap;
#X obj 42 382 t b l b;
#X obj 118 399 list;
#X obj 16 52 t l l;
#X obj 31 254 t l l;
#X obj 210 93 f \$1;
#X obj 209 71 loadbang;
#X connect 0 0 26 0;
#X connect 1 0 13 0;
#X connect 2 0 3 0;
#X connect 3 0 8 0;
#X connect 4 0 15 0;
#X connect 5 0 6 0;
#X connect 6 0 4 1;
#X connect 6 0 12 1;
#X connect 7 0 27 0;
#X connect 8 0 9 0;
#X connect 8 0 7 0;
#X connect 9 0 8 1;
#X connect 10 0 8 1;
#X connect 11 0 12 0;
#X connect 12 0 16 1;
#X connect 13 0 14 0;
#X connect 13 1 2 0;
#X connect 13 2 7 1;
#X connect 13 3 4 0;
#X connect 13 4 6 0;
#X connect 13 4 10 0;
#X connect 16 0 24 0;
#X connect 17 0 23 0;
#X connect 17 1 23 1;
#X connect 18 0 19 0;
#X connect 19 0 20 0;
#X connect 19 0 21 1;
#X connect 20 0 19 1;
#X connect 21 0 22 0;
#X connect 23 0 18 0;
#X connect 23 1 18 1;
#X connect 24 0 21 0;
#X connect 24 1 17 0;
#X connect 24 2 19 1;
#X connect 24 2 25 0;
#X connect 25 0 17 1;
#X connect 26 0 1 0;
#X connect 26 1 25 1;
#X connect 27 0 16 0;
#X connect 27 1 11 0;
#X connect 28 0 6 1;
#X connect 29 0 28 0;
