#N canvas 420 23 739 744 10;
#X obj 67 26 inlet;
#N canvas 188 98 705 575 drip 0;
#X obj 73 94 t a a;
#X obj 73 251 spigot;
#X obj 112 159 bang;
#X obj 112 178 1;
#X obj 233 159 route bang;
#X obj 193 160 bang;
#X obj 193 179 0;
#X obj 112 124 list split 2;
#X obj 242 389 list split;
#X obj 309 338 list length;
#X obj 309 360 >> 1;
#X obj 73 270 t a a a a;
#X obj 73 456 list split;
#X obj 140 408 list length;
#X obj 140 433 >> 1;
#X obj 41 29 inlet;
#X obj 300 185 outlet;
#X text 83 29 Copyright 2009 by Mathieu Bouchard;
#X obj 41 63 t b a;
#X connect 0 0 1 0;
#X connect 0 1 7 0;
#X connect 1 0 11 0;
#X connect 2 0 3 0;
#X connect 3 0 1 1;
#X connect 4 1 16 0;
#X connect 5 0 6 0;
#X connect 6 0 1 1;
#X connect 7 0 2 0;
#X connect 7 2 4 0;
#X connect 7 2 5 0;
#X connect 8 0 0 0;
#X connect 9 0 10 0;
#X connect 10 0 8 1;
#X connect 11 0 12 0;
#X connect 11 1 13 0;
#X connect 11 2 8 0;
#X connect 11 3 9 0;
#X connect 12 1 0 0;
#X connect 13 0 14 0;
#X connect 14 0 12 1;
#X connect 15 0 18 0;
#X connect 18 1 0 0;
#X restore 86 74 pd drip;
#X obj 86 627 pack f f;
#X obj 131 579 abs;
#X obj 131 602 expr $f2*if($f1<=$f3 \, pow(cos(($f1/$f3)*1.57079) \,
2) \, 0);
#N canvas 452 189 791 420 acum 0;
#X obj 200 43 route 0 1 2 3 4 5 6 7 8 9 10 11;
#X obj -33 212 +;
#X obj -8 211 f;
#X obj 22 212 +;
#X obj 47 211 f;
#X obj 82 212 +;
#X obj 110 212 f;
#X obj 142 210 +;
#X obj 171 209 f;
#X obj 117 -9 inlet;
#X obj 452 -6 inlet;
#X msg 636 119 0;
#X obj 204 211 +;
#X obj 231 211 f;
#X obj 257 209 +;
#X obj 284 209 f;
#X obj 315 205 +;
#X obj 342 205 f;
#X obj 377 202 +;
#X obj 404 202 f;
#X obj 435 204 +;
#X obj 462 204 f;
#X obj 496 204 +;
#X obj 523 204 f;
#X obj 560 202 +;
#X obj 587 202 f;
#X obj 621 201 +;
#X obj 648 201 f;
#X obj -6 408 outlet;
#X obj -40 351 pack 0 f f f f f f f f f f f f;
#X obj -40 380 list split 1;
#X obj 117 13 route bang, f 15;
#X connect 0 0 1 0;
#X connect 0 1 3 0;
#X connect 0 2 5 0;
#X connect 0 3 7 0;
#X connect 0 4 12 0;
#X connect 0 5 14 0;
#X connect 0 6 16 0;
#X connect 0 7 18 0;
#X connect 0 8 20 0;
#X connect 0 9 22 0;
#X connect 0 10 24 0;
#X connect 0 11 26 0;
#X connect 1 0 2 0;
#X connect 1 0 29 1;
#X connect 2 0 1 1;
#X connect 3 0 4 0;
#X connect 3 0 29 2;
#X connect 4 0 3 1;
#X connect 5 0 6 0;
#X connect 5 0 29 3;
#X connect 6 0 5 1;
#X connect 7 0 8 0;
#X connect 7 0 29 4;
#X connect 8 0 7 1;
#X connect 9 0 31 0;
#X connect 10 0 11 0;
#X connect 11 0 1 1;
#X connect 11 0 3 1;
#X connect 11 0 5 1;
#X connect 11 0 7 1;
#X connect 11 0 12 1;
#X connect 11 0 14 1;
#X connect 11 0 16 1;
#X connect 11 0 18 1;
#X connect 11 0 20 1;
#X connect 11 0 22 1;
#X connect 11 0 24 1;
#X connect 11 0 26 1;
#X connect 11 0 29 12;
#X connect 11 0 29 11;
#X connect 11 0 29 10;
#X connect 11 0 29 9;
#X connect 11 0 29 8;
#X connect 11 0 29 7;
#X connect 11 0 29 6;
#X connect 11 0 29 5;
#X connect 11 0 29 4;
#X connect 11 0 29 3;
#X connect 11 0 29 2;
#X connect 11 0 29 1;
#X connect 12 0 13 0;
#X connect 12 0 29 5;
#X connect 13 0 12 1;
#X connect 14 0 15 0;
#X connect 14 0 29 6;
#X connect 15 0 14 1;
#X connect 16 0 17 0;
#X connect 16 0 29 7;
#X connect 17 0 16 1;
#X connect 18 0 19 0;
#X connect 18 0 29 8;
#X connect 19 0 18 1;
#X connect 20 0 21 0;
#X connect 20 0 29 9;
#X connect 21 0 20 1;
#X connect 22 0 23 0;
#X connect 22 0 29 10;
#X connect 23 0 22 1;
#X connect 24 0 25 0;
#X connect 24 0 29 11;
#X connect 25 0 24 1;
#X connect 26 0 27 0;
#X connect 26 0 29 12;
#X connect 27 0 26 1;
#X connect 29 0 30 0;
#X connect 30 1 28 0;
#X connect 31 0 29 0;
#X connect 31 1 0 0;
#X restore 67 655 pd acum;
#X obj 67 685 outlet;
#X obj 520 552 loadbang;
#X obj 86 170 until;
#X obj 86 192 f;
#X obj 86 126 t b f b;
#X obj 114 192 + 1;
#X obj 210 231 *;
#X obj 86 99 mtof;
#X obj 203 175 1;
#X obj 67 49 t b l b;
#N canvas 0 22 450 300 dripslow 0;
#X obj 148 186 list split 1;
#X obj 148 161 list append;
#X obj 148 237 outlet;
#X obj 148 37 inlet;
#X obj 229 237 outlet;
#X obj 222 35 inlet;
#X obj 148 72 b;
#X text 265 36 list;
#X text 103 37 bang;
#X text 273 237 EOL;
#X text 89 236 element;
#X obj 229 207 b;
#X connect 0 0 2 0;
#X connect 0 1 1 1;
#X connect 0 2 11 0;
#X connect 1 0 0 0;
#X connect 3 0 6 0;
#X connect 5 0 1 1;
#X connect 6 0 1 0;
#X connect 11 0 4 0;
#X restore 86 337 pd dripslow;
#X msg 160 252 0.595 0.335 0.23 0.137 0.141 0.106 0.101 0.07 0.076
0.063 0.06 0.058 0.045 0.034 0.029 0.026 0.018 0.015 0.013 0.012 0.011
0.008 0.008 0.008 0.007 0.006 0.006 0.006 0.005 0.006 0.004 0.004 0.003
0.003 0.003 0.002 0.002 0.001 0.001 0.001 0.001 0.001 0.001;
#X obj 86 149 43;
#X obj 520 576 1.33333;
#X obj 167 338 expr pow(0.6 \, $f1-1);
#X text 581 258 Average Spectrum;
#X text 299 337 Gómez;
#X obj 86 389 swap;
#X obj 86 412 ftom;
#X obj 86 549 % 12;
#X obj 86 479 until;
#X obj 86 501 f;
#X obj 115 501 + 1;
#X obj 151 462 - 6;
#X obj 86 435 t b f;
#X obj 86 457 12;
#X obj 151 484 i;
#X obj 86 523 t f f;
#X obj 131 556 -;
#X text 398 39 midi (+ 43 harm) to chroma;
#X obj 295 22 inlet;
#X obj 86 214 t b f f;
#X obj 86 359 spigot 1;
#X obj 167 360 spigot 0;
#X obj 295 84 == 0;
#X obj 582 603 pack;
#X obj 582 625 list prepend;
#X obj 687 642 t l;
#X obj 557 649 list;
#X obj 557 671 outlet;
#X connect 0 0 15 0;
#X connect 1 0 13 0;
#X connect 2 0 5 0;
#X connect 3 0 4 0;
#X connect 4 0 2 1;
#X connect 5 0 6 0;
#X connect 7 0 19 0;
#X connect 8 0 9 0;
#X connect 9 0 11 0;
#X connect 9 0 37 0;
#X connect 10 0 18 0;
#X connect 10 1 12 1;
#X connect 10 2 14 0;
#X connect 10 2 17 0;
#X connect 11 0 9 1;
#X connect 12 0 23 1;
#X connect 13 0 10 0;
#X connect 14 0 9 1;
#X connect 15 0 5 0;
#X connect 15 0 44 0;
#X connect 15 1 1 0;
#X connect 15 2 5 1;
#X connect 15 2 42 1;
#X connect 16 0 38 0;
#X connect 17 0 16 1;
#X connect 18 0 8 0;
#X connect 19 0 4 2;
#X connect 20 0 39 0;
#X connect 23 0 24 0;
#X connect 23 0 41 0;
#X connect 23 1 4 1;
#X connect 23 1 41 1;
#X connect 24 0 30 0;
#X connect 25 0 2 0;
#X connect 26 0 27 0;
#X connect 27 0 28 0;
#X connect 27 0 33 0;
#X connect 28 0 27 1;
#X connect 29 0 32 0;
#X connect 30 0 31 0;
#X connect 30 1 29 0;
#X connect 30 1 34 1;
#X connect 31 0 26 0;
#X connect 32 0 27 1;
#X connect 33 0 25 0;
#X connect 33 1 34 0;
#X connect 34 0 3 0;
#X connect 36 0 40 0;
#X connect 36 0 39 1;
#X connect 37 0 16 0;
#X connect 37 1 20 0;
#X connect 37 2 12 0;
#X connect 38 0 23 0;
#X connect 39 0 23 0;
#X connect 40 0 38 1;
#X connect 41 0 42 0;
#X connect 42 0 43 0;
#X connect 42 0 44 1;
#X connect 43 0 42 1;
#X connect 44 0 45 0;
