#N canvas 1061 754 391 328 10;
#X obj 67 259 outlet;
#X msg 143 95 0 0 0 0 0 0 0 0 0 0 0 0;
#X obj 67 232 list;
#X obj 168 215 t l;
#X obj 86 153 t b f;
#X text 194 39 pitch classes to chroma;
#X obj 67 40 inlet;
#X obj 86 176 1;
#X obj 67 79 t b l b;
#N canvas 188 98 705 575 drip 0;
#X obj 73 94 t a a;
#X obj 73 251 spigot;
#X obj 112 159 bang;
#X obj 112 178 1;
#X obj 233 159 route bang;
#X obj 193 160 bang;
#X obj 193 179 0;
#X obj 112 124 list split 2;
#X obj 242 389 list split;
#X obj 309 338 list length;
#X obj 309 360 >> 1;
#X obj 73 270 t a a a a;
#X obj 73 456 list split;
#X obj 140 408 list length;
#X obj 140 433 >> 1;
#X obj 41 29 inlet;
#X obj 300 185 outlet;
#X text 83 29 Copyright 2009 by Mathieu Bouchard;
#X obj 41 63 t b a;
#X connect 0 0 1 0;
#X connect 0 1 7 0;
#X connect 1 0 11 0;
#X connect 2 0 3 0;
#X connect 3 0 1 1;
#X connect 4 1 16 0;
#X connect 5 0 6 0;
#X connect 6 0 1 1;
#X connect 7 0 2 0;
#X connect 7 2 4 0;
#X connect 7 2 5 0;
#X connect 8 0 0 0;
#X connect 9 0 10 0;
#X connect 10 0 8 1;
#X connect 11 0 12 0;
#X connect 11 1 13 0;
#X connect 11 2 8 0;
#X connect 11 3 9 0;
#X connect 12 1 0 0;
#X connect 13 0 14 0;
#X connect 14 0 12 1;
#X connect 15 0 18 0;
#X connect 18 1 0 0;
#X restore 86 108 pd drip;
#N canvas 369 23 294 371 replace 0;
#X obj 31 137 list;
#X obj 136 47 inlet;
#X obj 88 47 inlet;
#X text 94 23 pos;
#X obj 31 49 inlet;
#X obj 31 280 outlet;
#X obj 88 74 t f f;
#X obj 93 215 list prepend;
#X obj 31 164 list split;
#X obj 59 189 list split 1;
#X obj 31 71 t b f;
#X text 140 21 origal list;
#X text 23 25 element;
#X obj 31 243 list append;
#X connect 0 0 8 0;
#X connect 1 0 0 1;
#X connect 2 0 6 0;
#X connect 4 0 10 0;
#X connect 6 0 8 1;
#X connect 7 0 13 1;
#X connect 8 0 13 0;
#X connect 8 1 9 0;
#X connect 9 1 7 0;
#X connect 10 0 0 0;
#X connect 10 1 7 1;
#X connect 13 0 5 0;
#X restore 86 199 pd replace;
#X obj 86 131 % 12;
#X connect 1 0 10 2;
#X connect 2 0 0 0;
#X connect 3 0 10 2;
#X connect 4 0 7 0;
#X connect 4 1 10 1;
#X connect 6 0 8 0;
#X connect 7 0 10 0;
#X connect 8 0 2 0;
#X connect 8 1 9 0;
#X connect 8 2 1 0;
#X connect 9 0 11 0;
#X connect 10 0 3 0;
#X connect 10 0 2 1;
#X connect 11 0 4 0;
