#N canvas 733 23 547 372 10;
#X obj 12 6 cnv 15 500 60 empty empty midi2hpcp 20 12 0 14 -233017
-66577 0;
#N canvas 420 330 494 344 META 0;
#X text 12 45 LICENSE GPL v3;
#X text 12 178 RELEASE_DATE 2013;
#X text 12 158 WEBSITE https://sites.google.com/site/eargram/;
#X text 12 138 AUTHOR Gilberto Bernardes;
#X text 12 25 KEYWORDS;
#X text 12 118 LIBRARY earGram_abs;
#X text 12 65 DESCRIPTION plots geometric figures in a plan;
#X text 12 84 INLET_0 clear dimen point circle filledCircle square
filledSquare rectangle filled rectangle;
#X restore 461 338 pd META;
#X text 321 31 Gilberto Bernardes et al.;
#X text 433 47 INESC TEC;
#X msg 76 148 0 4 7;
#X text 122 147 C major chord;
#X text 277 181 C major scale;
#X text 64 111 C;
#X obj 33 250 list prepend set;
#X obj 33 272 list trim;
#X msg 33 294 1.35823 0.417268 0.648456 0.416292 1.49888 0.413594 0.421205
1.67731 0.539505 0.275008 0.338292 0.751925;
#X msg 127 181 60 62 64 65 67 69 71;
#X msg 33 112 72;
#X text 30 47 MIDI note numbers to harmonic pitch class profile;
#X obj 33 198 midi2hpcp;
#X connect 4 0 14 0;
#X connect 8 0 9 0;
#X connect 9 0 10 0;
#X connect 11 0 14 0;
#X connect 12 0 14 0;
#X connect 14 0 8 0;
