#N canvas 315 23 525 367 10;
#X obj 12 6 cnv 15 500 60 empty empty pc2chroma 20 12 0 14 -233017
-66577 0;
#N canvas 420 330 494 344 META 0;
#X text 12 45 LICENSE GPL v3;
#X text 12 178 RELEASE_DATE 2013;
#X text 12 158 WEBSITE https://sites.google.com/site/eargram/;
#X text 12 138 AUTHOR Gilberto Bernardes;
#X text 12 25 KEYWORDS;
#X text 12 118 LIBRARY earGram_abs;
#X text 12 65 DESCRIPTION plots geometric figures in a plan;
#X text 12 84 INLET_0 clear dimen point circle filledCircle square
filledSquare rectangle filled rectangle;
#X restore 452 338 pd META;
#X text 330 32 Gilberto Bernardes et al.;
#X text 442 47 INESC TEC;
#X msg 76 148 0 4 7;
#X text 122 147 C major chord;
#X text 255 180 C major scale;
#X text 64 111 C;
#X obj 33 250 list prepend set;
#X obj 33 272 list trim;
#X obj 33 198 midi2chroma;
#X msg 33 294 1 0 1 0 1 1 0 1 0 1 0 1;
#X msg 127 181 60 62 64 65 67 69 71;
#X msg 33 112 0;
#X text 30 47 MIDI note numbers to chroma vectors;
#X connect 4 0 10 0;
#X connect 8 0 9 0;
#X connect 9 0 11 0;
#X connect 10 0 8 0;
#X connect 12 0 10 0;
#X connect 13 0 10 0;
