#N canvas 0 23 450 300 10;
#X text 295 169 z=z;
#X text 294 141 x=r*cos(phi);
#X text 295 156 y=r*sin(phi);
#X obj 99 82 inlet r;
#X obj 179 82 inlet phi;
#X obj 82 331 outlet x;
#X obj 179 331 outlet y;
#X obj 156 153 t f f;
#X obj 156 177 cos;
#X obj 186 177 sin;
#X obj 82 201 t f f;
#X obj 82 237 * 1;
#X obj 112 236 * 0;
#X text 63 26 convert polar to cartesian coordinates;
#X text 341 8 part of zexy;
#X obj 99 105 pack f f;
#X obj 99 125 unpack 0 0;
#X connect 3 0 15 0;
#X connect 4 0 15 1;
#X connect 7 0 8 0;
#X connect 7 1 9 0;
#X connect 8 0 11 1;
#X connect 9 0 12 1;
#X connect 10 0 11 0;
#X connect 10 1 12 0;
#X connect 11 0 5 0;
#X connect 12 0 6 0;
#X connect 15 0 16 0;
#X connect 16 0 10 0;
#X connect 16 1 7 0;
