#N canvas 163 23 1070 699 10;
#X obj 19 20 inlet;
#X obj 19 49 route add clear dimensions nrCases;
#X obj 69 155 s \$0-clear;
#X obj 119 133 s \$0-dimensions;
#X obj 169 111 s \$0-nrCases;
#X obj 19 337 f;
#X obj 19 408 until;
#X obj 19 362 t f b f;
#X obj 19 435 f;
#X obj 48 435 + 1;
#X obj 82 418 0;
#X obj 540 78 r \$0-clear;
#X obj 334 15 inlet;
#X obj 334 213 outlet;
#X obj 257 47 loadbang;
#X obj 257 74 t b b;
#X obj 257 97 \$1;
#X obj 284 116 \$2;
#X obj 570 164 array define \$0-distances;
#X obj 540 228 array define \$0-featureVectors;
#X msg 540 103 const 0;
#X obj 334 184 array get \$0-distances;
#X obj 398 95 r \$0-nrCases;
#X obj 334 112 *;
#X obj 732 81 r \$0-nrCases;
#X obj 732 103 t f f;
#X obj 732 125 *;
#X msg 732 147 resize \$1;
#X obj 886 41 r \$0-dimensions;
#X obj 827 189 *;
#X obj 886 63 t b f;
#X msg 827 211 resize \$1;
#X obj 38 302 array set \$0-featureVectors;
#X obj 19 233 t b l b;
#X obj 117 250 f;
#X obj 132 205 r \$0-clear;
#X obj 132 227 0;
#X obj 325 544 array get \$0-featureVectors;
#X obj 325 522 *;
#X obj 20 710 array set \$0-distances;
#X obj 257 626 *;
#X obj 242 650 +;
#X obj 382 626 *;
#X obj 382 650 +;
#X obj 160 710 array set \$0-distances;
#X obj 19 531 array get \$0-featureVectors;
#X obj 19 510 *;
#X obj 19 457 t f f;
#X obj 438 609 r \$0-nrCases;
#X obj 827 163 f 1;
#X obj 176 255 r \$0-dimensions;
#X obj 144 250 + 1;
#X obj 117 272 *;
#X obj 404 505 r \$0-dimensions;
#X obj 98 493 r \$0-dimensions;
#X obj 334 37 route float bang;
#X obj 378 60 t b b;
#X obj 417 140 -1;
#X obj 379 141 f;
#X obj 334 59 t f b;
#X obj 19 561 list-euclid;
#X connect 0 0 1 0;
#X connect 1 0 33 0;
#X connect 1 1 2 0;
#X connect 1 2 3 0;
#X connect 1 3 4 0;
#X connect 5 0 7 0;
#X connect 6 0 8 0;
#X connect 7 0 6 0;
#X connect 7 1 10 0;
#X connect 7 2 38 0;
#X connect 7 2 43 1;
#X connect 7 2 40 0;
#X connect 8 0 9 0;
#X connect 8 0 47 0;
#X connect 9 0 8 1;
#X connect 10 0 8 1;
#X connect 11 0 20 0;
#X connect 12 0 55 0;
#X connect 14 0 15 0;
#X connect 15 0 16 0;
#X connect 15 1 17 0;
#X connect 16 0 4 0;
#X connect 17 0 3 0;
#X connect 20 0 19 0;
#X connect 20 0 18 0;
#X connect 21 0 13 0;
#X connect 22 0 23 1;
#X connect 22 0 58 1;
#X connect 23 0 21 0;
#X connect 24 0 25 0;
#X connect 24 0 29 0;
#X connect 24 0 49 1;
#X connect 25 0 26 0;
#X connect 25 1 26 1;
#X connect 26 0 27 0;
#X connect 27 0 18 0;
#X connect 28 0 30 0;
#X connect 29 0 31 0;
#X connect 30 0 49 0;
#X connect 30 1 29 1;
#X connect 31 0 19 0;
#X connect 33 0 5 0;
#X connect 33 1 32 0;
#X connect 33 2 34 0;
#X connect 34 0 5 1;
#X connect 34 0 51 0;
#X connect 34 0 52 0;
#X connect 35 0 36 0;
#X connect 36 0 34 1;
#X connect 37 0 60 1;
#X connect 38 0 37 0;
#X connect 40 0 41 1;
#X connect 41 0 39 1;
#X connect 42 0 43 0;
#X connect 43 0 44 1;
#X connect 45 0 60 0;
#X connect 46 0 45 0;
#X connect 47 0 46 0;
#X connect 47 1 41 0;
#X connect 47 1 42 0;
#X connect 48 0 42 1;
#X connect 48 0 40 1;
#X connect 49 0 29 0;
#X connect 50 0 52 1;
#X connect 51 0 34 1;
#X connect 52 0 32 1;
#X connect 53 0 38 1;
#X connect 53 0 37 1;
#X connect 54 0 46 1;
#X connect 54 0 45 1;
#X connect 55 0 59 0;
#X connect 55 1 56 0;
#X connect 56 0 21 0;
#X connect 56 1 57 0;
#X connect 57 0 21 1;
#X connect 58 0 21 1;
#X connect 59 0 23 0;
#X connect 59 1 58 0;
#X connect 60 0 39 0;
#X connect 60 0 44 0;
