#N canvas 253 23 395 366 10;
#X obj 105 34 inlet;
#N canvas 785 533 717 421 group2 0;
#X obj 180 50 inlet;
#X obj 180 302 outlet;
#X obj 180 183 list prepend;
#X obj 180 138 until;
#X obj 261 270 t b a;
#X obj 261 153 list prepend;
#X obj 341 128 t b b f;
#X obj 387 164 max 1;
#X obj 180 81 t b l b;
#X obj 180 228 list split 2;
#X obj 341 104 f 2;
#X connect 0 0 8 0;
#X connect 2 0 9 0;
#X connect 3 0 2 0;
#X connect 4 0 3 1;
#X connect 4 1 5 1;
#X connect 5 0 2 1;
#X connect 6 0 2 1;
#X connect 6 1 5 1;
#X connect 6 2 7 0;
#X connect 7 0 9 1;
#X connect 8 0 3 0;
#X connect 8 1 5 0;
#X connect 8 2 10 0;
#X connect 9 0 1 0;
#X connect 9 1 2 1;
#X connect 9 2 4 0;
#X connect 10 0 6 0;
#X restore 241 112 pd group2;
#X obj 242 176 list prepend;
#X obj 331 192 t l;
#X obj 180 190 list;
#X obj 60 333 outlet;
#X msg 135 288 \$1 \$6 \$4 \$3 \$5 \$2;
#X obj 180 244 == 0;
#X obj 60 268 spigot 1;
#X obj 135 268 spigot 0;
#X obj 242 154 atan2;
#X msg 242 134 \$2 \$1;
#X obj 105 55 route ordered;
#X obj 180 82 t b l b, f 21;
#X connect 0 0 12 0;
#X connect 1 0 11 0;
#X connect 2 0 3 0;
#X connect 2 0 4 1;
#X connect 3 0 2 1;
#X connect 4 0 8 0;
#X connect 4 0 9 0;
#X connect 6 0 5 0;
#X connect 7 0 9 1;
#X connect 8 0 5 0;
#X connect 9 0 6 0;
#X connect 10 0 2 0;
#X connect 11 0 10 0;
#X connect 12 0 7 0;
#X connect 12 0 8 1;
#X connect 12 1 13 0;
#X connect 13 0 4 0;
#X connect 13 1 1 0;
#X connect 13 2 2 1;
