#N canvas 0 23 651 616 10;
#X obj 45 34 inlet;
#N canvas 785 533 717 421 group2 0;
#X obj 180 50 inlet;
#X obj 180 302 outlet;
#X obj 180 183 list prepend;
#X obj 180 138 until;
#X obj 261 270 t b a;
#X obj 261 153 list prepend;
#X obj 341 128 t b b f;
#X obj 387 164 max 1;
#X obj 180 81 t b l b;
#X obj 180 228 list split 2;
#X obj 341 104 f 2;
#X connect 0 0 8 0;
#X connect 2 0 9 0;
#X connect 3 0 2 0;
#X connect 4 0 3 1;
#X connect 4 1 5 1;
#X connect 5 0 2 1;
#X connect 6 0 2 1;
#X connect 6 1 5 1;
#X connect 6 2 7 0;
#X connect 7 0 9 1;
#X connect 8 0 3 0;
#X connect 8 1 5 0;
#X connect 8 2 10 0;
#X connect 9 0 1 0;
#X connect 9 1 2 1;
#X connect 9 2 4 0;
#X connect 10 0 6 0;
#X restore 376 112 pd group2;
#X obj 376 134 unpack;
#X obj 376 180 *;
#X obj 426 180 *;
#X obj 376 227 sqrt;
#X obj 376 252 list prepend;
#X obj 465 268 t l;
#X obj 294 289 list;
#X obj 45 537 outlet;
#X obj 376 156 t f f;
#X obj 426 156 t f f;
#X msg 82 430 \$1 \$6 \$4 \$3 \$5 \$2;
#X obj 376 204 +;
#X obj 498 220 list prepend;
#X obj 587 236 t l;
#X obj 294 82 t b b l b, f 21;
#X obj 355 289 list;
#X obj 45 121 == 0;
#X obj 127 121 == 0;
#X obj 45 365 spigot 1;
#X obj 82 405 spigot 0;
#X obj 294 328 spigot 1;
#X obj 355 328 spigot 0;
#N canvas 0 23 450 300 normalize 0;
#X obj 23 24 inlet;
#X obj 37 247 outlet;
#X obj 173 96 t l l;
#X obj 242 110 list-maximum;
#X obj 173 147 list-math /;
#X obj 159 19 inlet;
#X obj 16 81 spigot 1;
#X obj 146 69 spigot;
#X obj 59 58 == 0;
#X connect 0 0 7 0;
#X connect 0 0 6 0;
#X connect 2 0 4 0;
#X connect 2 1 3 0;
#X connect 3 0 4 1;
#X connect 4 0 1 0;
#X connect 5 0 7 1;
#X connect 5 0 8 0;
#X connect 6 0 1 0;
#X connect 7 0 2 0;
#X connect 8 0 6 1;
#X restore 46 487 pd normalize;
#X obj 45 55 route power_spectrum ordered normalization;
#X connect 0 0 25 0;
#X connect 1 0 2 0;
#X connect 2 0 10 0;
#X connect 2 1 11 0;
#X connect 3 0 13 0;
#X connect 4 0 13 1;
#X connect 5 0 6 0;
#X connect 6 0 7 0;
#X connect 6 0 8 1;
#X connect 7 0 6 1;
#X connect 8 0 22 0;
#X connect 10 0 3 0;
#X connect 10 1 3 1;
#X connect 11 0 4 0;
#X connect 11 1 4 1;
#X connect 12 0 24 0;
#X connect 13 0 5 0;
#X connect 13 0 14 0;
#X connect 14 0 15 0;
#X connect 14 0 17 1;
#X connect 15 0 14 1;
#X connect 16 0 8 0;
#X connect 16 1 17 0;
#X connect 16 2 1 0;
#X connect 16 3 14 1;
#X connect 16 3 6 1;
#X connect 17 0 23 0;
#X connect 18 0 22 1;
#X connect 19 0 21 1;
#X connect 20 0 24 0;
#X connect 21 0 12 0;
#X connect 22 0 20 0;
#X connect 22 0 21 0;
#X connect 23 0 20 0;
#X connect 23 0 21 0;
#X connect 24 0 9 0;
#X connect 25 0 18 0;
#X connect 25 0 23 1;
#X connect 25 1 19 0;
#X connect 25 1 20 1;
#X connect 25 2 24 1;
#X connect 25 3 16 0;
