#N canvas 152 265 847 509 10;
#X obj 18 6 cnv 15 800 60 empty empty tis.mag 20 12 0 14 -233017 -66577
0;
#N canvas 420 330 494 344 META 0;
#X text 12 45 LICENSE GPL v3;
#X text 12 178 RELEASE_DATE 2013;
#X text 12 158 WEBSITE https://sites.google.com/site/eargram/;
#X text 12 138 AUTHOR Gilberto Bernardes;
#X text 12 25 KEYWORDS;
#X text 12 118 LIBRARY earGram_abs;
#X text 12 65 DESCRIPTION plots geometric figures in a plan;
#X text 12 84 INLET_0 clear dimen point circle filledCircle square
filledSquare rectangle filled rectangle;
#X restore 775 472 pd META;
#X text 637 32 Gilberto Bernardes et al.;
#X text 749 47 INESC TEC;
#X msg 320 192 weights symbolic;
#X msg 320 172 weights audio;
#X msg 320 152 weights 1 1 1 1 1 1;
#X text 318 121 Set weights (relative importance of complementary intervals
m2/M7 \, M2/m7 \, m3/M6 \, M3 \, m6 \, P4/P5 \, TT);
#X text 436 193 (default);
#X obj 142 152 midi2chroma;
#X obj 142 302 tis.mag;
#X text 37 47 Computes the magnitude (or power spectrum) of TIVs;
#X msg 202 286 power_spectrum \$1;
#X obj 202 265 tgl 15 0 empty empty empty 17 7 0 10 -262144 -1 -1 0
1;
#X text 316 286 (default 0);
#X msg 432 286 ordered \$1;
#X obj 432 265 tgl 15 0 empty empty empty 17 7 0 10 -262144 -1 -1 0
1;
#X text 506 285 (orders output by increasing IC values (1-6) \, default
0), f 18;
#N canvas 0 22 450 278 (subpatch) 0;
#X array \$0-magnitude 6 float 1;
#A 0 1.26759e-06 1 3.80277e-06 1 6.33795e-06 1;
#X coords 0 1 5 0 200 70 1 0 0;
#X restore 142 373 graph;
#X obj 142 323 array set \$0-magnitude;
#X obj 176 237 print;
#X msg 142 128 0 \$1;
#X floatatom 142 102 5 0 0 0 - - -;
#X obj 142 208 tis symbolic;
#X obj 662 265 tgl 15 0 empty empty empty 17 7 0 10 -262144 -1 -1 0
1;
#X msg 662 286 normalization \$1;
#X connect 4 0 23 0;
#X connect 5 0 23 0;
#X connect 6 0 23 0;
#X connect 9 0 23 0;
#X connect 10 0 19 0;
#X connect 12 0 10 0;
#X connect 13 0 12 0;
#X connect 15 0 10 0;
#X connect 16 0 15 0;
#X connect 21 0 9 0;
#X connect 22 0 21 0;
#X connect 23 0 10 0;
#X connect 23 1 20 0;
#X connect 24 0 25 0;
#X connect 25 0 10 0;
