#N canvas 208 234 939 516 10;
#N canvas 0 22 450 300 degree2rad 0;
#X obj 89 96 inlet;
#X obj 89 182 outlet;
#X obj 161 137 / 45;
#X obj 161 71 loadbang;
#X obj 89 130 f;
#X obj 161 114 atan;
#X msg 161 93 1;
#X obj 89 154 *;
#X connect 0 0 4 0;
#X connect 2 0 7 1;
#X connect 3 0 6 0;
#X connect 4 0 7 0;
#X connect 5 0 2 0;
#X connect 6 0 5 0;
#X connect 7 0 1 0;
#X restore 700 281 pd degree2rad;
#N canvas 0 22 461 345 pol2cart 0;
#X text 304 151 x=r*cos(phi);
#X text 305 166 y=r*sin(phi);
#X obj 109 92 inlet r;
#X obj 189 92 inlet phi;
#X obj 92 341 outlet x;
#X obj 189 341 outlet y;
#X obj 148 170 t f f;
#X obj 148 194 cos;
#X obj 178 194 sin;
#X obj 92 211 t f f;
#X obj 92 247 * 1;
#X obj 122 246 * 0;
#X text 73 36 convert polar to cartesian coordinates;
#X connect 2 0 9 0;
#X connect 3 0 6 0;
#X connect 6 0 7 0;
#X connect 6 1 8 0;
#X connect 7 0 10 1;
#X connect 8 0 11 1;
#X connect 9 0 10 0;
#X connect 9 1 11 0;
#X connect 10 0 4 0;
#X connect 11 0 5 0;
#X restore 637 309 pd pol2cart;
#X obj 670 120 list length;
#X obj 637 339 +;
#X obj 664 339 f;
#X obj 700 371 +;
#X obj 728 371 f;
#X obj 606 356 f;
#X obj 627 388 f;
#X obj 637 168 spigot;
#X obj 606 85 t b b l l b;
#X obj 770 215 0;
#X obj 700 232 f;
#X obj 730 232 + 1;
#X obj 606 411 pack;
#X obj 447 35 inlet;
#N canvas 0 22 450 300 drip 0;
#X obj 64 206 list split 1;
#X obj 64 123 until;
#X obj 64 181 list append;
#X text 146 90 First store list \, then start the loop;
#X text 163 118 "until" bangs its output until told to stop by a "bang"
to its right inlet.;
#X text 182 160 Store the remaining list.;
#X text 239 205 third outlet of "split" tells us to stop.;
#X obj 64 243 outlet;
#X obj 64 57 inlet;
#X text 237 44 From list-help.pd;
#X obj 143 243 outlet;
#X obj 64 86 t b a;
#X obj 194 206 b;
#X connect 0 0 7 0;
#X connect 0 1 2 1;
#X connect 0 2 10 0;
#X connect 0 2 12 0;
#X connect 1 0 2 0;
#X connect 2 0 0 0;
#X connect 8 0 11 0;
#X connect 11 0 1 0;
#X connect 11 1 2 1;
#X connect 12 0 1 1;
#X restore 637 191 pd drip;
#N canvas 51 164 335 342 \$0-plot 0;
#X coords -100 100 100 -100 300 300 2 0 0;
#X restore 100 100 pd \$0-plot;
#N canvas 26 23 944 468 plotGraphics 0;
#X obj 61 299 pointer;
#X obj 61 205 t b b;
#N canvas 234 165 486 132 pt-template 0;
#X obj 6 8 struct \$0-pt float x float y float c;
#X obj 6 33 filledpolygon c c 0 -1 -1 1 -1 1 1 -1 1 -1 -1;
#X restore 253 400 pd pt-template;
#X obj 1162 70 inlet;
#X msg 110 222 clear;
#X obj 110 245 s pd-\$0-plot;
#X obj 61 245 \$0;
#X msg 61 272 traverse pd-\$1-plot \, bang;
#X obj 108 188 loadbang;
#X obj 311 239 f;
#X obj 339 240 + 1;
#X obj 253 199 t a b;
#X obj 371 222 0;
#X obj 253 277 unpack, f 7;
#X obj 61 170 inlet;
#N canvas 92 70 379 181 label-template 0;
#X obj 24 21 struct \$0-label float x float y float c symbol sym;
#X obj 24 46 drawsymbol sym 0 0 c;
#X restore 253 423 pd label-template;
#N canvas 92 70 379 181 number-template 0;
#X obj 24 21 struct \$0-nr float x float y float c float n;
#X obj 24 46 drawnumber n 0 0 c;
#X restore 253 446 pd number-template;
#X obj 457 277 unpack, f 7;
#X obj 727 277 unpack, f 7;
#X obj 347 80 vradio 15 1 0 3 empty empty empty 0 -8 0 10 -262144 -1
-1 0;
#X text 363 78 symbols;
#X text 363 94 numbers;
#X text 366 112 dots;
#X obj 253 177 spigot;
#X obj 457 181 spigot;
#X obj 727 184 spigot;
#X obj 756 160 == 2;
#X obj 490 156 == 0;
#X obj 347 9 loadbang;
#X obj 347 31 0;
#X obj 288 155 == 1;
#X obj 457 338 t b p;
#N canvas 233 201 450 300 dripslow 0;
#X obj 158 196 list split 1;
#X obj 158 171 list append;
#X obj 158 247 outlet;
#X obj 158 47 inlet;
#X obj 239 247 outlet;
#X obj 232 45 inlet;
#X obj 158 82 b;
#X text 275 46 list;
#X text 113 47 bang;
#X text 283 247 EOL;
#X text 99 246 element;
#X obj 239 217 b;
#X connect 0 0 2 0;
#X connect 0 1 1 1;
#X connect 0 2 11 0;
#X connect 1 0 0 0;
#X connect 3 0 6 0;
#X connect 5 0 1 1;
#X connect 6 0 1 0;
#X connect 11 0 4 0;
#X restore 457 368 pd dripslow;
#X obj 457 423 set -symbol \$0-label sym;
#X obj 457 390 symbol;
#X obj 457 316 append \$0-label x y c;
#X obj 727 316 append \$0-pt x y c;
#X obj 253 316 append \$0-nr x y n c;
#X obj 996 225 list split 1;
#X obj 304 8 inlet;
#X obj 896 76 inlet;
#X obj 996 203 inlet;
#X connect 0 0 35 3;
#X connect 0 0 37 4;
#X connect 0 0 36 3;
#X connect 1 0 6 0;
#X connect 1 0 12 0;
#X connect 1 1 4 0;
#X connect 3 0 23 0;
#X connect 3 0 24 0;
#X connect 3 0 25 0;
#X connect 4 0 5 0;
#X connect 6 0 7 0;
#X connect 7 0 0 0;
#X connect 8 0 1 0;
#X connect 9 0 10 0;
#X connect 9 0 37 2;
#X connect 10 0 9 1;
#X connect 11 0 13 0;
#X connect 11 1 9 0;
#X connect 12 0 9 1;
#X connect 13 0 37 0;
#X connect 13 1 37 1;
#X connect 14 0 1 0;
#X connect 17 0 35 0;
#X connect 17 1 35 1;
#X connect 18 0 36 0;
#X connect 18 1 36 1;
#X connect 19 0 26 0;
#X connect 19 0 27 0;
#X connect 19 0 30 0;
#X connect 23 0 11 0;
#X connect 24 0 17 0;
#X connect 25 0 18 0;
#X connect 26 0 25 1;
#X connect 27 0 24 1;
#X connect 28 0 29 0;
#X connect 29 0 19 0;
#X connect 30 0 23 1;
#X connect 31 0 32 0;
#X connect 31 1 33 1;
#X connect 32 0 34 0;
#X connect 34 0 33 0;
#X connect 35 0 31 0;
#X connect 38 0 35 2;
#X connect 38 0 37 3;
#X connect 38 0 36 2;
#X connect 38 1 32 1;
#X connect 39 0 19 0;
#X connect 40 0 37 3;
#X connect 40 0 35 2;
#X connect 40 0 36 2;
#X connect 41 0 38 0;
#X coords 0 468 1 467 85 70 0;
#X restore 446 454 pd plotGraphics;
#N canvas 413 285 365 336 magGlass 0;
#X obj 13 11 inlet;
#X obj 13 275 outlet;
#X obj 83 102 unpack;
#X obj 83 244 pack;
#N canvas 716 347 621 516 cart2pol 0;
#X text 73 36 convert cartesian to polar coordinates;
#X obj 109 92 inlet x;
#X obj 117 371 outlet r;
#X obj 189 92 inlet y;
#X obj 205 364 outlet phi;
#X text 304 151 r=sqrt(x^2+y^2);
#X text 306 171 phi=atan2(y \, x);
#X obj 148 180 t f f f;
#X obj 148 203 *;
#X obj 92 243 +;
#X obj 92 180 t f f f;
#X obj 92 203 *;
#X obj 92 275 sqrt;
#X obj 182 231 pack;
#X obj 182 270 atan2;
#X msg 182 251 \$2 \$1;
#X text 343 18 part of zexy;
#X connect 1 0 10 0;
#X connect 3 0 7 0;
#X connect 7 0 8 0;
#X connect 7 1 8 1;
#X connect 7 2 13 1;
#X connect 8 0 9 1;
#X connect 9 0 12 0;
#X connect 10 0 11 0;
#X connect 10 1 11 1;
#X connect 10 2 13 0;
#X connect 11 0 9 0;
#X connect 12 0 2 0;
#X connect 13 0 15 0;
#X connect 14 0 4 0;
#X connect 15 0 14 0;
#X restore 83 148 pd cart2pol;
#N canvas 0 22 461 345 pol2cart 0;
#X text 304 151 x=r*cos(phi);
#X text 305 166 y=r*sin(phi);
#X obj 109 92 inlet r;
#X obj 189 92 inlet phi;
#X obj 92 341 outlet x;
#X obj 189 341 outlet y;
#X obj 148 170 t f f;
#X obj 148 194 cos;
#X obj 178 194 sin;
#X obj 92 211 t f f;
#X obj 92 247 * 1;
#X obj 122 246 * 0;
#X text 73 36 convert polar to cartesian coordinates;
#X connect 2 0 9 0;
#X connect 3 0 6 0;
#X connect 6 0 7 0;
#X connect 6 1 8 0;
#X connect 7 0 10 1;
#X connect 8 0 11 1;
#X connect 9 0 10 0;
#X connect 9 1 11 0;
#X connect 10 0 4 0;
#X connect 11 0 5 0;
#X restore 83 198 pd pol2cart;
#X obj 83 124 / 80;
#X obj 146 124 / 80;
#X obj 83 173 expr pow($f1 \, (1/(exp($f2*$f1))));
#X obj 278 122 loadbang;
#X obj 83 79 spigot;
#X obj 116 11 inlet;
#X obj 116 55 == 1;
#X obj 58 55 == 0;
#X obj 13 78 spigot 1;
#X obj 146 220 * 90;
#X obj 83 220 * 90;
#X obj 278 144 6;
#X connect 0 0 10 0;
#X connect 0 0 14 0;
#X connect 2 0 6 0;
#X connect 2 1 7 0;
#X connect 3 0 1 0;
#X connect 4 0 8 0;
#X connect 4 1 5 1;
#X connect 5 0 16 0;
#X connect 5 1 15 0;
#X connect 6 0 4 0;
#X connect 7 0 4 1;
#X connect 8 0 5 0;
#X connect 9 0 17 0;
#X connect 10 0 2 0;
#X connect 11 0 12 0;
#X connect 11 0 13 0;
#X connect 12 0 10 1;
#X connect 13 0 14 1;
#X connect 14 0 1 0;
#X connect 15 0 3 1;
#X connect 16 0 3 0;
#X connect 17 0 8 1;
#X restore 606 437 pd magGlass;
#X obj 814 428 outlet;
#X obj 447 58 route clear label color mag;
#X obj 547 35 inlet;
#X obj 700 256 * 30;
#X obj 670 144 == 12;
#X obj 637 215 t f b;
#X connect 0 0 1 1;
#X connect 1 0 3 0;
#X connect 1 1 5 0;
#X connect 2 0 24 0;
#X connect 3 0 4 0;
#X connect 3 0 7 1;
#X connect 4 0 3 1;
#X connect 5 0 6 0;
#X connect 5 0 8 1;
#X connect 6 0 5 1;
#X connect 7 0 14 0;
#X connect 8 0 14 1;
#X connect 9 0 16 0;
#X connect 10 0 7 0;
#X connect 10 1 8 0;
#X connect 10 2 9 0;
#X connect 10 3 2 0;
#X connect 10 4 11 0;
#X connect 11 0 4 0;
#X connect 11 0 6 0;
#X connect 11 0 12 1;
#X connect 12 0 13 0;
#X connect 12 0 23 0;
#X connect 13 0 12 1;
#X connect 14 0 19 0;
#X connect 14 0 20 0;
#X connect 15 0 21 0;
#X connect 16 0 25 0;
#X connect 19 0 18 4;
#X connect 21 0 18 0;
#X connect 21 1 18 1;
#X connect 21 2 18 2;
#X connect 21 3 19 1;
#X connect 21 4 10 0;
#X connect 22 0 18 3;
#X connect 23 0 0 0;
#X connect 24 0 9 1;
#X connect 25 0 1 0;
#X connect 25 1 12 0;
#X coords -1 -1 1 1 300 300 1 100 100;
