#N canvas 425 23 631 373 10;
#X obj 14 5 cnv 15 600 60 empty empty tis.weights 20 12 0 14 -233017
-66577 0;
#N canvas 420 330 494 344 META 0;
#X text 12 45 LICENSE GPL v3;
#X text 12 178 RELEASE_DATE 2013;
#X text 12 158 WEBSITE https://sites.google.com/site/eargram/;
#X text 12 138 AUTHOR Gilberto Bernardes;
#X text 12 25 KEYWORDS;
#X text 12 118 LIBRARY earGram_abs;
#X text 12 65 DESCRIPTION plots geometric figures in a plan;
#X text 12 84 INLET_0 clear dimen point circle filledCircle square
filledSquare rectangle filled rectangle;
#X restore 569 322 pd META;
#X text 454 31 Gilberto Bernardes et al.;
#X text 550 46 INESC TEC;
#X obj 52 156 midi2chroma;
#N canvas 0 22 450 278 (subpatch) 0;
#X array consonance 6 float 3;
#A 0 -0.0285692 0.171429 0.457143 0.628571 0.928566 0.171429;
#X coords 0 1 6 0 200 70 1 0 0;
#X restore 376 137 graph;
#X msg 52 132 0 \$1;
#X floatatom 52 106 5 0 0 0 - - -;
#X text 31 36 Computes the weights for the TIS given a set of composite
consonance ratings for complementary dyads, f 58;
#X obj 52 212 tis symbolic;
#X obj 163 198 tis.weights;
#X msg 257 136 array consonance;
#X msg 163 137 1 1 1 1 1 1;
#X floatatom 86 237 5 0 0 0 - - -;
#N canvas 442 23 838 528 test 0;
#X obj 54 208 midi2chroma;
#N canvas 0 22 450 278 (subpatch) 0;
#X array cons 6 float 3;
#A 0 56 81 48 65 88 26;
#X coords 0 100 6 0 200 70 1 0 0;
#X restore 517 184 graph;
#X obj 176 242 tis.weights;
#X obj 37 371 list-pearson;
#X obj 79 325 list prepend;
#X obj 165 339 t l;
#X obj 37 339 list;
#X obj 37 73 bng 15 250 50 0 empty empty empty 17 7 0 10 -262144 -1
-1;
#X msg 176 220 array cons;
#X obj 377 357 array get cons;
#X obj 381 217 random 100;
#X obj 381 153 until;
#X obj 381 132 12;
#X obj 381 174 f;
#X obj 411 174 + 1;
#X obj 443 160 0;
#X obj 381 111 t b b;
#X obj 381 195 t b f;
#X obj 381 238 array set cons 0 1;
#X obj 37 97 t b b b b b b;
#X obj 729 211 s cons;
#X obj 37 43 until;
#X msg 37 21 100;
#X obj 37 392 print;
#X msg 54 186 0 \$1;
#X obj 176 263 list prepend set;
#X obj 176 284 list trim;
#X msg 176 305 weights 33.6745 30.5592 -47.1126 38.189 80.342 44.2915
;
#X msg 729 184 const 0;
#X msg 54 165 1 \, 2 \, 3 \, 4 \, 5 \, 6;
#X obj 54 256 tis audio;
#X floatatom 104 293 5 0 0 0 - - -;
#X connect 0 0 30 0;
#X connect 2 0 25 0;
#X connect 2 0 30 0;
#X connect 3 0 23 0;
#X connect 4 0 5 0;
#X connect 4 0 6 1;
#X connect 5 0 4 1;
#X connect 6 0 3 0;
#X connect 7 0 19 0;
#X connect 8 0 2 0;
#X connect 9 0 3 1;
#X connect 10 0 18 0;
#X connect 11 0 13 0;
#X connect 12 0 11 0;
#X connect 13 0 14 0;
#X connect 13 0 17 0;
#X connect 14 0 13 1;
#X connect 15 0 13 1;
#X connect 16 0 12 0;
#X connect 16 1 15 0;
#X connect 17 0 10 0;
#X connect 17 1 18 1;
#X connect 19 0 6 0;
#X connect 19 1 29 0;
#X connect 19 2 4 1;
#X connect 19 3 8 0;
#X connect 19 4 9 0;
#X connect 19 5 16 0;
#X connect 21 0 7 0;
#X connect 22 0 21 0;
#X connect 24 0 0 0;
#X connect 25 0 26 0;
#X connect 26 0 27 0;
#X connect 28 0 20 0;
#X connect 29 0 24 0;
#X connect 30 1 4 0;
#X connect 30 1 31 0;
#X restore 27 340 pd test;
#X obj 172 285 tis.mag;
#X msg 246 267 ordered 1;
#X obj 172 306 print;
#X connect 4 0 9 0;
#X connect 6 0 4 0;
#X connect 7 0 6 0;
#X connect 9 0 15 0;
#X connect 9 1 13 0;
#X connect 10 0 9 0;
#X connect 11 0 10 0;
#X connect 12 0 10 0;
#X connect 15 0 17 0;
#X connect 16 0 15 0;
