#N canvas 38 23 314 403 10;
#X obj 58 61 inlet;
#X obj 58 318 outlet;
#N canvas 587 23 390 689 dft 0;
#X obj 66 381 +;
#X obj 47 452 +;
#X obj 78 452 f;
#X obj 96 381 f;
#X obj 28 550 pack;
#X obj 304 319 f;
#X obj 332 318 + 1;
#X obj 47 302 t f f b;
#X obj 185 230 f;
#X obj 214 231 + 1;
#X obj 11 21 inlet;
#X obj 28 168 list;
#X obj 28 72 list length;
#X obj 28 144 until;
#X obj 28 502 f;
#X obj 28 191 t b l b;
#X obj 28 96 t f f;
#X obj 66 355 expr $f1*sin(2*3.14159*$f2*$f3/$f4);
#X obj 47 424 expr $f1*cos(2*3.14159*$f2*$f3/$f4);
#X obj 142 533 * -1;
#X obj 28 576 list prepend;
#X obj 126 593 t l;
#X obj 11 610 list;
#X obj 11 44 t b l l b;
#X obj 11 633 outlet;
#X obj 200 181 0;
#X obj 319 208 0;
#X obj 28 120 expr int($f1/2)+1;
#N canvas 188 98 705 575 drip 0;
#X obj 73 94 t a a;
#X obj 73 251 spigot;
#X obj 112 159 bang;
#X obj 112 178 1;
#X obj 233 159 route bang;
#X obj 193 160 bang;
#X obj 193 179 0;
#X obj 112 124 list split 2;
#X obj 242 389 list split;
#X obj 309 338 list length;
#X obj 309 360 >> 1;
#X obj 73 270 t a a a a;
#X obj 73 456 list split;
#X obj 140 408 list length;
#X obj 140 433 >> 1;
#X obj 41 29 inlet;
#X obj 300 185 outlet;
#X text 83 29 Copyright 2009 by Mathieu Bouchard;
#X obj 41 63 t b a;
#X connect 0 0 1 0;
#X connect 0 1 7 0;
#X connect 1 0 11 0;
#X connect 2 0 3 0;
#X connect 3 0 1 1;
#X connect 4 1 16 0;
#X connect 5 0 6 0;
#X connect 6 0 1 1;
#X connect 7 0 2 0;
#X connect 7 2 4 0;
#X connect 7 2 5 0;
#X connect 8 0 0 0;
#X connect 9 0 10 0;
#X connect 10 0 8 1;
#X connect 11 0 12 0;
#X connect 11 1 13 0;
#X connect 11 2 8 0;
#X connect 11 3 9 0;
#X connect 12 1 0 0;
#X connect 13 0 14 0;
#X connect 14 0 12 1;
#X connect 15 0 18 0;
#X connect 18 1 0 0;
#X restore 47 272 pd drip;
#X connect 0 0 3 0;
#X connect 0 0 19 0;
#X connect 1 0 2 0;
#X connect 1 0 14 1;
#X connect 2 0 1 1;
#X connect 3 0 0 1;
#X connect 4 0 20 0;
#X connect 5 0 6 0;
#X connect 5 0 17 1;
#X connect 5 0 18 1;
#X connect 6 0 5 1;
#X connect 7 0 18 0;
#X connect 7 1 17 0;
#X connect 7 2 5 0;
#X connect 8 0 9 0;
#X connect 8 0 17 2;
#X connect 8 0 18 2;
#X connect 9 0 8 1;
#X connect 10 0 23 0;
#X connect 11 0 15 0;
#X connect 12 0 16 0;
#X connect 13 0 11 0;
#X connect 14 0 4 0;
#X connect 15 0 14 0;
#X connect 15 1 28 0;
#X connect 15 2 8 0;
#X connect 15 2 26 0;
#X connect 16 0 27 0;
#X connect 16 1 18 3;
#X connect 16 1 17 3;
#X connect 17 0 0 0;
#X connect 18 0 1 0;
#X connect 19 0 4 1;
#X connect 20 0 21 0;
#X connect 20 0 22 1;
#X connect 21 0 20 1;
#X connect 22 0 24 0;
#X connect 23 0 22 0;
#X connect 23 1 12 0;
#X connect 23 2 11 1;
#X connect 23 3 20 1;
#X connect 23 3 25 0;
#X connect 25 0 8 1;
#X connect 26 0 5 1;
#X connect 26 0 0 1;
#X connect 26 0 1 1;
#X connect 27 0 13 0;
#X connect 28 0 7 0;
#X restore 58 119 pd dft;
#X obj 103 318 outlet;
#X obj 157 318 outlet;
#N canvas 45 74 439 539 weights&L1Norm 0;
#X obj 41 19 inlet;
#X obj 292 283 list;
#X obj 41 473 outlet;
#X obj 41 416 list;
#X obj 60 385 list prepend;
#X obj 60 283 t f b;
#X obj 60 150 unpack;
#X obj 60 174 t b f;
#X obj 60 202 list;
#X obj 41 85 t b l b;
#X obj 310 473 outlet;
#X text 357 472 (amp);
#X text 89 472 (vector);
#X obj 60 114 list split 2;
#N canvas 188 98 705 575 drip 0;
#X obj 73 94 t a a;
#X obj 73 251 spigot;
#X obj 112 159 bang;
#X obj 112 178 1;
#X obj 233 159 route bang;
#X obj 193 160 bang;
#X obj 193 179 0;
#X obj 112 124 list split 2;
#X obj 242 389 list split;
#X obj 309 338 list length;
#X obj 309 360 >> 1;
#X obj 73 270 t a a a a;
#X obj 73 456 list split;
#X obj 140 408 list length;
#X obj 140 433 >> 1;
#X obj 41 29 inlet;
#X obj 300 185 outlet;
#X text 83 29 Copyright 2009 by Mathieu Bouchard;
#X obj 41 63 t b a;
#X connect 0 0 1 0;
#X connect 0 1 7 0;
#X connect 1 0 11 0;
#X connect 2 0 3 0;
#X connect 3 0 1 1;
#X connect 4 1 16 0;
#X connect 5 0 6 0;
#X connect 6 0 1 1;
#X connect 7 0 2 0;
#X connect 7 2 4 0;
#X connect 7 2 5 0;
#X connect 8 0 0 0;
#X connect 9 0 10 0;
#X connect 10 0 8 1;
#X connect 11 0 12 0;
#X connect 11 1 13 0;
#X connect 11 2 8 0;
#X connect 11 3 9 0;
#X connect 12 1 0 0;
#X connect 13 0 14 0;
#X connect 14 0 12 1;
#X connect 15 0 18 0;
#X connect 18 1 0 0;
#X restore 60 227 pd drip;
#N canvas 233 201 450 300 dripslow 0;
#X obj 158 196 list split 1;
#X obj 158 171 list append;
#X obj 158 247 outlet;
#X obj 158 47 inlet;
#X obj 239 247 outlet;
#X obj 232 45 inlet;
#X obj 158 82 b;
#X text 275 46 list;
#X text 113 47 bang;
#X text 283 247 EOL;
#X text 99 246 element;
#X obj 239 217 b;
#X connect 0 0 2 0;
#X connect 0 1 1 1;
#X connect 0 2 11 0;
#X connect 1 0 0 0;
#X connect 3 0 6 0;
#X connect 5 0 1 1;
#X connect 6 0 1 0;
#X connect 11 0 4 0;
#X restore 106 297 pd dripslow;
#X obj 60 359 expr $f1*$f2/$f3;
#X obj 246 19 inlet;
#N canvas 143 23 193 253 normalization 0;
#X obj 88 46 t f f;
#X obj 88 102 1;
#X obj 88 18 inlet;
#X obj 46 18 inlet;
#X obj 46 179 outlet;
#X obj 88 80 sel 0;
#X obj 46 157 spigot 1, f 11;
#X connect 0 0 5 0;
#X connect 0 1 6 1;
#X connect 1 0 4 0;
#X connect 2 0 0 0;
#X connect 3 0 6 0;
#X connect 5 0 1 0;
#X connect 6 0 4 0;
#X restore 153 243 pd normalization;
#X obj 149 399 t l;
#X obj 106 318 abs;
#X obj 313 19 r \$0-weights;
#X connect 0 0 9 0;
#X connect 1 0 15 1;
#X connect 3 0 2 0;
#X connect 4 0 3 1;
#X connect 4 0 19 0;
#X connect 5 0 16 0;
#X connect 5 1 15 0;
#X connect 6 0 7 0;
#X connect 7 0 8 0;
#X connect 7 1 10 0;
#X connect 7 1 18 0;
#X connect 8 0 14 0;
#X connect 9 0 3 0;
#X connect 9 1 13 0;
#X connect 9 2 1 0;
#X connect 9 2 4 1;
#X connect 13 0 6 0;
#X connect 13 1 8 1;
#X connect 14 0 5 0;
#X connect 15 0 20 0;
#X connect 16 0 4 0;
#X connect 17 0 18 1;
#X connect 18 0 16 2;
#X connect 19 0 4 1;
#X connect 20 0 16 1;
#X connect 21 0 1 1;
#X restore 58 172 pd weights&L1Norm;
#X text 97 60 (chroma);
#X obj 58 146 list split 14;
#X obj 58 86 route list normalization weights;
#X obj 58 195 t l l, f 8;
#N canvas 0 23 862 411 weights 0;
#X obj 130 233 s \$0-weights;
#X obj 394 16 loadbang;
#X obj 394 57 symbol \$1;
#X msg 130 205 \$1 \$1 \$6 \$6 \$4 \$4 \$3 \$3 \$5 \$5 \$2 \$2;
#X msg 395 191 2 7 16 17 19 11;
#X obj 130 78 route list symbolic audio;
#X msg 540 191 3 7.5 15 11.5 14.5 8;
#X obj 130 16 inlet;
#N canvas 814 23 425 421 norm 0;
#X obj 126 53 inlet;
#X text 85 25 // vector norm (L2 norm);
#X obj 110 221 f;
#N canvas 0 22 450 300 drip 0;
#X obj 63 84 t a a;
#X obj 63 241 spigot;
#X obj 102 149 bang;
#X obj 102 168 1;
#X obj 183 150 bang;
#X obj 183 169 0;
#X obj 102 114 list split 2;
#X obj 232 379 list split;
#X obj 299 328 list length;
#X obj 299 350 >> 1;
#X obj 63 260 t a a a a;
#X obj 63 446 list split;
#X obj 130 398 list length;
#X obj 130 423 >> 1;
#X obj 31 19 inlet;
#X obj 269 178 outlet;
#X text 73 19 Copyright 2009 by Mathieu Bouchard;
#X obj 31 53 t b a;
#X obj 465 119 outlet;
#X text 520 121 signal end of list;
#X text 381 23 made compatible with [list-drip]: fbar 2009;
#X obj 223 149 route bang float;
#X connect 0 0 1 0;
#X connect 0 1 6 0;
#X connect 1 0 10 0;
#X connect 2 0 3 0;
#X connect 3 0 1 1;
#X connect 4 0 5 0;
#X connect 5 0 1 1;
#X connect 6 0 2 0;
#X connect 6 2 4 0;
#X connect 6 2 21 0;
#X connect 7 0 0 0;
#X connect 8 0 9 0;
#X connect 9 0 7 1;
#X connect 10 0 11 0;
#X connect 10 1 12 0;
#X connect 10 2 7 0;
#X connect 10 3 8 0;
#X connect 11 1 0 0;
#X connect 12 0 13 0;
#X connect 13 0 11 1;
#X connect 14 0 17 0;
#X connect 17 0 18 0;
#X connect 17 1 0 0;
#X connect 21 1 15 0;
#X restore 126 102 pd drip;
#X obj 126 193 +;
#X obj 156 194 f;
#X obj 126 147 t f f;
#X obj 126 169 *;
#X obj 336 180 0;
#X obj 240 221 f;
#X obj 256 193 +;
#X obj 286 194 f;
#X obj 256 147 t f f;
#X obj 256 169 *;
#X obj 126 79 t l b;
#X obj 126 123 moses 0;
#X obj 110 242 sqrt;
#X obj 240 242 sqrt;
#X obj 110 263 * -1;
#X obj 110 284 pack f f;
#X obj 110 305 s \$0-weights-norm;
#X connect 0 0 14 0;
#X connect 2 0 16 0;
#X connect 3 0 15 0;
#X connect 3 1 2 0;
#X connect 3 1 9 0;
#X connect 4 0 2 1;
#X connect 4 0 5 0;
#X connect 5 0 4 1;
#X connect 6 0 7 0;
#X connect 6 1 7 1;
#X connect 7 0 4 0;
#X connect 8 0 11 0;
#X connect 8 0 5 0;
#X connect 8 0 9 1;
#X connect 8 0 2 1;
#X connect 9 0 17 0;
#X connect 10 0 9 1;
#X connect 10 0 11 0;
#X connect 11 0 10 1;
#X connect 12 0 13 0;
#X connect 12 1 13 1;
#X connect 13 0 10 0;
#X connect 14 0 3 0;
#X connect 14 1 8 0;
#X connect 15 0 6 0;
#X connect 15 1 12 0;
#X connect 16 0 18 0;
#X connect 17 0 19 1;
#X connect 18 0 19 0;
#X connect 19 0 20 0;
#X restore 396 234 pd norm;
#X obj 394 36 t b b;
#X obj 394 79 sel symbolic audio;
#X msg 530 65 symbol symbolic;
#X connect 1 0 9 0;
#X connect 2 0 10 0;
#X connect 3 0 0 0;
#X connect 4 0 3 0;
#X connect 4 0 8 0;
#X connect 5 0 3 0;
#X connect 5 0 8 0;
#X connect 5 1 4 0;
#X connect 5 2 6 0;
#X connect 6 0 3 0;
#X connect 6 0 8 0;
#X connect 7 0 5 0;
#X connect 9 0 2 0;
#X connect 9 1 11 0;
#X connect 10 0 4 0;
#X connect 10 1 6 0;
#X connect 11 0 10 0;
#X restore 184 119 pd weights;
#N canvas 357 71 704 509 vectorNorm(0-1) 0;
#X obj 132 232 0;
#X obj 52 53 inlet;
#X obj 36 479 outlet;
#X obj 36 273 f;
#N canvas 0 22 450 300 drip 0;
#X obj 63 84 t a a;
#X obj 63 241 spigot;
#X obj 102 149 bang;
#X obj 102 168 1;
#X obj 183 150 bang;
#X obj 183 169 0;
#X obj 102 114 list split 2;
#X obj 232 379 list split;
#X obj 299 328 list length;
#X obj 299 350 >> 1;
#X obj 63 260 t a a a a;
#X obj 63 446 list split;
#X obj 130 398 list length;
#X obj 130 423 >> 1;
#X obj 31 19 inlet;
#X obj 269 178 outlet;
#X text 73 19 Copyright 2009 by Mathieu Bouchard;
#X obj 31 53 t b a;
#X obj 465 119 outlet;
#X text 520 121 signal end of list;
#X text 381 23 made compatible with [list-drip]: fbar 2009;
#X obj 223 149 route bang float;
#X connect 0 0 1 0;
#X connect 0 1 6 0;
#X connect 1 0 10 0;
#X connect 2 0 3 0;
#X connect 3 0 1 1;
#X connect 4 0 5 0;
#X connect 5 0 1 1;
#X connect 6 0 2 0;
#X connect 6 2 4 0;
#X connect 6 2 21 0;
#X connect 7 0 0 0;
#X connect 8 0 9 0;
#X connect 9 0 7 1;
#X connect 10 0 11 0;
#X connect 10 1 12 0;
#X connect 10 2 7 0;
#X connect 10 3 8 0;
#X connect 11 1 0 0;
#X connect 12 0 13 0;
#X connect 13 0 11 1;
#X connect 14 0 17 0;
#X connect 17 0 18 0;
#X connect 17 1 0 0;
#X connect 21 1 15 0;
#X restore 52 104 pd drip;
#X obj 36 359 sqrt;
#X text 46 23 // vector norm (L2 norm);
#X obj 52 245 +;
#X obj 82 246 f;
#X obj 52 81 t l b;
#X obj 52 129 t f f;
#X obj 52 151 *;
#X obj 424 129 list-map;
#X obj 484 129 abs;
#X obj 276 143 list-emath /;
#X obj 276 115 t l l;
#X obj 180 195 list-dripslow;
#X obj 52 209 *;
#X obj 255 171 list;
#X obj 52 181 t f b;
#X obj 110 366 /;
#X obj 36 380 *;
#X obj 36 315 abs;
#X obj 36 294 t f f;
#X obj 36 336 t f f;
#X text 138 367 sign;
#X obj 276 52 r \$0-weights;
#X obj 62 428 unpack;
#X obj 62 407 r \$0-weights-norm;
#X obj 36 455 expr_scale 0 1 0 1;
#X connect 0 0 8 0;
#X connect 1 0 9 0;
#X connect 3 0 23 0;
#X connect 4 0 10 0;
#X connect 4 1 3 0;
#X connect 5 0 21 0;
#X connect 7 0 3 1;
#X connect 7 0 8 0;
#X connect 8 0 7 1;
#X connect 9 0 4 0;
#X connect 9 1 0 0;
#X connect 9 1 18 0;
#X connect 10 0 11 0;
#X connect 10 1 11 1;
#X connect 11 0 19 0;
#X connect 12 0 14 1;
#X connect 12 1 13 0;
#X connect 13 0 12 1;
#X connect 14 0 18 1;
#X connect 15 0 14 0;
#X connect 15 1 12 0;
#X connect 16 0 17 1;
#X connect 17 0 7 0;
#X connect 18 0 16 1;
#X connect 19 0 17 0;
#X connect 19 1 16 0;
#X connect 20 0 21 1;
#X connect 21 0 29 0;
#X connect 22 0 24 0;
#X connect 23 0 22 0;
#X connect 23 1 20 1;
#X connect 24 0 5 0;
#X connect 24 1 20 0;
#X connect 26 0 15 0;
#X connect 27 0 29 1;
#X connect 27 1 29 2;
#X connect 28 0 27 0;
#X connect 29 0 2 0;
#X restore 103 265 pd vectorNorm(0-1);
#X connect 0 0 8 0;
#X connect 2 0 7 0;
#X connect 5 0 9 0;
#X connect 5 1 4 0;
#X connect 7 0 5 0;
#X connect 8 0 2 0;
#X connect 8 1 5 1;
#X connect 8 2 10 0;
#X connect 9 0 1 0;
#X connect 9 1 11 0;
#X connect 11 0 3 0;
