#N canvas 547 23 523 368 10;
#X obj 12 6 cnv 15 500 60 empty empty tis.transpose 20 12 0 14 -233017
-66577 0;
#N canvas 420 330 494 344 META 0;
#X text 12 45 LICENSE GPL v3;
#X text 12 178 RELEASE_DATE 2013;
#X text 12 158 WEBSITE https://sites.google.com/site/eargram/;
#X text 12 138 AUTHOR Gilberto Bernardes;
#X text 12 25 KEYWORDS;
#X text 12 118 LIBRARY earGram_abs;
#X text 12 65 DESCRIPTION plots geometric figures in a plan;
#X text 12 84 INLET_0 clear dimen point circle filledCircle square
filledSquare rectangle filled rectangle;
#X restore 452 338 pd META;
#X text 347 32 Gilberto Bernardes et al.;
#X text 443 47 INESC TEC;
#X obj 33 240 list prepend set;
#X obj 33 262 list trim;
#X msg 33 284 -1.73205 1.00001 5.49957 -9.52653 0.00117939 17 -8.00126
-13.8557 16.4538 9.50121 -7 -0.000337179;
#X obj 33 193 tis.transpose;
#X floatatom 108 173 5 0 0 1 nrSeminotes - -, f 5;
#X msg 33 101 0;
#X text 31 47 transposes a TIV by a number of semitones;
#X obj 33 129 midi2chroma;
#X obj 33 151 tis symbolic;
#X connect 4 0 5 0;
#X connect 5 0 6 0;
#X connect 7 0 4 0;
#X connect 8 0 7 1;
#X connect 9 0 11 0;
#X connect 11 0 12 0;
#X connect 12 0 7 0;
