#N canvas 68 121 720 653 10;
#X obj 7 10 cnv 15 700 60 empty empty tis.2D.viz 20 12 0 14 -233017
-66577 0;
#N canvas 1210 608 792 249 input 0;
#X msg 106 84 M;
#X msg 139 84 m;
#X msg 172 84 dim;
#X msg 206 84 aug;
#X msg 241 84 M7;
#X msg 274 84 m7;
#X msg 308 84 D7;
#X msg 14 84 notes;
#X msg 60 84 comb2;
#X msg 422 84 aug7;
#X msg 382 84 m-M7;
#X msg 461 84 half-dim7;
#X msg 341 84 dim7;
#N canvas 204 215 939 422 pitchConfigurations 0;
#N canvas 540 33 338 394 allIntervals 0;
#X obj 16 18 cnv 15 300 300 empty empty empty 20 12 0 14 -233017 -66577
0;
#X msg 120 161 2;
#X msg 51 130 0 1 2 3 4 5 6 7 8 9 10 11;
#X obj 51 104 t b b;
#X text 80 22 all possible combinations of two notes;
#X text 81 42 (11 pitch classes);
#X obj 51 78 inlet;
#X obj 51 269 outlet;
#N canvas 0 22 544 519 combine 0;
#X obj 22 5 inlet;
#X obj 108 5 inlet;
#X obj 41 357 list;
#X obj 335 379 list append;
#X obj 314 421 list;
#X obj 335 341 list split 1;
#X obj 41 555 outlet;
#X obj 41 423 list prepend;
#X obj 41 324 t b l l;
#X obj 108 30 - 1;
#X obj 41 147 until;
#X obj 41 174 list;
#X obj 41 198 t l l;
#X obj 211 157 list split 1;
#X obj 41 56 list length;
#X obj 41 274 list split 2;
#X obj 41 121 - 2;
#X obj 186 555 outlet;
#X obj 242 404 spigot;
#X obj 275 366 > 1;
#X obj 22 30 t b l l;
#N canvas 188 98 705 575 drip 0;
#X obj 64 206 list split 1;
#X obj 64 123 until;
#X obj 64 181 list append;
#X text 146 90 First store list \, then start the loop;
#X text 163 118 "until" bangs its output until told to stop by a "bang"
to its right inlet.;
#X text 182 160 Store the remaining list.;
#X text 239 205 third outlet of "split" tells us to stop.;
#X obj 64 243 outlet;
#X obj 64 57 inlet;
#X text 237 44 From list-help.pd;
#X obj 143 243 outlet;
#X obj 64 86 t b a;
#X obj 194 206 b;
#X connect 0 0 7 0;
#X connect 0 1 2 1;
#X connect 0 2 10 0;
#X connect 0 2 12 0;
#X connect 1 0 2 0;
#X connect 2 0 0 0;
#X connect 8 0 11 0;
#X connect 11 0 1 0;
#X connect 11 1 2 1;
#X connect 12 0 1 1;
#X restore 41 386 pd drip;
#X connect 0 0 20 0;
#X connect 1 0 9 0;
#X connect 2 0 21 0;
#X connect 3 0 4 1;
#X connect 4 0 15 0;
#X connect 5 0 3 0;
#X connect 7 0 6 0;
#X connect 8 0 2 0;
#X connect 8 1 7 1;
#X connect 8 2 5 0;
#X connect 9 0 15 1;
#X connect 9 0 19 0;
#X connect 10 0 11 0;
#X connect 11 0 12 0;
#X connect 12 0 15 0;
#X connect 12 1 13 0;
#X connect 13 1 11 1;
#X connect 14 0 16 0;
#X connect 15 0 8 0;
#X connect 15 1 2 1;
#X connect 15 1 3 1;
#X connect 16 0 10 0;
#X connect 18 0 4 0;
#X connect 19 0 18 1;
#X connect 20 0 17 0;
#X connect 20 1 14 0;
#X connect 20 2 11 1;
#X connect 21 0 7 0;
#X connect 21 1 18 0;
#X restore 51 188 pd combine;
#X connect 1 0 8 1;
#X connect 2 0 8 0;
#X connect 3 0 2 0;
#X connect 3 1 1 0;
#X connect 6 0 3 0;
#X connect 8 0 7 0;
#X restore 151 170 pd allIntervals;
#N canvas 637 23 331 339 allPitchClasses 0;
#X obj 16 18 cnv 15 300 300 empty empty empty 20 12 0 14 -233017 -66577
0;
#X msg 51 100 0 1 2 3 4 5 6 7 8 9 10 11;
#X obj 51 56 inlet;
#X obj 51 227 outlet;
#N canvas 188 98 705 575 drip 0;
#X obj 73 94 t a a;
#X obj 73 251 spigot;
#X obj 112 159 bang;
#X obj 112 178 1;
#X obj 233 159 route bang;
#X obj 193 160 bang;
#X obj 193 179 0;
#X obj 112 124 list split 2;
#X obj 242 389 list split;
#X obj 309 338 list length;
#X obj 309 360 >> 1;
#X obj 73 270 t a a a a;
#X obj 73 456 list split;
#X obj 140 408 list length;
#X obj 140 433 >> 1;
#X obj 41 29 inlet;
#X obj 300 185 outlet;
#X text 83 29 Copyright 2009 by Mathieu Bouchard;
#X obj 41 63 t b a;
#X connect 0 0 1 0;
#X connect 0 1 7 0;
#X connect 1 0 11 0;
#X connect 2 0 3 0;
#X connect 3 0 1 1;
#X connect 4 1 16 0;
#X connect 5 0 6 0;
#X connect 6 0 1 1;
#X connect 7 0 2 0;
#X connect 7 2 4 0;
#X connect 7 2 5 0;
#X connect 8 0 0 0;
#X connect 9 0 10 0;
#X connect 10 0 8 1;
#X connect 11 0 12 0;
#X connect 11 1 13 0;
#X connect 11 2 8 0;
#X connect 11 3 9 0;
#X connect 12 1 0 0;
#X connect 13 0 14 0;
#X connect 14 0 12 1;
#X connect 15 0 18 0;
#X connect 18 1 0 0;
#X restore 51 198 pd drip;
#X obj 107 227 outlet;
#X obj 107 198 list trim;
#X obj 51 122 t l b;
#X msg 107 174 9 C C# D D# E F F# G G# A A# B;
#X connect 1 0 7 0;
#X connect 2 0 1 0;
#X connect 4 0 3 0;
#X connect 6 0 5 0;
#X connect 7 0 4 0;
#X connect 7 1 8 0;
#X connect 8 0 6 0;
#X restore 261 170 pd allPitchClasses;
#X obj 22 388 outlet;
#X msg 16 131 0 4 7;
#X msg 62 132 0 3 7;
#X msg 115 127 0 3 6;
#X msg 158 126 0 4 8;
#X obj 22 15 inlet;
#N canvas 181 43 338 394 chromagram&pcp 0;
#X obj 6 8 cnv 15 300 300 empty empty empty 20 12 0 14 -233017 -66577
0;
#X obj 41 115 until;
#X obj 41 90 12;
#X obj 41 190 list-map;
#X obj 109 207 +;
#X obj 124 157 f;
#X obj 154 157 + 1;
#X obj 109 230 % 12;
#X obj 139 134 0;
#X obj 41 140 t b b;
#X obj 41 272 outlet;
#X obj 41 38 inlet;
#X text 186 11 pitch classes sets;
#X obj 41 65 t b b l;
#X obj 41 166 list;
#X connect 1 0 9 0;
#X connect 2 0 1 0;
#X connect 3 0 10 0;
#X connect 3 1 4 0;
#X connect 4 0 7 0;
#X connect 5 0 6 0;
#X connect 5 0 4 1;
#X connect 6 0 5 1;
#X connect 7 0 3 1;
#X connect 8 0 5 1;
#X connect 9 0 14 0;
#X connect 9 1 5 0;
#X connect 11 0 13 0;
#X connect 13 0 2 0;
#X connect 13 1 8 0;
#X connect 13 2 14 1;
#X connect 14 0 3 0;
#X restore 22 170 pd chromagram&pcp;
#X msg 610 94 0 2 4 5 7 9 11;
#X msg 477 191 0 0 \, 0 1 \, 0 2 \, 0 3 \, 0 4 \, 0 5 \, 0 6 \, 0 7
\, 0 8 \, 0 9 \, 0 10 \, 0 11;
#X msg 612 153 0 2 3 5 7 8 11;
#X msg 496 129 0 5 7;
#X msg 223 126 0 4 7 11;
#X msg 285 126 0 3 7 10;
#X msg 346 126 0 4 7 10;
#X msg 422 127 0 3 6 10;
#X obj 22 362 midi2chroma;
#X obj 22 40 route M m dim aug M7 m7 D7 comb2 notes dim7 m-M7 aug7
half-dim7 intervals sus4 majScale minScale;
#X obj 610 70 t b b;
#X obj 612 129 t b b;
#X obj 593 388 outlet;
#X obj 450 168 t b b;
#X msg 746 146 900 c c# d d# e f f# g g# a a# b;
#X msg 450 216 90 P1 m2 M2 m3 M3 P4 TT P5 m6 M6 m7 M7;
#X msg 746 87 900 C C# D D# E F F# G G# A A# B;
#X obj 13 97 t b b;
#X obj 56 98 t b b;
#X msg 143 327 90 CM C#M DM D#M EM FM F#M GM G#M AM A#M BM;
#X msg 143 352 90 Cm C#m Dm D#m Em Fm F#m Gm G#m Am A#m Bm;
#X msg 204 258 90 C+ C#+ D+ D#+ E+ F+ F#+ G+ G#+ A+ A#+ B+;
#X msg 204 283 90 Cº C#º Dº D#º Eº Fº F#º Gº G#º Aº A#º
Bº;
#X obj 109 96 t b b;
#X obj 153 97 t b b;
#X obj 218 99 t b b;
#X obj 271 97 t b b;
#X obj 315 98 t b b;
#X msg 437 310 90 CM7 C#M7 DM7 D#M7 EM7 FM7 F#M7 GM7 G#M7 AM7 A#M7
BM7;
#X msg 437 335 90 Cm7 C#m7 Dm7 D#m7 Em7 Fm7 F#m7 Gm7 G#m7 Am7 A#m7
Bm7;
#X msg 473 258 90 C7 C#7 D7 D#7 E7 F7 F#7 G7 G#7 A7 A#7 B7;
#X msg 475 282 90 Cº7 C#º7 Dº7 D#º7 Eº7 Fº7 F#º7 Gº7 G#º7
Aº7 A#º7 Bº7;
#X connect 0 0 17 0;
#X connect 1 0 17 0;
#X connect 1 1 21 0;
#X connect 3 0 8 0;
#X connect 4 0 8 0;
#X connect 5 0 8 0;
#X connect 6 0 8 0;
#X connect 7 0 18 0;
#X connect 8 0 17 0;
#X connect 9 0 8 0;
#X connect 10 0 17 0;
#X connect 11 0 8 0;
#X connect 12 0 8 0;
#X connect 13 0 8 0;
#X connect 14 0 8 0;
#X connect 15 0 8 0;
#X connect 16 0 8 0;
#X connect 17 0 2 0;
#X connect 18 0 26 0;
#X connect 18 1 27 0;
#X connect 18 2 32 0;
#X connect 18 3 33 0;
#X connect 18 4 34 0;
#X connect 18 5 35 0;
#X connect 18 6 36 0;
#X connect 18 7 0 0;
#X connect 18 8 1 0;
#X connect 18 12 16 0;
#X connect 18 13 22 0;
#X connect 18 14 12 0;
#X connect 18 15 19 0;
#X connect 18 16 20 0;
#X connect 19 0 9 0;
#X connect 19 1 25 0;
#X connect 20 0 11 0;
#X connect 20 1 23 0;
#X connect 22 0 24 0;
#X connect 22 1 10 0;
#X connect 23 0 21 0;
#X connect 24 0 21 0;
#X connect 25 0 21 0;
#X connect 26 0 3 0;
#X connect 26 1 28 0;
#X connect 27 0 4 0;
#X connect 27 1 29 0;
#X connect 28 0 21 0;
#X connect 29 0 21 0;
#X connect 30 0 21 0;
#X connect 31 0 21 0;
#X connect 32 0 5 0;
#X connect 32 1 31 0;
#X connect 33 0 6 0;
#X connect 33 1 30 0;
#X connect 34 0 13 0;
#X connect 34 1 37 0;
#X connect 35 0 14 0;
#X connect 35 1 38 0;
#X connect 36 0 15 0;
#X connect 36 1 39 0;
#X connect 37 0 21 0;
#X connect 38 0 21 0;
#X connect 39 0 21 0;
#X restore 14 151 pd pitchConfigurations;
#X msg 531 84 intervals;
#X msg 604 84 sus4;
#X obj 14 173 outlet;
#X msg 712 85 majScale;
#X msg 645 84 minScale;
#X obj 143 173 outlet;
#X connect 0 0 13 0;
#X connect 1 0 13 0;
#X connect 2 0 13 0;
#X connect 3 0 13 0;
#X connect 4 0 13 0;
#X connect 5 0 13 0;
#X connect 6 0 13 0;
#X connect 7 0 13 0;
#X connect 8 0 13 0;
#X connect 9 0 13 0;
#X connect 10 0 13 0;
#X connect 11 0 13 0;
#X connect 12 0 13 0;
#X connect 13 0 16 0;
#X connect 13 1 19 0;
#X connect 14 0 13 0;
#X connect 15 0 13 0;
#X connect 17 0 13 0;
#X connect 18 0 13 0;
#X restore 17 177 pd input;
#X obj 385 293 tgl 15 0 empty empty empty 17 7 0 10 -262144 -1 -1 0
1;
#X text 25 47 reduces the dimensionality and plots the 12D Tonal Interval
Vectors to 2D, f 75;
#X obj 17 331 tis.2D.viz;
#X msg 385 314 mag \$1;
#X msg 445 314 label \$1;
#X floatatom 445 294 5 0 0 0 - - -;
#X msg 512 314 color \$1;
#X floatatom 511 295 5 0 0 0 - - -;
#X text 17 637 green- chords blue - notes (pc) red - sclaes;
#X text 332 204 * mag only may be a good strategy to discover the chord
quality;
#X msg 576 314 trajectory \$1;
#X obj 576 292 tgl 15 0 empty empty empty 17 7 0 10 -262144 -1 -1 0
1;
#N canvas 0 22 379 200 openFile 0;
#X obj 57 127 dac~;
#X obj 35 156 outlet~;
#X obj 217 32 openpanel;
#X obj 217 98 soundfiler;
#X obj 35 20 inlet;
#X obj 217 10 inlet;
#X obj 217 120 table \$0-sound;
#X obj 35 89 tabplay~ \$0-sound;
#X obj 217 54 pack s \$0;
#X msg 217 76 read -resize \$1 \$2-sound;
#X obj 35 42 sel 0 1;
#X msg 35 64 stop;
#X connect 2 0 8 0;
#X connect 4 0 10 0;
#X connect 5 0 2 0;
#X connect 7 0 0 0;
#X connect 7 0 0 1;
#X connect 7 0 1 0;
#X connect 8 0 9 0;
#X connect 9 0 3 0;
#X connect 10 0 11 0;
#X connect 10 1 7 0;
#X connect 11 0 7 0;
#X restore 337 133 pd openFile;
#X obj 400 99 bng 15 250 50 0 empty empty 1)open 17 7 0 10 -262144
-1 -1;
#X obj 337 99 tgl 15 0 empty empty 2)play 17 7 0 10 -262144 -1 -1 0
1;
#X floatatom 488 123 5 0 0 0 - - -;
#X msg 488 142 npts \$1;
#X floatatom 593 123 5 0 0 0 - - -;
#X msg 593 142 npeak \$1;
#N canvas 1169 624 448 249 medianFilter 0;
#X obj 31 13 inlet;
#X obj 31 36 unpack f f f f f f f f f f f f, f 59;
#N canvas 826 547 262 264 dim1 0;
#X obj 21 10 inlet;
#X obj 96 52 t f b;
#X obj 21 83 list;
#X obj 21 203 outlet;
#X obj 21 131 zexy/sort;
#X msg 21 153 \$9;
#X obj 96 29 f 17;
#X obj 21 108 list split 17;
#X obj 96 5 inlet;
#X msg 96 153 \$1;
#X connect 0 0 2 0;
#X connect 1 0 7 1;
#X connect 1 1 2 1;
#X connect 2 0 7 0;
#X connect 4 0 5 0;
#X connect 5 0 3 0;
#X connect 6 0 1 0;
#X connect 7 0 2 1;
#X connect 7 0 4 0;
#X connect 7 2 2 1;
#X connect 7 2 9 0;
#X connect 8 0 6 0;
#X connect 9 0 3 0;
#X restore 31 64 pd dim1;
#X obj 31 162 pack f f f f f f f f f f f f, f 59;
#N canvas 0 22 262 264 dim1 0;
#X obj 21 10 inlet;
#X obj 96 52 t f b;
#X obj 21 83 list;
#X obj 21 203 outlet;
#X obj 21 131 zexy/sort;
#X msg 21 153 \$9;
#X obj 96 29 f 17;
#X obj 21 108 list split 17;
#X obj 96 5 inlet;
#X msg 96 153 \$1;
#X connect 0 0 2 0;
#X connect 1 0 7 1;
#X connect 1 1 2 1;
#X connect 2 0 7 0;
#X connect 4 0 5 0;
#X connect 5 0 3 0;
#X connect 6 0 1 0;
#X connect 7 0 2 1;
#X connect 7 0 4 0;
#X connect 7 2 2 1;
#X connect 7 2 9 0;
#X connect 8 0 6 0;
#X connect 9 0 3 0;
#X restore 62 87 pd dim1;
#N canvas 0 22 262 264 dim1 0;
#X obj 21 10 inlet;
#X obj 96 52 t f b;
#X obj 21 83 list;
#X obj 21 203 outlet;
#X obj 21 131 zexy/sort;
#X msg 21 153 \$9;
#X obj 96 29 f 17;
#X obj 21 108 list split 17;
#X obj 96 5 inlet;
#X msg 96 153 \$1;
#X connect 0 0 2 0;
#X connect 1 0 7 1;
#X connect 1 1 2 1;
#X connect 2 0 7 0;
#X connect 4 0 5 0;
#X connect 5 0 3 0;
#X connect 6 0 1 0;
#X connect 7 0 2 1;
#X connect 7 0 4 0;
#X connect 7 2 2 1;
#X connect 7 2 9 0;
#X connect 8 0 6 0;
#X connect 9 0 3 0;
#X restore 94 110 pd dim1;
#N canvas 0 22 262 264 dim1 0;
#X obj 21 10 inlet;
#X obj 96 52 t f b;
#X obj 21 83 list;
#X obj 21 203 outlet;
#X obj 21 131 zexy/sort;
#X msg 21 153 \$9;
#X obj 96 29 f 17;
#X obj 21 108 list split 17;
#X obj 96 5 inlet;
#X msg 96 153 \$1;
#X connect 0 0 2 0;
#X connect 1 0 7 1;
#X connect 1 1 2 1;
#X connect 2 0 7 0;
#X connect 4 0 5 0;
#X connect 5 0 3 0;
#X connect 6 0 1 0;
#X connect 7 0 2 1;
#X connect 7 0 4 0;
#X connect 7 2 2 1;
#X connect 7 2 9 0;
#X connect 8 0 6 0;
#X connect 9 0 3 0;
#X restore 126 133 pd dim1;
#N canvas 0 22 262 264 dim1 0;
#X obj 21 10 inlet;
#X obj 96 52 t f b;
#X obj 21 83 list;
#X obj 21 203 outlet;
#X obj 21 131 zexy/sort;
#X msg 21 153 \$9;
#X obj 96 29 f 17;
#X obj 21 108 list split 17;
#X obj 96 5 inlet;
#X msg 96 153 \$1;
#X connect 0 0 2 0;
#X connect 1 0 7 1;
#X connect 1 1 2 1;
#X connect 2 0 7 0;
#X connect 4 0 5 0;
#X connect 5 0 3 0;
#X connect 6 0 1 0;
#X connect 7 0 2 1;
#X connect 7 0 4 0;
#X connect 7 2 2 1;
#X connect 7 2 9 0;
#X connect 8 0 6 0;
#X connect 9 0 3 0;
#X restore 158 64 pd dim1;
#N canvas 0 22 262 264 dim1 0;
#X obj 21 10 inlet;
#X obj 96 52 t f b;
#X obj 21 83 list;
#X obj 21 203 outlet;
#X obj 21 131 zexy/sort;
#X msg 21 153 \$9;
#X obj 96 29 f 17;
#X obj 21 108 list split 17;
#X obj 96 5 inlet;
#X msg 96 153 \$1;
#X connect 0 0 2 0;
#X connect 1 0 7 1;
#X connect 1 1 2 1;
#X connect 2 0 7 0;
#X connect 4 0 5 0;
#X connect 5 0 3 0;
#X connect 6 0 1 0;
#X connect 7 0 2 1;
#X connect 7 0 4 0;
#X connect 7 2 2 1;
#X connect 7 2 9 0;
#X connect 8 0 6 0;
#X connect 9 0 3 0;
#X restore 190 87 pd dim1;
#N canvas 0 22 262 264 dim1 0;
#X obj 21 10 inlet;
#X obj 96 52 t f b;
#X obj 21 83 list;
#X obj 21 203 outlet;
#X obj 21 131 zexy/sort;
#X msg 21 153 \$9;
#X obj 96 29 f 17;
#X obj 21 108 list split 17;
#X obj 96 5 inlet;
#X msg 96 153 \$1;
#X connect 0 0 2 0;
#X connect 1 0 7 1;
#X connect 1 1 2 1;
#X connect 2 0 7 0;
#X connect 4 0 5 0;
#X connect 5 0 3 0;
#X connect 6 0 1 0;
#X connect 7 0 2 1;
#X connect 7 0 4 0;
#X connect 7 2 2 1;
#X connect 7 2 9 0;
#X connect 8 0 6 0;
#X connect 9 0 3 0;
#X restore 222 110 pd dim1;
#N canvas 0 22 262 264 dim1 0;
#X obj 21 10 inlet;
#X obj 96 52 t f b;
#X obj 21 83 list;
#X obj 21 203 outlet;
#X obj 21 131 zexy/sort;
#X msg 21 153 \$9;
#X obj 96 29 f 17;
#X obj 21 108 list split 17;
#X obj 96 5 inlet;
#X msg 96 153 \$1;
#X connect 0 0 2 0;
#X connect 1 0 7 1;
#X connect 1 1 2 1;
#X connect 2 0 7 0;
#X connect 4 0 5 0;
#X connect 5 0 3 0;
#X connect 6 0 1 0;
#X connect 7 0 2 1;
#X connect 7 0 4 0;
#X connect 7 2 2 1;
#X connect 7 2 9 0;
#X connect 8 0 6 0;
#X connect 9 0 3 0;
#X restore 254 130 pd dim1;
#N canvas 0 22 262 264 dim1 0;
#X obj 21 10 inlet;
#X obj 96 52 t f b;
#X obj 21 83 list;
#X obj 21 203 outlet;
#X obj 21 131 zexy/sort;
#X msg 21 153 \$9;
#X obj 96 29 f 17;
#X obj 21 108 list split 17;
#X obj 96 5 inlet;
#X msg 96 153 \$1;
#X connect 0 0 2 0;
#X connect 1 0 7 1;
#X connect 1 1 2 1;
#X connect 2 0 7 0;
#X connect 4 0 5 0;
#X connect 5 0 3 0;
#X connect 6 0 1 0;
#X connect 7 0 2 1;
#X connect 7 0 4 0;
#X connect 7 2 2 1;
#X connect 7 2 9 0;
#X connect 8 0 6 0;
#X connect 9 0 3 0;
#X restore 286 64 pd dim1;
#N canvas 0 22 262 264 dim1 0;
#X obj 21 10 inlet;
#X obj 96 52 t f b;
#X obj 21 83 list;
#X obj 21 203 outlet;
#X obj 21 131 zexy/sort;
#X msg 21 153 \$9;
#X obj 96 29 f 17;
#X obj 21 108 list split 17;
#X obj 96 5 inlet;
#X msg 96 153 \$1;
#X connect 0 0 2 0;
#X connect 1 0 7 1;
#X connect 1 1 2 1;
#X connect 2 0 7 0;
#X connect 4 0 5 0;
#X connect 5 0 3 0;
#X connect 6 0 1 0;
#X connect 7 0 2 1;
#X connect 7 0 4 0;
#X connect 7 2 2 1;
#X connect 7 2 9 0;
#X connect 8 0 6 0;
#X connect 9 0 3 0;
#X restore 318 87 pd dim1;
#N canvas 0 22 262 264 dim1 0;
#X obj 21 10 inlet;
#X obj 96 52 t f b;
#X obj 21 83 list;
#X obj 21 203 outlet;
#X obj 21 131 zexy/sort;
#X msg 21 153 \$9;
#X obj 96 29 f 17;
#X obj 21 108 list split 17;
#X obj 96 5 inlet;
#X msg 96 153 \$1;
#X connect 0 0 2 0;
#X connect 1 0 7 1;
#X connect 1 1 2 1;
#X connect 2 0 7 0;
#X connect 4 0 5 0;
#X connect 5 0 3 0;
#X connect 6 0 1 0;
#X connect 7 0 2 1;
#X connect 7 0 4 0;
#X connect 7 2 2 1;
#X connect 7 2 9 0;
#X connect 8 0 6 0;
#X connect 9 0 3 0;
#X restore 350 110 pd dim1;
#N canvas 0 22 262 264 dim1 0;
#X obj 21 10 inlet;
#X obj 96 52 t f b;
#X obj 21 83 list;
#X obj 21 203 outlet;
#X obj 21 131 zexy/sort;
#X msg 21 153 \$9;
#X obj 96 29 f 17;
#X obj 21 108 list split 17;
#X obj 96 5 inlet;
#X msg 96 153 \$1;
#X connect 0 0 2 0;
#X connect 1 0 7 1;
#X connect 1 1 2 1;
#X connect 2 0 7 0;
#X connect 4 0 5 0;
#X connect 5 0 3 0;
#X connect 6 0 1 0;
#X connect 7 0 2 1;
#X connect 7 0 4 0;
#X connect 7 2 2 1;
#X connect 7 2 9 0;
#X connect 8 0 6 0;
#X connect 9 0 3 0;
#X restore 382 133 pd dim1;
#X obj 31 185 outlet;
#X text 29 206 (harmonic);
#X obj 70 13 inlet;
#X connect 0 0 1 0;
#X connect 1 0 2 0;
#X connect 1 1 4 0;
#X connect 1 2 5 0;
#X connect 1 3 6 0;
#X connect 1 4 7 0;
#X connect 1 5 8 0;
#X connect 1 6 9 0;
#X connect 1 7 10 0;
#X connect 1 8 11 0;
#X connect 1 9 12 0;
#X connect 1 10 13 0;
#X connect 1 11 14 0;
#X connect 2 0 3 0;
#X connect 3 0 15 0;
#X connect 4 0 3 1;
#X connect 5 0 3 2;
#X connect 6 0 3 3;
#X connect 7 0 3 4;
#X connect 8 0 3 5;
#X connect 9 0 3 6;
#X connect 10 0 3 7;
#X connect 11 0 3 8;
#X connect 12 0 3 9;
#X connect 13 0 3 10;
#X connect 14 0 3 11;
#X connect 17 0 2 1;
#X connect 17 0 4 1;
#X connect 17 0 5 1;
#X connect 17 0 6 1;
#X connect 17 0 7 1;
#X connect 17 0 8 1;
#X connect 17 0 9 1;
#X connect 17 0 10 1;
#X connect 17 0 11 1;
#X connect 17 0 12 1;
#X connect 17 0 13 1;
#X connect 17 0 14 1;
#X restore 337 182 pd medianFilter;
#X obj 337 159 hpcp~;
#X floatatom 542 123 5 0 0 0 - - -;
#X msg 542 142 hop \$1;
#X msg 327 314 clear;
#X obj 35 271 text set \$0-tiv;
#X obj 35 226 t l b;
#X msg 64 249 1e+06;
#X obj 35 292 text define \$0-tiv;
#X obj 17 199 tis symbolic;
#X connect 1 0 30 0;
#X connect 1 1 4 1;
#X connect 2 0 5 0;
#X connect 5 0 4 0;
#X connect 6 0 4 0;
#X connect 7 0 6 0;
#X connect 8 0 4 0;
#X connect 9 0 8 0;
#X connect 12 0 4 0;
#X connect 13 0 12 0;
#X connect 14 0 22 0;
#X connect 15 0 14 1;
#X connect 16 0 14 0;
#X connect 17 0 18 0;
#X connect 18 0 22 1;
#X connect 19 0 20 0;
#X connect 20 0 22 1;
#X connect 21 0 30 0;
#X connect 22 0 21 0;
#X connect 23 0 24 0;
#X connect 24 0 22 1;
#X connect 25 0 4 0;
#X connect 27 0 26 0;
#X connect 27 1 28 0;
#X connect 28 0 26 1;
#X connect 30 0 4 0;
#X connect 30 0 27 0;
