#N canvas 560 23 606 618 10;
#X declare -lib iemmatrix;
#X obj 347 40 declare -lib iemmatrix;
#X obj 31 321 mtx_mul;
#X obj 70 192 list prepend matrix 6 1;
#X obj 31 344 list split 3;
#X obj 31 150 list-map;
#X obj 31 178 t b l;
#X obj 70 213 list trim;
#X obj 65 403 list-map;
#X msg 65 449 \$1 \$6 \$4 \$3 \$5 \$2;
#X obj 89 150 pow 2;
#X msg 31 236 matrix 6 6 0.710684 0.466667 0.133333 -0.2 -0.444017
-0.266667 0.466667 -0.2 -0.533333 -0.2 0.466667 0.4 0.133333 -0.533333
0.133333 0.8 0.133333 -0.266667 -0.2 -0.2 0.8 -0.2 -0.2 0.4 -0.444017
0.466667 0.133333 -0.2 0.710684 -0.266667 -0.266667 0.4 -0.266667 0.4
-0.266667 0.2;
#N canvas 0 23 629 209 inverse_mtx 0;
#X obj 12 98 matrix 6 6;
#X obj 12 139 mtx_inverse;
#X text 511 28 60 = 0.866025;
#X text 511 18 30 = 0.965926;
#X text 517 8 0 = 0;
#X text 505 68 180 = 0;
#X text 505 48 120 = 0.5;
#X text 511 38 90 = 0.707107;
#X text 505 58 150 = 0.258819;
#X msg 12 55 0.965926 0.866025 0.707107 0.5 0.258819 0 0.866025 0.5
0 0.5 0.866025 1 0.707107 0 0.707107 1 0.707107 0 0.5 0.5 1 0.5 0.5
1 0.258819 0.866025 0.707107 0.5 0.965926 0 0 1 0 1 0 1;
#X obj 12 160 print;
#X obj 12 119 mtx_.^ 2;
#X connect 0 0 11 0;
#X connect 1 0 10 0;
#X connect 9 0 0 0;
#X connect 11 0 1 0;
#X restore 347 61 pd inverse_mtx;
#X obj 127 404 expr sqrt(abs($f1));
#X obj 65 424 list-emath *;
#X obj 65 375 t l l l, f 65;
#X obj 452 396 list-map;
#X obj 510 396 abs;
#X obj 258 410 list-emath /;
#X obj 31 41 route array list;
#X obj 31 99 array get;
#X obj 31 124 list split 6;
#X obj 31 16 inlet;
#X obj 31 64 t b a;
#X obj 82 78 symbol;
#X obj 65 473 list prepend weights;
#X obj 65 494 list trim;
#X obj 65 515 outlet;
#X connect 1 0 3 0;
#X connect 2 0 6 0;
#X connect 3 1 14 0;
#X connect 4 0 5 0;
#X connect 4 1 9 0;
#X connect 5 0 10 0;
#X connect 5 1 2 0;
#X connect 6 0 1 1;
#X connect 7 0 13 0;
#X connect 7 1 12 0;
#X connect 8 0 24 0;
#X connect 9 0 4 1;
#X connect 10 0 1 0;
#X connect 12 0 7 1;
#X connect 13 0 8 0;
#X connect 14 0 7 0;
#X connect 14 1 17 0;
#X connect 14 2 15 0;
#X connect 15 0 17 1;
#X connect 15 1 16 0;
#X connect 16 0 15 1;
#X connect 17 0 13 1;
#X connect 18 0 22 0;
#X connect 18 1 20 0;
#X connect 19 0 20 0;
#X connect 20 0 4 0;
#X connect 21 0 18 0;
#X connect 22 0 19 0;
#X connect 22 1 23 0;
#X connect 23 0 19 2;
#X connect 24 0 25 0;
#X connect 25 0 26 0;
