#N struct 1026-line float x1 float y1 float x2 float y2 float c;
#N struct 1026-triangle float x float y float c;
#N struct 1026-curve float x float y float r;
#N struct 1026-label float x float y float n;
#N struct 1026-y-axis float x float y float s;
#N struct 1026-x-axis float x float y float s;
#N canvas 0 180 1280 594 10;
#N canvas 168 23 1440 646 \$0-viz 0;
#X scalar 1026-line 724.9 101.337 724.9 101.337 6 \;;
#X scalar 1026-line 378.66 128.053 378.66 128.053 6 \;;
#X scalar 1026-line 119.807 156.252 119.807 156.252 6 \;;
#X scalar 1026-line 724.9 101.337 718.769 89.5446 9 \;;
#X scalar 1026-line 378.66 128.053 385.73 115.618 9 \;;
#X scalar 1026-line 119.807 156.252 130.047 155.396 9 \;;
#X scalar 1026-line 718.769 89.5446 715.45 136.505 29 \;;
#X scalar 1026-line 385.73 115.618 424.255 143.385 29 \;;
#X scalar 1026-line 130.047 155.396 155.356 137.653 29 \;;
#X scalar 1026-line 715.45 136.505 722.014 97.0692 59 \;;
#X scalar 1026-line 424.255 143.385 389.671 131.274 59 \;;
#X scalar 1026-line 155.356 137.653 134.727 157.379 59 \;;
#X scalar 1026-line 722.014 97.0692 713.584 51.8449 79 \;;
#X scalar 1026-line 389.671 131.274 355.213 101.828 79 \;;
#X scalar 1026-line 134.727 157.379 115.59 177.73 79 \;;
#X scalar 1026-line 713.584 51.8449 706.371 50.9319 99 \;;
#X scalar 1026-line 355.213 101.828 356.414 98.7209 99 \;;
#X scalar 1026-line 115.59 177.73 105.792 173.618 99 \;;
#X scalar 1026-line 706.371 50.9319 713.898 48.6304 97 \;;
#X scalar 1026-line 356.414 98.7209 391.183 86.9555 97 \;;
#X scalar 1026-line 105.792 173.618 126.597 146.579 97 \;;
#X scalar 1026-line 713.898 48.6304 700.34 56.2762 94 \;;
#X scalar 1026-line 391.183 86.9555 387.681 92.335 94 \;;
#X scalar 1026-line 126.597 146.579 111.332 147.574 94 \;;
#X scalar 1026-line 700.34 56.2762 695.063 73.6482 92 \;;
#X scalar 1026-line 387.681 92.335 397.495 111.44 92 \;;
#X scalar 1026-line 111.332 147.574 99.7143 157.378 92 \;;
#X scalar 1026-line 695.063 73.6482 719.483 73.0466 90 \;;
#X scalar 1026-line 397.495 111.44 383.811 97.4562 90 \;;
#X scalar 1026-line 99.7143 157.378 114.935 163.721 90 \;;
#X scalar 1026-line 719.483 73.0466 751.231 98.6504 290 \;;
#X scalar 1026-line 383.811 97.4562 395.617 71.6983 290 \;;
#X scalar 1026-line 114.935 163.721 87.2495 138.55 290 \;;
#X scalar 1026-line 751.231 98.6504 753.834 101.193 490 \;;
#X scalar 1026-line 395.617 71.6983 394.46 97.9308 490 \;;
#X scalar 1026-line 87.2495 138.55 91.6686 101.742 490 \;;
#X scalar 1026-line 753.834 101.193 739.972 112.405 790 \;;
#X scalar 1026-line 394.46 97.9308 379.041 138.419 790 \;;
#X scalar 1026-line 91.6686 101.742 112.777 126.884 790 \;;
#X scalar 1026-line 739.972 112.405 726.112 151.197 990 \;;
#X scalar 1026-line 379.041 138.419 420.227 149.606 990 \;;
#X scalar 1026-line 112.777 126.884 143.049 123.239 990 \;;
#X scalar 1026-line 726.112 151.197 728.705 133.322 970 \;;
#X scalar 1026-line 420.227 149.606 421.78 113.148 970 \;;
#X scalar 1026-line 143.049 123.239 145.966 120.882 970 \;;
#X scalar 1026-line 728.705 133.322 737.113 69.4055 950 \;;
#X scalar 1026-line 421.78 113.148 355.4 83.398 950 \;;
#X scalar 1026-line 145.966 120.882 99.5526 185.761 950 \;;
#X scalar 1026-line 737.113 69.4055 748.531 86.6922 920 \;;
#X scalar 1026-line 355.4 83.398 377.67 61.9515 920 \;;
#X scalar 1026-line 99.5526 185.761 91.9252 172.894 920 \;;
#X scalar 1026-line 748.531 86.6922 745.028 91.0388 0 \;;
#X scalar 1026-line 377.67 61.9515 385.019 63.8786 0 \;;
#X scalar 1026-line 91.9252 172.894 99.3644 160.609 0 \;;
#X scalar 1026-line 745.028 91.0388 712.963 142.211 2 \;;
#X scalar 1026-line 385.019 63.8786 430.331 163.288 2 \;;
#X scalar 1026-line 99.3644 160.609 147.376 137.108 2 \;;
#X scalar 1026-line 712.963 142.211 736.98 146.098 4 \;;
#X scalar 1026-line 430.331 163.288 424.701 157.169 4 \;;
#X scalar 1026-line 147.376 137.108 148.141 116.073 4 \;;
#X scalar 1026-line 736.98 146.098 734.355 129.473 6 \;;
#X scalar 1026-line 424.701 157.169 425.492 160.788 6 \;;
#X scalar 1026-line 148.141 116.073 144.805 121.153 6 \;;
#X scalar 1026-line 734.355 129.473 729.027 154.94 9 \;;
#X scalar 1026-line 425.492 160.788 431.431 170.514 9 \;;
#X scalar 1026-line 144.805 121.153 159.257 129.31 9 \;;
#X scalar 1026-line 729.027 154.94 734.78 152.473 29 \;;
#X scalar 1026-line 431.431 170.514 421.791 175.144 29 \;;
#X scalar 1026-line 159.257 129.31 145.46 115.986 29 \;;
#X scalar 1026-line 734.78 152.473 735.291 147.502 59 \;;
#X scalar 1026-line 421.791 175.144 415.818 162.745 59 \;;
#X scalar 1026-line 145.46 115.986 132.528 118.304 59 \;;
#X scalar 1026-line 735.291 147.502 736.541 149.928 79 \;;
#X scalar 1026-line 415.818 162.745 419.91 170.51 79 \;;
#X scalar 1026-line 132.528 118.304 139.628 115.136 79 \;;
#X scalar 1026-line 736.541 149.928 741.5 146.844 99 \;;
#X scalar 1026-line 419.91 170.51 412.215 174.538 99 \;;
#X scalar 1026-line 139.628 115.136 133.338 102.5 99 \;;
#X scalar 1026-line 741.5 146.844 733.98 149.316 97 \;;
#X scalar 1026-line 412.215 174.538 415.732 165.102 97 \;;
#X scalar 1026-line 133.338 102.5 142.324 112.145 97 \;;
#X scalar 1026-line 733.98 149.316 717.345 40.9042 94 \;;
#X scalar 1026-line 415.732 165.102 330.452 103.639 94 \;;
#X scalar 1026-line 142.324 112.145 106.328 197.199 94 \;;
#X scalar 1026-line 717.345 40.9042 710 110 92 \;;
#X scalar 1026-line 330.452 103.639 410 110 92 \;;
#X scalar 1026-line 106.328 197.199 110 110 92 \;;
#X scalar 1026-line 710 110 710 110 90 \;;
#X scalar 1026-line 410 110 410 110 90 \;;
#X scalar 1026-line 110 110 110 110 90 \;;
#X scalar 1026-line 710 110 710 110 290 \;;
#X scalar 1026-line 410 110 410 110 290 \;;
#X scalar 1026-line 110 110 110 110 290 \;;
#X scalar 1026-line 710 110 710 110 490 \;;
#X scalar 1026-line 410 110 410 110 490 \;;
#X scalar 1026-line 110 110 110 110 490 \;;
#X scalar 1026-line 710 110 710 110 790 \;;
#X scalar 1026-line 410 110 410 110 790 \;;
#X scalar 1026-line 110 110 110 110 790 \;;
#X scalar 1026-line 710 110 710 110 990 \;;
#X scalar 1026-line 410 110 410 110 990 \;;
#X scalar 1026-line 110 110 110 110 990 \;;
#X scalar 1026-line 710 110 710 110 970 \;;
#X scalar 1026-line 410 110 410 110 970 \;;
#X scalar 1026-line 110 110 110 110 970 \;;
#X scalar 1026-line 710 110 710 110 950 \;;
#X scalar 1026-line 410 110 410 110 950 \;;
#X scalar 1026-line 110 110 110 110 950 \;;
#X scalar 1026-line 710 110 710 110 920 \;;
#X scalar 1026-line 410 110 410 110 920 \;;
#X scalar 1026-line 110 110 110 110 920 \;;
#X scalar 1026-line 710 110 710 110 0 \;;
#X scalar 1026-line 410 110 410 110 0 \;;
#X scalar 1026-line 110 110 110 110 0 \;;
#X scalar 1026-line 710 110 710 110 2 \;;
#X scalar 1026-line 410 110 410 110 2 \;;
#X scalar 1026-line 110 110 110 110 2 \;;
#X scalar 1026-line 710 110 741.771 58.618 4 \;;
#X scalar 1026-line 410 110 417.81 77.1549 4 \;;
#X scalar 1026-line 110 110 144.96 130.175 4 \;;
#X scalar 1026-line 741.771 58.618 729.086 118.298 6 \;;
#X scalar 1026-line 417.81 77.1549 428.385 139.602 6 \;;
#X scalar 1026-line 144.96 130.175 112.547 99.9365 6 \;;
#X scalar 1026-line 729.086 118.298 743.048 103.584 9 \;;
#X scalar 1026-line 428.385 139.602 401.459 103.054 9 \;;
#X scalar 1026-line 112.547 99.9365 106.288 100.769 9 \;;
#X scalar 1026-line 743.048 103.584 714.054 140.933 29 \;;
#X scalar 1026-line 401.459 103.054 419.044 132.854 29 \;;
#X scalar 1026-line 106.288 100.769 135.517 129.496 29 \;;
#X scalar 1026-line 714.054 140.933 727.05 145.191 59 \;;
#X scalar 1026-line 419.044 132.854 429.125 157.697 59 \;;
#X scalar 1026-line 135.517 129.496 156.994 116.543 59 \;;
#X scalar 1026-line 727.05 145.191 730.673 150.85 79 \;;
#X scalar 1026-line 429.125 157.697 427.591 170.593 79 \;;
#X scalar 1026-line 156.994 116.543 151.373 114.08 79 \;;
#X scalar 1026-line 730.673 150.85 728.953 148.867 99 \;;
#X scalar 1026-line 427.591 170.593 426.131 157.014 99 \;;
#X scalar 1026-line 151.373 114.08 147.596 119.885 99 \;;
#X scalar 1026-line 728.953 148.867 732.666 150.987 97 \;;
#X scalar 1026-line 426.131 157.014 416.078 175.142 97 \;;
#X scalar 1026-line 147.596 119.885 141.181 107.432 97 \;;
#X scalar 1026-line 732.666 150.987 735.537 138.526 94 \;;
#X scalar 1026-line 416.078 175.142 405.485 172.537 94 \;;
#X scalar 1026-line 141.181 107.432 129.397 107.794 94 \;;
#X scalar 1026-line 735.537 138.526 739.49 86.5634 92 \;;
#X scalar 1026-line 405.485 172.537 445.585 135.448 92 \;;
#X scalar 1026-line 129.397 107.794 132.098 109.988 92 \;;
#X scalar 1026-line 739.49 86.5634 738.763 80.5403 90 \;;
#X scalar 1026-line 445.585 135.448 433.025 121.727 90 \;;
#X scalar 1026-line 132.098 109.988 135.755 112.646 90 \;;
#X scalar 1026-line 738.763 80.5403 748.083 81.2729 290 \;;
#X scalar 1026-line 433.025 121.727 422.998 123.249 290 \;;
#X scalar 1026-line 135.755 112.646 138.581 113.964 290 \;;
#X scalar 1026-line 748.083 81.2729 738.492 80.4198 490 \;;
#X scalar 1026-line 422.998 123.249 414.939 116.993 490 \;;
#X scalar 1026-line 138.581 113.964 136.579 112.621 490 \;;
#X scalar 1026-line 738.492 80.4198 735.843 127.889 790 \;;
#X scalar 1026-line 414.939 116.993 430.447 134.822 790 \;;
#X scalar 1026-line 136.579 112.621 140.557 103.458 790 \;;
#X scalar 1026-line 735.843 127.889 739.752 135.845 990 \;;
#X scalar 1026-line 430.447 134.822 424.085 154.26 990 \;;
#X scalar 1026-line 140.557 103.458 138.378 103.484 990 \;;
#X scalar 1026-line 739.752 135.845 715.267 101.036 970 \;;
#X scalar 1026-line 424.085 154.26 381.435 132.673 970 \;;
#X scalar 1026-line 138.378 103.484 122.676 159.953 970 \;;
#X scalar 1026-line 715.267 101.036 707.2 116.393 950 \;;
#X scalar 1026-line 381.435 132.673 392.878 148.039 950 \;;
#X scalar 1026-line 122.676 159.953 139.761 159.092 950 \;;
#X scalar 1026-line 707.2 116.393 712.953 138.512 920 \;;
#X scalar 1026-line 392.878 148.039 411.279 167.041 920 \;;
#X scalar 1026-line 139.761 159.092 154.594 147.75 920 \;;
#X scalar 1026-line 712.953 138.512 708.25 72.0812 0 \;;
#X scalar 1026-line 411.279 167.041 387.714 113.48 0 \;;
#X scalar 1026-line 154.594 147.75 120.122 160.787 0 \;;
#X scalar 1026-line 708.25 72.0812 706.773 48.6034 2 \;;
#X scalar 1026-line 387.714 113.48 356.397 107.86 2 \;;
#X scalar 1026-line 120.122 160.787 109.818 180.242 2 \;;
#X scalar 1026-line 706.773 48.6034 693.817 59.2013 4 \;;
#X scalar 1026-line 356.397 107.86 361.973 110.454 4 \;;
#X scalar 1026-line 109.818 180.242 105.866 171.957 4 \;;
#X scalar 1026-line 693.817 59.2013 691.553 60.5496 6 \;;
#X scalar 1026-line 361.973 110.454 385.378 99.8853 6 \;;
#X scalar 1026-line 105.866 171.957 99.8395 159.089 6 \;;
#X scalar 1026-line 691.553 60.5496 684.365 65.0389 9 \;;
#X scalar 1026-line 385.378 99.8853 388.746 100.544 9 \;;
#X scalar 1026-line 99.8395 159.089 94.1658 151.777 9 \;;
#X scalar 1026-line 684.365 65.0389 677.203 106.977 29 \;;
#X scalar 1026-line 388.746 100.544 443.008 94.4053 29 \;;
#X scalar 1026-line 94.1658 151.777 86.1507 127.909 29 \;;
#X scalar 1026-line 677.203 106.977 710 110 59 \;;
#X scalar 1026-line 443.008 94.4053 410 110 59 \;;
#X scalar 1026-line 86.1507 127.909 110 110 59 \;;
#X scalar 1026-line 710 110 710 110 79 \;;
#X scalar 1026-line 410 110 410 110 79 \;;
#X scalar 1026-line 110 110 110 110 79 \;;
#X scalar 1026-line 710 110 710 110 99 \;;
#X scalar 1026-line 410 110 410 110 99 \;;
#X scalar 1026-line 110 110 110 110 99 \;;
#X scalar 1026-line 710 110 710 110 97 \;;
#X scalar 1026-line 410 110 410 110 97 \;;
#X scalar 1026-line 110 110 110 110 97 \;;
#X scalar 1026-line 710 110 710 110 94 \;;
#X scalar 1026-line 410 110 410 110 94 \;;
#X scalar 1026-line 110 110 110 110 94 \;;
#X scalar 1026-triangle 722.4 98.8375 6 \;;
#X scalar 1026-triangle 376.16 125.553 6 \;;
#X scalar 1026-triangle 117.307 153.752 6 \;;
#X scalar 1026-triangle 716.269 87.0446 9 \;;
#X scalar 1026-triangle 383.23 113.118 9 \;;
#X scalar 1026-triangle 127.547 152.896 9 \;;
#X scalar 1026-triangle 712.95 134.005 29 \;;
#X scalar 1026-triangle 421.755 140.885 29 \;;
#X scalar 1026-triangle 152.856 135.153 29 \;;
#X scalar 1026-triangle 719.514 94.5692 59 \;;
#X scalar 1026-triangle 387.171 128.774 59 \;;
#X scalar 1026-triangle 132.227 154.879 59 \;;
#X scalar 1026-triangle 711.084 49.3449 79 \;;
#X scalar 1026-triangle 352.713 99.3278 79 \;;
#X scalar 1026-triangle 113.09 175.23 79 \;;
#X scalar 1026-triangle 703.871 48.4319 99 \;;
#X scalar 1026-triangle 353.914 96.2209 99 \;;
#X scalar 1026-triangle 103.292 171.118 99 \;;
#X scalar 1026-triangle 711.398 46.1304 97 \;;
#X scalar 1026-triangle 388.683 84.4555 97 \;;
#X scalar 1026-triangle 124.097 144.079 97 \;;
#X scalar 1026-triangle 697.84 53.7762 94 \;;
#X scalar 1026-triangle 385.181 89.835 94 \;;
#X scalar 1026-triangle 108.832 145.074 94 \;;
#X scalar 1026-triangle 692.563 71.1482 92 \;;
#X scalar 1026-triangle 394.995 108.94 92 \;;
#X scalar 1026-triangle 97.2143 154.878 92 \;;
#X scalar 1026-triangle 716.983 70.5466 90 \;;
#X scalar 1026-triangle 381.311 94.9562 90 \;;
#X scalar 1026-triangle 112.435 161.221 90 \;;
#X scalar 1026-triangle 748.731 96.1504 290 \;;
#X scalar 1026-triangle 393.117 69.1983 290 \;;
#X scalar 1026-triangle 84.7495 136.05 290 \;;
#X scalar 1026-triangle 751.334 98.6926 490 \;;
#X scalar 1026-triangle 391.96 95.4308 490 \;;
#X scalar 1026-triangle 89.1686 99.2419 490 \;;
#X scalar 1026-triangle 737.472 109.905 790 \;;
#X scalar 1026-triangle 376.541 135.919 790 \;;
#X scalar 1026-triangle 110.277 124.384 790 \;;
#X scalar 1026-triangle 723.612 148.697 990 \;;
#X scalar 1026-triangle 417.727 147.106 990 \;;
#X scalar 1026-triangle 140.549 120.739 990 \;;
#X scalar 1026-triangle 726.205 130.822 970 \;;
#X scalar 1026-triangle 419.28 110.648 970 \;;
#X scalar 1026-triangle 143.466 118.382 970 \;;
#X scalar 1026-triangle 734.613 66.9055 950 \;;
#X scalar 1026-triangle 352.9 80.898 950 \;;
#X scalar 1026-triangle 97.0526 183.261 950 \;;
#X scalar 1026-triangle 746.031 84.1922 920 \;;
#X scalar 1026-triangle 375.17 59.4515 920 \;;
#X scalar 1026-triangle 89.4252 170.394 920 \;;
#X scalar 1026-triangle 742.528 88.5388 0 \;;
#X scalar 1026-triangle 382.519 61.3786 0 \;;
#X scalar 1026-triangle 96.8644 158.109 0 \;;
#X scalar 1026-triangle 710.463 139.711 2 \;;
#X scalar 1026-triangle 427.831 160.788 2 \;;
#X scalar 1026-triangle 144.876 134.608 2 \;;
#X scalar 1026-triangle 734.48 143.598 4 \;;
#X scalar 1026-triangle 422.201 154.669 4 \;;
#X scalar 1026-triangle 145.641 113.573 4 \;;
#X scalar 1026-triangle 731.855 126.973 6 \;;
#X scalar 1026-triangle 422.992 158.288 6 \;;
#X scalar 1026-triangle 142.305 118.653 6 \;;
#X scalar 1026-triangle 726.527 152.44 9 \;;
#X scalar 1026-triangle 428.931 168.014 9 \;;
#X scalar 1026-triangle 156.757 126.81 9 \;;
#X scalar 1026-triangle 732.28 149.973 29 \;;
#X scalar 1026-triangle 419.291 172.644 29 \;;
#X scalar 1026-triangle 142.96 113.486 29 \;;
#X scalar 1026-triangle 732.791 145.002 59 \;;
#X scalar 1026-triangle 413.318 160.245 59 \;;
#X scalar 1026-triangle 130.028 115.804 59 \;;
#X scalar 1026-triangle 734.041 147.428 79 \;;
#X scalar 1026-triangle 417.41 168.01 79 \;;
#X scalar 1026-triangle 137.128 112.636 79 \;;
#X scalar 1026-triangle 739 144.344 99 \;;
#X scalar 1026-triangle 409.715 172.038 99 \;;
#X scalar 1026-triangle 130.838 99.9998 99 \;;
#X scalar 1026-triangle 731.48 146.816 97 \;;
#X scalar 1026-triangle 413.232 162.602 97 \;;
#X scalar 1026-triangle 139.824 109.645 97 \;;
#X scalar 1026-triangle 714.845 38.4042 94 \;;
#X scalar 1026-triangle 327.952 101.139 94 \;;
#X scalar 1026-triangle 103.828 194.699 94 \;;
#X scalar 1026-triangle 707.5 107.5 92 \;;
#X scalar 1026-triangle 407.5 107.5 92 \;;
#X scalar 1026-triangle 107.5 107.5 92 \;;
#X scalar 1026-triangle 707.5 107.5 90 \;;
#X scalar 1026-triangle 407.5 107.5 90 \;;
#X scalar 1026-triangle 107.5 107.5 90 \;;
#X scalar 1026-triangle 707.5 107.5 290 \;;
#X scalar 1026-triangle 407.5 107.5 290 \;;
#X scalar 1026-triangle 107.5 107.5 290 \;;
#X scalar 1026-triangle 707.5 107.5 490 \;;
#X scalar 1026-triangle 407.5 107.5 490 \;;
#X scalar 1026-triangle 107.5 107.5 490 \;;
#X scalar 1026-triangle 707.5 107.5 790 \;;
#X scalar 1026-triangle 407.5 107.5 790 \;;
#X scalar 1026-triangle 107.5 107.5 790 \;;
#X scalar 1026-triangle 707.5 107.5 990 \;;
#X scalar 1026-triangle 407.5 107.5 990 \;;
#X scalar 1026-triangle 107.5 107.5 990 \;;
#X scalar 1026-triangle 707.5 107.5 970 \;;
#X scalar 1026-triangle 407.5 107.5 970 \;;
#X scalar 1026-triangle 107.5 107.5 970 \;;
#X scalar 1026-triangle 707.5 107.5 950 \;;
#X scalar 1026-triangle 407.5 107.5 950 \;;
#X scalar 1026-triangle 107.5 107.5 950 \;;
#X scalar 1026-triangle 707.5 107.5 920 \;;
#X scalar 1026-triangle 407.5 107.5 920 \;;
#X scalar 1026-triangle 107.5 107.5 920 \;;
#X scalar 1026-triangle 707.5 107.5 0 \;;
#X scalar 1026-triangle 407.5 107.5 0 \;;
#X scalar 1026-triangle 107.5 107.5 0 \;;
#X scalar 1026-triangle 707.5 107.5 2 \;;
#X scalar 1026-triangle 407.5 107.5 2 \;;
#X scalar 1026-triangle 107.5 107.5 2 \;;
#X scalar 1026-triangle 739.271 56.118 4 \;;
#X scalar 1026-triangle 415.31 74.6549 4 \;;
#X scalar 1026-triangle 142.46 127.675 4 \;;
#X scalar 1026-triangle 726.586 115.798 6 \;;
#X scalar 1026-triangle 425.885 137.102 6 \;;
#X scalar 1026-triangle 110.047 97.4365 6 \;;
#X scalar 1026-triangle 740.548 101.084 9 \;;
#X scalar 1026-triangle 398.959 100.554 9 \;;
#X scalar 1026-triangle 103.788 98.269 9 \;;
#X scalar 1026-triangle 711.554 138.433 29 \;;
#X scalar 1026-triangle 416.544 130.354 29 \;;
#X scalar 1026-triangle 133.017 126.996 29 \;;
#X scalar 1026-triangle 724.55 142.691 59 \;;
#X scalar 1026-triangle 426.625 155.197 59 \;;
#X scalar 1026-triangle 154.494 114.043 59 \;;
#X scalar 1026-triangle 728.173 148.35 79 \;;
#X scalar 1026-triangle 425.091 168.093 79 \;;
#X scalar 1026-triangle 148.873 111.58 79 \;;
#X scalar 1026-triangle 726.453 146.367 99 \;;
#X scalar 1026-triangle 423.631 154.514 99 \;;
#X scalar 1026-triangle 145.096 117.385 99 \;;
#X scalar 1026-triangle 730.166 148.487 97 \;;
#X scalar 1026-triangle 413.578 172.642 97 \;;
#X scalar 1026-triangle 138.681 104.932 97 \;;
#X scalar 1026-triangle 733.037 136.026 94 \;;
#X scalar 1026-triangle 402.985 170.037 94 \;;
#X scalar 1026-triangle 126.897 105.294 94 \;;
#X scalar 1026-triangle 736.99 84.0634 92 \;;
#X scalar 1026-triangle 443.085 132.948 92 \;;
#X scalar 1026-triangle 129.598 107.488 92 \;;
#X scalar 1026-triangle 736.263 78.0403 90 \;;
#X scalar 1026-triangle 430.525 119.227 90 \;;
#X scalar 1026-triangle 133.255 110.146 90 \;;
#X scalar 1026-triangle 745.583 78.7729 290 \;;
#X scalar 1026-triangle 420.498 120.749 290 \;;
#X scalar 1026-triangle 136.081 111.464 290 \;;
#X scalar 1026-triangle 735.992 77.9198 490 \;;
#X scalar 1026-triangle 412.439 114.493 490 \;;
#X scalar 1026-triangle 134.079 110.121 490 \;;
#X scalar 1026-triangle 733.343 125.389 790 \;;
#X scalar 1026-triangle 427.947 132.322 790 \;;
#X scalar 1026-triangle 138.057 100.958 790 \;;
#X scalar 1026-triangle 737.252 133.345 990 \;;
#X scalar 1026-triangle 421.585 151.76 990 \;;
#X scalar 1026-triangle 135.878 100.984 990 \;;
#X scalar 1026-triangle 712.767 98.5362 970 \;;
#X scalar 1026-triangle 378.935 130.173 970 \;;
#X scalar 1026-triangle 120.176 157.453 970 \;;
#X scalar 1026-triangle 704.7 113.893 950 \;;
#X scalar 1026-triangle 390.378 145.539 950 \;;
#X scalar 1026-triangle 137.261 156.592 950 \;;
#X scalar 1026-triangle 710.453 136.012 920 \;;
#X scalar 1026-triangle 408.779 164.541 920 \;;
#X scalar 1026-triangle 152.094 145.25 920 \;;
#X scalar 1026-triangle 705.75 69.5812 0 \;;
#X scalar 1026-triangle 385.214 110.98 0 \;;
#X scalar 1026-triangle 117.622 158.287 0 \;;
#X scalar 1026-triangle 704.273 46.1034 2 \;;
#X scalar 1026-triangle 353.897 105.36 2 \;;
#X scalar 1026-triangle 107.318 177.742 2 \;;
#X scalar 1026-triangle 691.317 56.7013 4 \;;
#X scalar 1026-triangle 359.473 107.954 4 \;;
#X scalar 1026-triangle 103.366 169.457 4 \;;
#X scalar 1026-triangle 689.053 58.0496 6 \;;
#X scalar 1026-triangle 382.878 97.3853 6 \;;
#X scalar 1026-triangle 97.3395 156.589 6 \;;
#X scalar 1026-triangle 681.865 62.5389 9 \;;
#X scalar 1026-triangle 386.246 98.0436 9 \;;
#X scalar 1026-triangle 91.6658 149.277 9 \;;
#X scalar 1026-triangle 674.703 104.477 29 \;;
#X scalar 1026-triangle 440.508 91.9053 29 \;;
#X scalar 1026-triangle 83.6507 125.409 29 \;;
#X scalar 1026-triangle 707.5 107.5 59 \;;
#X scalar 1026-triangle 407.5 107.5 59 \;;
#X scalar 1026-triangle 107.5 107.5 59 \;;
#X scalar 1026-triangle 707.5 107.5 79 \;;
#X scalar 1026-triangle 407.5 107.5 79 \;;
#X scalar 1026-triangle 107.5 107.5 79 \;;
#X scalar 1026-triangle 707.5 107.5 99 \;;
#X scalar 1026-triangle 407.5 107.5 99 \;;
#X scalar 1026-triangle 107.5 107.5 99 \;;
#X scalar 1026-triangle 707.5 107.5 97 \;;
#X scalar 1026-triangle 407.5 107.5 97 \;;
#X scalar 1026-triangle 107.5 107.5 97 \;;
#X scalar 1026-triangle 707.5 107.5 94 \;;
#X scalar 1026-triangle 407.5 107.5 94 \;;
#X scalar 1026-triangle 107.5 107.5 94 \;;
#X scalar 1026-curve 110 110 100 \;;
#X scalar 1026-curve 410 110 100 \;;
#X scalar 1026-curve 710 110 100 \;;
#X scalar 1026-label 210 103.5 0 \;;
#X scalar 1026-label 196.268 154.25 1 \;;
#X scalar 1026-label 158.75 191.402 2 \;;
#X scalar 1026-label 107.5 205 3 \;;
#X scalar 1026-label 56.2501 191.402 4 \;;
#X scalar 1026-label 18.7325 154.25 5 \;;
#X scalar 1026-label 5 103.5 6 \;;
#X scalar 1026-label 18.7322 52.7503 7 \;;
#X scalar 1026-label 56.2497 15.5986 8 \;;
#X scalar 1026-label 107.5 2 9 \;;
#X scalar 1026-label 158.75 15.5982 10 \;;
#X scalar 1026-label 196.267 52.7496 11 \;;
#X scalar 1026-label 509.744 96.4197 0 \;;
#X scalar 1026-label 463.715 187.647 1 \;;
#X scalar 1026-label 358.971 194.728 2 \;;
#X scalar 1026-label 300.256 110.581 3 \;;
#X scalar 1026-label 346.284 19.3529 4 \;;
#X scalar 1026-label 451.029 12.2722 5 \;;
#X scalar 1026-label 509.744 110.58 6 \;;
#X scalar 1026-label 451.029 194.728 7 \;;
#X scalar 1026-label 346.285 187.647 8 \;;
#X scalar 1026-label 300.256 96.42 9 \;;
#X scalar 1026-label 358.971 12.2726 10 \;;
#X scalar 1026-label 463.715 19.3524 11 \;;
#X scalar 1026-label 808.978 89.3739 0 \;;
#X scalar 1026-label 719.613 204.012 9 \;;
#X scalar 1026-label 601.022 117.626 10 \;;
#X scalar 1026-label 690.386 2.98785 3 \;;
#X scalar 1026-label 810 103.5 4 \;;
#X scalar 1026-label 705 205 5 \;;
#X scalar 1026-label 600 103.5 6 \;;
#X scalar 1026-label 705 2 7 \;;
#X scalar 1026-label 808.978 117.626 8 \;;
#X scalar 1026-label 690.387 204.012 1 \;;
#X scalar 1026-label 601.022 89.3742 2 \;;
#X scalar 1026-label 719.613 2.98773 11 \;;
#X scalar 1026-y-axis 710 17 186 \;;
#X scalar 1026-y-axis 410 17 186 \;;
#X scalar 1026-y-axis 110 17 186 \;;
#X scalar 1026-x-axis 617 110 186 \;;
#X scalar 1026-x-axis 317 110 186 \;;
#X scalar 1026-x-axis 17 110 186 \;;
#X coords 0 0 820 220 820 220 2 0 0;
#X restore 0 20 pd \$0-viz;
#X obj 3 0 hsl 815 20 0 127 0 0 \$0-aa1 \$0-aa1.r empty 60 10 0 12
-228856 -228856 -1 0 1;
#X obj 844 -2 inlet;
#X obj 3 240 hsl 815 20 0 127 0 0 \$0-aa1 \$0-aa1.r empty 60 10 0 12
-228856 -228856 -1 0 1;
#X text 393 242 P4 / P5;
#N canvas 168 23 1440 646 \$0-viz1 0;
#X scalar 1026-line 680.125 110 680.125 110 6 \;;
#X scalar 1026-line 390.527 142.865 390.527 142.865 6 \;;
#X scalar 1026-line 118.658 117.528 118.658 117.528 6 \;;
#X scalar 1026-line 680.125 110 677.587 110 9 \;;
#X scalar 1026-line 390.527 142.865 392.57 132.061 9 \;;
#X scalar 1026-line 118.658 117.528 118.649 108.788 9 \;;
#X scalar 1026-line 677.587 110 679.959 110 29 \;;
#X scalar 1026-line 392.57 132.061 379.451 123.061 29 \;;
#X scalar 1026-line 118.649 108.788 87.6357 120.024 29 \;;
#X scalar 1026-line 679.959 110 679.506 110 59 \;;
#X scalar 1026-line 379.451 123.061 390.595 140.985 59 \;;
#X scalar 1026-line 87.6357 120.024 126.621 122.181 59 \;;
#X scalar 1026-line 679.506 110 670.587 110 79 \;;
#X scalar 1026-line 390.595 140.985 401.687 149.247 79 \;;
#X scalar 1026-line 126.621 122.181 155.922 113.38 79 \;;
#X scalar 1026-line 670.587 110 676.981 110 99 \;;
#X scalar 1026-line 401.687 149.247 401.279 148.786 99 \;;
#X scalar 1026-line 155.922 113.38 157.837 113.38 99 \;;
#X scalar 1026-line 676.981 110 674.497 110.001 97 \;;
#X scalar 1026-line 401.279 148.786 391.975 127.638 97 \;;
#X scalar 1026-line 157.837 113.38 144.017 96.0284 97 \;;
#X scalar 1026-line 674.497 110.001 686.105 110 94 \;;
#X scalar 1026-line 391.975 127.638 394.165 134.689 94 \;;
#X scalar 1026-line 144.017 96.0284 148.11 105.717 94 \;;
#X scalar 1026-line 686.105 110 688.742 110 92 \;;
#X scalar 1026-line 394.165 134.689 387.139 135.744 92 \;;
#X scalar 1026-line 148.11 105.717 151.339 114.736 92 \;;
#X scalar 1026-line 688.742 110 683.392 110 90 \;;
#X scalar 1026-line 387.139 135.744 390.058 127.399 90 \;;
#X scalar 1026-line 151.339 114.736 133.58 118.853 90 \;;
#X scalar 1026-line 683.392 110 725.263 110 290 \;;
#X scalar 1026-line 390.058 127.399 389.265 95.7356 290 \;;
#X scalar 1026-line 133.58 118.853 98.9716 113.962 290 \;;
#X scalar 1026-line 725.263 110 727.727 110 490 \;;
#X scalar 1026-line 389.265 95.7356 385.45 107.067 490 \;;
#X scalar 1026-line 98.9716 113.962 98.4981 93.0867 490 \;;
#X scalar 1026-line 727.727 110 701.232 110 790 \;;
#X scalar 1026-line 385.45 107.067 384.313 137.311 790 \;;
#X scalar 1026-line 98.4981 93.0867 107.405 109.936 790 \;;
#X scalar 1026-line 701.232 110 691.95 110 990 \;;
#X scalar 1026-line 384.313 137.311 381.846 118.541 990 \;;
#X scalar 1026-line 107.405 109.936 86.3636 130.678 990 \;;
#X scalar 1026-line 691.95 110 691.101 110 970 \;;
#X scalar 1026-line 381.846 118.541 383.088 101.214 970 \;;
#X scalar 1026-line 86.3636 130.678 90.4284 119.752 970 \;;
#X scalar 1026-line 691.101 110 690.844 110 950 \;;
#X scalar 1026-line 383.088 101.214 399.032 127.698 950 \;;
#X scalar 1026-line 90.4284 119.752 134.875 127.07 950 \;;
#X scalar 1026-line 690.844 110 699.787 110 920 \;;
#X scalar 1026-line 399.032 127.698 401.939 111.066 920 \;;
#X scalar 1026-line 134.875 127.07 114.832 121.646 920 \;;
#X scalar 1026-line 699.787 110 697.327 110 0 \;;
#X scalar 1026-line 401.939 111.066 405.575 108.071 0 \;;
#X scalar 1026-line 114.832 121.646 116.285 114.895 0 \;;
#X scalar 1026-line 697.327 110 693.711 110 2 \;;
#X scalar 1026-line 405.575 108.071 383.668 130.197 2 \;;
#X scalar 1026-line 116.285 114.895 103.585 132.722 2 \;;
#X scalar 1026-line 693.711 110 704.33 110 4 \;;
#X scalar 1026-line 383.668 130.197 382.333 127.626 4 \;;
#X scalar 1026-line 103.585 132.722 90.5884 119.63 4 \;;
#X scalar 1026-line 704.33 110 700.155 110 6 \;;
#X scalar 1026-line 382.333 127.626 399.372 131.639 6 \;;
#X scalar 1026-line 90.5884 119.63 105.368 124.459 6 \;;
#X scalar 1026-line 700.155 110 688.414 110 9 \;;
#X scalar 1026-line 399.372 131.639 378.505 137.944 9 \;;
#X scalar 1026-line 105.368 124.459 91.1512 135.589 9 \;;
#X scalar 1026-line 688.414 110 693.172 110 29 \;;
#X scalar 1026-line 378.505 137.944 373.755 143.265 29 \;;
#X scalar 1026-line 91.1512 135.589 85.6183 127.417 29 \;;
#X scalar 1026-line 693.172 110 692.805 110 59 \;;
#X scalar 1026-line 373.755 143.265 380.56 143.63 59 \;;
#X scalar 1026-line 85.6183 127.417 88.3652 119.447 59 \;;
#X scalar 1026-line 692.805 110 694.378 110 79 \;;
#X scalar 1026-line 380.56 143.63 376.923 143.472 79 \;;
#X scalar 1026-line 88.3652 119.447 86.5399 124.048 79 \;;
#X scalar 1026-line 694.378 110 702.4 110 99 \;;
#X scalar 1026-line 376.923 143.472 375.572 143.866 99 \;;
#X scalar 1026-line 86.5399 124.048 86.9945 116.372 99 \;;
#X scalar 1026-line 702.4 110 692.289 110 97 \;;
#X scalar 1026-line 375.572 143.866 375.521 135.764 97 \;;
#X scalar 1026-line 86.9945 116.372 89.9484 126.655 97 \;;
#X scalar 1026-line 692.289 110 661.809 110 94 \;;
#X scalar 1026-line 375.521 135.764 406.328 160.992 94 \;;
#X scalar 1026-line 89.9484 126.655 168.644 116.361 94 \;;
#X scalar 1026-line 661.809 110 710 110 92 \;;
#X scalar 1026-line 406.328 160.992 410 110 92 \;;
#X scalar 1026-line 168.644 116.361 110 110 92 \;;
#X scalar 1026-line 710 110 710 110 90 \;;
#X scalar 1026-line 410 110 410 110 90 \;;
#X scalar 1026-line 110 110 110 110 90 \;;
#X scalar 1026-line 710 110 710 110 290 \;;
#X scalar 1026-line 410 110 410 110 290 \;;
#X scalar 1026-line 110 110 110 110 290 \;;
#X scalar 1026-line 710 110 710 110 490 \;;
#X scalar 1026-line 410 110 410 110 490 \;;
#X scalar 1026-line 110 110 110 110 490 \;;
#X scalar 1026-line 710 110 710 110 790 \;;
#X scalar 1026-line 410 110 410 110 790 \;;
#X scalar 1026-line 110 110 110 110 790 \;;
#X scalar 1026-line 710 110 710 110 990 \;;
#X scalar 1026-line 410 110 410 110 990 \;;
#X scalar 1026-line 110 110 110 110 990 \;;
#X scalar 1026-line 710 110 710 110 970 \;;
#X scalar 1026-line 410 110 410 110 970 \;;
#X scalar 1026-line 110 110 110 110 970 \;;
#X scalar 1026-line 710 110 710 110 950 \;;
#X scalar 1026-line 410 110 410 110 950 \;;
#X scalar 1026-line 110 110 110 110 950 \;;
#X scalar 1026-line 710 110 710 110 920 \;;
#X scalar 1026-line 410 110 410 110 920 \;;
#X scalar 1026-line 110 110 110 110 920 \;;
#X scalar 1026-line 710 110 710 110 0 \;;
#X scalar 1026-line 410 110 410 110 0 \;;
#X scalar 1026-line 110 110 110 110 0 \;;
#X scalar 1026-line 710 110 710 110 2 \;;
#X scalar 1026-line 410 110 410 110 2 \;;
#X scalar 1026-line 110 110 110 110 2 \;;
#X scalar 1026-line 710 110 694.259 110.001 4 \;;
#X scalar 1026-line 410 110 402.488 103.63 4 \;;
#X scalar 1026-line 110 110 130.126 97.7963 4 \;;
#X scalar 1026-line 694.259 110.001 727.036 110 6 \;;
#X scalar 1026-line 402.488 103.63 407.388 117.543 6 \;;
#X scalar 1026-line 130.126 97.7963 113.988 104.244 6 \;;
#X scalar 1026-line 727.036 110 742.083 110 9 \;;
#X scalar 1026-line 407.388 117.543 413.085 118.742 9 \;;
#X scalar 1026-line 113.988 104.244 101.938 109.114 9 \;;
#X scalar 1026-line 742.083 110 690.705 110 29 \;;
#X scalar 1026-line 413.085 118.742 394.664 121.153 29 \;;
#X scalar 1026-line 101.938 109.114 87.3873 120.533 29 \;;
#X scalar 1026-line 690.705 110 686.723 110 59 \;;
#X scalar 1026-line 394.664 121.153 371.245 129.847 59 \;;
#X scalar 1026-line 87.3873 120.533 82.8022 123.265 59 \;;
#X scalar 1026-line 686.723 110 690.177 110 79 \;;
#X scalar 1026-line 371.245 129.847 372.28 137.804 79 \;;
#X scalar 1026-line 82.8022 123.265 81.6464 125.824 79 \;;
#X scalar 1026-line 690.177 110 689.595 110 99 \;;
#X scalar 1026-line 372.28 137.804 374.185 130.18 99 \;;
#X scalar 1026-line 81.6464 125.824 81.1404 121.721 99 \;;
#X scalar 1026-line 689.595 110 698.017 110 97 \;;
#X scalar 1026-line 374.185 130.18 371.429 138.452 97 \;;
#X scalar 1026-line 81.1404 121.721 80.1895 116.977 97 \;;
#X scalar 1026-line 698.017 110 701.968 110 94 \;;
#X scalar 1026-line 371.429 138.452 379.288 141.946 94 \;;
#X scalar 1026-line 80.1895 116.977 90.0649 112.965 94 \;;
#X scalar 1026-line 701.968 110 707.868 110 92 \;;
#X scalar 1026-line 379.288 141.946 433.627 112.649 92 \;;
#X scalar 1026-line 90.0649 112.965 130.806 122.267 92 \;;
#X scalar 1026-line 707.868 110 716.624 110 90 \;;
#X scalar 1026-line 433.627 112.649 436.002 120.615 90 \;;
#X scalar 1026-line 130.806 122.267 140.757 115.151 90 \;;
#X scalar 1026-line 716.624 110 723.776 110 290 \;;
#X scalar 1026-line 436.002 120.615 435.066 127.746 290 \;;
#X scalar 1026-line 140.757 115.151 143.48 104.78 290 \;;
#X scalar 1026-line 723.776 110 719.865 110 490 \;;
#X scalar 1026-line 435.066 127.746 433.537 127.843 490 \;;
#X scalar 1026-line 143.48 104.78 141.927 108.308 490 \;;
#X scalar 1026-line 719.865 110 691.263 110 790 \;;
#X scalar 1026-line 433.537 127.843 380.974 129.606 790 \;;
#X scalar 1026-line 141.927 108.308 82.6082 109.494 790 \;;
#X scalar 1026-line 691.263 110 698.012 110 990 \;;
#X scalar 1026-line 380.974 129.606 376.913 135.117 990 \;;
#X scalar 1026-line 82.6082 109.494 82.5027 114.106 990 \;;
#X scalar 1026-line 698.012 110 683.8 110 970 \;;
#X scalar 1026-line 376.913 135.117 399.443 138.278 970 \;;
#X scalar 1026-line 82.5027 114.106 115.574 110.027 970 \;;
#X scalar 1026-line 683.8 110 679.588 110 950 \;;
#X scalar 1026-line 399.443 138.278 391.908 136.043 950 \;;
#X scalar 1026-line 115.574 110.027 107.048 115.933 950 \;;
#X scalar 1026-line 679.588 110 683.005 110 920 \;;
#X scalar 1026-line 391.908 136.043 383.952 137.582 920 \;;
#X scalar 1026-line 107.048 115.933 98.7168 127.759 920 \;;
#X scalar 1026-line 683.005 110 683.774 110 0 \;;
#X scalar 1026-line 383.952 137.582 398.876 140.708 0 \;;
#X scalar 1026-line 98.7168 127.759 150.374 109.18 0 \;;
#X scalar 1026-line 683.774 110 674.333 110 2 \;;
#X scalar 1026-line 398.876 140.708 406.661 150.291 2 \;;
#X scalar 1026-line 150.374 109.18 165.493 106.494 2 \;;
#X scalar 1026-line 674.333 110 681.447 110 4 \;;
#X scalar 1026-line 406.661 150.291 403.435 149.253 4 \;;
#X scalar 1026-line 165.493 106.494 158.583 110.395 4 \;;
#X scalar 1026-line 681.447 110 685.303 110 6 \;;
#X scalar 1026-line 403.435 149.253 393.109 138.954 6 \;;
#X scalar 1026-line 158.583 110.395 155.522 99.7041 6 \;;
#X scalar 1026-line 685.303 110 695.208 110 9 \;;
#X scalar 1026-line 393.109 138.954 393.427 139.5 9 \;;
#X scalar 1026-line 155.522 99.7041 154.875 107.16 9 \;;
#X scalar 1026-line 695.208 110 720.047 110 29 \;;
#X scalar 1026-line 393.427 139.5 399.148 120.83 29 \;;
#X scalar 1026-line 154.875 107.16 140.934 88.2658 29 \;;
#X scalar 1026-line 720.047 110 710 110 59 \;;
#X scalar 1026-line 399.148 120.83 410 110 59 \;;
#X scalar 1026-line 140.934 88.2658 110 110 59 \;;
#X scalar 1026-line 710 110 710 110 79 \;;
#X scalar 1026-line 410 110 410 110 79 \;;
#X scalar 1026-line 110 110 110 110 79 \;;
#X scalar 1026-line 710 110 710 110 99 \;;
#X scalar 1026-line 410 110 410 110 99 \;;
#X scalar 1026-line 110 110 110 110 99 \;;
#X scalar 1026-line 710 110 710 110 97 \;;
#X scalar 1026-line 410 110 410 110 97 \;;
#X scalar 1026-line 110 110 110 110 97 \;;
#X scalar 1026-line 710 110 710 110 94 \;;
#X scalar 1026-line 410 110 410 110 94 \;;
#X scalar 1026-line 110 110 110 110 94 \;;
#X scalar 1026-triangle 677.625 107.5 6 \;;
#X scalar 1026-triangle 388.027 140.365 6 \;;
#X scalar 1026-triangle 116.158 115.028 6 \;;
#X scalar 1026-triangle 675.087 107.5 9 \;;
#X scalar 1026-triangle 390.07 129.561 9 \;;
#X scalar 1026-triangle 116.149 106.288 9 \;;
#X scalar 1026-triangle 677.459 107.5 29 \;;
#X scalar 1026-triangle 376.951 120.561 29 \;;
#X scalar 1026-triangle 85.1357 117.524 29 \;;
#X scalar 1026-triangle 677.006 107.5 59 \;;
#X scalar 1026-triangle 388.095 138.485 59 \;;
#X scalar 1026-triangle 124.121 119.681 59 \;;
#X scalar 1026-triangle 668.087 107.5 79 \;;
#X scalar 1026-triangle 399.187 146.747 79 \;;
#X scalar 1026-triangle 153.422 110.88 79 \;;
#X scalar 1026-triangle 674.481 107.5 99 \;;
#X scalar 1026-triangle 398.779 146.286 99 \;;
#X scalar 1026-triangle 155.337 110.88 99 \;;
#X scalar 1026-triangle 671.997 107.501 97 \;;
#X scalar 1026-triangle 389.475 125.138 97 \;;
#X scalar 1026-triangle 141.517 93.5284 97 \;;
#X scalar 1026-triangle 683.605 107.5 94 \;;
#X scalar 1026-triangle 391.665 132.189 94 \;;
#X scalar 1026-triangle 145.61 103.217 94 \;;
#X scalar 1026-triangle 686.242 107.5 92 \;;
#X scalar 1026-triangle 384.639 133.244 92 \;;
#X scalar 1026-triangle 148.839 112.236 92 \;;
#X scalar 1026-triangle 680.892 107.5 90 \;;
#X scalar 1026-triangle 387.558 124.899 90 \;;
#X scalar 1026-triangle 131.08 116.353 90 \;;
#X scalar 1026-triangle 722.763 107.5 290 \;;
#X scalar 1026-triangle 386.765 93.2356 290 \;;
#X scalar 1026-triangle 96.4716 111.462 290 \;;
#X scalar 1026-triangle 725.227 107.5 490 \;;
#X scalar 1026-triangle 382.95 104.567 490 \;;
#X scalar 1026-triangle 95.9981 90.5867 490 \;;
#X scalar 1026-triangle 698.732 107.5 790 \;;
#X scalar 1026-triangle 381.813 134.811 790 \;;
#X scalar 1026-triangle 104.905 107.436 790 \;;
#X scalar 1026-triangle 689.45 107.5 990 \;;
#X scalar 1026-triangle 379.346 116.041 990 \;;
#X scalar 1026-triangle 83.8636 128.178 990 \;;
#X scalar 1026-triangle 688.601 107.5 970 \;;
#X scalar 1026-triangle 380.588 98.7137 970 \;;
#X scalar 1026-triangle 87.9284 117.252 970 \;;
#X scalar 1026-triangle 688.344 107.5 950 \;;
#X scalar 1026-triangle 396.532 125.198 950 \;;
#X scalar 1026-triangle 132.375 124.57 950 \;;
#X scalar 1026-triangle 697.287 107.5 920 \;;
#X scalar 1026-triangle 399.439 108.566 920 \;;
#X scalar 1026-triangle 112.332 119.146 920 \;;
#X scalar 1026-triangle 694.827 107.5 0 \;;
#X scalar 1026-triangle 403.075 105.571 0 \;;
#X scalar 1026-triangle 113.785 112.395 0 \;;
#X scalar 1026-triangle 691.211 107.5 2 \;;
#X scalar 1026-triangle 381.168 127.697 2 \;;
#X scalar 1026-triangle 101.085 130.222 2 \;;
#X scalar 1026-triangle 701.83 107.5 4 \;;
#X scalar 1026-triangle 379.833 125.126 4 \;;
#X scalar 1026-triangle 88.0884 117.13 4 \;;
#X scalar 1026-triangle 697.655 107.5 6 \;;
#X scalar 1026-triangle 396.872 129.139 6 \;;
#X scalar 1026-triangle 102.868 121.959 6 \;;
#X scalar 1026-triangle 685.914 107.5 9 \;;
#X scalar 1026-triangle 376.005 135.444 9 \;;
#X scalar 1026-triangle 88.6512 133.089 9 \;;
#X scalar 1026-triangle 690.672 107.5 29 \;;
#X scalar 1026-triangle 371.255 140.765 29 \;;
#X scalar 1026-triangle 83.1183 124.917 29 \;;
#X scalar 1026-triangle 690.305 107.5 59 \;;
#X scalar 1026-triangle 378.06 141.13 59 \;;
#X scalar 1026-triangle 85.8652 116.947 59 \;;
#X scalar 1026-triangle 691.878 107.5 79 \;;
#X scalar 1026-triangle 374.423 140.972 79 \;;
#X scalar 1026-triangle 84.0399 121.548 79 \;;
#X scalar 1026-triangle 699.9 107.5 99 \;;
#X scalar 1026-triangle 373.072 141.366 99 \;;
#X scalar 1026-triangle 84.4945 113.872 99 \;;
#X scalar 1026-triangle 689.789 107.5 97 \;;
#X scalar 1026-triangle 373.021 133.264 97 \;;
#X scalar 1026-triangle 87.4484 124.155 97 \;;
#X scalar 1026-triangle 659.309 107.5 94 \;;
#X scalar 1026-triangle 403.828 158.492 94 \;;
#X scalar 1026-triangle 166.144 113.861 94 \;;
#X scalar 1026-triangle 707.5 107.5 92 \;;
#X scalar 1026-triangle 407.5 107.5 92 \;;
#X scalar 1026-triangle 107.5 107.5 92 \;;
#X scalar 1026-triangle 707.5 107.5 90 \;;
#X scalar 1026-triangle 407.5 107.5 90 \;;
#X scalar 1026-triangle 107.5 107.5 90 \;;
#X scalar 1026-triangle 707.5 107.5 290 \;;
#X scalar 1026-triangle 407.5 107.5 290 \;;
#X scalar 1026-triangle 107.5 107.5 290 \;;
#X scalar 1026-triangle 707.5 107.5 490 \;;
#X scalar 1026-triangle 407.5 107.5 490 \;;
#X scalar 1026-triangle 107.5 107.5 490 \;;
#X scalar 1026-triangle 707.5 107.5 790 \;;
#X scalar 1026-triangle 407.5 107.5 790 \;;
#X scalar 1026-triangle 107.5 107.5 790 \;;
#X scalar 1026-triangle 707.5 107.5 990 \;;
#X scalar 1026-triangle 407.5 107.5 990 \;;
#X scalar 1026-triangle 107.5 107.5 990 \;;
#X scalar 1026-triangle 707.5 107.5 970 \;;
#X scalar 1026-triangle 407.5 107.5 970 \;;
#X scalar 1026-triangle 107.5 107.5 970 \;;
#X scalar 1026-triangle 707.5 107.5 950 \;;
#X scalar 1026-triangle 407.5 107.5 950 \;;
#X scalar 1026-triangle 107.5 107.5 950 \;;
#X scalar 1026-triangle 707.5 107.5 920 \;;
#X scalar 1026-triangle 407.5 107.5 920 \;;
#X scalar 1026-triangle 107.5 107.5 920 \;;
#X scalar 1026-triangle 707.5 107.5 0 \;;
#X scalar 1026-triangle 407.5 107.5 0 \;;
#X scalar 1026-triangle 107.5 107.5 0 \;;
#X scalar 1026-triangle 707.5 107.5 2 \;;
#X scalar 1026-triangle 407.5 107.5 2 \;;
#X scalar 1026-triangle 107.5 107.5 2 \;;
#X scalar 1026-triangle 691.759 107.501 4 \;;
#X scalar 1026-triangle 399.988 101.13 4 \;;
#X scalar 1026-triangle 127.626 95.2963 4 \;;
#X scalar 1026-triangle 724.536 107.5 6 \;;
#X scalar 1026-triangle 404.888 115.043 6 \;;
#X scalar 1026-triangle 111.488 101.744 6 \;;
#X scalar 1026-triangle 739.583 107.5 9 \;;
#X scalar 1026-triangle 410.585 116.242 9 \;;
#X scalar 1026-triangle 99.4382 106.614 9 \;;
#X scalar 1026-triangle 688.205 107.5 29 \;;
#X scalar 1026-triangle 392.164 118.653 29 \;;
#X scalar 1026-triangle 84.8873 118.033 29 \;;
#X scalar 1026-triangle 684.223 107.5 59 \;;
#X scalar 1026-triangle 368.745 127.347 59 \;;
#X scalar 1026-triangle 80.3022 120.765 59 \;;
#X scalar 1026-triangle 687.677 107.5 79 \;;
#X scalar 1026-triangle 369.78 135.304 79 \;;
#X scalar 1026-triangle 79.1464 123.324 79 \;;
#X scalar 1026-triangle 687.095 107.5 99 \;;
#X scalar 1026-triangle 371.685 127.68 99 \;;
#X scalar 1026-triangle 78.6404 119.221 99 \;;
#X scalar 1026-triangle 695.517 107.5 97 \;;
#X scalar 1026-triangle 368.929 135.952 97 \;;
#X scalar 1026-triangle 77.6895 114.477 97 \;;
#X scalar 1026-triangle 699.468 107.5 94 \;;
#X scalar 1026-triangle 376.788 139.446 94 \;;
#X scalar 1026-triangle 87.5649 110.465 94 \;;
#X scalar 1026-triangle 705.368 107.5 92 \;;
#X scalar 1026-triangle 431.127 110.149 92 \;;
#X scalar 1026-triangle 128.306 119.767 92 \;;
#X scalar 1026-triangle 714.124 107.5 90 \;;
#X scalar 1026-triangle 433.502 118.115 90 \;;
#X scalar 1026-triangle 138.257 112.651 90 \;;
#X scalar 1026-triangle 721.276 107.5 290 \;;
#X scalar 1026-triangle 432.566 125.246 290 \;;
#X scalar 1026-triangle 140.98 102.28 290 \;;
#X scalar 1026-triangle 717.365 107.5 490 \;;
#X scalar 1026-triangle 431.037 125.343 490 \;;
#X scalar 1026-triangle 139.427 105.808 490 \;;
#X scalar 1026-triangle 688.763 107.5 790 \;;
#X scalar 1026-triangle 378.474 127.106 790 \;;
#X scalar 1026-triangle 80.1082 106.994 790 \;;
#X scalar 1026-triangle 695.512 107.5 990 \;;
#X scalar 1026-triangle 374.413 132.617 990 \;;
#X scalar 1026-triangle 80.0027 111.606 990 \;;
#X scalar 1026-triangle 681.3 107.5 970 \;;
#X scalar 1026-triangle 396.943 135.778 970 \;;
#X scalar 1026-triangle 113.074 107.527 970 \;;
#X scalar 1026-triangle 677.088 107.5 950 \;;
#X scalar 1026-triangle 389.408 133.543 950 \;;
#X scalar 1026-triangle 104.548 113.433 950 \;;
#X scalar 1026-triangle 680.505 107.5 920 \;;
#X scalar 1026-triangle 381.452 135.082 920 \;;
#X scalar 1026-triangle 96.2168 125.259 920 \;;
#X scalar 1026-triangle 681.274 107.5 0 \;;
#X scalar 1026-triangle 396.376 138.208 0 \;;
#X scalar 1026-triangle 147.874 106.68 0 \;;
#X scalar 1026-triangle 671.833 107.5 2 \;;
#X scalar 1026-triangle 404.161 147.791 2 \;;
#X scalar 1026-triangle 162.993 103.994 2 \;;
#X scalar 1026-triangle 678.947 107.5 4 \;;
#X scalar 1026-triangle 400.935 146.753 4 \;;
#X scalar 1026-triangle 156.083 107.895 4 \;;
#X scalar 1026-triangle 682.803 107.5 6 \;;
#X scalar 1026-triangle 390.609 136.454 6 \;;
#X scalar 1026-triangle 153.022 97.2041 6 \;;
#X scalar 1026-triangle 692.708 107.5 9 \;;
#X scalar 1026-triangle 390.927 137 9 \;;
#X scalar 1026-triangle 152.375 104.66 9 \;;
#X scalar 1026-triangle 717.547 107.5 29 \;;
#X scalar 1026-triangle 396.648 118.33 29 \;;
#X scalar 1026-triangle 138.434 85.7658 29 \;;
#X scalar 1026-triangle 707.5 107.5 59 \;;
#X scalar 1026-triangle 407.5 107.5 59 \;;
#X scalar 1026-triangle 107.5 107.5 59 \;;
#X scalar 1026-triangle 707.5 107.5 79 \;;
#X scalar 1026-triangle 407.5 107.5 79 \;;
#X scalar 1026-triangle 107.5 107.5 79 \;;
#X scalar 1026-triangle 707.5 107.5 99 \;;
#X scalar 1026-triangle 407.5 107.5 99 \;;
#X scalar 1026-triangle 107.5 107.5 99 \;;
#X scalar 1026-triangle 707.5 107.5 97 \;;
#X scalar 1026-triangle 407.5 107.5 97 \;;
#X scalar 1026-triangle 107.5 107.5 97 \;;
#X scalar 1026-triangle 707.5 107.5 94 \;;
#X scalar 1026-triangle 407.5 107.5 94 \;;
#X scalar 1026-triangle 107.5 107.5 94 \;;
#X scalar 1026-curve 110 110 100 \;;
#X scalar 1026-curve 410 110 100 \;;
#X scalar 1026-curve 710 110 100 \;;
#X scalar 1026-label 207.76 82.397 0 \;;
#X scalar 1026-label 75.8259 200.032 10 \;;
#X scalar 1026-label 38.9139 28.071 2 \;;
#X scalar 1026-label 209.75 96.4197 3 \;;
#X scalar 1026-label 62.5671 194.728 7 \;;
#X scalar 1026-label 50.1824 19.3529 5 \;;
#X scalar 1026-label 209.75 110.58 6 \;;
#X scalar 1026-label 50.1829 187.647 4 \;;
#X scalar 1026-label 62.5666 12.2726 8 \;;
#X scalar 1026-label 207.76 124.603 9 \;;
#X scalar 1026-label 38.9143 178.929 1 \;;
#X scalar 1026-label 75.8254 6.96786 11 \;;
#X scalar 1026-label 510 103.5 0 \;;
#X scalar 1026-label 495.933 52.75 7 \;;
#X scalar 1026-label 457.5 15.5985 2 \;;
#X scalar 1026-label 405 2 9 \;;
#X scalar 1026-label 352.5 15.5983 4 \;;
#X scalar 1026-label 314.067 52.7498 11 \;;
#X scalar 1026-label 300 103.5 6 \;;
#X scalar 1026-label 314.067 154.25 1 \;;
#X scalar 1026-label 352.5 191.401 8 \;;
#X scalar 1026-label 405 205 3 \;;
#X scalar 1026-label 457.5 191.402 10 \;;
#X scalar 1026-label 495.932 154.25 5 \;;
#X scalar 1026-label 803.668 68.785 0 \;;
#X scalar 1026-label 606.332 138.215 1 \;;
#X scalar 1026-label 807.706 82.397 2 \;;
#X scalar 1026-label 602.294 124.603 9 \;;
#X scalar 1026-label 809.744 96.4197 4 \;;
#X scalar 1026-label 600.256 110.58 7 \;;
#X scalar 1026-label 809.744 110.58 6 \;;
#X scalar 1026-label 600.256 96.4195 5 \;;
#X scalar 1026-label 807.706 124.603 8 \;;
#X scalar 1026-label 602.295 82.3967 3 \;;
#X scalar 1026-label 803.668 138.215 10 \;;
#X scalar 1026-label 606.332 68.7847 1 \;;
#X scalar 1026-y-axis 710 17 186 \;;
#X scalar 1026-y-axis 410 17 186 \;;
#X scalar 1026-y-axis 110 17 186 \;;
#X scalar 1026-x-axis 617 110 186 \;;
#X scalar 1026-x-axis 317 110 186 \;;
#X scalar 1026-x-axis 17 110 186 \;;
#X coords 0 0 820 220 820 220 2 0 0;
#X restore 0 260 pd \$0-viz1;
#N canvas 644 23 567 418 draw_lower 0;
#X msg 387 177 clear;
#X obj 336 125 loadbang;
#X obj 37 59 inlet;
#N canvas 443 154 837 477 axis 0;
#X obj 196 199 pointer;
#X obj 196 154 \$0;
#X obj 19 216 append \$0-x-axis x y s;
#X obj 635 190 pointer;
#X obj 635 145 \$0;
#X obj 458 207 append \$0-y-axis x y s;
#X obj 50 35 inlet;
#X obj 49 57 t b b;
#X msg 26 169 17 110 186;
#X msg 48 133 317 110 186;
#X msg 63 96 617 110 186;
#X msg 490 114 710 17 186;
#X msg 483 137 410 17 186;
#X msg 465 160 110 17 186;
#X msg 196 176 traverse pd-\$1-viz1 \, bang;
#X msg 635 167 traverse pd-\$1-viz1 \, bang;
#X connect 0 0 2 3;
#X connect 1 0 14 0;
#X connect 3 0 5 3;
#X connect 4 0 15 0;
#X connect 6 0 7 0;
#X connect 7 0 10 0;
#X connect 7 0 9 0;
#X connect 7 0 8 0;
#X connect 7 0 11 0;
#X connect 7 0 12 0;
#X connect 7 0 13 0;
#X connect 7 1 1 0;
#X connect 7 1 4 0;
#X connect 8 0 2 0;
#X connect 9 0 2 0;
#X connect 10 0 2 0;
#X connect 11 0 5 0;
#X connect 12 0 5 0;
#X connect 13 0 5 0;
#X connect 14 0 0 0;
#X connect 15 0 3 0;
#X restore 353 286 pd axis;
#N canvas 516 69 764 526 toggles 0;
#X obj 99 123 \$0;
#X obj 99 92 inlet;
#X obj 236 110 bng 15 250 50 0 empty empty empty 17 7 0 10 -262144
-1 -1;
#X obj 119 337 s pd-\$0-viz1;
#X msg 169 171 obj 105 105 tgl 10 0 \$1-maj3.s \$1-maj3 empty 17 7
0 10 -258113 -1 -1 0 1;
#X msg 169 208 obj 405 105 tgl 10 0 \$1-p5.s \$1-p5 empty 17 7 0 10
-258113 -1 -1 0 1;
#X msg 169 245 obj 705 105 tgl 10 0 \$1-tt.s \$1-tt empty 17 7 0 10
-258113 -1 -1 0 1 \;;
#X connect 0 0 5 0;
#X connect 0 0 6 0;
#X connect 0 0 4 0;
#X connect 1 0 0 0;
#X connect 2 0 0 0;
#X connect 4 0 3 0;
#X connect 5 0 3 0;
#X connect 6 0 3 0;
#X restore 370 259 pd toggles;
#N canvas 678 23 427 384 circles 0;
#X obj 241 134 pointer;
#X obj 241 89 \$0;
#X obj 18 151 append \$0-curve x y r;
#X msg 18 70 110 110 100;
#X msg 32 98 410 110 100;
#X msg 52 123 710 110 100;
#X obj 18 15 inlet;
#X obj 241 45 bng 15 250 50 0 empty empty empty 17 7 0 10 -262144 -1
-1;
#X msg 241 111 traverse pd-\$1-viz1 \, bang;
#X obj 37 317 append \$0-label x y n;
#X obj 18 40 t b b b;
#N canvas 95 23 446 496 m3/M6 0;
#X obj 51 295 swap;
#X msg 72 267 1;
#X obj 52 215 f;
#X obj 52 133 until;
#X obj 52 105 t f b;
#X obj 52 177 t b b;
#X obj 51 417 pack f f f;
#X obj 51 444 outlet;
#X obj 124 99 t f b;
#X obj 206 103 t f b;
#X msg 52 78 3;
#X msg 114 76 3;
#X msg 206 76 3;
#X msg 296 80 3;
#X obj 52 43 t b b b b;
#X obj 52 17 inlet;
#X obj 311 137 12;
#X obj 269 142 4;
#X obj 215 145 -4;
#X obj 175 148 -12;
#X obj 82 215 - 120;
#X msg 242 276 0 10 2 3 7 5 6 4 8 9 1 11;
#X obj 51 245 expr $f1/ 180*3.14159;
#X text 189 245 // degrees to radians;
#X obj 51 351 expr_scale -1 1 5 210;
#X obj 79 390 expr_scale -1 1 205 2;
#N canvas 0 22 170 202 poltocar 0;
#X obj 28 19 inlet;
#X obj 74 19 inlet;
#X obj 28 149 outlet;
#X obj 73 150 outlet;
#X obj 74 41 t f f;
#X obj 74 63 cos;
#X obj 102 64 sin;
#X obj 28 41 t f f;
#X obj 55 112 * 1;
#X obj 28 113 * 1;
#X connect 0 0 7 0;
#X connect 1 0 4 0;
#X connect 4 0 5 0;
#X connect 4 1 6 0;
#X connect 5 0 9 1;
#X connect 6 0 8 1;
#X connect 7 0 9 0;
#X connect 7 1 8 0;
#X connect 8 0 3 0;
#X connect 9 0 2 0;
#X restore 51 323 pd poltocar;
#N canvas 0 22 450 300 dripslow 0;
#X obj 148 186 list split 1;
#X obj 148 161 list append;
#X obj 148 237 outlet;
#X obj 148 37 inlet;
#X obj 229 237 outlet;
#X obj 222 35 inlet;
#X obj 148 72 b;
#X text 265 36 list;
#X text 103 37 bang;
#X text 273 237 EOL;
#X text 89 236 element;
#X obj 229 207 b;
#X connect 0 0 2 0;
#X connect 0 1 1 1;
#X connect 0 2 11 0;
#X connect 1 0 0 0;
#X connect 3 0 6 0;
#X connect 5 0 1 1;
#X connect 6 0 1 0;
#X connect 11 0 4 0;
#X restore 179 303 pd dripslow;
#X obj 296 107 t f b b;
#X connect 0 0 26 0;
#X connect 0 1 26 1;
#X connect 1 0 0 1;
#X connect 2 0 20 0;
#X connect 2 0 22 0;
#X connect 3 0 5 0;
#X connect 4 0 3 0;
#X connect 4 1 19 0;
#X connect 5 0 2 0;
#X connect 5 1 27 0;
#X connect 6 0 7 0;
#X connect 8 0 3 0;
#X connect 8 1 18 0;
#X connect 9 0 3 0;
#X connect 9 1 17 0;
#X connect 10 0 4 0;
#X connect 11 0 8 0;
#X connect 12 0 9 0;
#X connect 13 0 28 0;
#X connect 14 0 10 0;
#X connect 14 1 11 0;
#X connect 14 2 12 0;
#X connect 14 3 13 0;
#X connect 15 0 14 0;
#X connect 16 0 2 1;
#X connect 17 0 2 1;
#X connect 18 0 2 1;
#X connect 19 0 2 1;
#X connect 20 0 2 1;
#X connect 21 0 27 1;
#X connect 22 0 0 0;
#X connect 24 0 6 0;
#X connect 25 0 6 1;
#X connect 26 0 24 0;
#X connect 26 1 25 0;
#X connect 27 0 6 2;
#X connect 28 0 3 0;
#X connect 28 1 16 0;
#X connect 28 2 21 0;
#X connect 28 2 1 0;
#X restore 37 216 pd m3/M6;
#N canvas 138 23 432 457 P4/P5 0;
#X obj 110 264 swap;
#X obj 110 190 f;
#X obj 118 93 until;
#X obj 164 75 0;
#X obj 116 58 t f b;
#X obj 263 117 bng 15 250 50 0 empty empty empty 17 7 0 10 -262144
-1 -1;
#X obj 248 164 f;
#X obj 275 185 % 12;
#X obj 119 119 t b b;
#X obj 110 386 pack f f f;
#X obj 110 412 outlet;
#X obj 263 140 0;
#X obj 276 164 + 7;
#X obj 117 34 12;
#X obj 115 9 inlet;
#X obj 167 247 1;
#X obj 140 190 + 30;
#X obj 110 217 expr $f1/ 180*3.14159;
#X text 250 217 // degrees to radians;
#N canvas 0 22 450 300 poltocar 0;
#X obj 28 19 inlet;
#X obj 184 19 inlet;
#X obj 28 149 outlet;
#X obj 73 150 outlet;
#X obj 184 41 t f f;
#X obj 184 63 cos;
#X obj 212 64 sin;
#X obj 28 41 t f f;
#X obj 55 112 * 1;
#X obj 28 113 * 1;
#X connect 0 0 7 0;
#X connect 1 0 4 0;
#X connect 4 0 5 0;
#X connect 4 1 6 0;
#X connect 5 0 9 1;
#X connect 6 0 8 1;
#X connect 7 0 9 0;
#X connect 7 1 8 0;
#X connect 8 0 3 0;
#X connect 9 0 2 0;
#X restore 110 292 pd poltocar;
#X obj 110 320 expr_scale -1 1 300 510;
#X obj 138 354 expr_scale -1 1 205 2;
#X connect 0 0 19 0;
#X connect 0 1 19 1;
#X connect 1 0 16 0;
#X connect 1 0 17 0;
#X connect 2 0 8 0;
#X connect 3 0 1 1;
#X connect 4 0 2 0;
#X connect 4 1 3 0;
#X connect 4 1 5 0;
#X connect 4 1 15 0;
#X connect 5 0 11 0;
#X connect 6 0 9 2;
#X connect 6 0 12 0;
#X connect 7 0 6 1;
#X connect 8 0 1 0;
#X connect 8 1 6 0;
#X connect 9 0 10 0;
#X connect 11 0 6 1;
#X connect 12 0 7 0;
#X connect 13 0 4 0;
#X connect 14 0 13 0;
#X connect 15 0 0 1;
#X connect 16 0 1 1;
#X connect 17 0 0 0;
#X connect 19 0 20 0;
#X connect 19 1 21 0;
#X connect 20 0 9 0;
#X connect 21 0 9 1;
#X restore 50 250 pd P4/P5;
#N canvas 580 23 541 521 M2/m7 0;
#X obj 41 319 swap;
#X obj 41 229 f;
#X obj 41 147 until;
#X obj 41 119 t f b;
#X obj 41 191 t b b;
#X obj 41 441 pack f f f;
#X obj 41 468 outlet;
#X obj 113 119 t f b;
#X obj 195 119 t f b;
#X obj 71 229 + 180;
#X obj 62 292 1;
#X obj 41 12 inlet;
#X obj 278 119 t f b;
#X obj 350 119 t f b;
#X msg 41 92 2;
#X msg 103 92 2;
#X msg 195 92 2;
#X msg 278 92 2;
#X msg 340 92 2;
#X msg 432 92 2;
#X obj 41 37 t b b b b b b;
#X obj 258 156 -4;
#X obj 204 159 -12;
#X obj 164 162 -20;
#X obj 309 155 4;
#X obj 376 156 12;
#X obj 430 153 20;
#X msg 353 389 0 1 2 9 4 7 6 5 8 3 10 1;
#X obj 41 378 expr_scale -1 1 600 810;
#X obj 104 408 expr_scale -1 1 205 2;
#X obj 41 261 expr $f1/ 180*3.14159;
#X text 177 260 //degrees to radians;
#N canvas 0 22 450 300 dripslow 0;
#X obj 148 186 list split 1;
#X obj 148 161 list append;
#X obj 148 237 outlet;
#X obj 148 37 inlet;
#X obj 229 237 outlet;
#X obj 222 35 inlet;
#X obj 148 72 b;
#X text 265 36 list;
#X text 103 37 bang;
#X text 273 237 EOL;
#X text 89 236 element;
#X obj 229 207 b;
#X connect 0 0 2 0;
#X connect 0 1 1 1;
#X connect 0 2 11 0;
#X connect 1 0 0 0;
#X connect 3 0 6 0;
#X connect 5 0 1 1;
#X connect 6 0 1 0;
#X connect 11 0 4 0;
#X restore 291 424 pd dripslow;
#N canvas 0 22 450 300 poltocar 0;
#X obj 28 19 inlet;
#X obj 184 19 inlet;
#X obj 28 149 outlet;
#X obj 73 150 outlet;
#X obj 184 41 t f f;
#X obj 184 63 cos;
#X obj 212 64 sin;
#X obj 28 41 t f f;
#X obj 55 112 * 1;
#X obj 28 113 * 1;
#X connect 0 0 7 0;
#X connect 1 0 4 0;
#X connect 4 0 5 0;
#X connect 4 1 6 0;
#X connect 5 0 9 1;
#X connect 6 0 8 1;
#X connect 7 0 9 0;
#X connect 7 1 8 0;
#X connect 8 0 3 0;
#X connect 9 0 2 0;
#X restore 41 347 pd poltocar;
#X obj 432 119 t f b b;
#X connect 0 0 33 0;
#X connect 0 1 33 1;
#X connect 1 0 9 0;
#X connect 1 0 30 0;
#X connect 2 0 4 0;
#X connect 3 0 2 0;
#X connect 3 1 23 0;
#X connect 4 0 1 0;
#X connect 4 1 32 0;
#X connect 5 0 6 0;
#X connect 7 0 2 0;
#X connect 7 1 22 0;
#X connect 8 0 2 0;
#X connect 8 1 21 0;
#X connect 9 0 1 1;
#X connect 10 0 0 1;
#X connect 11 0 20 0;
#X connect 12 0 2 0;
#X connect 12 1 24 0;
#X connect 13 0 2 0;
#X connect 13 1 25 0;
#X connect 14 0 3 0;
#X connect 15 0 7 0;
#X connect 16 0 8 0;
#X connect 17 0 12 0;
#X connect 18 0 13 0;
#X connect 19 0 34 0;
#X connect 20 0 14 0;
#X connect 20 1 15 0;
#X connect 20 2 16 0;
#X connect 20 3 17 0;
#X connect 20 4 18 0;
#X connect 20 5 19 0;
#X connect 21 0 1 1;
#X connect 22 0 1 1;
#X connect 23 0 1 1;
#X connect 24 0 1 1;
#X connect 25 0 1 1;
#X connect 26 0 1 1;
#X connect 27 0 32 1;
#X connect 28 0 5 0;
#X connect 29 0 5 1;
#X connect 30 0 0 0;
#X connect 32 0 5 2;
#X connect 33 0 28 0;
#X connect 33 1 29 0;
#X connect 34 0 2 0;
#X connect 34 1 26 0;
#X connect 34 2 27 0;
#X connect 34 2 10 0;
#X restore 79 276 pd M2/m7;
#X connect 0 0 2 3;
#X connect 0 0 9 3;
#X connect 1 0 8 0;
#X connect 3 0 2 0;
#X connect 4 0 2 0;
#X connect 5 0 2 0;
#X connect 6 0 10 0;
#X connect 7 0 1 0;
#X connect 8 0 0 0;
#X connect 10 0 3 0;
#X connect 10 0 4 0;
#X connect 10 0 5 0;
#X connect 10 1 11 0;
#X connect 10 1 12 0;
#X connect 10 1 13 0;
#X connect 10 2 1 0;
#X connect 11 0 9 0;
#X connect 12 0 9 0;
#X connect 13 0 9 0;
#X restore 336 311 pd circles;
#X obj 336 151 t b b b b;
#X obj 401 78 == 0;
#N canvas 721 23 468 667 moving_squares 0;
#X obj 90 80 list split 2;
#X obj 50 52 list split 2;
#X obj 50 589 pack 0 0;
#X msg 50 614 pos \$1 \$2;
#X obj 50 487 unpack;
#X obj 90 410 pack 0 0;
#X msg 90 435 pos \$1 \$2;
#X obj 90 310 unpack;
#X obj 124 230 pack 0 0;
#X msg 124 255 pos \$1 \$2;
#X obj 124 131 unpack;
#X obj 124 279 s \$0-maj3;
#X obj 50 560 - 5;
#X obj 95 561 - 5;
#X obj 90 386 - 5;
#X obj 135 386 - 5;
#X obj 124 205 - 5;
#X obj 169 205 - 5;
#X obj 50 24 inlet;
#X obj 124 107 list split 2;
#X obj 50 638 s \$0-tt;
#X obj 90 459 s \$0-p5;
#X obj 124 156 expr_scale -1 1 610 810;
#X obj 169 182 expr_scale -1 1 210 10;
#X obj 90 336 expr_scale -1 1 310 510;
#X obj 135 363 expr_scale -1 1 210 10;
#X obj 50 513 expr_scale -1 1 10 210;
#X obj 95 537 expr_scale -1 1 210 10;
#X connect 0 0 7 0;
#X connect 0 1 19 0;
#X connect 1 0 4 0;
#X connect 1 1 0 0;
#X connect 2 0 3 0;
#X connect 3 0 20 0;
#X connect 4 0 26 0;
#X connect 4 1 27 0;
#X connect 5 0 6 0;
#X connect 6 0 21 0;
#X connect 7 0 24 0;
#X connect 7 1 25 0;
#X connect 8 0 9 0;
#X connect 9 0 11 0;
#X connect 10 0 22 0;
#X connect 10 1 23 0;
#X connect 12 0 2 0;
#X connect 13 0 2 1;
#X connect 14 0 5 0;
#X connect 15 0 5 1;
#X connect 16 0 8 0;
#X connect 17 0 8 1;
#X connect 18 0 1 0;
#X connect 19 0 10 0;
#X connect 22 0 16 0;
#X connect 23 0 17 0;
#X connect 24 0 14 0;
#X connect 25 0 15 0;
#X connect 26 0 12 0;
#X connect 27 0 13 0;
#X restore 177 187 pd moving_squares;
#N canvas 67 23 651 699 fixed_squares 0;
#X obj 416 612 pointer;
#X obj 92 100 list split 2;
#X obj 58 75 list split 2;
#X obj 58 438 unpack;
#X obj 92 400 pack 0 0;
#X obj 92 290 unpack;
#X obj 126 260 pack 0 0;
#X obj 126 151 unpack;
#X obj 58 17 inlet;
#X obj 416 565 \$0;
#X obj 58 518 - 2.5;
#X obj 103 519 - 2.5;
#X obj 92 373 - 2.5;
#X obj 137 372 - 2.5;
#X obj 171 233 - 2.5;
#X obj 126 232 - 2.5;
#X obj 416 542 inlet;
#X obj 58 547 pack 0 0;
#X obj 58 636 pack f f 900;
#X text 230 18 RGB color (0=black \, 999=white \, 900=red \, 90=green
\, 9=blue \, 555=grey \, etc.);
#X obj 126 125 list split 2;
#N canvas 648 55 450 300 color 0;
#X obj 143 111 f;
#N canvas 682 389 811 525 colorMapping 0;
#X obj 75 49 moses 0.2;
#X obj 126 76 moses 0.4;
#X obj 177 104 moses 0.6;
#X obj 228 131 moses 0.8;
#X obj 75 22 inlet;
#X msg 75 169 0 0 \$1;
#X msg 126 224 0 \$1 1;
#X msg 177 276 0 1 \$1;
#X msg 228 329 \$1 1 0;
#X msg 279 375 1 \$1 0;
#X obj 228 306 expr ($f1-0.6)*5;
#X obj 177 253 expr 1-(($f1-0.4)*5);
#X obj 126 199 expr ($f1-0.2)*5;
#X obj 75 144 expr $f1*4.5;
#X obj 279 352 expr 1-(($f1-0.8)*5);
#X obj 75 437 expr (rint($f1*9)*100)+(rint($f2*9)*10)+(rint($f3*9))
;
#X obj 75 487 outlet;
#X obj 434 97 expr (rint($f1*9)*100)+(rint($f1*9)*10)+(rint($f1*9))
;
#X text 431 26 b&w;
#X text 434 77 in;
#X text 434 118 out;
#X connect 0 0 13 0;
#X connect 0 1 1 0;
#X connect 1 0 12 0;
#X connect 1 1 2 0;
#X connect 2 0 11 0;
#X connect 2 1 3 0;
#X connect 3 0 10 0;
#X connect 3 1 14 0;
#X connect 4 0 0 0;
#X connect 5 0 15 0;
#X connect 6 0 15 0;
#X connect 7 0 15 0;
#X connect 8 0 15 0;
#X connect 9 0 15 0;
#X connect 10 0 8 0;
#X connect 11 0 7 0;
#X connect 12 0 6 0;
#X connect 13 0 5 0;
#X connect 14 0 9 0;
#X connect 15 0 16 0;
#X restore 143 212 pd colorMapping;
#X obj 24 -5 inlet;
#X obj 51 149 r \$0-color;
#X obj 24 74 spigot 1;
#X obj 24 173 f 900;
#X obj 143 74 spigot 0;
#X obj 143 176 / 100;
#X obj 173 135 % 100;
#X obj 188 33 r \$0-autoColor;
#X obj 69 50 == 0;
#X obj 24 229 s \$0-c;
#X obj 173 111 + 5;
#X connect 0 0 7 0;
#X connect 0 0 12 0;
#X connect 1 0 11 0;
#X connect 2 0 4 0;
#X connect 2 0 6 0;
#X connect 3 0 5 1;
#X connect 4 0 5 0;
#X connect 5 0 11 0;
#X connect 6 0 0 0;
#X connect 7 0 1 0;
#X connect 8 0 0 1;
#X connect 9 0 6 1;
#X connect 9 0 10 0;
#X connect 10 0 4 1;
#X connect 12 0 8 0;
#X restore 155 61 pd color;
#N canvas 1614 486 304 322 line 0;
#X obj 31 9 inlet;
#X obj 31 82 first;
#X msg 31 113 \$1 \$2 \$1 \$2;
#X obj 31 140 list prepend;
#X obj 127 157 list split 2;
#X obj 100 65 r \$0-clear;
#X obj 31 242 outlet;
#X obj 31 213 list append;
#X obj 94 188 r \$0-c;
#X connect 0 0 1 0;
#X connect 1 0 2 0;
#X connect 1 1 3 0;
#X connect 2 0 3 0;
#X connect 3 0 4 0;
#X connect 3 0 7 0;
#X connect 4 1 3 1;
#X connect 5 0 1 1;
#X connect 5 0 3 1;
#X connect 7 0 6 0;
#X connect 8 0 7 1;
#X restore 429 299 pd line;
#X obj 429 276 spigot;
#X obj 462 253 r \$0-trajectory;
#N canvas 174 486 294 342 line 0;
#X obj 26 -29 inlet;
#X obj 26 52 first;
#X msg 26 83 \$1 \$2 \$1 \$2;
#X obj 26 110 list prepend;
#X obj 132 127 list split 2;
#X obj 95 35 r \$0-clear;
#X obj 26 221 outlet;
#X obj 26 188 list append;
#X obj 89 164 r \$0-c;
#X connect 0 0 1 0;
#X connect 1 0 2 0;
#X connect 1 1 3 0;
#X connect 2 0 3 0;
#X connect 3 0 4 0;
#X connect 3 0 7 0;
#X connect 4 1 3 1;
#X connect 5 0 1 1;
#X connect 5 0 3 1;
#X connect 7 0 6 0;
#X connect 8 0 7 1;
#X restore 333 440 pd line;
#X obj 333 417 spigot;
#X obj 366 394 r \$0-trajectory;
#N canvas 1614 486 280 313 line 0;
#X obj 26 -3 inlet;
#X obj 26 52 first;
#X msg 26 83 \$1 \$2 \$1 \$2;
#X obj 26 110 list prepend;
#X obj 132 127 list split 2;
#X obj 95 35 r \$0-clear;
#X obj 26 221 outlet;
#X obj 26 196 list append;
#X obj 89 173 r \$0-c;
#X connect 0 0 1 0;
#X connect 1 0 2 0;
#X connect 1 1 3 0;
#X connect 2 0 3 0;
#X connect 3 0 4 0;
#X connect 3 0 7 0;
#X connect 4 1 3 1;
#X connect 5 0 1 1;
#X connect 5 0 3 1;
#X connect 7 0 6 0;
#X connect 8 0 7 1;
#X restore 251 587 pd line;
#X obj 251 564 spigot;
#X obj 284 541 r \$0-trajectory;
#X obj 127 613 r \$0-c;
#X obj 58 44 t l b;
#X obj 251 660 append \$0-line x1 y1 x2 y2 c;
#X obj 186 259 pack;
#X obj 160 400 pack;
#X obj 121 547 pack;
#X msg 416 588 traverse pd-\$1-viz1 \, bang;
#X obj 58 660 append \$0-triangle x y c;
#X obj 485 537 bng 15 250 50 0 empty empty empty 17 7 0 10 -262144
-1 -1;
#X obj 126 181 expr_scale -1 1 620 800;
#X obj 171 208 expr_scale -1 1 200 20;
#X obj 92 320 expr_scale -1 1 320 500;
#X obj 137 347 expr_scale -1 1 200 20;
#X obj 58 468 expr_scale -1 1 20 200;
#X obj 103 495 expr_scale -1 1 200 20;
#X connect 0 0 33 5;
#X connect 0 0 38 3;
#X connect 1 0 5 0;
#X connect 1 1 20 0;
#X connect 2 0 3 0;
#X connect 2 1 1 0;
#X connect 3 0 44 0;
#X connect 3 1 45 0;
#X connect 4 0 18 0;
#X connect 5 0 42 0;
#X connect 5 1 43 0;
#X connect 6 0 18 0;
#X connect 7 0 40 0;
#X connect 7 1 41 0;
#X connect 8 0 32 0;
#X connect 9 0 37 0;
#X connect 10 0 17 0;
#X connect 11 0 17 1;
#X connect 12 0 4 0;
#X connect 13 0 4 1;
#X connect 14 0 6 1;
#X connect 15 0 6 0;
#X connect 16 0 9 0;
#X connect 17 0 18 0;
#X connect 18 0 38 0;
#X connect 20 0 7 0;
#X connect 22 0 33 0;
#X connect 23 0 22 0;
#X connect 24 0 23 1;
#X connect 25 0 33 0;
#X connect 26 0 25 0;
#X connect 27 0 26 1;
#X connect 28 0 33 0;
#X connect 29 0 28 0;
#X connect 30 0 29 1;
#X connect 31 0 18 2;
#X connect 32 0 2 0;
#X connect 32 1 21 0;
#X connect 34 0 23 0;
#X connect 35 0 26 0;
#X connect 36 0 29 0;
#X connect 37 0 0 0;
#X connect 39 0 9 0;
#X connect 40 0 15 0;
#X connect 40 0 34 0;
#X connect 41 0 14 0;
#X connect 41 0 34 1;
#X connect 42 0 12 0;
#X connect 42 0 35 0;
#X connect 43 0 13 0;
#X connect 43 0 35 1;
#X connect 44 0 10 0;
#X connect 44 0 36 0;
#X connect 45 0 11 0;
#X connect 45 0 36 1;
#X restore 37 348 pd fixed_squares;
#X obj 370 234 spigot;
#X obj 401 104 t b f;
#X obj 401 53 r \$0-accum;
#X obj 177 160 spigot 0;
#X obj 37 113 spigot 1;
#X obj 458 134 r \$0-clear;
#X obj 387 202 s pd-\$0-viz1;
#X connect 0 0 16 0;
#X connect 1 0 6 0;
#X connect 2 0 13 0;
#X connect 2 0 14 0;
#X connect 6 0 5 0;
#X connect 6 1 3 0;
#X connect 6 2 10 0;
#X connect 6 3 0 0;
#X connect 6 3 9 1;
#X connect 7 0 13 1;
#X connect 7 0 11 0;
#X connect 10 0 4 0;
#X connect 11 0 6 0;
#X connect 11 1 10 1;
#X connect 12 0 7 0;
#X connect 12 0 14 1;
#X connect 13 0 8 0;
#X connect 14 0 9 0;
#X connect 15 0 6 0;
#X restore 1242 116 pd draw_lower;
#N canvas 60 356 567 418 draw_upper 0;
#X msg 387 157 clear;
#X obj 387 182 s pd-\$0-viz;
#X obj 336 105 loadbang;
#X obj 37 39 inlet;
#N canvas 265 45 837 477 axis 0;
#X obj 196 199 pointer;
#X obj 196 154 \$0;
#X msg 196 176 traverse pd-\$1-viz \, bang;
#X obj 19 216 append \$0-x-axis x y s;
#N canvas 371 199 769 355 structXaxis 0;
#X obj 29 125 struct \$0-x-axis float x float y float s;
#X obj 24 169 drawpolygon -x 0 0 0 0 s;
#X restore 19 244 pd structXaxis;
#X obj 635 190 pointer;
#X obj 635 145 \$0;
#X msg 635 167 traverse pd-\$1-viz \, bang;
#N canvas 721 35 769 355 structYaxis 0;
#X obj 24 169 drawpolygon -x 0 0 0 s 0;
#X obj 29 125 struct \$0-y-axis float x float y float s;
#X restore 458 235 pd structYaxis;
#X obj 458 207 append \$0-y-axis x y s;
#X obj 50 35 inlet;
#X obj 49 57 t b b;
#X msg 26 169 17 110 186;
#X msg 48 133 317 110 186;
#X msg 63 96 617 110 186;
#X msg 490 114 710 17 186;
#X msg 483 137 410 17 186;
#X msg 465 160 110 17 186;
#X connect 0 0 3 3;
#X connect 1 0 2 0;
#X connect 2 0 0 0;
#X connect 5 0 9 3;
#X connect 6 0 7 0;
#X connect 7 0 5 0;
#X connect 10 0 11 0;
#X connect 11 0 14 0;
#X connect 11 0 13 0;
#X connect 11 0 12 0;
#X connect 11 0 15 0;
#X connect 11 0 16 0;
#X connect 11 0 17 0;
#X connect 11 1 1 0;
#X connect 11 1 6 0;
#X connect 12 0 3 0;
#X connect 13 0 3 0;
#X connect 14 0 3 0;
#X connect 15 0 9 0;
#X connect 16 0 9 0;
#X connect 17 0 9 0;
#X restore 353 266 pd axis;
#N canvas 125 298 764 526 toggles 0;
#X obj 119 337 s pd-\$0-viz;
#X obj 99 123 \$0;
#X msg 169 245 obj 705 105 tgl 10 0 \$1-min3.s \$1-min3 empty 17 7
0 10 -258113 -1 -1 0 1 \;;
#X obj 96 92 inlet;
#X msg 169 171 obj 105 105 tgl 10 0 \$1-maj2.s \$1-maj2 empty 17 7
0 10 -258113 -1 -1 0 1;
#X msg 169 208 obj 405 105 tgl 10 0 \$1-min2.s \$1-min2 empty 17 7
0 10 -258113 -1 -1 0 1;
#X connect 1 0 4 0;
#X connect 1 0 5 0;
#X connect 1 0 2 0;
#X connect 2 0 0 0;
#X connect 3 0 1 0;
#X connect 4 0 0 0;
#X connect 5 0 0 0;
#X restore 370 239 pd toggles;
#N canvas 701 23 483 484 circles 0;
#X obj 283 153 pointer;
#X obj 283 108 \$0;
#X obj 28 395 append \$0-curve x y r;
#N canvas 431 218 769 355 structCircle 0;
#X obj 29 125 struct \$0-curve float x float y float r;
#X obj 29 200 drawcurve -x 0 2 r(0:100)(0:100) 0 r(0:100)(0:71) r(0:100)(0:71)
0 r(0:100)(0:100) r(0:100)(0:-71) r(0:100)(0:71) r(0:100)(0:-100) 0
r(0:100)(0:-71) r(0:100)(0:-71) 0 r(0:100)(0:-100) r(0:100)(0:71) r(0:100)(0:-71)
r(0:100)(0:100) 0;
#X restore 28 423 pd structCircle;
#X msg 28 314 110 110 100;
#X msg 42 342 410 110 100;
#X msg 62 367 710 110 100;
#X obj 28 15 inlet;
#X obj 67 170 append \$0-label x y n;
#X obj 283 64 bng 15 250 50 0 empty empty empty 17 7 0 10 -262144 -1
-1;
#N canvas 203 163 375 170 label-template 0;
#X obj 24 64 drawnumber n 0 0 0;
#X obj 24 33 struct \$0-label float x float y float n;
#X restore 66 195 pd label-template;
#X msg 283 130 traverse pd-\$1-viz \, bang;
#N canvas 637 23 630 500 m2/M7 0;
#X obj 170 279 swap;
#X obj 170 203 f;
#X obj 169 148 until;
#X obj 233 136 0;
#X obj 169 119 t f b;
#X obj 413 388 f;
#X obj 170 174 t b b;
#X obj 170 405 pack f f f;
#X obj 170 432 outlet;
#X obj 238 262 1;
#X obj 200 203 - 30;
#X obj 428 364 0;
#X obj 441 388 + 1;
#X obj 169 93 12;
#X obj 169 69 inlet;
#X obj 170 338 expr_scale -1 1 5 210;
#X obj 198 368 expr_scale -1 1 205 2;
#X obj 170 230 expr $f1/ 180*3.14159;
#X text 330 230 // degrees to radians;
#N canvas 0 22 450 300 poltocar 0;
#X obj 28 19 inlet;
#X obj 74 19 inlet;
#X obj 28 149 outlet;
#X obj 73 150 outlet;
#X obj 74 41 t f f;
#X obj 74 63 cos;
#X obj 102 64 sin;
#X obj 28 41 t f f;
#X obj 55 112 * 1;
#X obj 28 113 * 1;
#X connect 0 0 7 0;
#X connect 1 0 4 0;
#X connect 4 0 5 0;
#X connect 4 1 6 0;
#X connect 5 0 9 1;
#X connect 6 0 8 1;
#X connect 7 0 9 0;
#X connect 7 1 8 0;
#X connect 8 0 3 0;
#X connect 9 0 2 0;
#X restore 170 307 pd poltocar;
#X connect 0 0 19 0;
#X connect 0 1 19 1;
#X connect 1 0 10 0;
#X connect 1 0 17 0;
#X connect 2 0 6 0;
#X connect 3 0 1 1;
#X connect 4 0 2 0;
#X connect 4 1 3 0;
#X connect 4 1 11 0;
#X connect 5 0 7 2;
#X connect 5 0 12 0;
#X connect 6 0 1 0;
#X connect 6 1 5 0;
#X connect 6 1 9 0;
#X connect 7 0 8 0;
#X connect 9 0 0 1;
#X connect 10 0 1 1;
#X connect 11 0 5 1;
#X connect 12 0 5 1;
#X connect 13 0 4 0;
#X connect 14 0 13 0;
#X connect 15 0 7 0;
#X connect 16 0 7 1;
#X connect 17 0 0 0;
#X connect 19 0 15 0;
#X connect 19 1 16 0;
#X restore 67 79 pd m2/M7;
#X obj 28 40 t b b b;
#N canvas 194 23 543 495 M3/m6 0;
#X obj 11 315 swap;
#X msg 77 298 1;
#X obj 11 199 f;
#X obj 11 117 until;
#X obj 11 89 t f b;
#X obj 11 161 t b b;
#X obj 11 429 pack f f f;
#X msg 11 62 4;
#X obj 11 454 outlet;
#X obj 83 83 t f b;
#X msg 73 60 4;
#X obj 174 129 0;
#X msg 175 60 4;
#X obj 11 27 t b b b;
#X obj 134 132 -8;
#X obj 228 126 8;
#X obj 11 4 inlet;
#X msg 282 281 0 9 10 3 4 5 6 7 8 1 2 11;
#X obj 11 369 expr_scale -1 1 600 810;
#X obj 39 397 expr_scale -1 1 205 2;
#X obj 11 226 expr $f1/ 180*3.14159;
#X text 149 229 // degrees to radians;
#N canvas 0 22 450 300 poltocar 0;
#X obj 28 19 inlet;
#X obj 74 19 inlet;
#X obj 28 149 outlet;
#X obj 73 150 outlet;
#X obj 74 41 t f f;
#X obj 74 63 cos;
#X obj 102 64 sin;
#X obj 28 41 t f f;
#X obj 55 112 * 1;
#X obj 28 113 * 1;
#X connect 0 0 7 0;
#X connect 1 0 4 0;
#X connect 4 0 5 0;
#X connect 4 1 6 0;
#X connect 5 0 9 1;
#X connect 6 0 8 1;
#X connect 7 0 9 0;
#X connect 7 1 8 0;
#X connect 8 0 3 0;
#X connect 9 0 2 0;
#X restore 11 343 pd poltocar;
#N canvas 0 22 450 300 dripslow 0;
#X obj 148 186 list split 1;
#X obj 148 161 list append;
#X obj 148 237 outlet;
#X obj 148 37 inlet;
#X obj 229 237 outlet;
#X obj 222 35 inlet;
#X obj 148 72 b;
#X text 265 36 list;
#X text 103 37 bang;
#X text 273 237 EOL;
#X text 89 236 element;
#X obj 229 207 b;
#X connect 0 0 2 0;
#X connect 0 1 1 1;
#X connect 0 2 11 0;
#X connect 1 0 0 0;
#X connect 3 0 6 0;
#X connect 5 0 1 1;
#X connect 6 0 1 0;
#X connect 11 0 4 0;
#X restore 139 298 pd dripslow;
#X obj 175 87 t f b b;
#X obj 41 199 - 90;
#X connect 0 0 22 0;
#X connect 0 1 22 1;
#X connect 1 0 0 1;
#X connect 2 0 20 0;
#X connect 2 0 25 0;
#X connect 3 0 5 0;
#X connect 4 0 3 0;
#X connect 4 1 14 0;
#X connect 5 0 2 0;
#X connect 5 1 23 0;
#X connect 6 0 8 0;
#X connect 7 0 4 0;
#X connect 9 0 3 0;
#X connect 9 1 11 0;
#X connect 10 0 9 0;
#X connect 11 0 2 1;
#X connect 12 0 24 0;
#X connect 13 0 7 0;
#X connect 13 1 10 0;
#X connect 13 2 12 0;
#X connect 14 0 2 1;
#X connect 15 0 2 1;
#X connect 16 0 13 0;
#X connect 17 0 23 1;
#X connect 18 0 6 0;
#X connect 19 0 6 1;
#X connect 20 0 0 0;
#X connect 22 0 18 0;
#X connect 22 1 19 0;
#X connect 23 0 6 2;
#X connect 24 0 3 0;
#X connect 24 1 15 0;
#X connect 24 2 17 0;
#X connect 24 2 1 0;
#X connect 25 0 2 1;
#X restore 98 134 pd M3/m6;
#N canvas 387 150 630 500 TT 0;
#X obj 170 289 swap;
#X obj 170 203 f;
#X obj 169 148 until;
#X obj 169 119 t f b;
#X obj 413 398 f;
#X obj 170 174 t b b;
#X obj 170 415 pack f f f;
#X obj 170 442 outlet;
#X obj 238 272 1;
#X obj 428 374 0;
#X obj 441 398 + 1;
#X obj 200 203 - 60;
#X msg 168 91 6;
#X obj 294 124 t f b;
#X msg 294 100 6;
#X obj 233 136 -4;
#X obj 358 141 4;
#X obj 168 36 t b b;
#X obj 168 10 inlet;
#X obj 170 348 expr_scale -1 1 300 510;
#X obj 198 378 expr_scale -1 1 205 2;
#X obj 170 230 expr $f1/ 180*3.14159;
#X text 306 228 // degrees to radians;
#N canvas 0 22 450 300 poltocar 0;
#X obj 28 19 inlet;
#X obj 74 19 inlet;
#X obj 28 149 outlet;
#X obj 73 150 outlet;
#X obj 74 41 t f f;
#X obj 74 63 cos;
#X obj 102 64 sin;
#X obj 28 41 t f f;
#X obj 55 112 * 1;
#X obj 28 113 * 1;
#X connect 0 0 7 0;
#X connect 1 0 4 0;
#X connect 4 0 5 0;
#X connect 4 1 6 0;
#X connect 5 0 9 1;
#X connect 6 0 8 1;
#X connect 7 0 9 0;
#X connect 7 1 8 0;
#X connect 8 0 3 0;
#X connect 9 0 2 0;
#X restore 170 317 pd poltocar;
#X connect 0 0 23 0;
#X connect 0 1 23 1;
#X connect 1 0 11 0;
#X connect 1 0 21 0;
#X connect 2 0 5 0;
#X connect 3 0 2 0;
#X connect 3 1 15 0;
#X connect 4 0 6 2;
#X connect 4 0 10 0;
#X connect 5 0 1 0;
#X connect 5 1 4 0;
#X connect 5 1 8 0;
#X connect 6 0 7 0;
#X connect 8 0 0 1;
#X connect 9 0 4 1;
#X connect 10 0 4 1;
#X connect 11 0 1 1;
#X connect 12 0 3 0;
#X connect 13 0 2 0;
#X connect 13 1 9 0;
#X connect 13 1 16 0;
#X connect 14 0 13 0;
#X connect 15 0 1 1;
#X connect 16 0 1 1;
#X connect 17 0 12 0;
#X connect 17 1 14 0;
#X connect 18 0 17 0;
#X connect 19 0 6 0;
#X connect 20 0 6 1;
#X connect 21 0 0 0;
#X connect 23 0 19 0;
#X connect 23 1 20 0;
#X restore 82 107 pd TT;
#X connect 0 0 2 3;
#X connect 0 0 8 3;
#X connect 1 0 11 0;
#X connect 4 0 2 0;
#X connect 5 0 2 0;
#X connect 6 0 2 0;
#X connect 7 0 13 0;
#X connect 9 0 1 0;
#X connect 11 0 0 0;
#X connect 12 0 8 0;
#X connect 13 0 4 0;
#X connect 13 0 5 0;
#X connect 13 0 6 0;
#X connect 13 1 12 0;
#X connect 13 1 15 0;
#X connect 13 1 14 0;
#X connect 13 2 1 0;
#X connect 14 0 8 0;
#X connect 15 0 8 0;
#X restore 336 291 pd circles;
#X obj 401 58 == 0;
#N canvas 826 714 468 667 moving_squares 0;
#X obj 84 50 list split 2;
#X obj 50 22 list split 2;
#X obj 50 559 pack 0 0;
#X msg 50 584 pos \$1 \$2;
#X obj 50 457 unpack;
#X obj 84 380 pack 0 0;
#X msg 84 405 pos \$1 \$2;
#X obj 84 280 unpack;
#X obj 118 200 pack 0 0;
#X msg 118 225 pos \$1 \$2;
#X obj 118 101 unpack;
#X obj 50 530 - 5;
#X obj 95 531 - 5;
#X obj 84 356 - 5;
#X obj 129 356 - 5;
#X obj 118 175 - 5;
#X obj 163 175 - 5;
#X obj 50 -6 inlet;
#X obj 118 77 list split 2;
#X obj 118 249 s \$0-maj2;
#X obj 84 429 s \$0-min2;
#X obj 50 608 s \$0-min3;
#X obj 118 126 expr_scale -1 1 610 810;
#X obj 163 152 expr_scale -1 1 210 10;
#X obj 84 306 expr_scale -1 1 310 510;
#X obj 129 333 expr_scale -1 11 210 10;
#X obj 50 483 expr_scale -1 1 10 210;
#X obj 95 507 expr_scale -1 1 210 10;
#X connect 0 0 7 0;
#X connect 0 1 18 0;
#X connect 1 0 4 0;
#X connect 1 1 0 0;
#X connect 2 0 3 0;
#X connect 3 0 21 0;
#X connect 4 0 26 0;
#X connect 4 1 27 0;
#X connect 5 0 6 0;
#X connect 6 0 20 0;
#X connect 7 0 24 0;
#X connect 7 1 25 0;
#X connect 8 0 9 0;
#X connect 9 0 19 0;
#X connect 10 0 22 0;
#X connect 10 1 23 0;
#X connect 11 0 2 0;
#X connect 12 0 2 1;
#X connect 13 0 5 0;
#X connect 14 0 5 1;
#X connect 15 0 8 0;
#X connect 16 0 8 1;
#X connect 17 0 1 0;
#X connect 18 0 10 0;
#X connect 22 0 15 0;
#X connect 23 0 16 0;
#X connect 24 0 13 0;
#X connect 25 0 14 0;
#X connect 26 0 11 0;
#X connect 27 0 12 0;
#X restore 177 167 pd moving_squares;
#N canvas 117 23 631 727 fixed_squares 0;
#X obj 416 575 pointer;
#X obj 92 63 list split 2;
#X obj 58 38 list split 2;
#X obj 58 401 unpack;
#X obj 92 363 pack 0 0;
#X obj 92 253 unpack;
#X obj 126 223 pack 0 0;
#X obj 126 114 unpack;
#X obj 58 10 inlet;
#X msg 416 551 traverse pd-\$1-viz \, bang;
#X obj 416 528 \$0;
#X obj 58 481 - 2.5;
#X obj 103 482 - 2.5;
#X obj 92 336 - 2.5;
#X obj 137 335 - 2.5;
#X obj 171 196 - 2.5;
#X obj 126 195 - 2.5;
#N canvas 142 472 716 190 square1-template 0;
#X obj 6 8 struct \$0-square1 float x float y float c;
#X obj 6 49 filledpolygon -x c c 0 0 0 5 0 5 5 0 5 0 0;
#X restore 58 645 pd square1-template;
#X obj 416 505 inlet;
#X obj 58 510 pack 0 0;
#X obj 58 599 pack f f 900;
#X text 230 11 RGB color (0=black \, 999=white \, 900=red \, 90=green
\, 9=blue \, 555=grey \, etc.);
#X obj 126 88 list split 2;
#N canvas 334 486 304 322 line 0;
#X obj 31 9 inlet;
#X obj 31 82 first;
#X msg 31 113 \$1 \$2 \$1 \$2;
#X obj 31 140 list prepend;
#X obj 127 157 list split 2;
#X obj 100 65 r \$0-clear;
#X obj 31 242 outlet;
#X obj 31 213 list append;
#X obj 94 188 r \$0-c;
#X connect 0 0 1 0;
#X connect 1 0 2 0;
#X connect 1 1 3 0;
#X connect 2 0 3 0;
#X connect 3 0 4 0;
#X connect 3 0 7 0;
#X connect 4 1 3 1;
#X connect 5 0 1 1;
#X connect 5 0 3 1;
#X connect 7 0 6 0;
#X connect 8 0 7 1;
#X restore 429 262 pd line;
#X obj 429 239 spigot;
#X obj 462 216 r \$0-trajectory;
#N canvas 1614 486 294 342 line 0;
#X obj 26 -29 inlet;
#X obj 26 52 first;
#X msg 26 83 \$1 \$2 \$1 \$2;
#X obj 26 110 list prepend;
#X obj 132 127 list split 2;
#X obj 95 35 r \$0-clear;
#X obj 26 221 outlet;
#X obj 26 188 list append;
#X obj 89 164 r \$0-c;
#X connect 0 0 1 0;
#X connect 1 0 2 0;
#X connect 1 1 3 0;
#X connect 2 0 3 0;
#X connect 3 0 4 0;
#X connect 3 0 7 0;
#X connect 4 1 3 1;
#X connect 5 0 1 1;
#X connect 5 0 3 1;
#X connect 7 0 6 0;
#X connect 8 0 7 1;
#X restore 333 403 pd line;
#X obj 333 380 spigot;
#X obj 366 357 r \$0-trajectory;
#N canvas 1614 486 280 313 line 0;
#X obj 26 -3 inlet;
#X obj 26 52 first;
#X msg 26 83 \$1 \$2 \$1 \$2;
#X obj 26 110 list prepend;
#X obj 132 127 list split 2;
#X obj 95 35 r \$0-clear;
#X obj 26 221 outlet;
#X obj 26 196 list append;
#X obj 89 173 r \$0-c;
#X connect 0 0 1 0;
#X connect 1 0 2 0;
#X connect 1 1 3 0;
#X connect 2 0 3 0;
#X connect 3 0 4 0;
#X connect 3 0 7 0;
#X connect 4 1 3 1;
#X connect 5 0 1 1;
#X connect 5 0 3 1;
#X connect 7 0 6 0;
#X connect 8 0 7 1;
#X restore 251 550 pd line;
#X obj 251 527 spigot;
#X obj 284 504 r \$0-trajectory;
#N canvas 381 290 716 190 line-template 0;
#X obj 6 8 struct \$0-line float x1 float y1 float x2 float y2 float
c;
#X obj 6 49 drawpolygon -x c 1 x1 y1 x2 y2;
#X restore 251 645 pd line-template;
#X obj 127 576 r \$0-c;
#X obj 251 623 append \$0-line x1 y1 x2 y2 c;
#X obj 186 222 pack;
#X obj 160 363 pack;
#X obj 121 510 pack;
#N canvas 88 640 716 190 triangle-template 0;
#X obj 6 8 struct \$0-triangle float x float y float c;
#X obj 6 49 filledpolygon -x c c 0 0 0 5 0 3 5 0 0;
#X restore 58 668 pd triangle-template;
#X obj 58 623 append \$0-triangle x y c;
#X obj 126 144 expr_scale -1 1 620 800;
#X obj 171 171 expr_scale -1 1 200 20;
#X obj 92 283 expr_scale -1 1 320 500;
#X obj 137 310 expr_scale -1 1 200 20;
#X obj 58 431 expr_scale -1 1 20 200;
#X obj 103 458 expr_scale -1 1 200 20;
#X connect 0 0 34 5;
#X connect 0 0 39 3;
#X connect 1 0 5 0;
#X connect 1 1 22 0;
#X connect 2 0 3 0;
#X connect 2 1 1 0;
#X connect 3 0 44 0;
#X connect 3 1 45 0;
#X connect 4 0 20 0;
#X connect 5 0 42 0;
#X connect 5 1 43 0;
#X connect 6 0 20 0;
#X connect 7 0 40 0;
#X connect 7 1 41 0;
#X connect 8 0 2 0;
#X connect 9 0 0 0;
#X connect 10 0 9 0;
#X connect 11 0 19 0;
#X connect 12 0 19 1;
#X connect 13 0 4 0;
#X connect 14 0 4 1;
#X connect 15 0 6 1;
#X connect 16 0 6 0;
#X connect 18 0 10 0;
#X connect 19 0 20 0;
#X connect 20 0 39 0;
#X connect 22 0 7 0;
#X connect 23 0 34 0;
#X connect 24 0 23 0;
#X connect 25 0 24 1;
#X connect 26 0 34 0;
#X connect 27 0 26 0;
#X connect 28 0 27 1;
#X connect 29 0 34 0;
#X connect 30 0 29 0;
#X connect 31 0 30 1;
#X connect 33 0 20 2;
#X connect 35 0 24 0;
#X connect 36 0 27 0;
#X connect 37 0 30 0;
#X connect 40 0 16 0;
#X connect 40 0 35 0;
#X connect 41 0 15 0;
#X connect 41 0 35 1;
#X connect 42 0 13 0;
#X connect 42 0 36 0;
#X connect 43 0 14 0;
#X connect 43 0 36 1;
#X connect 44 0 11 0;
#X connect 44 0 37 0;
#X connect 45 0 12 0;
#X connect 45 0 37 1;
#X restore 37 328 pd fixed_squares;
#X obj 370 214 spigot;
#X obj 401 84 t b f;
#X obj 401 33 r \$0-accum;
#X obj 177 140 spigot 0;
#X obj 37 93 spigot 1;
#X obj 458 114 r \$0-clear;
#X obj 336 131 t b b b b;
#X connect 0 0 1 0;
#X connect 2 0 16 0;
#X connect 3 0 13 0;
#X connect 3 0 14 0;
#X connect 7 0 13 1;
#X connect 7 0 11 0;
#X connect 10 0 5 0;
#X connect 11 0 16 0;
#X connect 11 1 10 1;
#X connect 12 0 7 0;
#X connect 12 0 14 1;
#X connect 13 0 8 0;
#X connect 14 0 9 0;
#X connect 15 0 16 0;
#X connect 16 0 6 0;
#X connect 16 1 4 0;
#X connect 16 2 10 0;
#X connect 16 3 0 0;
#X connect 16 3 9 1;
#X restore 1135 116 pd draw_upper;
#X obj 1135 84 list split 6;
#X text 84 1 m2 / M7;
#X text 400 2 TT;
#X text 86 241 m3 / M6;
#X text 693 2 M3 / m6;
#X obj 960 378 s \$0-color;
#X obj 1014 346 s \$0-autoColor;
#X obj 960 254 route float auto;
#X obj 1014 288 1;
#X obj 960 298 t f b;
#X obj 1032 315 0;
#X obj 902 415 s \$0-clear;
#X obj 1018 200 s \$0-trajectory;
#X obj 844 450 s \$0-accum;
#X text 687 242 M2 / m7;
#X obj 1076 151 s \$0-weights;
#X obj 1347 68 loadbang;
#X obj 1347 90 symbol \$1;
#X msg 1347 134 audio;
#X msg 1408 134 symbolic;
#X obj 1347 112 sel audio symbolic;
#X obj 844 25 route accum clear color trajectory weights;
#N canvas 273 140 836 379 weights 0;
#X obj 499 43 loadbang;
#X obj 273 26 r \$0-weights;
#X msg 273 134 \$1 \$1 \$6 \$6 \$4 \$4 \$3 \$3 \$5 \$5 \$2 \$2;
#X msg 499 85 2 7 16 17 19 11;
#X obj 273 48 route list symbolic audio;
#X msg 644 85 3 7.5 15 11.5 14.5 8;
#N canvas 0 23 673 593 drip 0;
#X obj 73 94 t a a;
#X obj 73 251 spigot;
#X obj 112 159 bang;
#X obj 112 178 1;
#X obj 233 159 route bang;
#X obj 193 160 bang;
#X obj 193 179 0;
#X obj 112 124 list split 2;
#X obj 242 389 list split;
#X obj 309 338 list length;
#X obj 309 360 >> 1;
#X obj 73 270 t a a a a;
#X obj 73 456 list split;
#X obj 140 408 list length;
#X obj 140 433 >> 1;
#X obj 41 29 inlet;
#X obj 300 185 outlet;
#X text 83 29 Copyright 2009 by Mathieu Bouchard;
#X obj 41 63 t b a;
#X connect 0 0 1 0;
#X connect 0 1 7 0;
#X connect 1 0 11 0;
#X connect 2 0 3 0;
#X connect 3 0 1 1;
#X connect 4 1 16 0;
#X connect 5 0 6 0;
#X connect 6 0 1 1;
#X connect 7 0 2 0;
#X connect 7 2 4 0;
#X connect 7 2 5 0;
#X connect 8 0 0 0;
#X connect 9 0 10 0;
#X connect 10 0 8 1;
#X connect 11 0 12 0;
#X connect 11 1 13 0;
#X connect 11 2 8 0;
#X connect 11 3 9 0;
#X connect 12 1 0 0;
#X connect 13 0 14 0;
#X connect 14 0 12 1;
#X connect 15 0 18 0;
#X connect 18 1 0 0;
#X restore 45 133 pd drip;
#N canvas 0 23 450 300 dripslow 0;
#X obj 158 196 list split 1;
#X obj 158 171 list append;
#X obj 158 247 outlet;
#X obj 158 47 inlet;
#X obj 239 247 outlet;
#X obj 232 45 inlet;
#X obj 158 82 b;
#X text 275 46 list;
#X text 113 47 bang;
#X text 283 247 EOL;
#X text 99 246 element;
#X obj 239 217 b;
#X connect 0 0 2 0;
#X connect 0 1 1 1;
#X connect 0 2 11 0;
#X connect 1 0 0 0;
#X connect 3 0 6 0;
#X connect 5 0 1 1;
#X connect 6 0 1 0;
#X connect 11 0 4 0;
#X restore 107 176 pd dripslow;
#X obj 45 159 t f b;
#X obj 22 21 inlet;
#X obj 45 236 list prepend;
#X obj 45 193 /;
#X obj 155 253 t l;
#X obj 22 278 list;
#X obj 22 43 t b l b;
#X obj 22 300 outlet;
#X obj 181 151 list;
#X connect 0 0 3 0;
#X connect 1 0 4 0;
#X connect 2 0 16 1;
#X connect 3 0 2 0;
#X connect 4 0 2 0;
#X connect 4 1 3 0;
#X connect 4 2 5 0;
#X connect 5 0 2 0;
#X connect 6 0 8 0;
#X connect 7 0 11 1;
#X connect 8 0 11 0;
#X connect 8 1 7 0;
#X connect 9 0 14 0;
#X connect 10 0 12 0;
#X connect 10 0 13 1;
#X connect 11 0 10 0;
#X connect 12 0 10 1;
#X connect 13 0 15 0;
#X connect 14 0 13 0;
#X connect 14 1 6 0;
#X connect 14 2 10 1;
#X connect 14 2 16 0;
#X connect 16 0 7 1;
#X restore 1135 54 pd weights;
#X connect 2 0 29 0;
#X connect 8 0 7 0;
#X connect 8 1 6 0;
#X connect 15 0 17 0;
#X connect 15 1 16 0;
#X connect 16 0 14 0;
#X connect 17 0 13 0;
#X connect 17 1 18 0;
#X connect 18 0 14 0;
#X connect 24 0 25 0;
#X connect 25 0 28 0;
#X connect 26 0 23 0;
#X connect 27 0 23 0;
#X connect 28 0 26 0;
#X connect 28 1 27 0;
#X connect 29 0 21 0;
#X connect 29 1 19 0;
#X connect 29 2 15 0;
#X connect 29 3 20 0;
#X connect 29 4 23 0;
#X connect 29 5 30 0;
#X connect 30 0 8 0;
#X coords 0 -1 1 1 820 480 1 0 0;
