#N struct 1003-hexagon float x float y float c float l float b float
Nr;
#N struct 1003-pentagon float x float y float c float b float Nr;
#N struct 1003-square float x float y float c float b float Nr;
#N struct 1003-triangle float x float y float c float b float cc float
Nr;
#N canvas 518 23 762 580 10;
#X declare -lib iemmatrix -lib timbreIDLib -lib hcs -lib zexy -lib
tof;
#X obj 685 6 cnv 15 61 15 empty empty miXmash 0 11 1 14 -262144 -1
0;
#N canvas 0 22 450 300 \$0-viz 0;
#X coords 0 500 700 0 700 500 2 100 100;
#X restore 43 24 pd \$0-viz;
#X obj 18 49 vradio 25 1 0 19 \$0-presets \$0-presets.r empty 0 -8
0 10 -262144 -1 -1 0;
#N canvas 324 311 956 463 (subpatch) 0;
#X obj 0 0 bng 25 250 50 0 \$0-openFolder empty / 10 15 1 20 -1 -1
-262144;
#N canvas 57 23 640 735 openFolder 0;
#X obj 94 126 makefilename %s/*;
#X obj 344 207 text define \$0-sf;
#X obj 113 237 text set \$0-sf;
#X obj 54 17 inlet;
#X obj 94 171 t b s b;
#X obj 140 204 f;
#X obj 167 204 + 1;
#X obj 220 165 r \$0-reset;
#X obj 220 187 0;
#X obj 94 359 outlet;
#X obj 152 319 soundfiler;
#X obj 94 280 f;
#X msg 152 295 read -resize \$1 \$2-sample;
#X obj 152 270 pack s \$0;
#X obj 344 184 array define \$0-sample;
#X obj 114 88 s \$0-reset;
#X text 143 361 // sf number (after loading);
#X obj 74 511 outlet;
#X obj 519 165 r \$0-reset;
#X msg 519 190 clear;
#X text 122 510 // end of analysis (nr of files);
#X obj 74 400 bng 15 250 50 0 empty empty empty 17 7 0 10 -262144 -1
-1;
#X obj 106 477 s \$0-nrFiles;
#X obj 74 426 text size \$0-sf;
#X obj 74 449 t f f;
#X obj 8 538 r \$0-reset;
#X obj 8 676 print miXmatch;
#X obj 8 632 pack f f;
#X obj 61 610 r \$0-nrFiles;
#X msg 8 654 Done analyzing \$2 files in \$1 seconds.;
#X obj 8 582 expr rint($f1/1000);
#X obj 8 560 cputime;
#X obj 54 66 t b b s b;
#X obj 54 41 folderpanel;
#X obj 94 149 folder_list;
#X connect 0 0 34 0;
#X connect 3 0 33 0;
#X connect 4 0 11 0;
#X connect 4 1 2 0;
#X connect 4 1 13 0;
#X connect 4 2 5 0;
#X connect 5 0 6 0;
#X connect 5 0 2 1;
#X connect 5 0 11 1;
#X connect 6 0 5 1;
#X connect 7 0 8 0;
#X connect 8 0 5 1;
#X connect 11 0 9 0;
#X connect 12 0 10 0;
#X connect 13 0 12 0;
#X connect 18 0 19 0;
#X connect 19 0 1 0;
#X connect 21 0 23 0;
#X connect 23 0 24 0;
#X connect 24 0 17 0;
#X connect 24 1 22 0;
#X connect 25 0 31 0;
#X connect 27 0 29 0;
#X connect 28 0 27 1;
#X connect 29 0 26 0;
#X connect 30 0 27 0;
#X connect 31 0 30 0;
#X connect 32 0 31 1;
#X connect 32 1 21 0;
#X connect 32 2 0 0;
#X connect 32 3 15 0;
#X connect 33 0 32 0;
#X connect 34 0 4 0;
#X restore 8 70 pd openFolder;
#N canvas 26 23 1111 691 computeAttributes 0;
#X obj 5 83 symbol \$0-sample;
#X obj 28 248 +;
#X obj 56 248 + 8192;
#X obj 106 231 0;
#X obj 28 226 until;
#X obj 5 183 t b f b;
#X obj 5 16 inlet;
#X obj 863 477 text define \$0-tiv;
#X obj 796 438 r \$0-reset;
#X msg 796 460 clear;
#X obj 863 504 text define \$0-chroma;
#X obj 37 60 s \$0-sfNr;
#X obj 5 107 expr size("$s1");
#X text 239 16 If we change the sample size \, we should average or
extract the medium of several analysis windows with a pre-defined size.
, f 62;
#X obj 395 244 until;
#X obj 395 266 f;
#X obj 422 266 + 1;
#X obj 451 210 0;
#X obj 395 288 t f f;
#X obj 581 317 loadbang;
#X obj 5 161 expr int($f1-8192)/8192;
#X obj 209 68 bng 15 250 50 0 empty empty empty 17 7 0 10 -262144 -1
-1;
#X obj 5 38 t b f;
#X msg 507 210 const 0;
#X obj 863 533 text define \$0-mfcc;
#X obj 355 170 min 4096;
#X msg 395 334 analyze \$1 1024;
#X obj 395 378 array set \$0-flux;
#X obj 507 233 array define \$0-flux 4096;
#X obj 863 224 array define \$0-barkCentroid 9999;
#X obj 863 163 r \$0-nrFiles;
#X msg 863 185 resize \$1;
#X obj 5 131 t f f;
#X obj 703 163 r \$0-reset;
#X msg 703 185 const 0 \, resize 9999;
#X obj 863 563 text define \$0-fluxFunc;
#X obj 400 596 r \$0-sfNr;
#X obj 355 193 t b b f b;
#X obj 355 563 array get \$0-flux;
#X obj 355 621 text set \$0-fluxFunc;
#X text 322 117 Use ratio instead: divide by the number of samples!!!
;
#X obj 372 451 b;
#X obj 568 456 0;
#X obj 372 534 array set \$0-nrOnsets;
#X obj 863 253 array define \$0-nrOnsets 9999;
#X obj 444 511 r \$0-sfNr;
#X obj 372 473 f;
#X obj 409 473 + 1;
#X obj 355 148 expr int($f1-768)/256;
#X obj 395 311 * 256;
#X msg 372 406 smooth \, smooth \, smooth \, normalize 0 1 \, peaks
0.1 0.2;
#X msg 581 339 normalize 0 \, power_spectrum 1;
#X obj 188 200 s \$0-sfAnalStart;
#X obj 5 417 s \$0-sfAnalEnd;
#N canvas 0 23 485 308 mfcc 0;
#X obj 72 236 r \$0-sfNr;
#N canvas 0 22 450 300 list-accum 0;
#N canvas 0 22 199 262 drip 0;
#X obj 53 174 list split 1;
#X obj 53 91 until;
#X obj 53 129 list append;
#X obj 79 58 t b l;
#X obj 135 176 bang;
#X obj 79 31 inlet;
#X obj 53 199 outlet;
#X connect 0 0 6 0;
#X connect 0 1 2 1;
#X connect 0 2 4 0;
#X connect 1 0 2 0;
#X connect 2 0 0 0;
#X connect 3 0 1 0;
#X connect 3 1 2 1;
#X connect 4 0 1 1;
#X connect 5 0 3 0;
#X restore 152 84 pd drip;
#X obj 153 219 list prepend;
#X obj 251 219 t a;
#N canvas 0 22 450 300 dripslow 0;
#X obj 158 196 list split 1;
#X obj 158 171 list append;
#X obj 158 247 outlet;
#X obj 158 47 inlet;
#X obj 239 247 outlet;
#X obj 232 45 inlet;
#X obj 158 82 b;
#X text 275 46 list;
#X text 113 47 bang;
#X text 283 247 EOL;
#X text 99 246 element;
#X obj 239 217 b;
#X connect 0 0 2 0;
#X connect 0 1 1 1;
#X connect 0 2 11 0;
#X connect 1 0 0 0;
#X connect 3 0 6 0;
#X connect 5 0 1 1;
#X connect 6 0 1 0;
#X connect 11 0 4 0;
#X restore 205 141 pd dripslow;
#X obj 268 106 inlet;
#X obj 152 110 t f b;
#X obj 132 254 list;
#X obj 152 182 + 0;
#X obj 133 24 inlet;
#X obj 132 274 outlet;
#X obj 132 50 t b a b;
#X msg 167 157 0;
#X connect 0 0 5 0;
#X connect 1 0 2 0;
#X connect 1 0 6 1;
#X connect 2 0 1 1;
#X connect 3 0 7 1;
#X connect 4 0 3 1;
#X connect 5 0 7 0;
#X connect 5 1 3 0;
#X connect 6 0 9 0;
#X connect 6 0 3 1;
#X connect 7 0 1 0;
#X connect 8 0 10 0;
#X connect 10 0 6 0;
#X connect 10 1 0 0;
#X connect 10 2 1 1;
#X connect 10 2 11 0;
#X connect 11 0 7 1;
#X restore 132 191 pd list-accum;
#X text 235 190 (reset);
#X obj 36 208 list;
#X msg 92 83 analyze \$1 16384;
#X obj 36 261 text set \$0-mfcc;
#X obj 92 109 mfcc \$0-sample 100;
#X obj 132 162 list split 16;
#X obj 92 131 list split 1;
#X obj 242 70 loadbang;
#X msg 242 92 normalize 0 \, power_spectrum 1;
#X obj 298 174 r \$0-sfAnalStart;
#X obj 92 60 inlet;
#X obj 36 33 r \$0-sfAnalEnd;
#X connect 0 0 5 1;
#X connect 1 0 3 1;
#X connect 3 0 5 0;
#X connect 4 0 6 0;
#X connect 6 0 8 0;
#X connect 7 0 1 0;
#X connect 8 1 7 0;
#X connect 9 0 10 0;
#X connect 10 0 6 0;
#X connect 11 0 1 1;
#X connect 12 0 4 0;
#X connect 13 0 3 0;
#X restore 47 324 pd mfcc;
#N canvas 1406 346 543 362 barkSpec 0;
#X text 299 122 (reset);
#X msg 98 63 analyze \$1 16384;
#X obj 330 50 loadbang;
#X obj 145 240 r \$0-sfNr;
#X obj 42 266 array set \$0-barkCentroid 9999;
#X obj 98 36 inlet;
#X obj 179 124 r \$0-sfAnalStart;
#X obj 42 12 r \$0-sfAnalEnd;
#X obj 98 89 barkSpecCentroid \$0-sample 0.5;
#X msg 330 72 power_spectrum 1;
#X obj 98 150 list prepend;
#X obj 202 167 t l;
#X obj 42 167 list;
#N canvas 0 23 450 300 mean 0;
#X obj 253 162 length;
#X obj 223 181 /;
#X obj 223 116 t l l;
#X obj 223 140 sum;
#X obj 223 87 inlet list;
#X obj 223 203 outlet mean;
#X connect 0 0 1 1;
#X connect 1 0 5 0;
#X connect 2 0 3 0;
#X connect 2 1 0 0;
#X connect 3 0 1 0;
#X connect 4 0 2 0;
#X restore 42 205 pd mean;
#X connect 1 0 8 0;
#X connect 2 0 9 0;
#X connect 3 0 4 1;
#X connect 5 0 1 0;
#X connect 6 0 10 1;
#X connect 7 0 12 0;
#X connect 8 0 10 0;
#X connect 9 0 8 0;
#X connect 10 0 11 0;
#X connect 10 0 12 1;
#X connect 11 0 10 1;
#X connect 12 0 13 0;
#X connect 13 0 4 0;
#X restore 60 294 pd barkSpec;
#N canvas 984 689 496 381 TIV&chroma 0;
#X obj 70 93 pack f s;
#X obj 185 76 symbol \$0-sample;
#X obj 185 52 loadbang;
#X msg 70 121 analyze \$1 16384 \$2 44100;
#X obj 158 157 r \$0-sfAnalStart;
#X obj 45 18 r \$0-sfAnalEnd;
#X obj 70 52 inlet;
#N canvas 0 23 450 300 list-accum 0;
#X obj 153 219 list prepend;
#X obj 251 219 t a;
#N canvas 0 22 450 300 dripslow 0;
#X obj 158 196 list split 1;
#X obj 158 171 list append;
#X obj 158 247 outlet;
#X obj 158 47 inlet;
#X obj 239 247 outlet;
#X obj 232 45 inlet;
#X obj 158 82 b;
#X text 275 46 list;
#X text 113 47 bang;
#X text 283 247 EOL;
#X text 99 246 element;
#X obj 239 217 b;
#X connect 0 0 2 0;
#X connect 0 1 1 1;
#X connect 0 2 11 0;
#X connect 1 0 0 0;
#X connect 3 0 6 0;
#X connect 5 0 1 1;
#X connect 6 0 1 0;
#X connect 11 0 4 0;
#X restore 205 141 pd dripslow;
#X obj 268 106 inlet;
#X obj 152 110 t f b;
#X obj 132 254 list;
#X obj 152 182 + 0;
#X obj 133 24 inlet;
#X obj 132 274 outlet;
#X obj 132 50 t b a b;
#X msg 167 157 0;
#N canvas 188 98 705 575 drip 0;
#X obj 73 94 t a a;
#X obj 73 251 spigot;
#X obj 112 159 bang;
#X obj 112 178 1;
#X obj 233 159 route bang;
#X obj 193 160 bang;
#X obj 193 179 0;
#X obj 112 124 list split 2;
#X obj 242 389 list split;
#X obj 309 338 list length;
#X obj 309 360 >> 1;
#X obj 73 270 t a a a a;
#X obj 73 456 list split;
#X obj 140 408 list length;
#X obj 140 433 >> 1;
#X obj 41 29 inlet;
#X obj 300 185 outlet;
#X text 83 29 Copyright 2009 by Mathieu Bouchard;
#X obj 41 63 t b a;
#X connect 0 0 1 0;
#X connect 0 1 7 0;
#X connect 1 0 11 0;
#X connect 2 0 3 0;
#X connect 3 0 1 1;
#X connect 4 1 16 0;
#X connect 5 0 6 0;
#X connect 6 0 1 1;
#X connect 7 0 2 0;
#X connect 7 2 4 0;
#X connect 7 2 5 0;
#X connect 8 0 0 0;
#X connect 9 0 10 0;
#X connect 10 0 8 1;
#X connect 11 0 12 0;
#X connect 11 1 13 0;
#X connect 11 2 8 0;
#X connect 11 3 9 0;
#X connect 12 1 0 0;
#X connect 13 0 14 0;
#X connect 14 0 12 1;
#X connect 15 0 18 0;
#X connect 18 1 0 0;
#X restore 151 85 pd drip;
#X connect 0 0 1 0;
#X connect 0 0 5 1;
#X connect 1 0 0 1;
#X connect 2 0 6 1;
#X connect 3 0 2 1;
#X connect 4 0 6 0;
#X connect 4 1 2 0;
#X connect 5 0 8 0;
#X connect 5 0 2 1;
#X connect 6 0 0 0;
#X connect 7 0 9 0;
#X connect 9 0 5 0;
#X connect 9 1 11 0;
#X connect 9 2 0 1;
#X connect 9 2 10 0;
#X connect 10 0 6 1;
#X connect 11 0 4 0;
#X restore 70 183 pd list-accum;
#X obj 45 216 list;
#X obj 45 314 text set \$0-tiv;
#X obj 189 314 text set \$0-chroma;
#X obj 230 281 r \$0-sfNr;
#X obj 45 240 t l l;
#X obj 45 288 list append;
#X text 172 183 (reset);
#X obj 15 340 outlet;
#X obj 45 264 tis audio;
#X obj 70 143 hpcp 20;
#X connect 0 0 3 0;
#X connect 1 0 0 1;
#X connect 2 0 1 0;
#X connect 3 0 17 0;
#X connect 4 0 7 1;
#X connect 5 0 8 0;
#X connect 6 0 0 0;
#X connect 7 0 8 1;
#X connect 8 0 12 0;
#X connect 11 0 9 1;
#X connect 11 0 10 1;
#X connect 12 0 16 0;
#X connect 12 1 10 0;
#X connect 13 0 9 0;
#X connect 13 0 15 0;
#X connect 16 0 13 0;
#X connect 16 2 13 1;
#X connect 17 0 7 0;
#X restore 28 354 pd TIV&chroma;
#N canvas 233 291 452 210 key 0;
#X obj 44 17 inlet;
#X obj 44 63 list split 12;
#X obj 105 134 r \$0-sfNr;
#X obj 44 157 array set \$0-sfKey;
#X obj 44 39 t a b;
#X msg 179 78 reset;
#X obj 44 95 keyInduction;
#X obj 240 56 loadbang;
#X msg 240 78 weights audio \, bias 0.2;
#X connect 0 0 4 0;
#X connect 1 0 6 0;
#X connect 1 1 6 1;
#X connect 2 0 3 1;
#X connect 4 0 1 0;
#X connect 4 1 5 0;
#X connect 5 0 6 0;
#X connect 6 0 3 0;
#X connect 7 0 8 0;
#X connect 8 0 6 0;
#X restore 28 386 pd key;
#X obj 863 282 array define \$0-sfKey 9999;
#X text 806 98 -- Database --;
#X obj 395 356 specFlux \$0-sample 128;
#X obj 372 429 tabletool \$0-flux;
#X connect 0 0 12 0;
#X connect 1 0 2 0;
#X connect 1 0 56 0;
#X connect 1 0 54 0;
#X connect 1 0 55 0;
#X connect 2 0 1 1;
#X connect 3 0 1 1;
#X connect 4 0 1 0;
#X connect 5 0 53 0;
#X connect 5 1 4 0;
#X connect 5 2 3 0;
#X connect 5 2 52 0;
#X connect 6 0 22 0;
#X connect 8 0 9 0;
#X connect 9 0 7 0;
#X connect 9 0 10 0;
#X connect 9 0 24 0;
#X connect 9 0 35 0;
#X connect 12 0 32 0;
#X connect 14 0 15 0;
#X connect 15 0 16 0;
#X connect 15 0 18 0;
#X connect 16 0 15 1;
#X connect 17 0 15 1;
#X connect 18 0 49 0;
#X connect 18 1 27 1;
#X connect 19 0 51 0;
#X connect 20 0 5 0;
#X connect 21 0 0 0;
#X connect 22 0 0 0;
#X connect 22 1 11 0;
#X connect 23 0 28 0;
#X connect 25 0 37 0;
#X connect 26 0 60 0;
#X connect 30 0 31 0;
#X connect 31 0 29 0;
#X connect 31 0 44 0;
#X connect 31 0 58 0;
#X connect 32 0 20 0;
#X connect 32 1 48 0;
#X connect 33 0 34 0;
#X connect 34 0 29 0;
#X connect 34 0 44 0;
#X connect 34 0 58 0;
#X connect 36 0 39 1;
#X connect 37 0 38 0;
#X connect 37 1 50 0;
#X connect 37 2 14 0;
#X connect 37 3 42 0;
#X connect 37 3 17 0;
#X connect 37 3 23 0;
#X connect 38 0 39 0;
#X connect 41 0 46 0;
#X connect 42 0 46 1;
#X connect 45 0 43 1;
#X connect 46 0 43 0;
#X connect 46 0 47 0;
#X connect 47 0 46 1;
#X connect 48 0 25 0;
#X connect 49 0 26 0;
#X connect 50 0 61 0;
#X connect 51 0 60 0;
#X connect 56 0 57 0;
#X connect 60 0 27 0;
#X connect 61 0 41 0;
#X restore 96 94 pd computeAttributes;
#N canvas 0 22 450 278 (subpatch) 0;
#X array array1 12 float 0;
#X coords 0 1 11 0 200 70 1 0 0;
#X restore 7 354 graph;
#N canvas 0 22 450 278 (subpatch) 0;
#X array array2 19 float 0;
#X coords 0 1 18 0 200 70 1 0 0;
#X restore 207 354 graph;
#X obj 7 338 cnv 15 600 15 empty empty empty 25 8 0 12 -1 -262144 0
;
#X obj 8 47 r \$0-openFolder;
#N canvas 0 22 450 278 (subpatch) 0;
#X array array3 16 float 0;
#X coords 0 1 15 -1 200 70 1 0 0;
#X restore 407 354 graph;
#X text 213 320 mfcc;
#X text 411 319 filtered flux function;
#X text 491 107 TODO:;
#X text 10 319 chroma;
#X obj 276 97 key;
#X obj 276 119 spigot;
#X obj 315 96 tgl 15 0 empty empty empty 17 7 0 10 -262144 -1 -1 1
1;
#X obj 276 141 s \$0-key;
#N canvas 523 555 404 420 player 0;
#N canvas 112 23 933 264 vizAnalysis 0;
#X obj 30 68 text get \$0-chroma;
#X obj 109 107 list prepend 0;
#X obj 109 142 s array1;
#X obj 30 90 t b a;
#X msg 30 125 normalize;
#X obj 322 10 inlet;
#X obj 390 140 list prepend 0;
#X obj 322 123 t b a;
#X msg 322 158 normalize;
#X obj 322 68 text get \$0-mfcc;
#X obj 630 140 list prepend 0;
#X obj 562 123 t b a;
#X msg 562 158 normalize;
#X obj 562 68 text get \$0-fluxFunc;
#X obj 390 175 s array2;
#X obj 630 175 s array3;
#X connect 0 0 3 0;
#X connect 1 0 2 0;
#X connect 3 0 4 0;
#X connect 3 1 1 0;
#X connect 4 0 2 0;
#X connect 5 0 0 0;
#X connect 5 0 9 0;
#X connect 5 0 13 0;
#X connect 6 0 14 0;
#X connect 7 0 8 0;
#X connect 7 1 6 0;
#X connect 8 0 14 0;
#X connect 9 0 7 0;
#X connect 10 0 15 0;
#X connect 11 0 12 0;
#X connect 11 1 10 0;
#X connect 12 0 15 0;
#X connect 13 0 11 0;
#X restore 300 332 pd vizAnalysis;
#X floatatom 300 311 5 0 0 0 - - -;
#X obj 21 126 *~ 0;
#X obj 21 150 +~ 1;
#X obj 21 100 phasor~ 1;
#X obj 21 74 expr 44100/$f1;
#X obj 62 351 *~;
#X obj 21 48 r \$0-sampleLength;
#X obj 21 175 s~ \$0-phasor;
#N canvas 772 760 524 382 player1 0;
#X obj 18 286 *~;
#X obj 134 269 line~;
#X obj 194 230 0;
#X msg 134 247 \$1 50;
#X obj 109 213 r \$0-reset;
#X obj 18 233 r~ \$0-phasor;
#X obj 18 257 tabread4~ \$0-sf1;
#X obj 18 308 throw~ \$0-out;
#X obj 383 18 array define \$0-sf1;
#X obj 251 5 inlet;
#X obj 251 63 spigot;
#X obj 128 350 outlet;
#X obj 128 323 spigot;
#X obj 194 80 route;
#X obj 251 230 1;
#X obj 344 247 == 0;
#N canvas 0 23 210 280 loadFile 0;
#X obj 21 66 text get \$0-sf;
#X obj 21 133 soundfiler;
#X obj 48 178 s \$0-sampleLength;
#X obj 21 88 pack s \$0;
#X msg 21 111 read -resize \$1 \$2-sf1;
#X obj 21 155 t b f;
#X obj 21 43 inlet;
#X obj 21 207 outlet;
#X connect 0 0 3 0;
#X connect 1 0 5 0;
#X connect 3 0 4 0;
#X connect 4 0 1 0;
#X connect 5 0 7 0;
#X connect 5 1 2 0;
#X connect 6 0 0 0;
#X restore 251 110 pd loadFile;
#X obj 194 267 array set \$0-currentlyPlaying;
#X obj 251 85 t f f;
#X obj 251 32 t f f;
#X obj 169 50 r \$0-stop;
#X connect 0 0 7 0;
#X connect 1 0 0 1;
#X connect 2 0 3 0;
#X connect 2 0 15 0;
#X connect 2 0 17 0;
#X connect 2 0 12 1;
#X connect 3 0 1 0;
#X connect 4 0 2 0;
#X connect 5 0 6 0;
#X connect 6 0 0 0;
#X connect 9 0 19 0;
#X connect 10 0 13 1;
#X connect 10 0 18 0;
#X connect 12 0 11 0;
#X connect 13 0 2 0;
#X connect 14 0 3 0;
#X connect 14 0 15 0;
#X connect 14 0 17 0;
#X connect 14 0 12 1;
#X connect 15 0 10 1;
#X connect 16 0 14 0;
#X connect 18 0 16 0;
#X connect 18 1 17 1;
#X connect 19 0 10 0;
#X connect 19 1 12 0;
#X connect 20 0 13 0;
#X restore 172 78 pd player1;
#X obj 62 377 dac~;
#X obj 62 327 catch~ \$0-out;
#X obj 172 334 line~;
#X msg 172 310 \$1 50;
#X obj 172 265 loadbang;
#X obj 172 287 1;
#N canvas 525 23 850 407 presets 0;
#X obj 397 118 text define \$0-presetsStorage;
#X obj 397 76 r \$0-reset;
#X msg 397 97 clear;
#X obj 46 360 text set \$0-presetsStorage;
#X obj 65 231 array get \$0-currentlyPlaying 0 1;
#X obj 178 125 r \$0-nrFiles;
#X obj 65 165 until;
#X obj 65 142 f;
#X obj 137 170 0;
#X obj 65 187 f;
#X obj 93 187 + 1;
#X obj 65 253 sel 1;
#X obj 65 300 list prepend;
#X obj 157 317 t l;
#X obj 46 325 list;
#X obj 46 67 r \$0-presets;
#X obj 46 119 t b b b f;
#X obj 169 7 keyname;
#X obj 169 72 route Shift_L;
#X obj 46 89 spigot;
#X obj 169 29 list prepend;
#X obj 169 51 list trim;
#X obj 397 166 r \$0-presets;
#X obj 397 212 text get \$0-presetsStorage;
#N canvas 265 292 450 300 stopCurretlyPlaying 0;
#X obj 46 181 array get \$0-currentlyPlaying 0 1;
#X obj 46 115 until;
#X obj 46 92 f;
#X obj 118 120 0;
#X obj 46 137 f;
#X obj 74 137 + 1;
#X obj 46 203 sel 1;
#X obj 46 44 inlet;
#X obj 46 66 t b b;
#X obj 92 75 r \$0-nrFiles;
#X obj 46 225 f;
#X obj 46 159 t f f;
#X obj 46 247 s \$0-stop;
#X obj 92 49 r \$0-stopAll;
#X connect 0 0 6 0;
#X connect 1 0 4 0;
#X connect 2 0 1 0;
#X connect 3 0 4 1;
#X connect 4 0 5 0;
#X connect 4 0 11 0;
#X connect 5 0 4 1;
#X connect 6 0 10 0;
#X connect 7 0 8 0;
#X connect 8 0 2 0;
#X connect 8 1 3 0;
#X connect 9 0 2 1;
#X connect 10 0 12 0;
#X connect 11 0 0 0;
#X connect 11 1 10 1;
#X connect 13 0 8 0;
#X restore 463 252 pd stopCurretlyPlaying;
#X obj 65 209 t f f;
#X obj 65 275 f;
#N canvas 188 98 705 575 playPresets 0;
#X obj 73 94 t a a;
#X obj 73 251 spigot;
#X obj 112 159 bang;
#X obj 112 178 1;
#X obj 233 159 route bang;
#X obj 193 160 bang;
#X obj 193 179 0;
#X obj 112 124 list split 2;
#X obj 242 389 list split;
#X obj 309 338 list length;
#X obj 309 360 >> 1;
#X obj 73 270 t a a a a;
#X obj 73 456 list split;
#X obj 140 408 list length;
#X obj 140 433 >> 1;
#X obj 41 29 inlet;
#X text 83 29 Copyright 2009 by Mathieu Bouchard;
#X obj 41 63 t b a;
#X obj 290 222 s \$0-play;
#X connect 0 0 1 0;
#X connect 0 1 7 0;
#X connect 1 0 11 0;
#X connect 2 0 3 0;
#X connect 3 0 1 1;
#X connect 4 1 18 0;
#X connect 5 0 6 0;
#X connect 6 0 1 1;
#X connect 7 0 2 0;
#X connect 7 2 4 0;
#X connect 7 2 5 0;
#X connect 8 0 0 0;
#X connect 9 0 10 0;
#X connect 10 0 8 1;
#X connect 11 0 12 0;
#X connect 11 1 13 0;
#X connect 11 2 8 0;
#X connect 11 3 9 0;
#X connect 12 1 0 0;
#X connect 13 0 14 0;
#X connect 14 0 12 1;
#X connect 15 0 17 0;
#X connect 17 1 0 0;
#X restore 416 276 pd playPresets;
#X obj 397 235 t b l b;
#X obj 397 301 s \$0-redraw;
#X obj 397 189 spigot;
#X obj 493 172 == 0;
#X obj 571 218 r \$0-forcePlay;
#X connect 1 0 2 0;
#X connect 2 0 0 0;
#X connect 4 0 11 0;
#X connect 5 0 7 1;
#X connect 6 0 9 0;
#X connect 7 0 6 0;
#X connect 8 0 9 1;
#X connect 9 0 10 0;
#X connect 9 0 25 0;
#X connect 10 0 9 1;
#X connect 11 0 26 0;
#X connect 12 0 13 0;
#X connect 12 0 14 1;
#X connect 13 0 12 1;
#X connect 14 0 3 0;
#X connect 15 0 19 0;
#X connect 16 0 14 0;
#X connect 16 1 7 0;
#X connect 16 2 8 0;
#X connect 16 2 12 1;
#X connect 16 3 3 1;
#X connect 17 0 20 0;
#X connect 17 1 20 1;
#X connect 18 0 19 1;
#X connect 18 0 31 0;
#X connect 19 0 16 0;
#X connect 20 0 21 0;
#X connect 21 0 18 0;
#X connect 22 0 30 0;
#X connect 23 0 28 0;
#X connect 25 0 4 0;
#X connect 25 1 26 1;
#X connect 26 0 12 0;
#X connect 28 0 29 0;
#X connect 28 1 27 0;
#X connect 28 2 24 0;
#X connect 30 0 23 0;
#X connect 31 0 30 1;
#X connect 32 0 28 0;
#X restore 300 356 pd presets;
#X obj 172 48 r \$0-play;
#N canvas 129 241 524 382 player2 0;
#X obj 18 286 *~;
#X obj 134 269 line~;
#X obj 194 230 0;
#X msg 134 247 \$1 50;
#X obj 109 213 r \$0-reset;
#X obj 18 233 r~ \$0-phasor;
#X obj 18 308 throw~ \$0-out;
#X obj 251 5 inlet;
#X obj 251 63 spigot;
#X obj 128 350 outlet;
#X obj 128 323 spigot;
#X obj 194 80 route;
#X obj 251 230 1;
#X obj 344 247 == 0;
#N canvas 0 23 210 280 loadFile 0;
#X obj 21 66 text get \$0-sf;
#X obj 21 133 soundfiler;
#X obj 48 178 s \$0-sampleLength;
#X obj 21 88 pack s \$0;
#X obj 21 155 t b f;
#X obj 21 43 inlet;
#X obj 21 207 outlet;
#X msg 21 111 read -resize \$1 \$2-sf2;
#X connect 0 0 3 0;
#X connect 1 0 4 0;
#X connect 3 0 7 0;
#X connect 4 0 6 0;
#X connect 4 1 2 0;
#X connect 5 0 0 0;
#X connect 7 0 1 0;
#X restore 251 110 pd loadFile;
#X obj 194 267 array set \$0-currentlyPlaying;
#X obj 251 85 t f f;
#X obj 251 32 t f f;
#X obj 169 50 r \$0-stop;
#X obj 383 18 array define \$0-sf2;
#X obj 18 257 tabread4~ \$0-sf2;
#X connect 0 0 6 0;
#X connect 1 0 0 1;
#X connect 2 0 3 0;
#X connect 2 0 13 0;
#X connect 2 0 15 0;
#X connect 2 0 10 1;
#X connect 3 0 1 0;
#X connect 4 0 2 0;
#X connect 5 0 20 0;
#X connect 7 0 17 0;
#X connect 8 0 11 1;
#X connect 8 0 16 0;
#X connect 10 0 9 0;
#X connect 11 0 2 0;
#X connect 12 0 3 0;
#X connect 12 0 13 0;
#X connect 12 0 15 0;
#X connect 12 0 10 1;
#X connect 13 0 8 1;
#X connect 14 0 12 0;
#X connect 16 0 14 0;
#X connect 16 1 15 1;
#X connect 17 0 8 0;
#X connect 17 1 10 0;
#X connect 18 0 11 0;
#X connect 20 0 0 0;
#X restore 172 108 pd player2;
#N canvas 129 241 524 382 player3 0;
#X obj 18 286 *~;
#X obj 134 269 line~;
#X obj 194 230 0;
#X msg 134 247 \$1 50;
#X obj 109 213 r \$0-reset;
#X obj 18 233 r~ \$0-phasor;
#X obj 18 308 throw~ \$0-out;
#X obj 251 5 inlet;
#X obj 251 63 spigot;
#X obj 128 350 outlet;
#X obj 128 323 spigot;
#X obj 194 80 route;
#X obj 251 230 1;
#X obj 344 247 == 0;
#N canvas 0 23 210 280 loadFile 0;
#X obj 21 66 text get \$0-sf;
#X obj 21 133 soundfiler;
#X obj 48 178 s \$0-sampleLength;
#X obj 21 88 pack s \$0;
#X obj 21 155 t b f;
#X obj 21 43 inlet;
#X obj 21 207 outlet;
#X msg 21 111 read -resize \$1 \$2-sf3;
#X connect 0 0 3 0;
#X connect 1 0 4 0;
#X connect 3 0 7 0;
#X connect 4 0 6 0;
#X connect 4 1 2 0;
#X connect 5 0 0 0;
#X connect 7 0 1 0;
#X restore 251 110 pd loadFile;
#X obj 194 267 array set \$0-currentlyPlaying;
#X obj 251 85 t f f;
#X obj 251 32 t f f;
#X obj 169 50 r \$0-stop;
#X obj 383 18 array define \$0-sf3;
#X obj 18 257 tabread4~ \$0-sf3;
#X connect 0 0 6 0;
#X connect 1 0 0 1;
#X connect 2 0 3 0;
#X connect 2 0 13 0;
#X connect 2 0 15 0;
#X connect 2 0 10 1;
#X connect 3 0 1 0;
#X connect 4 0 2 0;
#X connect 5 0 20 0;
#X connect 7 0 17 0;
#X connect 8 0 11 1;
#X connect 8 0 16 0;
#X connect 10 0 9 0;
#X connect 11 0 2 0;
#X connect 12 0 3 0;
#X connect 12 0 13 0;
#X connect 12 0 15 0;
#X connect 12 0 10 1;
#X connect 13 0 8 1;
#X connect 14 0 12 0;
#X connect 16 0 14 0;
#X connect 16 1 15 1;
#X connect 17 0 8 0;
#X connect 17 1 10 0;
#X connect 18 0 11 0;
#X connect 20 0 0 0;
#X restore 172 138 pd player3;
#X connect 1 0 0 0;
#X connect 2 0 3 0;
#X connect 3 0 8 0;
#X connect 4 0 2 0;
#X connect 5 0 4 0;
#X connect 6 0 10 0;
#X connect 6 0 10 1;
#X connect 7 0 5 0;
#X connect 7 0 2 1;
#X connect 9 0 18 0;
#X connect 11 0 6 0;
#X connect 12 0 6 1;
#X connect 13 0 12 0;
#X connect 14 0 15 0;
#X connect 15 0 13 0;
#X connect 17 0 9 0;
#X connect 18 0 19 0;
#X restore 8 261 pd player;
#X obj 276 164 r \$0-sfNr;
#X floatatom 276 186 5 0 0 0 - - -;
#X obj 369 162 \$0;
#X msg 369 184 \; pd-help vis 1;
#N canvas 660 23 1339 620 plot 0;
#X obj 39 71 inlet;
#X obj 864 417 pointer;
#N canvas 36 251 486 132 square-template 0;
#X obj 6 30 outlet;
#X obj 6 8 struct \$0-square float x float y float c float b float
Nr;
#X obj 6 80 filledpolygon c 0 b 0 -16 -16 0 0 16 16 0 0 -16;
#X connect 1 0 0 0;
#X restore 1148 466 pd square-template;
#X msg 864 393 traverse pd-\$1-viz \, bang;
#X msg 896 354 \; pd-\$1-viz clear;
#X obj 864 307 \$0;
#X obj 864 329 t f f;
#X obj 864 284 b;
#X obj 920 267 loadbang;
#X obj 39 233 until;
#X obj 39 210 f;
#X obj 57 187 r \$0-nrFiles;
#X obj 39 255 f;
#X obj 67 255 + 1;
#X obj 120 238 0;
#N canvas 572 23 450 300 X_axis 0;
#X obj 218 93 array max \$0-mdsX;
#X obj 108 92 array min \$0-mdsX;
#X obj 31 131 array get \$0-mdsX 0 1;
#X obj 108 51 r \$0-resetPlot;
#X obj 31 18 inlet;
#X obj 31 255 outlet;
#X obj 31 157 expr_scale 0 1 40 660;
#X connect 0 0 6 2;
#X connect 1 0 6 1;
#X connect 2 0 6 0;
#X connect 3 0 1 0;
#X connect 3 0 0 0;
#X connect 4 0 2 0;
#X connect 6 0 5 0;
#X restore 39 305 pd X_axis;
#N canvas 0 22 450 300 Y_axis 0;
#X obj 108 51 r \$0-resetPlot;
#X obj 31 18 inlet;
#X obj 31 255 outlet;
#X obj 218 93 array max \$0-mdsY;
#X obj 108 92 array min \$0-mdsY;
#X obj 31 131 array get \$0-mdsY 0 1;
#X obj 31 157 expr_scale 0 1 40 460;
#X connect 0 0 3 0;
#X connect 0 0 4 0;
#X connect 1 0 5 0;
#X connect 3 0 6 2;
#X connect 4 0 6 1;
#X connect 5 0 6 0;
#X connect 6 0 2 0;
#X restore 122 305 pd Y_axis;
#N canvas 527 23 634 352 color 0;
#X obj 119 144 r \$0-resetPlot;
#X obj 119 185 array min \$0-barkCentroid;
#X obj 279 186 array max \$0-barkCentroid;
#X obj 42 224 array get \$0-barkCentroid 0 1;
#N canvas 726 649 794 329 colorMappings 0;
#X obj 55 93 inlet;
#X obj 55 177 expr (rint($f1*9)*100)+(rint($f2*9)*10)+(rint($f3*9))
;
#X obj 55 227 outlet;
#X obj 383 177 expr (rint($f1*9)*100)+(rint($f1*9)*10)+(rint($f1*9))
;
#X text 380 155 b&w;
#X text 376 115 in;
#X text 388 230 out;
#X msg 55 143 1 \$1 0;
#X obj 117 93 inlet;
#X msg 117 143 \$1 \$2 \$3;
#X connect 0 0 7 0;
#X connect 1 0 2 0;
#X connect 7 0 1 0;
#X connect 8 0 9 0;
#X connect 9 0 1 0;
#X restore 42 273 pd colorMappings;
#X obj 42 250 expr_scale 0 1 0 1;
#N canvas 604 523 841 493 timbralComp 0;
#X obj 46 47 inlet;
#X obj 46 150 text get \$0-mfcc;
#X obj 202 167 text get \$0-mfcc;
#X obj 133 261 list-cosDist;
#X obj 353 261 list-cosDist;
#X obj 80 456 outlet;
#X obj 422 286 expr ($f1 + 1)/2;
#X obj 553 261 list-cosDist;
#X obj 622 286 expr ($f1 + 1)/2;
#X obj 133 240 spigot;
#X obj 313 172 1;
#X obj 341 172 0;
#X obj 422 167 text get \$0-mfcc;
#X obj 353 239 spigot;
#X obj 533 172 1;
#X obj 561 172 0;
#X obj 622 167 text get \$0-mfcc;
#X obj 46 172 t b l l l;
#X obj 202 286 expr ($f1 + 1)/2;
#X obj 46 409 pack f f f f;
#X msg 368 392 1 1 1 1;
#X obj 46 431 list split 1;
#X obj 553 239 spigot;
#X obj 256 19 array get \$0-currentlyPlaying 0 1;
#X obj 329 -91 r \$0-nrFiles;
#X obj 256 -119 inlet;
#X obj 256 -97 t b b;
#X obj 256 -51 until;
#X obj 256 -74 f;
#X obj 328 -46 0;
#X obj 256 -29 f;
#X obj 284 -29 + 1;
#X obj 256 -5 t f f;
#X obj 256 41 sel 1;
#X obj 256 63 f;
#X obj 178 102 f;
#X obj 208 102 + 1;
#X obj 262 119 pack;
#X obj 256 85 t b f;
#X obj 262 140 route 0 1 2;
#X obj 733 172 1;
#X obj 761 172 0;
#X obj 337 110 sel 1 2 3;
#X obj 178 124 t f f;
#X connect 0 0 1 0;
#X connect 1 0 17 0;
#X connect 2 0 3 1;
#X connect 3 1 18 0;
#X connect 4 1 6 0;
#X connect 6 0 19 2;
#X connect 7 1 8 0;
#X connect 8 0 19 3;
#X connect 9 0 3 0;
#X connect 10 0 9 1;
#X connect 11 0 9 1;
#X connect 12 0 4 1;
#X connect 13 0 4 0;
#X connect 14 0 13 1;
#X connect 15 0 13 1;
#X connect 16 0 7 1;
#X connect 17 0 19 0;
#X connect 17 1 9 0;
#X connect 17 2 13 0;
#X connect 17 3 22 0;
#X connect 18 0 19 1;
#X connect 19 0 21 0;
#X connect 20 0 19 0;
#X connect 21 1 5 0;
#X connect 22 0 7 0;
#X connect 23 0 33 0;
#X connect 24 0 28 1;
#X connect 25 0 26 0;
#X connect 26 0 28 0;
#X connect 26 1 29 0;
#X connect 26 1 11 0;
#X connect 26 1 15 0;
#X connect 26 1 41 0;
#X connect 26 1 20 0;
#X connect 27 0 30 0;
#X connect 28 0 27 0;
#X connect 29 0 30 1;
#X connect 29 0 35 1;
#X connect 30 0 31 0;
#X connect 30 0 32 0;
#X connect 31 0 30 1;
#X connect 32 0 23 0;
#X connect 32 1 34 1;
#X connect 33 0 34 0;
#X connect 34 0 38 0;
#X connect 35 0 36 0;
#X connect 35 0 43 0;
#X connect 36 0 35 1;
#X connect 37 0 39 0;
#X connect 38 0 35 0;
#X connect 38 1 37 1;
#X connect 39 0 2 0;
#X connect 39 1 12 0;
#X connect 39 2 16 0;
#X connect 40 0 22 1;
#X connect 41 0 22 1;
#X connect 42 0 10 0;
#X connect 42 1 14 0;
#X connect 42 2 40 0;
#X connect 43 0 37 0;
#X connect 43 1 42 0;
#X restore 452 256 pd timbralComp;
#X obj 452 231 spigot 0;
#X obj 42 184 spigot 1;
#X obj 42 82 inlet;
#X obj 42 319 outlet;
#X obj 452 32 inlet;
#X obj 422 9 r \$0-reset;
#X obj 533 233 sel 1;
#X obj 95 99 == 49;
#X obj 497 207 == 50;
#X obj 452 57 moses 49;
#X obj 497 82 moses 51;
#X obj 422 40 49;
#X connect 0 0 1 0;
#X connect 0 0 2 0;
#X connect 1 0 5 1;
#X connect 2 0 5 2;
#X connect 3 0 5 0;
#X connect 4 0 10 0;
#X connect 5 0 4 0;
#X connect 6 0 4 1;
#X connect 7 0 6 0;
#X connect 8 0 3 0;
#X connect 9 0 8 0;
#X connect 9 0 7 0;
#X connect 11 0 16 0;
#X connect 12 0 18 0;
#X connect 13 0 6 1;
#X connect 14 0 8 1;
#X connect 15 0 7 1;
#X connect 15 0 13 0;
#X connect 16 1 17 0;
#X connect 17 0 14 0;
#X connect 17 0 15 0;
#X connect 18 0 16 0;
#X restore 206 305 pd color;
#X obj 402 134 s \$0-resetPlot;
#N canvas 785 268 435 144 triangle-template 0;
#X obj 6 50 outlet;
#X obj 6 8 struct \$0-triangle float x float y float c float b float
cc float Nr;
#X obj 6 98 filledpolygon c 0 b 0 -16 -14 8 14 8 0 -16;
#X connect 1 0 0 0;
#X restore 1148 486 pd triangle-template;
#N canvas 234 165 486 132 hexagon-template 0;
#X obj 6 51 outlet;
#X obj 6 8 struct \$0-hexagon float x float y float c float l float
b float Nr;
#X obj 6 99 filledpolygon c 0 b 0 -16 -14 -8 -14 8 0 16 14 8 14 -8
0 -16;
#X connect 1 0 0 0;
#X restore 1148 426 pd hexagon-template;
#N canvas 658 148 486 132 pentagon-template 0;
#X obj 6 30 outlet;
#X obj 6 8 struct \$0-pentagon float x float y float c float b float
Nr;
#X obj 6 79 filledpolygon c 0 b 0 -16 -16 -4 -10 12 10 12 16 -4 0 -16
;
#X connect 1 0 0 0;
#X restore 1148 446 pd pentagon-template;
#X obj 39 395 list prepend 4;
#N canvas 147 199 447 214 octagon-template 0;
#X obj 36 28 inlet;
#X obj 36 50 t f f;
#X obj 36 8 struct \$0-octagon float x float y symbol keyName;
#X obj 63 76 filledpolygon -x 666 666 1 0 -28 -20 -20 -28 0 -20 20
0 28 20 20 28 0 20 -20 0 -28;
#X obj 36 126 drawsymbol keyName 8 -25 0;
#X connect 0 0 1 0;
#X connect 1 0 4 0;
#X connect 1 1 3 0;
#X restore 1148 382 pd octagon-template;
#N canvas 403 263 497 340 density 0;
#X obj 31 14 inlet;
#X obj 31 251 outlet;
#X obj 108 51 r \$0-resetPlot;
#X obj 108 92 array min \$0-nrOnsets;
#X obj 271 92 array max \$0-nrOnsets;
#X obj 31 179 expr rint($f1);
#X obj 31 131 array get \$0-nrOnsets 0 1;
#X obj 31 157 expr_scale 0 1 3 6;
#X connect 0 0 6 0;
#X connect 2 0 3 0;
#X connect 2 0 4 0;
#X connect 3 0 7 1;
#X connect 4 0 7 2;
#X connect 5 0 1 0;
#X connect 6 0 7 0;
#X connect 7 0 5 0;
#X restore 456 378 pd density;
#N canvas 76 155 1066 507 triggerPlay 0;
#X obj 26 36 inlet;
#X floatatom 26 214 5 0 0 0 - - -;
#X obj 83 278 1;
#X obj 26 147 list split 1;
#X obj 26 169 t a a;
#X obj 26 125 route click;
#X obj 53 333 set \$0-hexagon b;
#X obj 26 192 get \$0-hexagon b Nr;
#X obj 414 405 pack;
#X obj 26 233 t f f;
#X obj 246 36 inlet;
#X floatatom 246 214 5 0 0 0 - - -;
#X obj 246 147 list split 1;
#X obj 246 169 t a a;
#X obj 246 125 route click;
#X obj 246 233 t f f;
#X obj 246 192 get \$0-pentagon b Nr;
#X obj 273 333 set \$0-pentagon b;
#X obj 466 36 inlet;
#X floatatom 466 214 5 0 0 0 - - -;
#X obj 523 278 1;
#X obj 466 147 list split 1;
#X obj 466 169 t a a;
#X obj 466 125 route click;
#X obj 466 233 t f f;
#X obj 686 36 inlet;
#X floatatom 686 214 5 0 0 0 - - -;
#X obj 743 288 1;
#X obj 686 147 list split 1;
#X obj 686 169 t a a;
#X obj 686 125 route click;
#X obj 686 233 t f f;
#X obj 466 192 get \$0-square b Nr;
#X obj 493 333 set \$0-square b;
#X obj 713 343 set \$0-triangle b;
#X obj 686 192 get \$0-triangle b Nr;
#X obj 303 278 1;
#X obj 53 300 spigot;
#X obj 137 283 r \$0-block;
#X obj 273 300 spigot;
#X obj 357 283 r \$0-block;
#X obj 493 300 spigot;
#X obj 577 283 r \$0-block;
#X obj 713 310 spigot;
#X obj 797 293 r \$0-block;
#X obj 26 58 t a b;
#X obj 246 58 t a b;
#X obj 466 58 t a b;
#X obj 686 58 t a b;
#X obj 805 120 s \$0-block;
#X obj 805 75 array sum \$0-currentlyPlaying;
#X obj 806 52 array define \$0-currentlyPlaying;
#X obj 806 7 r \$0-nrFiles;
#X msg 806 29 const 0 \, resize \$1;
#X obj 805 97 < 3;
#X obj 439 457 s \$0-play;
#X obj 414 481 s \$0-stop;
#X obj 53 256 sel 1 8;
#X obj 273 256 sel 1 8;
#X obj 493 256 sel 1 8;
#X obj 713 266 sel 1 8;
#X obj 53 278 8;
#X obj 273 278 8;
#X obj 493 278 8;
#X obj 713 288 8;
#X obj 414 431 route 8 1;
#X connect 0 0 45 0;
#X connect 1 0 9 0;
#X connect 2 0 6 0;
#X connect 3 0 4 0;
#X connect 4 0 7 0;
#X connect 4 1 6 1;
#X connect 5 0 3 0;
#X connect 7 0 1 0;
#X connect 7 1 8 1;
#X connect 8 0 65 0;
#X connect 9 0 8 0;
#X connect 9 1 57 0;
#X connect 10 0 46 0;
#X connect 11 0 15 0;
#X connect 12 0 13 0;
#X connect 13 0 16 0;
#X connect 13 1 17 1;
#X connect 14 0 12 0;
#X connect 15 0 8 0;
#X connect 15 1 58 0;
#X connect 16 0 11 0;
#X connect 16 1 8 1;
#X connect 18 0 47 0;
#X connect 19 0 24 0;
#X connect 20 0 33 0;
#X connect 21 0 22 0;
#X connect 22 0 32 0;
#X connect 22 1 33 1;
#X connect 23 0 21 0;
#X connect 24 0 8 0;
#X connect 24 1 59 0;
#X connect 25 0 48 0;
#X connect 26 0 31 0;
#X connect 27 0 34 0;
#X connect 28 0 29 0;
#X connect 29 0 35 0;
#X connect 29 1 34 1;
#X connect 30 0 28 0;
#X connect 31 0 8 0;
#X connect 31 1 60 0;
#X connect 32 0 19 0;
#X connect 32 1 8 1;
#X connect 35 0 26 0;
#X connect 35 1 8 1;
#X connect 36 0 17 0;
#X connect 37 0 6 0;
#X connect 38 0 37 1;
#X connect 39 0 17 0;
#X connect 40 0 39 1;
#X connect 41 0 33 0;
#X connect 42 0 41 1;
#X connect 43 0 34 0;
#X connect 44 0 43 1;
#X connect 45 0 5 0;
#X connect 45 1 50 0;
#X connect 46 0 14 0;
#X connect 46 1 50 0;
#X connect 47 0 23 0;
#X connect 47 1 50 0;
#X connect 48 0 30 0;
#X connect 48 1 50 0;
#X connect 50 0 54 0;
#X connect 52 0 53 0;
#X connect 53 0 51 0;
#X connect 54 0 49 0;
#X connect 57 0 61 0;
#X connect 57 1 2 0;
#X connect 58 0 62 0;
#X connect 58 1 36 0;
#X connect 59 0 63 0;
#X connect 59 1 20 0;
#X connect 60 0 64 0;
#X connect 60 1 27 0;
#X connect 61 0 37 0;
#X connect 62 0 39 0;
#X connect 63 0 41 0;
#X connect 64 0 43 0;
#X connect 65 0 56 0;
#X connect 65 1 55 0;
#X restore 1067 514 pd triggerPlay;
#X obj 39 428 route 3 4 5 6;
#X text 415 27 s/t;
#X obj 357 29 r \$0-key;
#X obj 402 100 t b f;
#N canvas 691 23 497 340 line 0;
#X obj 31 14 inlet;
#X obj 31 251 outlet;
#X obj 31 131 array get \$0-currentlyPlaying 0 1;
#X obj 31 153 sel 0 1;
#X obj 31 175 1;
#X obj 57 175 8;
#X connect 0 0 2 0;
#X connect 2 0 3 0;
#X connect 3 0 4 0;
#X connect 3 1 5 0;
#X connect 4 0 1 0;
#X connect 5 0 1 0;
#X restore 289 305 pd line;
#X obj 864 244 r \$0-resetPlot;
#X obj 113 102 bng 15 250 50 0 empty empty empty 17 7 0 10 -262144
-1 -1;
#X obj 824 223 r \$0-reset;
#X obj 671 514 append \$0-hexagon x y c b Nr;
#X obj 39 365 pack f f f f f, f 48;
#X obj 456 514 append \$0-pentagon x y c b Nr;
#X obj 253 514 append \$0-square x y c b Nr;
#X obj 39 514 append \$0-triangle x y c b Nr;
#X obj 113 71 r \$0-redraw;
#N canvas 407 23 910 605 keys 0;
#X obj 94 7 inlet;
#X obj 384 348 array max \$0-mdsX;
#X obj 274 347 array min \$0-mdsX;
#X obj 274 316 r \$0-resetPlot;
#X obj 582 320 r \$0-resetPlot;
#X obj 692 362 array max \$0-mdsY;
#X obj 582 361 array min \$0-mdsY;
#X obj 381 489 pack;
#X obj 94 118 until;
#X obj 94 71 t b b;
#X obj 94 142 f;
#X obj 127 142 + 1;
#X obj 167 125 0;
#X obj 197 181 * 2;
#X obj 197 227 array get \$0-keyLocation 0 2;
#X obj 197 379 unpack;
#X obj 762 62 inlet;
#X obj 197 249 t l l;
#X obj 230 276 +;
#X obj 197 351 spigot;
#X text 88 245 ??? it may block, f 5;
#X obj 197 203 t f f;
#X obj 580 469 r \$0-reset;
#X msg 580 491 const 0;
#X obj 381 517 array set \$0-keyLocationN;
#X obj 580 513 array define \$0-keyLocationN 48;
#X obj 94 94 24;
#X obj 230 298 != 0;
#X obj 94 164 t f f;
#X obj 197 516 append \$0-octagon x y;
#N canvas 0 22 450 300 keyName 0;
#X msg 13 161 \$24;
#X obj 13 79 t b f;
#X msg 40 102 set \, adddollar \$1;
#X obj 13 57 + 1;
#X msg 13 124 key C Db/C# D Eb/D# E F F#/Gb G Ab A Bb B/A# c c# d d#/eb
e f f# g g#/ab a bb/a# b;
#X obj 13 26 inlet;
#X obj 13 213 outlet;
#X obj 13 183 symbol;
#X connect 0 0 7 0;
#X connect 1 0 4 0;
#X connect 1 1 2 0;
#X connect 2 0 0 0;
#X connect 3 0 1 0;
#X connect 4 0 0 0;
#X connect 5 0 3 0;
#X connect 7 0 6 0;
#X restore 20 181 pd keyName;
#X obj 20 545 set -symbol \$0-octagon keyName;
#X obj 197 412 expr_scale 0 1 40 660;
#X obj 505 426 expr_scale 0 1 40 460;
#X obj 140 36 bng 15 250 50 0 empty empty empty 17 7 0 10 -262144 -1
-1;
#X obj 20 315 spigot;
#X connect 0 0 9 0;
#X connect 1 0 32 2;
#X connect 2 0 32 1;
#X connect 3 0 2 0;
#X connect 3 0 1 0;
#X connect 4 0 5 0;
#X connect 4 0 6 0;
#X connect 5 0 33 2;
#X connect 6 0 33 1;
#X connect 7 0 24 0;
#X connect 8 0 10 0;
#X connect 9 0 26 0;
#X connect 9 1 12 0;
#X connect 10 0 11 0;
#X connect 10 0 28 0;
#X connect 11 0 10 1;
#X connect 12 0 10 1;
#X connect 13 0 21 0;
#X connect 14 0 17 0;
#X connect 15 0 32 0;
#X connect 15 1 33 0;
#X connect 16 0 29 2;
#X connect 17 0 19 0;
#X connect 17 1 18 0;
#X connect 18 0 27 0;
#X connect 19 0 15 0;
#X connect 21 0 14 0;
#X connect 21 1 24 1;
#X connect 22 0 23 0;
#X connect 23 0 25 0;
#X connect 26 0 8 0;
#X connect 27 0 19 1;
#X connect 27 0 35 1;
#X connect 28 0 30 0;
#X connect 28 1 13 0;
#X connect 29 0 31 1;
#X connect 30 0 35 0;
#X connect 32 0 7 0;
#X connect 32 0 29 0;
#X connect 33 0 7 1;
#X connect 33 0 29 1;
#X connect 34 0 9 0;
#X connect 35 0 31 0;
#X restore 155 434 pd keys;
#N canvas 219 299 486 132 line-template 0;
#X obj 6 8 struct \$0-line float x float y float a float b;
#X obj 7 42 inlet;
#X obj 7 69 drawpolygon -x 666 1 0 0 a b;
#X connect 1 0 2 0;
#X restore 1148 405 pd line-template;
#X obj 39 277 t f f f f f f f, f 72;
#X obj 296 417 pack;
#X obj 39 327 t f f;
#X obj 357 53 moses 49;
#X obj 402 78 moses 51;
#N canvas 0 23 450 300 keyViz-onOff 0;
#X obj 32 47 sel 51;
#X obj 32 70 tgl 15 0 empty empty empty 17 7 0 10 -262144 -1 -1 0 1
;
#X obj 82 137 outlet;
#X obj 32 15 r \$0-key;
#X obj 32 182 s \$0-redraw;
#X obj 32 90 t f f;
#X obj 32 112 sel 1;
#X connect 0 0 1 0;
#X connect 1 0 5 0;
#X connect 3 0 0 0;
#X connect 5 0 6 0;
#X connect 5 1 2 0;
#X connect 6 0 4 0;
#X restore 1092 284 pd keyViz-onOff;
#X text 702 41 Polygon Coordinates Calculator:;
#X text 702 62 http://www.mathopenref.com/coordpolycalc.html;
#X obj 39 146 delay 50;
#N canvas 426 23 675 397 linesKeys 0;
#X obj 600 36 inlet;
#X obj 25 31 inlet;
#X obj 101 111 inlet;
#X obj 101 155 * 2;
#X obj 101 133 array get \$0-sfKey 0 1;
#X obj 101 177 array get \$0-keyLocationN 0 2;
#X obj 25 311 append \$0-line a b x y;
#X obj 25 132 unpack;
#X obj 101 199 unpack;
#X obj 25 244 -;
#X obj 58 266 -;
#X connect 0 0 6 4;
#X connect 1 0 7 0;
#X connect 2 0 4 0;
#X connect 3 0 5 0;
#X connect 4 0 3 0;
#X connect 5 0 8 0;
#X connect 7 0 9 0;
#X connect 7 1 10 0;
#X connect 8 0 6 2;
#X connect 8 0 9 1;
#X connect 8 1 6 3;
#X connect 8 1 10 1;
#X connect 9 0 6 0;
#X connect 10 0 6 1;
#X restore 500 434 pd linesKeys;
#X obj 779 269 bng 15 250 50 0 empty empty empty 17 7 0 10 -262144
-1 -1;
#X obj 39 117 t b b b b;
#X connect 0 0 53 0;
#X connect 1 0 34 5;
#X connect 1 0 36 5;
#X connect 1 0 37 5;
#X connect 1 0 38 5;
#X connect 1 0 40 1;
#X connect 1 0 51 2;
#X connect 2 0 25 2;
#X connect 3 0 1 0;
#X connect 5 0 6 0;
#X connect 6 0 3 0;
#X connect 6 1 4 0;
#X connect 7 0 5 0;
#X connect 8 0 7 0;
#X connect 9 0 12 0;
#X connect 10 0 9 0;
#X connect 11 0 10 1;
#X connect 12 0 13 0;
#X connect 12 0 42 0;
#X connect 13 0 12 1;
#X connect 14 0 12 1;
#X connect 15 0 44 0;
#X connect 16 0 35 1;
#X connect 16 0 43 1;
#X connect 17 0 35 2;
#X connect 19 0 25 3;
#X connect 20 0 25 0;
#X connect 21 0 25 1;
#X connect 22 0 26 0;
#X connect 24 0 22 1;
#X connect 26 0 38 0;
#X connect 26 1 37 0;
#X connect 26 2 36 0;
#X connect 26 3 34 0;
#X connect 28 0 45 0;
#X connect 29 0 53 0;
#X connect 29 1 17 1;
#X connect 30 0 35 3;
#X connect 31 0 7 0;
#X connect 32 0 53 0;
#X connect 33 0 7 0;
#X connect 35 0 22 0;
#X connect 39 0 32 0;
#X connect 42 0 15 0;
#X connect 42 1 16 0;
#X connect 42 2 17 0;
#X connect 42 3 30 0;
#X connect 42 4 35 4;
#X connect 42 5 24 0;
#X connect 42 6 51 1;
#X connect 43 0 51 0;
#X connect 44 0 35 0;
#X connect 44 1 43 0;
#X connect 45 1 46 0;
#X connect 46 0 29 0;
#X connect 47 0 41 0;
#X connect 47 0 23 0;
#X connect 50 0 10 0;
#X connect 52 0 7 0;
#X connect 53 0 50 0;
#X connect 53 1 40 0;
#X connect 53 2 14 0;
#X connect 53 3 18 0;
#X restore 26 214 pd plot;
#N canvas 643 23 637 746 MDS 0;
#X obj 249 195 mtx_mean;
#N canvas 0 22 535 406 mean 0;
#X obj 127 69 inlet;
#X obj 127 337 outlet;
#X obj 146 164 route float;
#X obj 127 274 f;
#X obj 127 308 /;
#X obj 146 189 t a b;
#N canvas 370 313 450 300 accum 0;
#X obj 182 102 0;
#X obj 135 79 inlet;
#X obj 182 79 inlet;
#X obj 135 169 outlet;
#X obj 135 137 +;
#X obj 168 138 f;
#X connect 0 0 4 1;
#X connect 1 0 4 0;
#X connect 2 0 0 0;
#X connect 4 0 3 0;
#X connect 4 0 5 0;
#X connect 5 0 4 1;
#X restore 146 224 pd accum;
#N canvas 425 298 450 300 count 0;
#X obj 133 59 b;
#X obj 133 35 inlet;
#X obj 183 35 inlet;
#X obj 164 111 + 1;
#X obj 133 133 outlet;
#X msg 183 71 1;
#X obj 133 110 f 1;
#X connect 0 0 6 0;
#X connect 1 0 0 0;
#X connect 2 0 5 0;
#X connect 3 0 6 1;
#X connect 5 0 6 1;
#X connect 6 0 3 0;
#X connect 6 0 4 0;
#X restore 229 227 pd count;
#X obj 127 105 t b a b b;
#N canvas 0 22 450 300 drip 0;
#X obj 63 84 t a a;
#X obj 63 241 spigot;
#X obj 102 149 bang;
#X obj 102 168 1;
#X obj 223 149 route bang;
#X obj 183 150 bang;
#X obj 183 169 0;
#X obj 102 114 list split 2;
#X obj 232 379 list split;
#X obj 299 328 list length;
#X obj 299 350 >> 1;
#X obj 63 260 t a a a a;
#X obj 63 446 list split;
#X obj 130 398 list length;
#X obj 130 423 >> 1;
#X obj 31 19 inlet;
#X obj 290 175 outlet;
#X text 73 19 Copyright 2009 by Mathieu Bouchard;
#X obj 31 53 t b a;
#X obj 465 119 outlet;
#X text 520 121 signal end of list;
#X text 381 23 made compatible with [list-drip]: fbar 2009;
#X connect 0 0 1 0;
#X connect 0 1 7 0;
#X connect 1 0 11 0;
#X connect 2 0 3 0;
#X connect 3 0 1 1;
#X connect 4 1 16 0;
#X connect 5 0 6 0;
#X connect 6 0 1 1;
#X connect 7 0 2 0;
#X connect 7 2 4 0;
#X connect 7 2 5 0;
#X connect 8 0 0 0;
#X connect 9 0 10 0;
#X connect 10 0 8 1;
#X connect 11 0 12 0;
#X connect 11 1 13 0;
#X connect 11 2 8 0;
#X connect 11 3 9 0;
#X connect 12 1 0 0;
#X connect 13 0 14 0;
#X connect 14 0 12 1;
#X connect 15 0 18 0;
#X connect 18 0 19 0;
#X connect 18 1 0 0;
#X restore 146 138 pd drip;
#X connect 0 0 8 0;
#X connect 2 0 5 0;
#X connect 3 0 4 0;
#X connect 4 0 1 0;
#X connect 5 0 6 0;
#X connect 5 1 7 0;
#X connect 6 0 3 1;
#X connect 7 0 4 1;
#X connect 8 0 3 0;
#X connect 8 1 9 0;
#X connect 8 2 6 1;
#X connect 8 3 7 1;
#X connect 9 0 2 0;
#X restore 276 317 pd mean;
#X obj 25 484 mtx_add;
#X obj 62 356 list prepend;
#X obj 147 373 t l;
#X obj 62 288 list;
#N canvas 0 22 710 514 drip 0;
#X obj 63 84 t a a;
#X obj 63 241 spigot;
#X obj 102 149 bang;
#X obj 102 168 1;
#X obj 223 149 route bang;
#X obj 183 150 bang;
#X obj 183 169 0;
#X obj 102 114 list split 2;
#X obj 232 379 list split;
#X obj 299 328 list length;
#X obj 299 350 >> 1;
#X obj 63 260 t a a a a;
#X obj 63 446 list split;
#X obj 130 398 list length;
#X obj 130 423 >> 1;
#X obj 31 19 inlet;
#X obj 290 175 outlet;
#X text 73 19 Copyright 2009 by Mathieu Bouchard;
#X obj 31 53 t b a;
#X obj 465 119 outlet;
#X text 520 121 signal end of list;
#X text 381 23 made compatible with [list-drip]: fbar 2009;
#X connect 0 0 1 0;
#X connect 0 1 7 0;
#X connect 1 0 11 0;
#X connect 2 0 3 0;
#X connect 3 0 1 1;
#X connect 4 1 16 0;
#X connect 5 0 6 0;
#X connect 6 0 1 1;
#X connect 7 0 2 0;
#X connect 7 2 4 0;
#X connect 7 2 5 0;
#X connect 8 0 0 0;
#X connect 9 0 10 0;
#X connect 10 0 8 1;
#X connect 11 0 12 0;
#X connect 11 1 13 0;
#X connect 11 2 8 0;
#X connect 11 3 9 0;
#X connect 12 1 0 0;
#X connect 13 0 14 0;
#X connect 14 0 12 1;
#X connect 15 0 18 0;
#X connect 18 0 19 0;
#X connect 18 1 0 0;
#X restore 62 242 pd drip;
#N canvas 0 22 679 491 drip 0;
#X obj 63 84 t a a;
#X obj 63 241 spigot;
#X obj 102 149 bang;
#X obj 102 168 1;
#X obj 223 149 route bang;
#X obj 183 150 bang;
#X obj 183 169 0;
#X obj 102 114 list split 2;
#X obj 232 379 list split;
#X obj 299 328 list length;
#X obj 299 350 >> 1;
#X obj 63 260 t a a a a;
#X obj 63 446 list split;
#X obj 130 398 list length;
#X obj 130 423 >> 1;
#X obj 31 19 inlet;
#X obj 290 175 outlet;
#X text 73 19 Copyright 2009 by Mathieu Bouchard;
#X obj 31 53 t b a;
#X obj 465 119 outlet;
#X text 520 121 signal end of list;
#X text 381 23 made compatible with [list-drip]: fbar 2009;
#X connect 0 0 1 0;
#X connect 0 1 7 0;
#X connect 1 0 11 0;
#X connect 2 0 3 0;
#X connect 3 0 1 1;
#X connect 4 1 16 0;
#X connect 5 0 6 0;
#X connect 6 0 1 1;
#X connect 7 0 2 0;
#X connect 7 2 4 0;
#X connect 7 2 5 0;
#X connect 8 0 0 0;
#X connect 9 0 10 0;
#X connect 10 0 8 1;
#X connect 11 0 12 0;
#X connect 11 1 13 0;
#X connect 11 2 8 0;
#X connect 11 3 9 0;
#X connect 12 1 0 0;
#X connect 13 0 14 0;
#X connect 14 0 12 1;
#X connect 15 0 18 0;
#X connect 18 0 19 0;
#X connect 18 1 0 0;
#X restore 62 311 pd drip;
#X obj 40 406 list;
#X obj 40 428 list prepend;
#X obj 40 450 list trim;
#X obj 25 141 mtx_.^ 2;
#X obj 25 164 t a b a a b;
#X obj 62 334 expr ($f3-$f2-$f1);
#X obj 25 510 mtx_mul -0.5;
#X obj 62 219 mtx_mean;
#X obj 62 196 mtx_transpose;
#X obj 62 265 t b f;
#X obj 249 217 t l l;
#X msg 257 411 matrix \$1 \$1;
#X text 311 195 (rows means);
#X text 157 196 (coll means);
#X obj 25 26 inlet;
#X obj 257 390 r \$0-nrFiles;
#X obj 25 536 mtx_svd;
#N canvas 456 618 685 631 mtx_mul 0;
#X obj 340 11 inlet;
#X obj 20 28 inlet;
#X obj 20 201 matrix;
#X msg 20 179 col \$1;
#X obj 340 33 sort -1;
#X obj 411 50 list split 2;
#X obj 411 72 unpack;
#X msg 504 145 set \, adddollar \$1;
#X msg 340 243 \$1;
#X msg 390 243 \$2;
#X msg 438 167 set \, adddollar \$1;
#X obj 39 421 *;
#X obj 153 482 *;
#X obj 340 265 sqrt;
#X obj 390 265 sqrt;
#N canvas 0 22 199 262 drip 0;
#X obj 53 174 list split 1;
#X obj 53 91 until;
#X obj 53 129 list append;
#X obj 79 58 t b l;
#X obj 135 176 bang;
#X obj 79 31 inlet;
#X obj 53 199 outlet;
#X connect 0 0 6 0;
#X connect 0 1 2 1;
#X connect 0 2 4 0;
#X connect 1 0 2 0;
#X connect 2 0 0 0;
#X connect 3 0 1 0;
#X connect 3 1 2 1;
#X connect 4 0 1 1;
#X connect 5 0 3 0;
#X restore 39 315 pd drip;
#N canvas 0 22 450 300 dripslow 0;
#X obj 158 196 list split 1;
#X obj 158 171 list append;
#X obj 158 247 outlet;
#X obj 158 47 inlet;
#X obj 239 247 outlet;
#X obj 232 45 inlet;
#X obj 158 82 b;
#X text 275 46 list;
#X text 113 47 bang;
#X text 283 247 EOL;
#X text 99 246 element;
#X obj 239 217 b;
#X connect 0 0 2 0;
#X connect 0 1 1 1;
#X connect 0 2 11 0;
#X connect 1 0 0 0;
#X connect 3 0 6 0;
#X connect 5 0 1 1;
#X connect 6 0 1 0;
#X connect 11 0 4 0;
#X restore 153 456 pd dripslow;
#X obj 411 96 + 1;
#X obj 477 89 + 1;
#X obj 39 504 array set \$0-mdsX;
#X obj 481 475 r \$0-nrFiles;
#X msg 481 497 resize \$1;
#X obj 506 529 array define \$0-mdsX;
#X obj 481 553 array define \$0-mdsY;
#X obj 153 504 array set \$0-mdsY;
#X obj 39 341 t f b b;
#X obj 88 358 f;
#X obj 115 358 + 1;
#X obj 149 341 0;
#X obj 20 566 outlet;
#X obj 411 120 t f f;
#X obj 477 121 t f f;
#X obj 20 287 t b l b;
#X obj 20 110 f;
#X obj 75 89 f;
#X obj 20 50 t b b a;
#X obj 20 253 route 1 2;
#X obj 20 132 t f b;
#X obj 47 154 1;
#X obj 20 223 list prepend;
#X obj 75 111 t f b;
#X obj 101 131 2;
#X obj 340 167 t l l l;
#X obj 109 541 pack;
#X obj 109 563 outlet;
#X obj 169 563 outlet;
#X connect 0 0 4 0;
#X connect 1 0 35 0;
#X connect 2 0 39 0;
#X connect 3 0 2 0;
#X connect 4 0 42 0;
#X connect 4 1 5 0;
#X connect 5 0 6 0;
#X connect 6 0 17 0;
#X connect 6 1 18 0;
#X connect 7 0 9 0;
#X connect 8 0 13 0;
#X connect 9 0 14 0;
#X connect 10 0 8 0;
#X connect 11 0 19 0;
#X connect 11 0 43 0;
#X connect 12 0 24 0;
#X connect 12 0 43 1;
#X connect 13 0 11 1;
#X connect 14 0 12 1;
#X connect 15 0 25 0;
#X connect 16 0 12 0;
#X connect 17 0 30 0;
#X connect 18 0 31 0;
#X connect 20 0 21 0;
#X connect 21 0 22 0;
#X connect 21 0 23 0;
#X connect 25 0 11 0;
#X connect 25 1 16 0;
#X connect 25 2 26 0;
#X connect 26 0 27 0;
#X connect 26 0 19 1;
#X connect 26 0 24 1;
#X connect 26 0 45 0;
#X connect 27 0 26 1;
#X connect 28 0 26 1;
#X connect 30 0 33 1;
#X connect 30 1 10 0;
#X connect 31 0 34 1;
#X connect 31 1 7 0;
#X connect 32 0 29 0;
#X connect 32 1 15 0;
#X connect 32 2 28 0;
#X connect 33 0 37 0;
#X connect 34 0 40 0;
#X connect 35 0 33 0;
#X connect 35 1 34 0;
#X connect 35 2 2 1;
#X connect 36 0 32 0;
#X connect 36 1 16 1;
#X connect 37 0 3 0;
#X connect 37 1 38 0;
#X connect 38 0 39 1;
#X connect 39 0 36 0;
#X connect 40 0 3 0;
#X connect 40 1 41 0;
#X connect 41 0 39 1;
#X connect 42 0 8 0;
#X connect 42 1 9 0;
#X connect 43 0 44 0;
#X restore 25 582 pd mtx_mul;
#X obj 25 94 list prepend;
#X msg 201 77 matrix \$1 \$1;
#X obj 201 48 r \$0-nrFiles;
#X obj 25 116 list trim;
#X obj 25 71 t l l;
#X obj 25 694 outlet;
#X text 265 10 // MDS representation of the input TIVs: input - distance
matrix \, output 2D coordinates, f 47;
#N canvas 626 425 654 349 keyLocation 0;
#X obj 55 24 inlet;
#X obj 400 67 array define \$0-keyLocation 48;
#X obj 205 24 inlet;
#X obj 400 20 r \$0-reset;
#X msg 400 43 const 0;
#X obj 205 57 array get \$0-sfKey 0 1;
#X obj 205 80 * 2;
#X obj 205 102 array get \$0-keyLocation 0 2;
#X obj 205 124 unpack;
#X obj 55 298 array set \$0-keyLocation;
#X obj 55 182 +;
#X obj 88 182 +;
#X obj 55 235 pack;
#X obj 55 117 unpack;
#X obj 55 204 / 2;
#X obj 88 204 / 2;
#X text 241 247 The starting point 0 \, 0 is also being considered!
;
#X obj 239 159 +;
#X obj 239 181 != 0;
#X obj 55 83 spigot;
#X obj 7 83 spigot;
#X obj 239 203 == 0;
#X connect 0 0 20 0;
#X connect 0 0 19 0;
#X connect 2 0 5 0;
#X connect 3 0 4 0;
#X connect 4 0 1 0;
#X connect 5 0 6 0;
#X connect 6 0 7 0;
#X connect 6 0 9 1;
#X connect 7 0 8 0;
#X connect 8 0 10 1;
#X connect 8 0 17 0;
#X connect 8 1 11 1;
#X connect 8 1 17 1;
#X connect 10 0 14 0;
#X connect 11 0 15 0;
#X connect 12 0 9 0;
#X connect 13 0 10 0;
#X connect 13 1 11 0;
#X connect 14 0 12 0;
#X connect 15 0 12 1;
#X connect 17 0 18 0;
#X connect 18 0 19 1;
#X connect 18 0 21 0;
#X connect 19 0 13 0;
#X connect 20 0 9 0;
#X connect 21 0 20 1;
#X restore 97 694 pd keyLocation;
#X obj 25 49 array get \$0-distances;
#X text 329 317 (global mean);
#X connect 0 0 18 0;
#X connect 1 0 13 2;
#X connect 2 0 14 0;
#X connect 3 0 4 0;
#X connect 3 0 8 1;
#X connect 4 0 3 1;
#X connect 5 0 7 0;
#X connect 6 0 17 0;
#X connect 7 0 13 0;
#X connect 8 0 9 0;
#X connect 9 0 10 0;
#X connect 10 0 2 1;
#X connect 11 0 12 0;
#X connect 12 0 2 0;
#X connect 12 1 8 0;
#X connect 12 2 16 0;
#X connect 12 3 0 0;
#X connect 12 4 3 1;
#X connect 13 0 3 0;
#X connect 14 0 24 0;
#X connect 15 0 6 0;
#X connect 16 0 15 0;
#X connect 17 0 5 0;
#X connect 17 1 13 1;
#X connect 18 0 5 1;
#X connect 18 1 1 0;
#X connect 19 0 9 1;
#X connect 22 0 34 0;
#X connect 23 0 19 0;
#X connect 24 0 25 0;
#X connect 24 1 25 1;
#X connect 25 0 31 0;
#X connect 25 1 33 0;
#X connect 25 2 33 1;
#X connect 26 0 29 0;
#X connect 27 0 26 1;
#X connect 28 0 27 0;
#X connect 29 0 11 0;
#X connect 30 0 26 0;
#X connect 34 0 30 0;
#X restore 26 192 pd MDS;
#N canvas 678 23 491 680 help 0;
#X scalar 1003-hexagon 29 340 990 0 1 1 \;;
#X scalar 1003-pentagon 29 420 960 1 1 \;;
#X scalar 1003-square 29 500 930 1 1 \;;
#X scalar 1003-triangle 29 580 900 1 0 1 \;;
#X obj 14 27 bng 25 250 50 0 empty empty / 10 15 1 20 -1 -1 -262144
;
#X text 52 25 (1). hit this button to open a folder including a set
of uncompressed audio files;
#X text 52 65 (2). Click on the polygons to trigger samples which will
remain looping until click otherwise;
#X text 52 105 (3). You have two different options to visualize the
data in terms of color (s)pectral and (t)imbre \, which you can trigger
by hitting the lower case letter 's' and 't';
#X text 52 155 (4). To store presets the user must define in advance
the samples we wants to include and then \, while pressing the 'shift'
key click on the present number in the interface. To recall certain
presets the shift key is avoided.;
#X obj 14 157 vradio 25 1 0 2 \$0-ssss \$0-ssss.r empty 0 -8 0 10 -262144
-1 -1 0;
#X restore 274 70 pd help;
#X text 491 124 - min of sample legnth of all currently playing files
;
#X text 491 145 - onset detection (peak detection is not good!);
#X text 489 165 - goddness of fit;
#X text 488 188 - find alpha for this new set of weights (keyInduction)
;
#N canvas 1447 23 582 294 hCompatibility(mtx) 0;
#X obj 10 22 inlet;
#X obj 30 77 until;
#X obj 30 99 f;
#X obj 58 99 + 1;
#X obj 98 82 0;
#X obj 10 45 t b f f b;
#X obj 30 121 t f f;
#X obj 30 143 expr $f2-$f1;
#N canvas 0 23 416 354 saveMtx 0;
#X obj 37 257 text define matrix;
#X obj 132 199 text set matrix;
#X msg 307 182 1e+06;
#X obj 132 173 array get \$0-distances;
#X obj 307 159 loadbang;
#X obj 159 32 r \$0-nrFiles;
#X obj 132 56 f 201;
#X obj 132 101 until;
#X obj 37 212 savepanel;
#X obj 132 78 t f f b;
#X obj 132 124 f;
#X obj 163 124 + 1;
#X obj 208 107 0;
#X msg 274 240 clear;
#X obj 132 150 *;
#X msg 37 234 write -c \$1;
#X obj 37 17 inlet;
#X obj 37 39 t b b;
#X connect 2 0 1 1;
#X connect 3 0 1 0;
#X connect 4 0 2 0;
#X connect 5 0 6 1;
#X connect 6 0 9 0;
#X connect 7 0 10 0;
#X connect 8 0 15 0;
#X connect 9 0 7 0;
#X connect 9 1 3 1;
#X connect 9 1 14 1;
#X connect 9 2 12 0;
#X connect 9 2 13 0;
#X connect 10 0 11 0;
#X connect 10 0 14 0;
#X connect 11 0 10 1;
#X connect 12 0 10 1;
#X connect 13 0 0 0;
#X connect 14 0 3 0;
#X connect 15 0 0 0;
#X connect 16 0 17 0;
#X connect 17 0 8 0;
#X connect 17 1 6 0;
#X restore 358 228 pd saveMtx;
#X obj 358 206 bng 15 250 50 0 empty empty empty 17 7 0 10 -260097
-1 -1;
#N canvas 70 147 667 600 PR_C_(mtx) 0;
#X obj 54 190 t l l;
#X obj 54 141 text get \$0-tiv;
#X obj 54 57 until;
#X obj 54 89 f;
#X obj 82 89 + 1;
#X obj 54 30 inlet;
#X obj 265 178 text get \$0-tiv;
#X obj 54 111 t f f;
#X obj 133 422 *;
#X obj 387 451 *;
#X obj 387 427 t f f;
#X obj 265 72 inlet;
#X obj 118 446 +;
#X obj 258 422 *;
#X obj 258 446 +;
#X msg 387 474 const 0 \, resize \$1;
#X obj 54 163 list split 12;
#X obj 265 200 list split 12;
#X obj 54 506 array set \$0-pr;
#X obj 194 506 array set \$0-pr;
#X obj 132 551 array set \$0-c;
#X obj 272 551 array set \$0-c;
#X obj 387 497 array define \$0-c;
#X obj 397 517 array define \$0-pr;
#X obj 387 405 r \$0-nrFiles;
#X obj 54 217 list-euclid;
#X obj 188 276 tis.combine audio;
#X connect 0 0 25 0;
#X connect 0 1 26 0;
#X connect 1 0 16 0;
#X connect 2 0 3 0;
#X connect 3 0 4 0;
#X connect 3 0 7 0;
#X connect 4 0 3 1;
#X connect 5 0 2 0;
#X connect 6 0 17 0;
#X connect 7 0 1 0;
#X connect 7 1 12 0;
#X connect 7 1 13 0;
#X connect 8 0 12 1;
#X connect 9 0 15 0;
#X connect 10 0 9 0;
#X connect 10 1 9 1;
#X connect 11 0 6 0;
#X connect 11 0 8 0;
#X connect 11 0 14 1;
#X connect 11 0 3 1;
#X connect 12 0 18 1;
#X connect 12 0 20 1;
#X connect 13 0 14 0;
#X connect 14 0 19 1;
#X connect 14 0 21 1;
#X connect 15 0 22 0;
#X connect 15 0 23 0;
#X connect 16 0 0 0;
#X connect 16 1 26 1;
#X connect 17 0 25 1;
#X connect 17 0 26 2;
#X connect 17 1 26 3;
#X connect 24 0 8 1;
#X connect 24 0 13 1;
#X connect 24 0 10 0;
#X connect 25 0 18 0;
#X connect 25 0 19 0;
#X connect 26 1 20 0;
#X connect 26 1 21 0;
#X restore 30 166 pd PR_C_(mtx);
#X obj 357 161 bng 15 250 50 0 empty empty print_distance_matrix 17
7 0 10 -262144 -1 -1;
#N canvas 0 23 450 300 print_distMtx 0;
#X obj 32 124 list trim;
#X obj 32 146 mtx_print;
#X obj 32 80 array get \$0-distances;
#X obj 178 63 r \$0-nrFiles;
#X obj 32 102 list prepend;
#X msg 178 85 matrix \$1 \$1;
#X obj 32 57 inlet;
#X connect 0 0 1 0;
#X connect 2 0 4 0;
#X connect 3 0 5 0;
#X connect 4 0 0 0;
#X connect 5 0 4 1;
#X connect 6 0 2 0;
#X restore 357 181 pd print_distMtx;
#N canvas 732 607 600 553 harmonicComp_(sqrt(pr^2+c^2)) 0;
#X obj 202 200 array define \$0-distances;
#X obj 202 104 r \$0-nrFiles;
#X obj 202 154 *;
#X obj 202 130 t f f;
#X msg 202 177 const 0 \, resize \$1;
#N canvas 253 605 478 418 merge 0;
#X obj 58 31 inlet;
#X obj 175 31 inlet;
#X obj 58 314 outlet;
#X obj 58 112 *;
#X obj 175 68 expr (1-$f1);
#X obj 175 120 *;
#X obj 175 93 t f f;
#X obj 58 85 t f f;
#X obj 58 137 +;
#X obj 58 159 sqrt;
#X connect 0 0 7 0;
#X connect 1 0 4 0;
#X connect 3 0 8 0;
#X connect 4 0 6 0;
#X connect 5 0 8 1;
#X connect 6 0 5 0;
#X connect 6 1 5 1;
#X connect 7 0 3 0;
#X connect 7 1 3 1;
#X connect 8 0 9 0;
#X connect 9 0 2 0;
#X restore 53 343 pd merge;
#X text 56 444 // combination (the smaller the better \, scale 0-1)
;
#X obj 53 366 array set \$0-distances;
#X obj 52 197 until;
#X obj 52 220 f;
#X obj 80 220 + 1;
#X obj 53 298 expr ($f1-$f2) / ($f3-$f2);
#X obj 52 171 f;
#X obj 52 37 inlet;
#X obj 52 245 t f f f;
#X obj 265 326 expr ($f1-$f2) / ($f3-$f2);
#X obj 232 249 array min \$0-pr;
#X obj 232 270 array max \$0-pr;
#X obj 444 276 array min \$0-c;
#X obj 444 299 array max \$0-c;
#X obj 131 203 0;
#X obj 52 273 array get \$0-pr 0 1;
#X obj 265 301 array get \$0-c 0 1;
#X obj 150 54 bng 15 250 50 0 empty empty empty 17 7 0 10 -262144 -1
-1;
#X text 55 422 // perceptual relatadness (0-1) * consonance (0-1);
#X obj 52 69 t b b b b;
#X connect 1 0 3 0;
#X connect 2 0 4 0;
#X connect 2 0 12 1;
#X connect 3 0 2 0;
#X connect 3 1 2 1;
#X connect 4 0 0 0;
#X connect 5 0 7 0;
#X connect 8 0 9 0;
#X connect 9 0 10 0;
#X connect 9 0 14 0;
#X connect 10 0 9 1;
#X connect 11 0 5 0;
#X connect 12 0 8 0;
#X connect 13 0 25 0;
#X connect 14 0 21 0;
#X connect 14 1 22 0;
#X connect 14 2 7 1;
#X connect 15 0 5 1;
#X connect 16 0 11 1;
#X connect 17 0 11 2;
#X connect 18 0 15 1;
#X connect 19 0 15 2;
#X connect 20 0 9 1;
#X connect 21 0 11 0;
#X connect 22 0 15 0;
#X connect 23 0 25 0;
#X connect 25 0 12 0;
#X connect 25 1 20 0;
#X connect 25 1 16 0;
#X connect 25 1 19 0;
#X connect 25 2 18 0;
#X connect 25 3 17 0;
#X restore 10 199 pd harmonicComp_(sqrt(pr^2+c^2));
#X connect 0 0 5 0;
#X connect 1 0 2 0;
#X connect 2 0 3 0;
#X connect 2 0 6 0;
#X connect 3 0 2 1;
#X connect 4 0 2 1;
#X connect 5 0 13 0;
#X connect 5 1 1 0;
#X connect 5 2 7 1;
#X connect 5 3 4 0;
#X connect 6 0 7 0;
#X connect 6 1 10 1;
#X connect 7 0 10 0;
#X connect 9 0 8 0;
#X connect 11 0 12 0;
#X restore 63 142 pd hCompatibility(mtx);
#X obj 344 79 loadbang;
#X obj 369 136 sel 104 27;
#X obj 402 161 s \$0-stopAll;
#N canvas 769 666 1280 638 netSend 0;
#X obj 59 32 inlet;
#X obj 59 119 f;
#X obj 77 95 r \$0-nrFiles;
#N canvas 528 512 497 340 density 0;
#X obj 31 14 inlet;
#X obj 31 251 outlet;
#X obj 108 51 r \$0-resetPlot;
#X obj 108 92 array min \$0-nrOnsets;
#X obj 271 92 array max \$0-nrOnsets;
#X obj 31 179 expr rint($f1);
#X obj 31 131 array get \$0-nrOnsets 0 1;
#X obj 31 157 expr_scale 0 1 0 100;
#X connect 0 0 6 0;
#X connect 2 0 3 0;
#X connect 2 0 4 0;
#X connect 3 0 7 1;
#X connect 4 0 7 2;
#X connect 5 0 1 0;
#X connect 6 0 7 0;
#X connect 7 0 5 0;
#X restore 82 284 pd density;
#N canvas 527 23 634 352 SpecCentroid 0;
#X obj 119 64 r \$0-resetPlot;
#X obj 119 105 array min \$0-barkCentroid;
#X obj 339 106 array max \$0-barkCentroid;
#X obj 42 144 array get \$0-barkCentroid 0 1;
#N canvas 320 23 841 493 timbralComp 0;
#X obj 46 -123 inlet;
#X obj 46 150 text get \$0-mfcc;
#X obj 202 167 text get \$0-mfcc;
#X obj 133 261 list-cosDist;
#X obj 353 261 list-cosDist;
#X obj 80 456 outlet;
#X obj 422 286 expr ($f1 + 1)/2;
#X obj 553 261 list-cosDist;
#X obj 622 286 expr ($f1 + 1)/2;
#X obj 133 240 spigot;
#X obj 313 172 1;
#X obj 341 172 0;
#X obj 422 167 text get \$0-mfcc;
#X obj 353 239 spigot;
#X obj 533 172 1;
#X obj 561 172 0;
#X obj 622 167 text get \$0-mfcc;
#X obj 46 172 t b l l l;
#X obj 202 286 expr ($f1 + 1)/2;
#X obj 46 409 pack f f f f;
#X msg 368 392 1 1 1 1;
#X obj 46 431 list split 1;
#X obj 553 239 spigot;
#X obj 256 19 array get \$0-currentlyPlaying 0 1;
#X obj 329 -91 r \$0-nrFiles;
#X obj 256 -119 inlet;
#X obj 256 -97 t b b;
#X obj 256 -51 until;
#X obj 256 -74 f;
#X obj 328 -46 0;
#X obj 256 -29 f;
#X obj 284 -29 + 1;
#X obj 256 -5 t f f;
#X obj 256 41 sel 1;
#X obj 256 63 f;
#X obj 178 102 f;
#X obj 208 102 + 1;
#X obj 262 119 pack;
#X obj 256 85 t b f;
#X obj 262 140 route 0 1 2;
#X obj 733 172 1;
#X obj 761 172 0;
#X obj 337 110 sel 1 2 3;
#X obj 178 124 t f f;
#X connect 0 0 1 0;
#X connect 1 0 17 0;
#X connect 2 0 3 1;
#X connect 3 1 18 0;
#X connect 4 1 6 0;
#X connect 6 0 19 2;
#X connect 7 1 8 0;
#X connect 8 0 19 3;
#X connect 9 0 3 0;
#X connect 10 0 9 1;
#X connect 11 0 9 1;
#X connect 12 0 4 1;
#X connect 13 0 4 0;
#X connect 14 0 13 1;
#X connect 15 0 13 1;
#X connect 16 0 7 1;
#X connect 17 0 19 0;
#X connect 17 1 9 0;
#X connect 17 2 13 0;
#X connect 17 3 22 0;
#X connect 18 0 19 1;
#X connect 19 0 21 0;
#X connect 20 0 19 0;
#X connect 21 1 5 0;
#X connect 22 0 7 0;
#X connect 23 0 33 0;
#X connect 24 0 28 1;
#X connect 25 0 26 0;
#X connect 26 0 28 0;
#X connect 26 1 29 0;
#X connect 26 1 11 0;
#X connect 26 1 15 0;
#X connect 26 1 41 0;
#X connect 26 1 20 0;
#X connect 27 0 30 0;
#X connect 28 0 27 0;
#X connect 29 0 30 1;
#X connect 29 0 35 1;
#X connect 30 0 31 0;
#X connect 30 0 32 0;
#X connect 31 0 30 1;
#X connect 32 0 23 0;
#X connect 32 1 34 1;
#X connect 33 0 34 0;
#X connect 34 0 38 0;
#X connect 35 0 36 0;
#X connect 35 0 43 0;
#X connect 36 0 35 1;
#X connect 37 0 39 0;
#X connect 38 0 35 0;
#X connect 38 1 37 1;
#X connect 39 0 2 0;
#X connect 39 1 12 0;
#X connect 39 2 16 0;
#X connect 40 0 22 1;
#X connect 41 0 22 1;
#X connect 42 0 10 0;
#X connect 42 1 14 0;
#X connect 42 2 40 0;
#X connect 43 0 37 0;
#X connect 43 1 42 0;
#X restore 452 256 pd timbralComp;
#X obj 452 231 spigot 0;
#X obj 42 32 inlet;
#X obj 42 269 outlet;
#X obj 533 233 sel 1;
#X obj 497 207 == 50;
#X obj 42 170 expr_scale 0 1 0 100;
#X connect 0 0 1 0;
#X connect 0 0 2 0;
#X connect 1 0 10 1;
#X connect 2 0 10 2;
#X connect 3 0 10 0;
#X connect 5 0 4 0;
#X connect 6 0 3 0;
#X connect 8 0 4 1;
#X connect 9 0 5 1;
#X connect 9 0 8 0;
#X connect 10 0 7 0;
#X restore 321 281 pd SpecCentroid;
#N canvas 572 23 450 300 X_axis 0;
#X obj 218 93 array max \$0-mdsX;
#X obj 108 92 array min \$0-mdsX;
#X obj 31 131 array get \$0-mdsX 0 1;
#X obj 108 51 r \$0-resetPlot;
#X obj 31 18 inlet;
#X obj 31 255 outlet;
#X obj 31 157 expr_scale 0 1 0 100;
#X connect 0 0 6 2;
#X connect 1 0 6 1;
#X connect 2 0 6 0;
#X connect 3 0 1 0;
#X connect 3 0 0 0;
#X connect 4 0 2 0;
#X connect 6 0 5 0;
#X restore 212 66 pd X_axis;
#N canvas 0 22 450 300 Y_axis 0;
#X obj 108 51 r \$0-resetPlot;
#X obj 31 18 inlet;
#X obj 31 255 outlet;
#X obj 218 93 array max \$0-mdsY;
#X obj 108 92 array min \$0-mdsY;
#X obj 31 131 array get \$0-mdsY 0 1;
#X obj 31 157 expr_scale 0 1 0 100;
#X connect 0 0 3 0;
#X connect 0 0 4 0;
#X connect 1 0 5 0;
#X connect 3 0 6 2;
#X connect 4 0 6 1;
#X connect 5 0 6 0;
#X connect 6 0 2 0;
#X restore 212 88 pd Y_axis;
#X msg 725 69 connect localhost \$1;
#X obj 582 64 list trim;
#X obj 582 42 list prepend send;
#X obj 725 45 r \$0-netPort;
#X obj 582 108 * 16;
#X obj 582 152 s \$0-netPort.r;
#X msg 884 69 disconnect;
#X msg 582 130 color \$1 12 12;
#X obj 884 45 r \$0-disconnect;
#N canvas 0 23 450 300 iter 0;
#X obj 67 112 until;
#X obj 67 139 f;
#X obj 95 139 + 1;
#X obj 148 122 0;
#X obj 44 46 inlet;
#X obj 44 68 t b f b;
#X obj 44 211 outlet;
#X obj 67 190 outlet;
#X obj 90 168 outlet;
#X connect 0 0 1 0;
#X connect 1 0 2 0;
#X connect 1 0 7 0;
#X connect 2 0 1 1;
#X connect 3 0 1 1;
#X connect 4 0 5 0;
#X connect 5 0 6 0;
#X connect 5 1 0 0;
#X connect 5 2 3 0;
#X connect 5 2 8 0;
#X restore 59 258 pd iter;
#X obj 82 306 list prepend;
#X obj 182 323 t l;
#X obj 59 333 list;
#X obj 59 355 list prepend mixmash/density;
#X obj 59 377 s \$0-toNet;
#X obj 582 19 r \$0-toNet;
#N canvas 0 23 440 348 iter 0;
#X obj 67 132 until;
#X obj 67 159 f;
#X obj 95 159 + 1;
#X obj 148 142 0;
#X obj 44 46 inlet;
#X obj 66 185 outlet;
#X obj 44 222 until;
#X obj 44 249 f;
#X obj 72 249 + 1;
#X obj 44 273 outlet;
#X obj 44 68 t f b b;
#X obj 67 107 24;
#X connect 0 0 1 0;
#X connect 1 0 2 0;
#X connect 1 0 5 0;
#X connect 2 0 1 1;
#X connect 3 0 1 1;
#X connect 3 0 7 1;
#X connect 4 0 10 0;
#X connect 6 0 7 0;
#X connect 7 0 8 0;
#X connect 7 0 9 0;
#X connect 8 0 7 1;
#X connect 10 0 6 0;
#X connect 10 1 11 0;
#X connect 10 2 3 0;
#X connect 11 0 0 0;
#X restore 776 255 pd iter;
#X obj 776 459 s \$0-toNet;
#N canvas 0 23 450 300 iter 0;
#X obj 67 112 until;
#X obj 67 139 f;
#X obj 95 139 + 1;
#X obj 148 122 0;
#X obj 44 46 inlet;
#X obj 44 68 t b f b;
#X obj 44 211 outlet;
#X obj 67 190 outlet;
#X obj 90 168 outlet;
#X connect 0 0 1 0;
#X connect 1 0 2 0;
#X connect 1 0 7 0;
#X connect 2 0 1 1;
#X connect 3 0 1 1;
#X connect 4 0 5 0;
#X connect 5 0 6 0;
#X connect 5 1 0 0;
#X connect 5 2 3 0;
#X connect 5 2 8 0;
#X restore 298 258 pd iter;
#X obj 321 306 list prepend;
#X obj 421 323 t l;
#X obj 298 333 list;
#X obj 298 377 s \$0-toNet;
#N canvas 0 23 450 300 iter 0;
#X obj 67 112 until;
#X obj 67 139 f;
#X obj 95 139 + 1;
#X obj 148 122 0;
#X obj 67 36 inlet;
#X obj 67 190 outlet;
#X obj 67 68 t f b;
#X connect 0 0 1 0;
#X connect 1 0 2 0;
#X connect 1 0 5 0;
#X connect 2 0 1 1;
#X connect 3 0 1 1;
#X connect 4 0 6 0;
#X connect 6 0 0 0;
#X connect 6 1 3 0;
#X restore 1015 256 pd iter;
#X obj 1015 324 s \$0-toNet;
#X obj 1015 302 list prepend mixmash/fileName;
#N canvas 426 23 444 280 tDistMtx 0;
#X obj 23 27 inlet;
#X obj 23 131 outlet;
#X obj 112 49 r \$0-nrFiles;
#X obj 23 66 *;
#X obj 23 109 array get \$0-mfccDistances;
#X connect 0 0 3 0;
#X connect 2 0 3 1;
#X connect 2 0 4 1;
#X connect 3 0 4 0;
#X connect 4 0 1 0;
#X restore 537 281 pd tDistMtx;
#N canvas 1684 736 331 226 keyDistMtx 0;
#X obj 24 28 inlet;
#X obj 24 116 outlet;
#X obj 24 94 array get \$0-keyDistances 0 24;
#X obj 127 31 r \$0-nrFiles;
#X obj 24 70 *;
#X obj 127 53 + 24;
#X connect 0 0 4 0;
#X connect 2 0 1 0;
#X connect 3 0 5 0;
#X connect 4 0 2 0;
#X connect 5 0 4 1;
#X connect 5 0 2 1;
#X restore 822 281 pd keyDistMtx;
#N canvas 0 23 450 300 iter 0;
#X obj 44 112 until;
#X obj 44 139 f;
#X obj 72 139 + 1;
#X obj 125 122 0;
#X obj 44 46 inlet;
#X obj 44 190 outlet;
#X obj 44 68 t f b;
#X connect 0 0 1 0;
#X connect 1 0 2 0;
#X connect 1 0 5 0;
#X connect 2 0 1 1;
#X connect 3 0 1 1;
#X connect 4 0 6 0;
#X connect 6 0 0 0;
#X connect 6 1 3 0;
#X restore 537 259 pd iter;
#X obj 537 327 s \$0-toNet;
#X obj 298 355 list prepend mixmash/region;
#X obj 537 305 list prepend mixmash/timbreMTX;
#X obj 776 437 list prepend mixmash/distanceMTX;
#X text 210 48 MDS;
#N canvas 426 23 444 280 hDistMtx 0;
#X obj 23 27 inlet;
#X obj 23 131 outlet;
#X obj 98 49 r \$0-nrFiles;
#X obj 23 66 *;
#X obj 23 109 array get \$0-distances;
#X connect 0 0 3 0;
#X connect 2 0 3 1;
#X connect 2 0 4 1;
#X connect 3 0 4 0;
#X connect 4 0 1 0;
#X restore 808 342 pd hDistMtx;
#N canvas 1638 793 500 410 filexkey 0;
#X obj 48 80 until;
#X obj 25 6 inlet;
#X obj 48 57 24;
#X obj 48 102 f;
#X obj 78 102 + 1;
#X obj 108 85 0;
#X obj 48 149 array get \$0-keyDistances 0 1;
#X obj 25 200 list;
#X obj 48 174 list prepend;
#X obj 152 191 t l;
#X obj 25 222 outlet;
#X obj 262 98 r \$0-nrFiles;
#X obj 25 34 t b b b f;
#X obj 48 123 expr 24 + $f2 + ($f1* (24+$f3));
#X connect 0 0 3 0;
#X connect 1 0 12 0;
#X connect 2 0 0 0;
#X connect 3 0 4 0;
#X connect 3 0 13 0;
#X connect 4 0 3 1;
#X connect 5 0 3 1;
#X connect 6 0 8 0;
#X connect 7 0 10 0;
#X connect 8 0 9 0;
#X connect 8 0 7 1;
#X connect 9 0 8 1;
#X connect 11 0 13 2;
#X connect 12 0 7 0;
#X connect 12 1 2 0;
#X connect 12 2 5 0;
#X connect 12 2 8 1;
#X connect 12 3 13 1;
#X connect 13 0 6 0;
#X restore 776 367 pd filexkey;
#X obj 776 280 t f f;
#X obj 776 389 list;
#X obj 582 86 netsend;
#X obj 1015 279 text get \$0-sf;
#X obj 59 226 t f f f f f, f 137;
#X obj 465 105 print;
#X obj 465 81 route send;
#X connect 0 0 1 0;
#X connect 1 0 47 0;
#X connect 2 0 1 1;
#X connect 3 0 17 0;
#X connect 4 0 26 0;
#X connect 7 0 45 0;
#X connect 8 0 45 0;
#X connect 8 0 49 0;
#X connect 9 0 8 0;
#X connect 10 0 7 0;
#X connect 11 0 14 0;
#X connect 13 0 45 0;
#X connect 14 0 12 0;
#X connect 15 0 13 0;
#X connect 16 0 19 0;
#X connect 16 1 3 0;
#X connect 16 2 17 1;
#X connect 17 0 18 0;
#X connect 17 0 19 1;
#X connect 18 0 17 1;
#X connect 19 0 20 0;
#X connect 20 0 21 0;
#X connect 22 0 9 0;
#X connect 23 0 43 0;
#X connect 23 1 34 0;
#X connect 25 0 28 0;
#X connect 25 1 4 0;
#X connect 25 2 26 1;
#X connect 26 0 27 0;
#X connect 26 0 28 1;
#X connect 27 0 26 1;
#X connect 28 0 37 0;
#X connect 30 0 46 0;
#X connect 32 0 31 0;
#X connect 33 0 38 0;
#X connect 34 0 39 0;
#X connect 35 0 33 0;
#X connect 37 0 29 0;
#X connect 38 0 36 0;
#X connect 39 0 24 0;
#X connect 41 0 44 1;
#X connect 42 0 44 0;
#X connect 43 0 42 0;
#X connect 43 1 41 0;
#X connect 44 0 39 0;
#X connect 45 0 11 0;
#X connect 46 0 32 0;
#X connect 47 0 16 0;
#X connect 47 1 25 0;
#X connect 47 2 35 0;
#X connect 47 3 23 0;
#X connect 47 4 30 0;
#X connect 49 0 48 0;
#X restore 8 240 pd netSend;
#X obj 8 92 t b b f f f;
#N canvas 523 183 670 525 tDistances(mtx) 0;
#X obj 20 178 until;
#X obj 20 200 f;
#X obj 48 200 + 1;
#X obj 20 240 t f f;
#X obj 124 383 *;
#X obj 428 412 *;
#X obj 428 388 t f f;
#X obj 109 407 +;
#X obj 314 383 *;
#X obj 314 407 +;
#X msg 428 435 const 0 \, resize \$1;
#X obj 156 281 text get \$0-mfcc;
#X obj 20 263 text get \$0-mfcc;
#X obj 428 458 array define \$0-mfccDistances;
#X obj 20 458 array set \$0-mfccDistances;
#X obj 225 458 array set \$0-mfccDistances;
#X obj 20 298 list-cosDist;
#X obj 20 322 t f f;
#X obj 20 13 inlet;
#X obj 20 88 until;
#X obj 20 110 f;
#X obj 48 110 + 1;
#X obj 88 93 0;
#X obj 20 132 t f f;
#X obj 20 154 expr $f2-$f1;
#X obj 20 55 t f f b;
#X obj 428 366 r \$0-nrFiles;
#X connect 0 0 1 0;
#X connect 1 0 2 0;
#X connect 1 0 3 0;
#X connect 2 0 1 1;
#X connect 3 0 12 0;
#X connect 3 1 7 0;
#X connect 3 1 8 0;
#X connect 4 0 7 1;
#X connect 5 0 10 0;
#X connect 6 0 5 0;
#X connect 6 1 5 1;
#X connect 7 0 14 1;
#X connect 8 0 9 0;
#X connect 9 0 15 1;
#X connect 10 0 13 0;
#X connect 11 0 16 1;
#X connect 12 0 16 0;
#X connect 16 0 17 0;
#X connect 17 0 14 0;
#X connect 17 1 15 0;
#X connect 18 0 25 0;
#X connect 19 0 20 0;
#X connect 20 0 21 0;
#X connect 20 0 23 0;
#X connect 21 0 20 1;
#X connect 22 0 20 1;
#X connect 23 0 24 0;
#X connect 23 1 1 1;
#X connect 23 1 4 0;
#X connect 23 1 11 0;
#X connect 23 1 9 1;
#X connect 24 0 0 0;
#X connect 25 0 19 0;
#X connect 25 1 24 1;
#X connect 25 2 22 0;
#X connect 26 0 4 1;
#X connect 26 0 6 0;
#X connect 26 0 8 1;
#X restore 82 119 pd tDistances(mtx);
#N canvas 1252 23 732 716 keyDistances(mtx) 0;
#X obj 72 478 list-euclid;
#X obj 72 427 text get \$0-tiv;
#X obj 72 381 until;
#X obj 72 403 f;
#X obj 100 403 + 1;
#X obj 52 27 inlet;
#X msg 323 150 const 0 \, resize \$1;
#X obj 72 451 list split 12;
#X obj 323 105 r \$0-nrFiles;
#X obj 323 129 expr ($f1+24)*24;
#X obj 121 102 0;
#X obj 323 173 array define \$0-keyDistances;
#X obj 322 81 text define -k \$0-ShaathProfiles;
#A set 0.0507767 0.0969534 0.540155 0.186181 1.36412 0.3613 -0.309824
-1.06869 1.932 1.37884 -0.0509137 -2.22902e-05 \; 0.0924506 0.0585745
0.431315 -0.374704 0.361301 -1.36414 -0.770597 0.802634 -0.983737 -2.16014
0.0509136 2.99272e-06 \; 0.109352 0.00450058 -0.108845 -0.560889 -1.36414
-0.361317 1.0804 0.266021 -0.228129 2.36258 -0.0509137 -1.96014e-05
\; 0.0969518 -0.0507795 -0.540166 -0.18619 -0.361321 1.36412 -0.309816
-1.06869 1.37886 -1.93201 0.0509136 4.01183e-08 \; 0.058573 -0.0924532
-0.431328 0.374697 1.36412 0.36131 -0.770604 0.802636 -2.16013 0.983718
-0.0509137 -1.50817e-05 \; 0.00449921 -0.109355 0.108832 0.560879 0.361309
-1.36415 1.0804 0.266009 2.36259 0.228104 0.0509136 -1.35801e-05 \;
-0.0507812 -0.0969548 0.540151 0.186184 -1.36415 -0.361321 -0.309829
-1.06867 -1.93201 -1.37886 -0.0509136 3.42714e-06 \; -0.092455 -0.058576
0.431316 -0.3747 -0.361325 1.36413 -0.770586 0.802632 0.983739 2.1601
0.0509136 -2.39051e-05 \; -0.109356 -0.00450247 -0.108841 -0.56089
1.36413 0.361306 1.08039 0.266002 0.228119 -2.36261 -0.0509137 -2.28655e-06
\; -0.0969567 0.0507781 -0.540165 -0.186191 0.361305 -1.36414 -0.30983
-1.06866 -1.37886 1.932 0.0509136 -9.13261e-06 \; -0.0585779 0.0924524
-0.431329 0.374695 -1.36414 -0.361321 -0.770575 0.802632 2.16014 -0.983747
-0.0509136 -5.46844e-06 \; -0.0045037 0.109354 0.10883 0.560884 -0.361324
1.36413 1.08039 0.266006 -2.3626 -0.228142 0.0509136 -9.19709e-06 \;
0.0802764 -0.016992 0.412405 -0.0504047 0.147952 1.14653 0.573262 -0.596929
1.9441 -0.532084 0.335088 -8.61771e-06 \; 0.0610254 -0.0548547 0.162551
-0.382362 1.14652 -0.147965 -0.803585 -0.198015 -1.94968 -0.511279
-0.335088 -9.54672e-06 \; 0.0254222 -0.0780199 -0.249859 -0.331963
-0.147965 -1.14654 0.230305 0.794905 1.43283 1.41759 0.335088 -1.19624e-05
\; -0.0169936 -0.080279 -0.412418 0.050398 -1.14655 0.147953 0.573257
-0.596916 -0.532066 -1.9441 -0.335088 -5.14611e-07 \; -0.0548564 -0.061028
-0.162563 0.382357 0.147949 1.14653 -0.803572 -0.198017 -0.511267 1.94965
0.335088 -1.44315e-05 \; -0.078021 -0.0254252 0.249849 0.331953 1.14653
-0.14797 0.230298 0.794889 1.4176 -1.43285 -0.335088 -1.34097e-05 \;
-0.0802808 0.0169903 0.412405 -0.050405 -0.14797 -1.14655 0.573247
-0.596907 -1.9441 0.532055 0.335088 -1.99156e-06 \; -0.0610301 0.0548533
0.16255 -0.382362 -1.14655 0.147954 -0.80356 -0.198016 1.94967 0.511258
-0.335088 -1.64089e-05 \; -0.0254269 0.0780184 -0.249859 -0.33196 0.147951
1.14653 0.230294 0.794893 -1.43283 -1.41762 0.335088 6.98165e-07 \;
0.0169888 0.0802778 -0.412415 0.0503958 1.14653 -0.147968 0.573252
-0.596913 0.532056 1.94408 -0.335088 -2.43503e-05 \; 0.0548515 0.0610271
-0.162564 0.382353 -0.147968 -1.14655 -0.803567 -0.198019 0.511276
-1.94968 0.335088 7.2972e-06 \; 0.0780164 0.0254243 0.249845 0.331956
-1.14655 0.147955 0.230294 0.794904 -1.41761 1.43281 -0.335088 -2.08452e-05
\;;
#X obj 92 299 text get \$0-ShaathProfiles;
#X obj 92 231 24;
#X obj 92 253 until;
#X obj 92 275 f;
#X obj 122 275 + 1;
#X obj 181 258 0;
#X obj 52 96 until;
#X obj 52 119 f;
#X obj 80 119 + 1;
#X obj 52 73 24;
#X obj 72 182 text get \$0-ShaathProfiles;
#X obj 545 319 r \$0-nrFiles;
#X obj 176 577 t l;
#X obj 52 584 list;
#X obj 52 610 array set \$0-keyDistances;
#X obj 414 593 expr $f1 * ($f2+24);
#X obj 72 336 f;
#X obj 72 204 t b b l b;
#X obj 72 358 t f b;
#X obj 146 386 0;
#X obj 77 560 list prepend;
#X obj 52 142 t b f f b;
#X obj 213 461 list-euclid;
#X text 300 457 // normalize keys and distances to files seperatly
;
#N canvas 799 565 450 300 normalize_pr 0;
#X obj 23 27 inlet;
#X obj 23 229 outlet;
#X obj 23 164 expr ($f1-$f2) / ($f3-$f2);
#X obj 202 115 array min \$0-pr;
#X obj 202 136 array max \$0-pr;
#X obj 70 27 inlet;
#X connect 0 0 2 0;
#X connect 2 0 1 0;
#X connect 3 0 2 1;
#X connect 4 0 2 2;
#X connect 5 0 3 0;
#X connect 5 0 4 0;
#X restore 72 503 pd normalize_pr;
#X text 284 483 // value hardcoded!!!;
#X obj 52 49 t b b;
#X obj 213 483 / 5.52712;
#X connect 0 0 37 0;
#X connect 1 0 7 0;
#X connect 2 0 3 0;
#X connect 3 0 4 0;
#X connect 3 0 1 0;
#X connect 4 0 3 1;
#X connect 5 0 39 0;
#X connect 6 0 11 0;
#X connect 7 0 0 0;
#X connect 8 0 9 0;
#X connect 9 0 6 0;
#X connect 10 0 20 1;
#X connect 13 0 35 0;
#X connect 14 0 15 0;
#X connect 15 0 16 0;
#X connect 16 0 17 0;
#X connect 16 0 13 0;
#X connect 17 0 16 1;
#X connect 18 0 16 1;
#X connect 19 0 20 0;
#X connect 20 0 21 0;
#X connect 20 0 34 0;
#X connect 21 0 20 1;
#X connect 22 0 19 0;
#X connect 23 0 30 0;
#X connect 24 0 28 1;
#X connect 24 0 29 1;
#X connect 25 0 33 1;
#X connect 26 0 27 0;
#X connect 28 0 27 1;
#X connect 29 0 31 0;
#X connect 30 0 29 0;
#X connect 30 1 14 0;
#X connect 30 2 0 1;
#X connect 30 2 35 1;
#X connect 30 3 18 0;
#X connect 31 0 2 0;
#X connect 31 1 32 0;
#X connect 32 0 3 1;
#X connect 33 0 25 0;
#X connect 33 0 26 1;
#X connect 34 0 26 0;
#X connect 34 1 23 0;
#X connect 34 2 28 0;
#X connect 34 3 33 1;
#X connect 34 3 37 1;
#X connect 35 0 40 0;
#X connect 37 0 33 0;
#X connect 39 0 22 0;
#X connect 39 1 10 0;
#X connect 40 0 33 0;
#X restore 45 167 pd keyDistances(mtx);
#X text 490 210 - apply median filtering to exclude percussive events
;
#X obj 491 22 declare -lib iemmatrix -lib timbreIDLib -lib hcs -lib
zexy -lib tof;
#X text 488 64 libraries: iemmatrix \, timbreIDLib \, tof \, zexy and
hcs;
#X connect 1 0 33 0;
#X connect 1 1 2 0;
#X connect 6 0 1 0;
#X connect 12 0 13 0;
#X connect 13 0 15 0;
#X connect 13 0 30 0;
#X connect 14 0 13 1;
#X connect 17 0 18 0;
#X connect 19 0 20 0;
#X connect 22 0 21 0;
#X connect 29 0 14 0;
#X connect 30 0 19 0;
#X connect 30 1 31 0;
#X connect 33 0 32 0;
#X connect 33 1 22 0;
#X connect 33 2 35 0;
#X connect 33 3 28 0;
#X connect 33 4 34 0;
#X coords 0 1 100 -1 25 25 1 0 0;
#X restore 18 24 graph;
#X obj 619 541 nbx 5 14 -1e+37 1e+37 0 0 \$0-netPort \$0-netPort.r
PortNr 0 -8 0 10 -262144 -33289 -33289 0 256;
#X obj 681 541 bng 14 250 50 0 \$0-disconnect \$0-disconnect.r disconnect
0 -8 0 10 -1 -162280 -1;
