#N canvas 1014 58 720 608 10;
#X obj 162 230 unpack f f f;
#X obj 34 563 outlet;
#X obj 34 22 inlet;
#X obj 34 94 pack f f s f;
#X msg 162 175 npeak \$1;
#X msg 34 119 list \$3 \$2 \$1 \$4 0;
#X obj 338 114 loadbang;
#X obj 338 136 \$1;
#X obj 202 470 pack f f;
#X obj 255 422 abs;
#X obj 255 445 expr $f2*if($f1<=$f3 \, pow(cos(($f1/$f3)*1.57079) \,
2) \, 0);
#N canvas 452 189 791 420 acum 0;
#X obj 117 21 inlet;
#X obj 252 22 inlet;
#X obj 136 245 outlet;
#X obj 136 216 array get \$0-hpcp;
#X obj 252 152 array set \$0-hpcp;
#X obj 252 103 array get \$0-hpcp 0 1;
#X obj 252 126 +;
#X obj 252 78 t f f;
#X obj 252 53 unpack;
#X obj 156 185 array define \$0-hpcp 12;
#X obj 395 20 inlet;
#X obj 156 80 spigot 0;
#X msg 156 102 normalize;
#X obj 117 53 t b b b;
#X msg 117 125 const 0;
#X connect 0 0 13 0;
#X connect 1 0 8 0;
#X connect 3 0 2 0;
#X connect 5 0 6 0;
#X connect 6 0 4 0;
#X connect 7 0 5 0;
#X connect 7 1 4 1;
#X connect 8 0 7 0;
#X connect 8 1 6 1;
#X connect 10 0 11 1;
#X connect 11 0 12 0;
#X connect 12 0 9 0;
#X connect 13 0 14 0;
#X connect 13 1 3 0;
#X connect 13 2 11 0;
#X connect 14 0 9 0;
#X restore 34 538 pd acum;
#X obj 644 395 loadbang;
#X obj 644 419 1.33333;
#X obj 202 255 ftom;
#X obj 202 392 % 12;
#X obj 202 322 until;
#X obj 202 344 f;
#X obj 231 344 + 1;
#X obj 267 305 - 6;
#X obj 202 278 t b f;
#X obj 202 300 12;
#X obj 267 327 i;
#X obj 202 366 t f f;
#X obj 255 399 -;
#X obj 338 158 max 1;
#X obj 34 60 route analyze analyse npeak normalize;
#X obj 34 188 t b l;
#X obj 162 205 sigmund~ -t peaks;
#X connect 0 1 14 0;
#X connect 0 2 10 1;
#X connect 2 0 26 0;
#X connect 3 0 5 0;
#X connect 4 0 28 0;
#X connect 5 0 27 0;
#X connect 6 0 7 0;
#X connect 7 0 25 0;
#X connect 8 0 11 1;
#X connect 9 0 10 0;
#X connect 10 0 8 1;
#X connect 11 0 1 0;
#X connect 12 0 13 0;
#X connect 13 0 10 2;
#X connect 14 0 20 0;
#X connect 15 0 8 0;
#X connect 16 0 17 0;
#X connect 17 0 18 0;
#X connect 17 0 23 0;
#X connect 18 0 17 1;
#X connect 19 0 22 0;
#X connect 20 0 21 0;
#X connect 20 1 19 0;
#X connect 20 1 24 1;
#X connect 21 0 16 0;
#X connect 22 0 17 1;
#X connect 23 0 15 0;
#X connect 23 1 24 0;
#X connect 24 0 9 0;
#X connect 25 0 4 0;
#X connect 26 0 3 0;
#X connect 26 1 3 0;
#X connect 26 2 4 0;
#X connect 26 3 11 2;
#X connect 26 4 28 0;
#X connect 27 0 11 0;
#X connect 27 1 28 0;
#X connect 28 0 0 0;
