#N canvas 428 136 474 267 10;
#N canvas 273 101 739 442 keyInduction 0;
#X obj 406 129 until;
#X obj 386 406 outlet;
#X obj 523 406 outlet;
#X obj 523 383 symbol;
#X obj 429 226 list-euclid;
#X obj 386 26 inlet;
#X obj 16 29 inlet;
#X obj 69 29 loadbang;
#X obj 406 325 array define \$0-dist 24;
#X obj 406 280 +;
#X obj 406 302 array set \$0-dist;
#X obj 406 258 array get \$0-dist 0 1;
#X obj 16 318 text define \$0-keyProfile;
#X obj 429 201 text get \$0-keyProfile;
#X obj 386 72 t b b b l;
#X obj 406 151 f;
#X obj 434 151 + 1;
#X obj 488 134 0;
#X obj 406 173 t f f f;
#X obj 406 107 24;
#X obj 575 286 r \$0-reset;
#X msg 575 308 const 0;
#X obj 62 148 text define \$0-profiles;
#X msg 69 51 symbol Sha’ath;
#X obj 16 250 text get \$0-profiles;
#X obj 16 182 until;
#X obj 16 204 f;
#X obj 45 204 + 1;
#X obj 82 187 0;
#X obj 16 226 t f f;
#X obj 16 68 t b b s;
#X msg 62 124 read \$1;
#X msg 257 301 clear;
#X obj 16 296 text set \$0-keyProfile;
#X obj 192 211 r \$0-weights;
#X obj 192 233 list prepend weights;
#X obj 192 255 list trim;
#X obj 62 101 makefilename profiles-%s.txt;
#X obj 16 160 24;
#N canvas 482 23 680 354 keyEstimateOutput 0;
#X obj 29 65 inlet;
#X msg 218 210 \$1;
#X obj 218 128 t b f;
#X msg 245 151 set \, adddollar \$1;
#X obj 218 106 + 1;
#X msg 218 173 key C Db/C# D Eb/D# E F F#/Gb G Ab A Bb B/A# c c# d
d#/eb e f f# g g#/ab a bb/a# b;
#X obj 218 266 outlet;
#X obj 145 266 outlet;
#X obj 29 89 array min \$0-dist;
#X connect 0 0 8 0;
#X connect 1 0 6 0;
#X connect 2 0 5 0;
#X connect 2 1 3 0;
#X connect 3 0 1 0;
#X connect 4 0 2 0;
#X connect 5 0 1 0;
#X connect 8 1 7 0;
#X connect 8 1 4 0;
#X restore 386 358 pd keyEstimateOutput;
#X obj 16 272 tis;
#X connect 0 0 15 0;
#X connect 3 0 2 0;
#X connect 4 0 9 1;
#X connect 5 0 14 0;
#X connect 6 0 30 0;
#X connect 7 0 23 0;
#X connect 9 0 10 0;
#X connect 11 0 9 0;
#X connect 13 0 4 0;
#X connect 14 0 39 0;
#X connect 14 1 19 0;
#X connect 14 2 17 0;
#X connect 14 3 4 1;
#X connect 15 0 16 0;
#X connect 15 0 18 0;
#X connect 16 0 15 1;
#X connect 17 0 15 1;
#X connect 18 0 11 0;
#X connect 18 1 13 0;
#X connect 18 2 10 1;
#X connect 19 0 0 0;
#X connect 20 0 21 0;
#X connect 21 0 8 0;
#X connect 23 0 30 0;
#X connect 24 0 40 0;
#X connect 25 0 26 0;
#X connect 26 0 27 0;
#X connect 26 0 29 0;
#X connect 27 0 26 1;
#X connect 28 0 26 1;
#X connect 29 0 24 0;
#X connect 29 1 33 1;
#X connect 30 0 38 0;
#X connect 30 1 28 0;
#X connect 30 1 32 0;
#X connect 30 2 37 0;
#X connect 31 0 22 0;
#X connect 32 0 12 0;
#X connect 34 0 35 0;
#X connect 35 0 36 0;
#X connect 36 0 40 0;
#X connect 37 0 31 0;
#X connect 38 0 25 0;
#X connect 39 0 1 0;
#X connect 39 1 3 0;
#X connect 40 0 33 0;
#X restore 106 158 pd keyInduction;
#X obj 53 36 inlet;
#X obj 106 187 outlet;
#X obj 208 187 outlet;
#X obj 306 36 inlet;
#X obj 53 99 s \$0-reset;
#X text 93 35 TIVs;
#X text 345 35 energy;
#X obj 267 115 spigot;
#X obj 306 92 > 0.1;
#N canvas 130 440 221 276 modeBias 0;
#X obj 29 15 inlet;
#X obj 29 217 outlet;
#X obj 54 143 list prepend;
#X obj 29 167 list;
#N canvas 0 22 450 300 drip 0;
#X obj 73 94 t a a;
#X obj 73 251 spigot;
#X obj 112 159 bang;
#X obj 112 178 1;
#X obj 233 159 route bang;
#X obj 193 160 bang;
#X obj 193 179 0;
#X obj 112 124 list split 2;
#X obj 242 389 list split;
#X obj 309 338 list length;
#X obj 309 360 >> 1;
#X obj 73 270 t a a a a;
#X obj 73 456 list split;
#X obj 140 408 list length;
#X obj 140 433 >> 1;
#X obj 41 29 inlet;
#X obj 300 185 outlet;
#X text 83 29 Copyright 2009 by Mathieu Bouchard;
#X obj 41 63 t b a;
#X connect 0 0 1 0;
#X connect 0 1 7 0;
#X connect 1 0 11 0;
#X connect 2 0 3 0;
#X connect 3 0 1 1;
#X connect 4 1 16 0;
#X connect 5 0 6 0;
#X connect 6 0 1 1;
#X connect 7 0 2 0;
#X connect 7 2 4 0;
#X connect 7 2 5 0;
#X connect 8 0 0 0;
#X connect 9 0 10 0;
#X connect 10 0 8 1;
#X connect 11 0 12 0;
#X connect 11 1 13 0;
#X connect 11 2 8 0;
#X connect 11 3 9 0;
#X connect 12 1 0 0;
#X connect 13 0 14 0;
#X connect 14 0 12 1;
#X connect 15 0 18 0;
#X connect 18 1 0 0;
#X restore 54 96 pd drip;
#X obj 54 118 * 0.35;
#X obj 29 60 t b a b;
#X obj 159 160 t l;
#X obj 119 15 inlet;
#X connect 0 0 6 0;
#X connect 2 0 3 1;
#X connect 2 0 7 0;
#X connect 3 0 1 0;
#X connect 4 0 5 0;
#X connect 5 0 2 0;
#X connect 6 0 3 0;
#X connect 6 1 4 0;
#X connect 6 2 2 1;
#X connect 7 0 2 1;
#X connect 8 0 5 1;
#X restore 267 141 pd modeBias;
#X obj 160 99 s \$0-weights;
#X obj 53 71 route reset symbol weights bias;
#X connect 0 0 2 0;
#X connect 0 1 3 0;
#X connect 1 0 12 0;
#X connect 4 0 9 0;
#X connect 8 0 10 0;
#X connect 9 0 8 1;
#X connect 10 0 0 1;
#X connect 12 0 5 0;
#X connect 12 1 0 0;
#X connect 12 2 11 0;
#X connect 12 3 10 1;
#X connect 12 4 8 0;
