#N canvas 576 23 574 346 10;
#X obj 12 6 cnv 15 550 60 empty empty list-cosDist 20 12 0 14 -233017
-66577 0;
#N canvas 420 330 494 344 META 0;
#X text 12 45 LICENSE GPL v3;
#X text 12 178 RELEASE_DATE 2013;
#X text 12 158 WEBSITE https://sites.google.com/site/eargram/;
#X text 12 138 AUTHOR Gilberto Bernardes;
#X text 12 25 KEYWORDS;
#X text 12 118 LIBRARY earGram_abs;
#X text 12 65 DESCRIPTION plots geometric figures in a plan;
#X text 12 84 INLET_0 clear dimen point circle filledCircle square
filledSquare rectangle filled rectangle;
#X restore 507 316 pd META;
#X msg 44 96 2 4 5 6;
#X msg 113 96 2 8 4 6;
#X obj 44 143 list-cosDist;
#X text 30 46 calculates the cosine distance between two vectors,
f 66;
#X text 397 32 Gilberto Bernardes et al.;
#X text 493 47 INESC TEC;
#X floatatom 44 169 10 0 0 0 - - -, f 10;
#X floatatom 113 169 10 0 0 0 - - -, f 10;
#X obj 44 188 * 57.2958;
#X floatatom 44 210 10 0 0 0 - - -, f 10;
#X text 112 188 Cosine similarity (-1 to 1);
#X text 42 227 Angle in radians and angles;
#X connect 2 0 4 0;
#X connect 3 0 4 1;
#X connect 4 0 8 0;
#X connect 4 1 9 0;
#X connect 8 0 10 0;
#X connect 10 0 11 0;
