#N canvas 1151 676 525 524 10;
#X obj 331 224 +;
#X obj 361 225 f;
#X obj 243 241 f;
#X obj 394 36 inlet;
#X obj 243 264 sqrt;
#X obj 304 164 t f f;
#N canvas 0 22 737 538 drip 0;
#X obj 73 94 t a a;
#X obj 73 251 spigot;
#X obj 112 159 bang;
#X obj 112 178 1;
#X obj 233 159 route bang;
#X obj 193 160 bang;
#X obj 193 179 0;
#X obj 112 124 list split 2;
#X obj 242 389 list split;
#X obj 309 338 list length;
#X obj 309 360 >> 1;
#X obj 73 270 t a a a a;
#X obj 73 456 list split;
#X obj 140 408 list length;
#X obj 140 433 >> 1;
#X obj 73 32 inlet;
#X obj 300 185 outlet;
#X text 115 30 Copyright 2009 by Mathieu Bouchard;
#X connect 0 0 1 0;
#X connect 0 1 7 0;
#X connect 1 0 11 0;
#X connect 2 0 3 0;
#X connect 3 0 1 1;
#X connect 4 1 16 0;
#X connect 5 0 6 0;
#X connect 6 0 1 1;
#X connect 7 0 2 0;
#X connect 7 2 4 0;
#X connect 7 2 5 0;
#X connect 8 0 0 0;
#X connect 9 0 10 0;
#X connect 10 0 8 1;
#X connect 11 0 12 0;
#X connect 11 1 13 0;
#X connect 11 2 8 0;
#X connect 11 3 9 0;
#X connect 12 1 0 0;
#X connect 13 0 14 0;
#X connect 14 0 12 1;
#X connect 15 0 0 0;
#X restore 111 97 pd drip;
#X obj 166 223 +;
#X obj 196 224 f;
#X obj 81 240 f;
#X obj 64 35 inlet;
#X obj 81 263 sqrt;
#N canvas 0 22 737 538 drip-slow 0;
#X obj 158 196 list split 1;
#X obj 158 171 list append;
#X obj 158 247 outlet;
#X obj 158 47 inlet;
#X obj 221 47 inlet;
#X obj 158 82 b;
#X connect 0 0 2 0;
#X connect 0 1 1 1;
#X connect 1 0 0 0;
#X connect 3 0 5 0;
#X connect 4 0 1 1;
#X connect 5 0 1 0;
#X restore 304 139 pd drip-slow;
#X obj 111 122 t f f b;
#X obj 64 396 /;
#X obj 79 347 +;
#X obj 109 348 f;
#X obj 64 371 f;
#X obj 79 324 *;
#X obj 228 379 *;
#X obj 64 480 outlet;
#X obj 64 68 t b b b l b;
#X obj 196 85 0;
#X obj 64 452 expr acos($f1);
#X obj 331 200 expr pow($f1 \, 2);
#X obj 166 199 expr pow($f1 \, 2);
#X obj 373 85 list;
#X obj 234 480 outlet;
#X obj 64 418 t f f;
#X connect 0 0 1 0;
#X connect 0 0 2 1;
#X connect 1 0 0 1;
#X connect 2 0 4 0;
#X connect 3 0 26 1;
#X connect 4 0 19 1;
#X connect 5 0 18 1;
#X connect 5 1 24 0;
#X connect 6 0 13 0;
#X connect 7 0 8 0;
#X connect 7 0 9 1;
#X connect 8 0 7 1;
#X connect 9 0 11 0;
#X connect 10 0 21 0;
#X connect 11 0 19 0;
#X connect 12 0 5 0;
#X connect 13 0 18 0;
#X connect 13 1 25 0;
#X connect 13 2 12 0;
#X connect 14 0 28 0;
#X connect 15 0 16 0;
#X connect 15 0 17 1;
#X connect 16 0 15 1;
#X connect 17 0 14 0;
#X connect 18 0 15 0;
#X connect 19 0 14 1;
#X connect 21 0 17 0;
#X connect 21 1 9 0;
#X connect 21 2 2 0;
#X connect 21 3 6 0;
#X connect 21 4 22 0;
#X connect 21 4 26 0;
#X connect 22 0 16 0;
#X connect 22 0 1 0;
#X connect 22 0 8 0;
#X connect 23 0 20 0;
#X connect 24 0 0 0;
#X connect 25 0 7 0;
#X connect 26 0 12 1;
#X connect 28 0 23 0;
#X connect 28 1 27 0;
