#N canvas 0 23 762 500 10;
#X obj 100 100 cnv 15 109 15 empty empty bCrush 2 9 0 8 -258401 -262144
0;
#X obj 105 118 hsl 100 15 0 1 0 0 empty empty bitdepth 5 7 0 8 -262144
-1 -1 0 1;
#X obj 105 136 hsl 100 15 0 1 0 0 empty empty samplerate 5 7 0 8 -262144
-1 -1 0 0;
#X obj 86 410 outlet~;
#X obj 86 240 inlet~;
#X obj 206 240 inlet~;
#X obj 206 410 outlet~;
#N canvas 138 309 730 557 bitcrusher 0;
#X obj 222 245 outlet~;
#X obj 104 -271 inlet~;
#X obj 184 44 wrap~;
#X obj 153 87 -~;
#X obj 155 6 *~ 65536;
#X obj 153 109 /~ 65536;
#X obj 215 141 samphold~;
#N canvas 0 22 466 316 rh_scalelog 0;
#X obj 20 132 exp;
#X obj 20 160 outlet;
#X obj 20 19 inlet;
#X obj 20 107 * 11.0904;
#X connect 0 0 1 0;
#X connect 2 0 3 0;
#X connect 3 0 0 0;
#X restore 233 -76 pd rh_scalelog;
#X obj 390 -51 phasor~ 4400;
#N canvas 718 22 466 316 rh_scalelog 0;
#X obj 20 155 exp;
#X obj 20 183 outlet;
#X obj 20 19 inlet;
#X obj 20 130 + 6.23832;
#X obj 20 107 * 4.45383;
#X connect 0 0 1 0;
#X connect 2 0 4 0;
#X connect 3 0 0 0;
#X connect 4 0 3 0;
#X restore 388 -77 pd rh_scalelog;
#X obj 234 -163 expr pow($f1 \, 4);
#X obj 228 -254 inlet bitdepth;
#X obj 383 -232 inlet samplerate;
#X connect 1 0 4 0;
#X connect 2 0 3 1;
#X connect 3 0 5 0;
#X connect 4 0 2 0;
#X connect 4 0 3 0;
#X connect 5 0 6 0;
#X connect 6 0 0 0;
#X connect 7 0 4 1;
#X connect 7 0 5 1;
#X connect 8 0 6 1;
#X connect 9 0 8 0;
#X connect 10 0 7 0;
#X connect 11 0 10 0;
#X connect 12 0 9 0;
#X restore 86 267 pd bitcrusher;
#N canvas 529 147 730 557 bitcrusher 0;
#X obj 222 245 outlet~;
#X obj 104 -271 inlet~;
#X obj 184 44 wrap~;
#X obj 153 87 -~;
#X obj 155 6 *~ 65536;
#X obj 153 109 /~ 65536;
#X obj 215 141 samphold~;
#N canvas 767 22 466 316 rh_scalelog 0;
#X obj 20 155 exp;
#X obj 20 183 outlet;
#X obj 20 19 inlet;
#X obj 20 107 * 11.0904;
#X connect 0 0 1 0;
#X connect 2 0 3 0;
#X connect 3 0 0 0;
#X restore 233 -76 pd rh_scalelog;
#X obj 390 -51 phasor~ 4400;
#N canvas 540 425 466 316 rh_scalelog 0;
#X obj 20 155 exp;
#X obj 20 183 outlet;
#X obj 20 19 inlet;
#X obj 20 107 * 4.45383;
#X obj 20 130 + 6.23832;
#X connect 0 0 1 0;
#X connect 2 0 3 0;
#X connect 3 0 4 0;
#X connect 4 0 0 0;
#X restore 388 -77 pd rh_scalelog;
#X obj 234 -163 expr pow($f1 \, 4);
#X obj 228 -254 inlet bitdepth;
#X obj 383 -232 inlet samplerate;
#X connect 1 0 4 0;
#X connect 2 0 3 1;
#X connect 3 0 5 0;
#X connect 4 0 2 0;
#X connect 4 0 3 0;
#X connect 5 0 6 0;
#X connect 6 0 0 0;
#X connect 7 0 4 1;
#X connect 7 0 5 1;
#X connect 8 0 6 1;
#X connect 9 0 8 0;
#X connect 10 0 7 0;
#X connect 11 0 10 0;
#X connect 12 0 9 0;
#X restore 206 265 pd bitcrusher;
#X obj 279 150 line~;
#X obj 105 154 hsl 100 15 0 1 0 0 empty empty drywet 5 7 0 8 -262144
-1 -1 0 1;
#X msg 279 121 \$1 50;
#X obj 132 297 *~;
#X obj 333 99 expr (1-$f1);
#X msg 333 121 \$1 50;
#X obj 333 149 line~;
#X obj 60 327 +~;
#X obj 60 297 *~;
#X obj 230 292 *~;
#X obj 182 325 +~;
#X obj 182 295 *~;
#X connect 1 0 7 1;
#X connect 1 0 8 1;
#X connect 2 0 7 2;
#X connect 2 0 8 2;
#X connect 4 0 7 0;
#X connect 4 0 12 0;
#X connect 5 0 8 0;
#X connect 5 0 18 0;
#X connect 7 0 17 0;
#X connect 8 0 20 0;
#X connect 9 0 17 1;
#X connect 9 0 20 1;
#X connect 10 0 11 0;
#X connect 10 0 13 0;
#X connect 11 0 9 0;
#X connect 12 0 16 1;
#X connect 13 0 14 0;
#X connect 14 0 15 0;
#X connect 15 0 12 1;
#X connect 15 0 18 1;
#X connect 16 0 3 0;
#X connect 17 0 16 0;
#X connect 18 0 19 1;
#X connect 19 0 6 0;
#X connect 20 0 19 0;
#X coords 0 -1 1 1 109 90 1 100 100;
