#N canvas 0 22 710 397 10;
#X obj 360 59 inlet~;
#X obj 507 111 line~;
#X obj 100 100 cnv 15 109 15 empty empty Chorus 2 9 0 8 -258401 -262144
0;
#X obj 105 118 hsl 100 15 0 30 0 0 empty empty freq 5 7 0 8 -262144
-1 -1 1900 1;
#X obj 105 136 hsl 100 15 0 3 0 0 empty empty mod 5 7 0 8 -262144 -1
-1 4600 1;
#X obj 105 154 hsl 100 15 0 1 0 0 empty empty drywet 5 7 0 8 -262144
-1 -1 9900 1;
#X msg 507 82 \$1 50;
#X obj 360 258 *~;
#X obj 561 60 expr (1-$f1);
#X msg 561 82 \$1 50;
#X obj 561 110 line~;
#X obj 312 291 +~;
#X obj 312 261 *~;
#X obj 311 345 outlet~;
#N canvas 265 156 764 614 chorus 0;
#X obj 199 279 cos~;
#X obj 199 302 +~ 1;
#X obj 286 278 cos~;
#X obj 286 301 +~ 1;
#X obj 293 599 outlet~;
#X obj 385 277 cos~;
#X obj 385 300 +~ 1;
#X obj 480 275 cos~;
#X obj 480 298 +~ 1;
#X obj 34 52 inlet~;
#X obj 555 304 line~;
#X obj 555 283 pack 0 50;
#X obj 480 359 *~;
#X obj 385 361 *~;
#X obj 286 362 *~;
#X obj 199 363 *~;
#X obj 200 114 line~;
#X obj 200 93 pack 0 50;
#X obj 199 144 phasor~;
#X text 629 258 modulation;
#X obj 480 396 +~ 0;
#X obj 386 396 +~ 0;
#X obj 286 399 +~ 0;
#X obj 200 396 +~ 0;
#N canvas 314 253 450 300 sampledur 0;
#X obj 70 100 samplerate~;
#X obj 70 144 swap 1000;
#X obj 70 172 /;
#X obj 70 51 loadbang;
#X msg 82 77 bang;
#X obj 70 205 outlet;
#X connect 0 0 1 0;
#X connect 1 0 2 0;
#X connect 1 1 2 1;
#X connect 2 0 5 0;
#X connect 3 0 0 0;
#X connect 4 0 0 0;
#X restore 566 363 pd sampledur;
#X obj 34 83 *~ 0.5;
#X obj 545 218 loadbang;
#X obj 545 240 0.2;
#X obj 286 234 wrap~;
#X obj 384 238 wrap~;
#X obj 479 238 wrap~;
#X obj 200 71 / 8;
#X text 197 27 frequency;
#X obj 286 213 *~ 2;
#X obj 384 217 *~ 4;
#X obj 479 217 *~ 8;
#X obj 199 47 inlet frequency;
#X obj 555 259 inlet modulation;
#X obj 244 463 +~;
#X obj 409 464 +~;
#X obj 318 534 +~;
#X obj 34 111 delwrite~ \$0-c1 2000;
#X obj 199 424 vd~ \$0-c1;
#X obj 286 424 vd~ \$0-c1;
#X obj 385 422 vd~ \$0-c1;
#X obj 480 420 vd~ \$0-c1;
#X connect 0 0 1 0;
#X connect 1 0 15 0;
#X connect 2 0 3 0;
#X connect 3 0 14 0;
#X connect 5 0 6 0;
#X connect 6 0 13 0;
#X connect 7 0 8 0;
#X connect 8 0 12 0;
#X connect 9 0 25 0;
#X connect 10 0 12 1;
#X connect 10 0 13 1;
#X connect 10 0 14 1;
#X connect 10 0 15 1;
#X connect 11 0 10 0;
#X connect 12 0 20 0;
#X connect 13 0 21 0;
#X connect 14 0 22 0;
#X connect 15 0 23 0;
#X connect 16 0 18 0;
#X connect 17 0 16 0;
#X connect 18 0 0 0;
#X connect 18 0 33 0;
#X connect 18 0 34 0;
#X connect 18 0 35 0;
#X connect 20 0 45 0;
#X connect 21 0 44 0;
#X connect 22 0 43 0;
#X connect 23 0 42 0;
#X connect 24 0 20 1;
#X connect 24 0 21 1;
#X connect 24 0 22 1;
#X connect 24 0 23 1;
#X connect 25 0 41 0;
#X connect 26 0 27 0;
#X connect 27 0 10 0;
#X connect 28 0 2 0;
#X connect 29 0 5 0;
#X connect 30 0 7 0;
#X connect 31 0 17 0;
#X connect 33 0 28 0;
#X connect 34 0 29 0;
#X connect 35 0 30 0;
#X connect 36 0 31 0;
#X connect 37 0 11 0;
#X connect 38 0 40 0;
#X connect 39 0 40 1;
#X connect 40 0 4 0;
#X connect 42 0 38 0;
#X connect 43 0 38 1;
#X connect 44 0 39 0;
#X connect 45 0 39 1;
#X restore 312 211 pd chorus;
#X obj 213 9 r \$2-p.\$1.\$3.r;
#X obj 213 33 unpack f f f;
#N canvas 265 156 764 614 chorus 0;
#X obj 199 279 cos~;
#X obj 199 302 +~ 1;
#X obj 286 278 cos~;
#X obj 286 301 +~ 1;
#X obj 293 599 outlet~;
#X obj 385 277 cos~;
#X obj 385 300 +~ 1;
#X obj 480 275 cos~;
#X obj 480 298 +~ 1;
#X obj 34 52 inlet~;
#X obj 555 304 line~;
#X obj 555 283 pack 0 50;
#X obj 480 359 *~;
#X obj 385 361 *~;
#X obj 286 362 *~;
#X obj 199 363 *~;
#X obj 200 114 line~;
#X obj 200 93 pack 0 50;
#X obj 199 144 phasor~;
#X text 629 258 modulation;
#X obj 480 396 +~ 0;
#X obj 386 396 +~ 0;
#X obj 286 399 +~ 0;
#X obj 200 396 +~ 0;
#N canvas 314 253 450 300 sampledur 0;
#X obj 70 100 samplerate~;
#X obj 70 144 swap 1000;
#X obj 70 172 /;
#X obj 70 51 loadbang;
#X msg 82 77 bang;
#X obj 70 205 outlet;
#X connect 0 0 1 0;
#X connect 1 0 2 0;
#X connect 1 1 2 1;
#X connect 2 0 5 0;
#X connect 3 0 0 0;
#X connect 4 0 0 0;
#X restore 566 363 pd sampledur;
#X obj 34 83 *~ 0.5;
#X obj 545 218 loadbang;
#X obj 545 240 0.2;
#X obj 286 234 wrap~;
#X obj 384 238 wrap~;
#X obj 479 238 wrap~;
#X obj 200 71 / 8;
#X text 197 27 frequency;
#X obj 286 213 *~ 2;
#X obj 384 217 *~ 4;
#X obj 479 217 *~ 8;
#X obj 199 47 inlet frequency;
#X obj 555 259 inlet modulation;
#X obj 244 463 +~;
#X obj 409 464 +~;
#X obj 318 534 +~;
#X obj 34 111 delwrite~ \$0-c2 2000;
#X obj 200 424 vd~ \$0-c2;
#X obj 286 424 vd~ \$0-c2;
#X obj 386 421 vd~ \$0-c2;
#X obj 480 420 vd~ \$0-c2;
#X connect 0 0 1 0;
#X connect 1 0 15 0;
#X connect 2 0 3 0;
#X connect 3 0 14 0;
#X connect 5 0 6 0;
#X connect 6 0 13 0;
#X connect 7 0 8 0;
#X connect 8 0 12 0;
#X connect 9 0 25 0;
#X connect 10 0 12 1;
#X connect 10 0 13 1;
#X connect 10 0 14 1;
#X connect 10 0 15 1;
#X connect 11 0 10 0;
#X connect 12 0 20 0;
#X connect 13 0 21 0;
#X connect 14 0 22 0;
#X connect 15 0 23 0;
#X connect 16 0 18 0;
#X connect 17 0 16 0;
#X connect 18 0 0 0;
#X connect 18 0 33 0;
#X connect 18 0 34 0;
#X connect 18 0 35 0;
#X connect 20 0 45 0;
#X connect 21 0 44 0;
#X connect 22 0 43 0;
#X connect 23 0 42 0;
#X connect 24 0 20 1;
#X connect 24 0 21 1;
#X connect 24 0 22 1;
#X connect 24 0 23 1;
#X connect 25 0 41 0;
#X connect 26 0 27 0;
#X connect 27 0 10 0;
#X connect 28 0 2 0;
#X connect 29 0 5 0;
#X connect 30 0 7 0;
#X connect 31 0 17 0;
#X connect 33 0 28 0;
#X connect 34 0 29 0;
#X connect 35 0 30 0;
#X connect 36 0 31 0;
#X connect 37 0 11 0;
#X connect 38 0 40 0;
#X connect 39 0 40 1;
#X connect 40 0 4 0;
#X connect 42 0 38 0;
#X connect 43 0 38 1;
#X connect 44 0 39 0;
#X connect 45 0 39 1;
#X restore 410 209 pd chorus;
#X obj 410 58 inlet~;
#X obj 458 253 *~;
#X obj 410 286 +~;
#X obj 410 256 *~;
#X obj 409 340 outlet~;
#X obj 568 14 inlet;
#X connect 0 0 7 0;
#X connect 0 0 14 0;
#X connect 1 0 12 1;
#X connect 1 0 21 1;
#X connect 3 0 14 1;
#X connect 3 0 17 1;
#X connect 4 0 17 2;
#X connect 4 0 14 2;
#X connect 5 0 6 0;
#X connect 5 0 8 0;
#X connect 6 0 1 0;
#X connect 7 0 11 1;
#X connect 8 0 9 0;
#X connect 9 0 10 0;
#X connect 10 0 7 1;
#X connect 10 0 19 1;
#X connect 11 0 13 0;
#X connect 12 0 11 0;
#X connect 14 0 12 0;
#X connect 15 0 16 0;
#X connect 16 0 3 0;
#X connect 16 1 4 0;
#X connect 16 2 5 0;
#X connect 17 0 21 0;
#X connect 18 0 17 0;
#X connect 18 0 19 0;
#X connect 19 0 20 1;
#X connect 20 0 22 0;
#X connect 21 0 20 0;
#X connect 23 0 16 0;
#X coords 0 -1 1 1 109 90 1 100 100;
