#N canvas 190 117 760 518 10;
#X obj 253 83 inlet~;
#X obj 100 101 cnv 15 109 15 empty empty fbDelay 2 9 0 8 -258401 -262144
0;
#X obj 105 119 hsl 100 15 0 1 0 0 empty empty delay 5 7 0 8 -262144
-1 -1 0 1;
#X obj 105 137 hsl 100 15 0 0.99 0 0 empty empty feedback 5 7 0 8 -262144
-1 -1 0 1;
#X obj 105 155 hsl 100 15 0 1 0 0 empty empty drywet 5 7 0 8 -262144
-1 -1 0 1;
#N canvas 2 89 731 555 fb.dealy 0;
#X obj 27 26 inlet~;
#X obj 166 15 inlet;
#X obj 10 273 outlet~;
#X obj 194 148 line~;
#X msg 189 118 \$1 50;
#X obj 169 200 *~;
#X floatatom 14 194 5 0 0 0 - - -;
#X obj 293 10 inlet;
#X obj 10 228 delread~ \$0-A;
#X obj 28 66 delwrite~ \$0-A 2000;
#X connect 0 0 9 0;
#X connect 1 0 6 0;
#X connect 3 0 5 1;
#X connect 4 0 3 0;
#X connect 5 0 9 0;
#X connect 6 0 8 0;
#X connect 7 0 4 0;
#X connect 8 0 2 0;
#X connect 8 0 5 0;
#X restore 253 138 pd fb.dealy;
#X obj 324 225 line~;
#X msg 324 196 \$1 50;
#X obj 302 275 *~;
#X obj 378 174 expr (1-$f1);
#X msg 378 196 \$1 50;
#X obj 378 224 line~;
#X obj 253 299 +~;
#X obj 253 269 *~;
#X obj 253 353 outlet~;
#X obj 115 25 r \$2-p.\$1.\$3.r;
#X obj 579 35 inlet;
#X obj 115 49 unpack f f f;
#X obj 284 114 * 1000;
#X obj 499 293 *~;
#X obj 450 317 +~;
#X obj 450 287 *~;
#X obj 450 371 outlet~;
#N canvas 2 89 731 555 fb.dealy 0;
#X obj 27 26 inlet~;
#X obj 166 15 inlet;
#X obj 10 273 outlet~;
#X obj 194 148 line~;
#X msg 189 118 \$1 50;
#X obj 169 200 *~;
#X floatatom 14 194 5 0 0 0 - - -;
#X obj 293 10 inlet;
#X obj 28 66 delwrite~ \$0-B 2000;
#X obj 10 228 delread~ \$0-B;
#X connect 0 0 8 0;
#X connect 1 0 6 0;
#X connect 3 0 5 1;
#X connect 4 0 3 0;
#X connect 5 0 8 0;
#X connect 6 0 9 0;
#X connect 7 0 4 0;
#X connect 9 0 2 0;
#X connect 9 0 5 0;
#X restore 450 125 pd fb.dealy;
#X obj 481 101 * 1000;
#X obj 450 69 inlet~;
#X connect 0 0 5 0;
#X connect 0 0 8 0;
#X connect 2 0 18 0;
#X connect 2 0 24 0;
#X connect 3 0 5 2;
#X connect 3 0 23 2;
#X connect 4 0 7 0;
#X connect 4 0 9 0;
#X connect 5 0 13 0;
#X connect 6 0 13 1;
#X connect 6 0 21 1;
#X connect 7 0 6 0;
#X connect 8 0 12 1;
#X connect 9 0 10 0;
#X connect 10 0 11 0;
#X connect 11 0 8 1;
#X connect 11 0 19 1;
#X connect 12 0 14 0;
#X connect 13 0 12 0;
#X connect 15 0 17 0;
#X connect 16 0 17 0;
#X connect 17 0 2 0;
#X connect 17 1 3 0;
#X connect 17 2 4 0;
#X connect 18 0 5 1;
#X connect 19 0 20 1;
#X connect 20 0 22 0;
#X connect 21 0 20 0;
#X connect 23 0 21 0;
#X connect 24 0 23 1;
#X connect 25 0 23 0;
#X connect 25 0 19 0;
#X coords 0 -1 1 1 109 90 1 100 100;
