#N canvas 657 246 753 467 10;
#X obj 353 16 inlet~;
#X obj 408 356 outlet~;
#X obj 100 101 cnv 15 109 15 empty empty DecayReverb~ 2 9 0 8 -258401
-262144 0;
#X obj 105 119 hsl 100 15 0 1 0 0 empty empty roomsize 5 7 0 8 -262144
-1 -1 5015 1;
#X obj 105 137 hsl 100 15 0 1 0 0 empty empty damping 5 7 0 8 -262144
-1 -1 8700 1;
#X obj 105 155 hsl 100 15 0 1 0 0 empty empty wet 5 7 0 8 -262144 -1
-1 7200 1;
#X obj 199 37 r \$2-p.\$1.\$3.r;
#X obj 631 44 inlet;
#X obj 544 16 inlet~;
#X obj 459 355 outlet~;
#X obj 350 269 freeverb~;
#X msg 252 100 roomsize \$1;
#X msg 252 123 damping \$1;
#X msg 252 149 wet \$1;
#X obj 414 85 env~ 64 64;
#X obj 605 84 env~ 64 64;
#X obj 544 230 *~;
#X obj 414 110 expr (100-$f1)/100;
#X obj 605 109 expr (100-$f1)/100;
#X msg 605 190 \$1 50;
#X obj 604 213 line~;
#X msg 414 190 \$1 50;
#X obj 413 213 line~;
#X obj 350 230 *~;
#X msg 201 252 dry 0;
#X obj 353 86 z~ 67;
#X obj 544 85 z~ 67;
#X obj 199 61 unpack f f f;
#X obj 198 216 b;
#X connect 0 0 14 0;
#X connect 0 0 25 0;
#X connect 3 0 11 0;
#X connect 4 0 12 0;
#X connect 5 0 13 0;
#X connect 6 0 27 0;
#X connect 6 0 28 0;
#X connect 7 0 27 0;
#X connect 8 0 15 0;
#X connect 8 0 26 0;
#X connect 10 0 1 0;
#X connect 10 1 9 0;
#X connect 11 0 10 0;
#X connect 12 0 10 0;
#X connect 13 0 10 0;
#X connect 14 0 17 0;
#X connect 15 0 18 0;
#X connect 16 0 10 1;
#X connect 17 0 21 0;
#X connect 18 0 19 0;
#X connect 19 0 20 0;
#X connect 20 0 16 1;
#X connect 21 0 22 0;
#X connect 22 0 23 1;
#X connect 23 0 10 0;
#X connect 24 0 10 0;
#X connect 25 0 23 0;
#X connect 25 0 1 0;
#X connect 26 0 16 0;
#X connect 26 0 9 0;
#X connect 27 0 3 0;
#X connect 27 1 4 0;
#X connect 27 2 5 0;
#X connect 28 0 24 0;
#X coords 0 -1 1 1 109 90 1 100 100;
