#N canvas 119 159 505 401 10;
#N canvas 647 95 483 477 input~ 0;
#X obj 201 132 tgl 15 0 empty empty play/pause 17 7 0 10 -262144 -1
-1 0 1;
#X obj 218 238 openpanel;
#X obj 156 133 bng 15 250 50 0 empty empty open 17 7 0 10 -262144 -1
-1;
#X msg 221 270 open \$1;
#X obj 222 297 readsf~ 2;
#X obj 115 284 vline~;
#X obj 160 285 noise~;
#X obj 117 311 *~;
#X msg 109 261 1 0 \, 0 10;
#X obj 107 115 vradio 20 1 0 3 empty empty empty 0 -8 0 10 -262144
-1 -1 0;
#X text 129 114 no sound;
#X text 129 135 sf;
#X text 129 155 pulse;
#X obj 110 237 metro 500;
#X obj 117 336 *~;
#X obj 118 383 outlet~;
#X obj 219 328 *~;
#X obj 261 334 == 1;
#X obj 27 324 == 2;
#X connect 0 0 4 0;
#X connect 1 0 3 0;
#X connect 2 0 1 0;
#X connect 3 0 4 0;
#X connect 4 0 16 0;
#X connect 4 1 16 0;
#X connect 5 0 7 0;
#X connect 6 0 7 1;
#X connect 7 0 14 0;
#X connect 8 0 5 0;
#X connect 9 0 18 0;
#X connect 9 0 17 0;
#X connect 13 0 8 0;
#X connect 14 0 15 0;
#X connect 16 0 15 0;
#X connect 17 0 16 1;
#X connect 18 0 14 1;
#X connect 18 0 13 0;
#X coords 0 -1 1 1 180 80 1 100 100;
#X restore -11 41 pd input~;
#X obj -27 -64 cnv 15 500 60 empty empty DecayReverb~ 20 12 0 14 -233017
-66577 0;
#X text 327 -24 2013 Gilberto Bernardes;
#X obj -11 246 dac~;
#X text -13 -34 stereo reverb using the Schroeder/Moorer model below
a particular threshold value;
#X obj -11 138 Drev~;
#X connect 0 0 5 0;
#X connect 0 0 5 1;
#X connect 5 0 3 0;
#X connect 5 1 3 1;
#X coords 0 0 1 1 109 90 0;
