#N canvas 392 315 771 457 10;
#X obj 100 100 cnv 15 109 15 empty empty EQ 2 9 0 8 -258401 -262144
0;
#X obj 105 118 hsl 100 15 0 1 0 0 empty empty high 5 7 0 8 -262144
-1 -1 0 1;
#X obj 105 136 hsl 100 15 0 1 0 0 empty empty mid 5 7 0 8 -262144 -1
-1 0 1;
#X obj 105 154 hsl 100 15 0 1 0 0 empty empty low 5 7 0 8 -262144 -1
-1 0 1;
#X obj 309 55 inlet~;
#X obj 547 188 line~;
#X msg 547 159 \$1 50;
#X obj 601 137 expr (1-$f1);
#X msg 601 159 \$1 50;
#X obj 601 187 line~;
#X obj 532 7 r \$2-p.\$1.\$3.r;
#X obj 659 14 inlet;
#X obj 309 363 outlet~;
#X obj 357 303 *~;
#X obj 309 336 +~;
#X obj 309 306 *~;
#X obj 105 172 hsl 100 15 0 1 0 0 empty empty drywet 5 7 0 8 -262144
-1 -1 0 1;
#N canvas 207 22 838 538 3eq 0;
#X obj 69 397 outlet~;
#X obj 63 174 inlet~;
#N canvas 0 25 1272 692 eq3 0;
#X obj 76 35 inlet~;
#X obj 76 90 biquad~ 1.86972 -0.872325 0.000650245 0.00130049 0.000650245
;
#X text 195 69 lo x3;
#X obj 76 110 biquad~ 1.86972 -0.872325 0.000650245 0.00130049 0.000650245
;
#X obj 76 130 biquad~ 1.86972 -0.872325 0.000650245 0.00130049 0.000650245
;
#X obj 204 182 biquad~ 1.36591 -0.385279 0.307361 0 -0.307361;
#X text 339 162 mid x3;
#X obj 204 202 biquad~ 1.36591 -0.385279 0.307361 0 -0.307361;
#X obj 204 222 biquad~ 1.36591 -0.385279 0.307361 0 -0.307361;
#X obj 343 263 biquad~ 1.63386 -0.729864 0.840931 -1.68186 0.840931
;
#X text 483 241 hi x2;
#X obj 343 283 biquad~ 1.63386 -0.729864 0.840931 -1.68186 0.840931
;
#X obj 129 482 outlet~;
#X obj 92 308 inlet lo;
#X obj 217 312 inlet mid;
#X obj 359 312 inlet high;
#X obj 202 379 *~;
#X obj 77 379 *~;
#X obj 344 379 *~;
#X obj 92 354 line~;
#X msg 92 331 \$1 50;
#X obj 217 357 line~;
#X msg 217 335 \$1 50;
#X obj 359 356 line~;
#X msg 359 334 \$1 50;
#X connect 0 0 1 0;
#X connect 0 0 5 0;
#X connect 0 0 9 0;
#X connect 1 0 3 0;
#X connect 3 0 4 0;
#X connect 4 0 17 0;
#X connect 5 0 7 0;
#X connect 7 0 8 0;
#X connect 8 0 16 0;
#X connect 9 0 11 0;
#X connect 11 0 18 0;
#X connect 13 0 20 0;
#X connect 14 0 22 0;
#X connect 15 0 24 0;
#X connect 16 0 12 0;
#X connect 17 0 12 0;
#X connect 18 0 12 0;
#X connect 19 0 17 1;
#X connect 20 0 19 0;
#X connect 21 0 16 1;
#X connect 22 0 21 0;
#X connect 23 0 18 1;
#X connect 24 0 23 0;
#X restore 128 274 pd eq3;
#X obj 220 104 inlet;
#X obj 233 132 inlet;
#X obj 255 157 inlet;
#X connect 1 0 2 0;
#X connect 2 0 0 0;
#X connect 3 0 2 1;
#X connect 4 0 2 2;
#X connect 5 0 2 3;
#X restore 309 250 pd 3eq;
#X obj 412 53 inlet~;
#X obj 412 361 outlet~;
#X obj 460 301 *~;
#X obj 412 334 +~;
#X obj 412 304 *~;
#N canvas 207 22 838 538 3eq 0;
#X obj 69 397 outlet~;
#X obj 63 174 inlet~;
#N canvas 0 25 1272 692 eq3 0;
#X obj 76 35 inlet~;
#X obj 76 90 biquad~ 1.86972 -0.872325 0.000650245 0.00130049 0.000650245
;
#X text 195 69 lo x3;
#X obj 76 110 biquad~ 1.86972 -0.872325 0.000650245 0.00130049 0.000650245
;
#X obj 76 130 biquad~ 1.86972 -0.872325 0.000650245 0.00130049 0.000650245
;
#X obj 204 182 biquad~ 1.36591 -0.385279 0.307361 0 -0.307361;
#X text 339 162 mid x3;
#X obj 204 202 biquad~ 1.36591 -0.385279 0.307361 0 -0.307361;
#X obj 204 222 biquad~ 1.36591 -0.385279 0.307361 0 -0.307361;
#X obj 343 263 biquad~ 1.63386 -0.729864 0.840931 -1.68186 0.840931
;
#X text 483 241 hi x2;
#X obj 343 283 biquad~ 1.63386 -0.729864 0.840931 -1.68186 0.840931
;
#X obj 129 482 outlet~;
#X obj 92 308 inlet lo;
#X obj 217 312 inlet mid;
#X obj 359 312 inlet high;
#X obj 202 379 *~;
#X obj 77 379 *~;
#X obj 344 379 *~;
#X obj 92 354 line~;
#X msg 92 331 \$1 50;
#X obj 217 357 line~;
#X msg 217 335 \$1 50;
#X obj 359 356 line~;
#X msg 359 334 \$1 50;
#X connect 0 0 1 0;
#X connect 0 0 5 0;
#X connect 0 0 9 0;
#X connect 1 0 3 0;
#X connect 3 0 4 0;
#X connect 4 0 17 0;
#X connect 5 0 7 0;
#X connect 7 0 8 0;
#X connect 8 0 16 0;
#X connect 9 0 11 0;
#X connect 11 0 18 0;
#X connect 13 0 20 0;
#X connect 14 0 22 0;
#X connect 15 0 24 0;
#X connect 16 0 12 0;
#X connect 17 0 12 0;
#X connect 18 0 12 0;
#X connect 19 0 17 1;
#X connect 20 0 19 0;
#X connect 21 0 16 1;
#X connect 22 0 21 0;
#X connect 23 0 18 1;
#X connect 24 0 23 0;
#X restore 128 274 pd eq3;
#X obj 220 104 inlet;
#X obj 233 132 inlet;
#X obj 255 157 inlet;
#X connect 1 0 2 0;
#X connect 2 0 0 0;
#X connect 3 0 2 1;
#X connect 4 0 2 2;
#X connect 5 0 2 3;
#X restore 412 248 pd 3eq;
#X obj 532 31 unpack f f f f;
#X connect 1 0 17 3;
#X connect 1 0 23 3;
#X connect 2 0 17 2;
#X connect 2 0 23 2;
#X connect 3 0 17 1;
#X connect 3 0 23 1;
#X connect 4 0 13 0;
#X connect 4 0 17 0;
#X connect 5 0 15 1;
#X connect 5 0 22 1;
#X connect 6 0 5 0;
#X connect 7 0 8 0;
#X connect 8 0 9 0;
#X connect 9 0 13 1;
#X connect 9 0 20 1;
#X connect 10 0 24 0;
#X connect 11 0 24 0;
#X connect 13 0 14 1;
#X connect 14 0 12 0;
#X connect 15 0 14 0;
#X connect 16 0 6 0;
#X connect 16 0 7 0;
#X connect 17 0 15 0;
#X connect 18 0 20 0;
#X connect 18 0 23 0;
#X connect 20 0 21 1;
#X connect 21 0 19 0;
#X connect 22 0 21 0;
#X connect 23 0 22 0;
#X connect 24 0 1 0;
#X connect 24 1 2 0;
#X connect 24 2 3 0;
#X connect 24 3 16 0;
#X coords 0 -1 1 1 109 90 1 100 100;
