#N canvas 0 22 710 397 10;
#X obj 360 59 inlet~;
#X obj 516 164 line~;
#X obj 100 100 cnv 15 109 15 empty empty flanger 2 9 0 8 -258401 -262144
0;
#X obj 105 118 hsl 100 15 0 1 0 0 empty empty fb 5 7 0 8 -262144 -1
-1 0 1;
#X obj 105 136 hsl 100 15 0 1 0 0 empty empty width 5 7 0 8 -262144
-1 -1 0 1;
#X obj 105 154 hsl 100 15 0 1 0 0 empty empty freq 5 7 0 8 -262144
-1 -1 0 1;
#X obj 105 172 hsl 100 15 0 1 0 0 empty empty drywet 5 7 0 8 -262144
-1 -1 0 1;
#N canvas 0 25 533 508 flanger 0;
#X obj -150 118 inlet~;
#X obj -36 262 *~;
#X obj 156 67 * 10;
#X obj -5 158 phasor~;
#X obj -36 208 cos~;
#X obj -36 240 +~ 1;
#N canvas 225 415 473 213 feedback 0;
#X obj 92 18 inlet~;
#X obj 19 142 outlet~;
#X obj 58 88 *~;
#X obj 18 22 inlet~;
#X obj 300 147 block~ 4 1 1;
#X obj 374 28 inlet~;
#X obj 18 49 vd~ \$0-flanger;
#X obj 58 112 delwrite~ \$0-flanger 1000;
#X connect 0 0 7 0;
#X connect 2 0 7 0;
#X connect 3 0 6 0;
#X connect 5 0 2 1;
#X connect 6 0 2 0;
#X connect 6 0 1 0;
#X restore -18 330 pd feedback;
#X obj -35 286 +~ 0.12;
#X obj -62 379 outlet~;
#X msg 253 221 \$1 20;
#X obj 255 244 line~;
#X obj 253 179 * 0.9;
#X obj 254 199 + 0.05;
#X obj -9 101 expr pow($f1 \, 2);
#X obj -7 129 + 0.1;
#X obj 152 127 line~;
#X msg 150 98 \$1 5;
#X obj 52 0 inlet;
#X obj 167 39 inlet;
#X obj 249 146 inlet;
#X connect 0 0 6 1;
#X connect 1 0 7 0;
#X connect 2 0 16 0;
#X connect 3 0 4 0;
#X connect 4 0 5 0;
#X connect 5 0 1 0;
#X connect 6 0 8 0;
#X connect 7 0 6 0;
#X connect 9 0 10 0;
#X connect 10 0 6 2;
#X connect 11 0 12 0;
#X connect 12 0 9 0;
#X connect 13 0 14 0;
#X connect 14 0 3 0;
#X connect 15 0 1 1;
#X connect 16 0 15 0;
#X connect 17 0 13 0;
#X connect 18 0 2 0;
#X connect 19 0 11 0;
#X restore 312 211 pd flanger;
#X msg 516 135 \$1 50;
#X obj 360 258 *~;
#X obj 570 113 expr (1-$f1);
#X msg 570 135 \$1 50;
#X obj 570 163 line~;
#X obj 312 291 +~;
#X obj 312 261 *~;
#X obj 312 345 outlet~;
#X obj 16 13 r \$2-p.\$1.\$3.r;
#X obj 16 36 unpack f f f f;
#X obj 536 19 inlet;
#X obj 456 62 inlet~;
#N canvas 0 25 533 508 flanger 0;
#X obj -150 118 inlet~;
#X obj -36 262 *~;
#X obj 156 67 * 10;
#X obj -5 158 phasor~;
#X obj -36 208 cos~;
#X obj -36 240 +~ 1;
#N canvas 225 415 473 213 feedback 0;
#X obj 92 18 inlet~;
#X obj 19 142 outlet~;
#X obj 58 88 *~;
#X obj 18 22 inlet~;
#X obj 300 147 block~ 4 1 1;
#X obj 374 28 inlet~;
#X obj 18 49 vd~ \$0-flanger1;
#X obj 58 112 delwrite~ \$0-flanger1 1000;
#X connect 0 0 7 0;
#X connect 2 0 7 0;
#X connect 3 0 6 0;
#X connect 5 0 2 1;
#X connect 6 0 2 0;
#X connect 6 0 1 0;
#X restore -18 330 pd feedback;
#X obj -35 286 +~ 0.12;
#X obj -62 379 outlet~;
#X msg 253 221 \$1 20;
#X obj 255 244 line~;
#X obj 253 179 * 0.9;
#X obj 254 199 + 0.05;
#X obj -9 101 expr pow($f1 \, 2);
#X obj -7 129 + 0.1;
#X obj 152 127 line~;
#X msg 150 98 \$1 5;
#X obj 52 0 inlet;
#X obj 167 39 inlet;
#X obj 249 146 inlet;
#X connect 0 0 6 1;
#X connect 1 0 7 0;
#X connect 2 0 16 0;
#X connect 3 0 4 0;
#X connect 4 0 5 0;
#X connect 5 0 1 0;
#X connect 6 0 8 0;
#X connect 7 0 6 0;
#X connect 9 0 10 0;
#X connect 10 0 6 2;
#X connect 11 0 12 0;
#X connect 12 0 9 0;
#X connect 13 0 14 0;
#X connect 14 0 3 0;
#X connect 15 0 1 1;
#X connect 16 0 15 0;
#X connect 17 0 13 0;
#X connect 18 0 2 0;
#X connect 19 0 11 0;
#X restore 408 214 pd flanger;
#X obj 456 261 *~;
#X obj 408 294 +~;
#X obj 408 264 *~;
#X obj 408 348 outlet~;
#X connect 0 0 7 0;
#X connect 0 0 9 0;
#X connect 1 0 14 1;
#X connect 1 0 23 1;
#X connect 3 0 7 3;
#X connect 3 0 20 3;
#X connect 4 0 7 2;
#X connect 4 0 20 2;
#X connect 5 0 7 1;
#X connect 5 0 20 1;
#X connect 6 0 8 0;
#X connect 6 0 10 0;
#X connect 7 0 14 0;
#X connect 8 0 1 0;
#X connect 9 0 13 1;
#X connect 10 0 11 0;
#X connect 11 0 12 0;
#X connect 12 0 9 1;
#X connect 12 0 21 1;
#X connect 13 0 15 0;
#X connect 14 0 13 0;
#X connect 16 0 17 0;
#X connect 17 0 3 0;
#X connect 17 1 4 0;
#X connect 17 2 5 0;
#X connect 17 3 6 0;
#X connect 18 0 17 0;
#X connect 19 0 20 0;
#X connect 19 0 21 0;
#X connect 20 0 23 0;
#X connect 21 0 22 1;
#X connect 22 0 24 0;
#X connect 23 0 22 0;
#X coords 0 -1 1 1 109 90 1 100 100;
