#N canvas 64 287 515 387 10;
#N canvas 647 95 483 477 input~ 0;
#X obj 201 132 tgl 15 0 empty empty play/pause 17 7 0 10 -262144 -1
-1 0 1;
#X obj 218 238 openpanel;
#X obj 156 133 bng 15 250 50 0 empty empty open 17 7 0 10 -262144 -1
-1;
#X msg 221 270 open \$1;
#X obj 222 297 readsf~ 2;
#X obj 115 284 vline~;
#X obj 160 285 noise~;
#X obj 117 311 *~;
#X msg 109 261 1 0 \, 0 10;
#X obj 107 115 vradio 20 1 0 3 empty empty empty 0 -8 0 10 -262144
-1 -1 1;
#X text 129 114 no sound;
#X text 129 135 sf;
#X text 129 155 pulse;
#X obj 110 237 metro 500;
#X obj 117 336 *~;
#X obj 118 383 outlet~;
#X obj 211 354 *~;
#X obj 326 335 == 1;
#X obj 27 324 == 2;
#X obj 250 358 *~;
#X obj 190 389 outlet~;
#X obj 318 298 0;
#X connect 0 0 4 0;
#X connect 1 0 3 0;
#X connect 2 0 1 0;
#X connect 3 0 4 0;
#X connect 4 0 16 0;
#X connect 4 1 19 0;
#X connect 4 2 21 0;
#X connect 5 0 7 0;
#X connect 6 0 7 1;
#X connect 7 0 14 0;
#X connect 8 0 5 0;
#X connect 9 0 18 0;
#X connect 9 0 17 0;
#X connect 13 0 8 0;
#X connect 14 0 15 0;
#X connect 14 0 20 0;
#X connect 16 0 15 0;
#X connect 17 0 16 1;
#X connect 17 0 19 1;
#X connect 18 0 14 1;
#X connect 18 0 13 0;
#X connect 19 0 20 0;
#X connect 21 0 0 0;
#X coords 0 -1 1 1 180 80 1 100 100;
#X restore 9 61 pd input~;
#X obj -7 -44 cnv 15 500 60 empty empty freeze~ 20 12 0 14 -233017
-66577 0;
#X text 347 -4 2013 Gilberto Bernardes;
#X obj 9 266 dac~;
#X text 11 -3 time-freezing based on the Paulstretch VST plugin;
#X obj 9 157 Freeze~;
#N canvas 345 22 775 500 timestretch~ 0;
#X obj 16 539 hip~ 5;
#X floatatom 18 57 4 0 100 0 - - -;
#X obj 17 486 *~;
#X floatatom 17 133 0 0 200 0 - - -;
#X obj 17 388 +~;
#X obj 16 340 samphold~;
#X obj 17 364 *~;
#X obj 182 395 r~ phase;
#X obj 367 220 s~ phase;
#X obj 104 341 r~ phase;
#X obj 52 365 r~ phase;
#X obj 18 100 s chunk-size;
#X floatatom 367 52 0 0 0 0 - - -;
#X text 134 92 chunk size;
#X text 131 106 in seconds;
#X obj 379 89 r chunk-size;
#X obj 379 114 t b f;
#X obj 182 419 -~ 0.5;
#X obj 182 443 *~ 0.5;
#X obj 182 466 cos~;
#X obj 367 194 phasor~;
#N canvas 30 567 660 275 table 0;
#N canvas 0 22 450 300 (subpatch) 0;
#X array table23 6.90739e+06 float 0;
#X coords 0 1.02 6.90739e+06 -1.02 200 130 1;
#X restore 442 61 graph;
#X text 444 195 --- 44103 samples ---;
#X obj 41 202 soundfiler;
#X text 134 155 v-- re-read original table;
#X obj 41 224 / 44.1;
#X obj 41 246 s \$0-length;
#X obj 41 148 openpanel;
#X obj 41 120 bng 15 250 50 0 empty empty empty 17 7 0 10 -262144 -1
-1;
#X msg 41 175 read -resize \$1 table23;
#X connect 2 0 4 0;
#X connect 4 0 5 0;
#X connect 6 0 8 0;
#X connect 7 0 6 0;
#X connect 8 0 2 0;
#X restore 568 470 pd table;
#X obj 17 273 s~ read-pt;
#X obj 55 388 r~ read-pt;
#X obj 454 213 +~ 0.5;
#X obj 455 239 wrap~;
#X obj 455 264 s~ phase2;
#X obj 16 515 +~;
#X text 401 53 <-- transposition \, halftones/10;
#X obj 18 77 * 0.001;
#X obj 17 225 phasor~;
#X obj 17 412 *~ 44100;
#X obj 17 462 tabread4~ table23;
#X obj 16 315 r chunk-size;
#X obj 16 438 +~ 1;
#X floatatom 375 171 5 0 0 0 - - -;
#X obj 25 179 s precession;
#X obj 492 113 t b f;
#X obj 492 88 r precession;
#X obj 17 156 * 0.01;
#X obj 268 495 *~;
#X obj 268 397 +~;
#X obj 267 349 samphold~;
#X obj 268 373 *~;
#X obj 433 428 -~ 0.5;
#X obj 433 452 *~ 0.5;
#X obj 433 475 cos~;
#X obj 306 397 r~ read-pt;
#X obj 268 421 *~ 44100;
#X obj 268 471 tabread4~ table23;
#X obj 267 324 r chunk-size;
#X obj 267 447 +~ 1;
#X obj 355 350 r~ phase2;
#X obj 303 374 r~ phase2;
#X obj 433 404 r~ phase2;
#X text 47 133 <-- precession \, percent;
#X obj 18 13 loadbang;
#X text 168 13 TIME COMPRESSION/EXPANSION BY LOOPED SAMPLING;
#X msg 18 35 25;
#X floatatom 149 202 4 0 900 0 - - -;
#X obj 149 222 * 0.001;
#X text 58 57 <-- chunk size (msec);
#X obj 367 146 expr (pow(2 \, $f1/120)-$f3)/$f2;
#X obj 149 247 t b f;
#X text 192 198 <-- loop length;
#X text 233 213 (msec);
#X obj 17 249 *~;
#X obj 17 201 /;
#X obj 16 570 outlet~;
#X obj 149 178 r \$0-length;
#X connect 0 0 68 0;
#X connect 1 0 29 0;
#X connect 2 0 27 0;
#X connect 3 0 39 0;
#X connect 4 0 31 0;
#X connect 5 0 6 0;
#X connect 6 0 4 0;
#X connect 7 0 17 0;
#X connect 9 0 5 1;
#X connect 10 0 6 1;
#X connect 12 0 62 0;
#X connect 15 0 16 0;
#X connect 16 0 62 0;
#X connect 16 1 62 1;
#X connect 17 0 18 0;
#X connect 18 0 19 0;
#X connect 19 0 2 1;
#X connect 20 0 8 0;
#X connect 20 0 24 0;
#X connect 23 0 4 1;
#X connect 24 0 25 0;
#X connect 25 0 26 0;
#X connect 27 0 0 0;
#X connect 29 0 11 0;
#X connect 30 0 66 0;
#X connect 31 0 34 0;
#X connect 32 0 2 0;
#X connect 33 0 5 0;
#X connect 34 0 32 0;
#X connect 37 0 62 0;
#X connect 37 1 62 2;
#X connect 38 0 37 0;
#X connect 39 0 36 0;
#X connect 39 0 67 0;
#X connect 40 0 27 1;
#X connect 41 0 48 0;
#X connect 42 0 43 0;
#X connect 43 0 41 0;
#X connect 44 0 45 0;
#X connect 45 0 46 0;
#X connect 46 0 40 1;
#X connect 47 0 41 1;
#X connect 48 0 51 0;
#X connect 49 0 40 0;
#X connect 50 0 42 0;
#X connect 51 0 49 0;
#X connect 52 0 42 1;
#X connect 53 0 43 1;
#X connect 54 0 44 0;
#X connect 56 0 58 0;
#X connect 58 0 1 0;
#X connect 59 0 60 0;
#X connect 60 0 63 0;
#X connect 60 0 66 1;
#X connect 62 0 20 0;
#X connect 62 0 35 0;
#X connect 63 0 67 0;
#X connect 63 1 67 1;
#X connect 66 0 22 0;
#X connect 67 0 30 0;
#X connect 69 0 59 0;
#X restore 242 71 pd timestretch~;
#X connect 0 0 5 0;
#X connect 0 1 5 1;
#X connect 5 0 3 0;
#X connect 5 1 3 1;
#X connect 6 0 5 0;
#X connect 6 0 5 1;
#X coords 0 0 1 1 109 90 0;
