#N canvas 806 22 684 430 10;
#N canvas 310 22 802 743 platverb~ 0;
#X obj 10 20 inlet~;
#X obj 60 19 inlet;
#X obj 59 40 clip 0 200;
#X text 8 0 in;
#X text 57 0 predelay;
#X obj 136 18 inlet;
#X obj 137 39 clip 0 1;
#X obj 10 156 rpole~;
#X text 131 -1 bandwidth;
#X msg 82 179 0.75;
#X obj 65 155 loadbang;
#X msg 82 243 0.75;
#X obj 64 221 loadbang;
#X obj 64 284 loadbang;
#X msg 82 306 0.625;
#X obj 65 347 loadbang;
#X msg 83 369 0.625;
#X obj 366 714 outlet~;
#X obj 407 178 loadbang;
#X obj 11 118 *~;
#X obj 168 66 - 1;
#X obj 168 89 * -1;
#X obj 354 347 rpole~;
#X obj 355 323 *~;
#X obj 210 16 inlet;
#X obj 211 37 clip 0 1;
#X obj 211 63 - 1;
#X obj 211 86 * -1;
#X text 210 -2 damping;
#X obj 432 349 loadbang;
#X msg 451 375 64.2;
#X obj 598 184 loadbang;
#X obj 533 344 rpole~;
#X obj 534 320 *~;
#X obj 614 348 loadbang;
#X obj 533 158 *~;
#X obj 370 161 *~;
#X obj 521 213 +~;
#X obj 349 214 +~;
#X obj 316 15 inlet;
#X obj 317 36 clip 0 1;
#X text 314 -3 gain;
#X msg 602 214 0.7;
#X obj 272 540 +~;
#X obj 282 563 -~;
#X obj 295 589 +~;
#X obj 309 614 -~;
#X msg 630 372 6.3;
#X obj 326 640 -~;
#X obj 337 667 -~;
#X obj 581 708 outlet~;
#X obj 492 532 +~;
#X obj 502 555 -~;
#X obj 515 581 +~;
#X obj 529 606 -~;
#X obj 546 632 -~;
#X obj 557 659 -~;
#X msg 662 370 41.2;
#X msg 488 374 11.2;
#X msg 423 217 0.7;
#X msg 45 369 9.307;
#X msg 44 306 12.73;
#X msg 44 243 3.595;
#X msg 44 179 4.771;
#X msg 564 214 22.58;
#X msg 469 217 0.1;
#X msg 385 217 30.51;
#X msg 559 372 60.48;
#X msg 380 375 89.24;
#X msg 418 376 0.5;
#X msg 597 372 0.5;
#X msg 648 214 0.07;
#X obj 8 42 *~ 0.5;
#X obj 518 421 *~;
#X obj 332 420 *~;
#X obj 545 186 atan~;
#N canvas 272 212 450 300 allpass100ms 0;
#X text 50 228 0 - 100 mSec allpass;
#X obj 47 39 inlet~;
#X obj 49 155 +~;
#X obj 69 124 *~;
#X obj 101 40 inlet;
#X obj 144 41 inlet;
#X text 47 20 sound;
#X text 105 19 time;
#X text 148 19 gain;
#X obj 152 65 * -1;
#X obj 148 125 *~;
#X obj 132 154 +~;
#X obj 201 209 outlet~;
#X obj 74 89 vd~ \$0-short1;
#X obj 42 209 delwrite~ \$0-short1 100;
#X connect 1 0 2 0;
#X connect 2 0 10 0;
#X connect 2 0 14 0;
#X connect 3 0 2 1;
#X connect 4 0 13 0;
#X connect 5 0 3 1;
#X connect 5 0 9 0;
#X connect 9 0 10 1;
#X connect 10 0 11 1;
#X connect 11 0 12 0;
#X connect 13 0 3 0;
#X connect 13 0 11 0;
#X restore 10 200 pd allpass100ms;
#N canvas 270 259 450 300 allpass100ms 0;
#X text 60 238 0 - 100 mSec allpass;
#X obj 57 49 inlet~;
#X obj 59 165 +~;
#X obj 79 134 *~;
#X obj 111 50 inlet;
#X obj 154 51 inlet;
#X text 57 30 sound;
#X text 115 29 time;
#X text 158 29 gain;
#X obj 162 75 * -1;
#X obj 158 135 *~;
#X obj 142 164 +~;
#X obj 211 219 outlet~;
#X obj 84 99 vd~ \$0-short2;
#X obj 52 219 delwrite~ \$0-short2 100;
#X connect 1 0 2 0;
#X connect 2 0 10 0;
#X connect 2 0 14 0;
#X connect 3 0 2 1;
#X connect 4 0 13 0;
#X connect 5 0 3 1;
#X connect 5 0 9 0;
#X connect 9 0 10 1;
#X connect 10 0 11 1;
#X connect 11 0 12 0;
#X connect 13 0 3 0;
#X connect 13 0 11 0;
#X restore 10 264 pd allpass100ms;
#N canvas 297 289 450 300 allpass100ms 0;
#X text 70 248 0 - 100 mSec allpass;
#X obj 67 59 inlet~;
#X obj 69 175 +~;
#X obj 89 144 *~;
#X obj 121 60 inlet;
#X obj 164 61 inlet;
#X text 67 40 sound;
#X text 125 39 time;
#X text 168 39 gain;
#X obj 172 85 * -1;
#X obj 168 145 *~;
#X obj 152 174 +~;
#X obj 221 229 outlet~;
#X obj 94 109 vd~ \$0-short3;
#X obj 62 229 delwrite~ \$0-short3 100;
#X connect 1 0 2 0;
#X connect 2 0 10 0;
#X connect 2 0 14 0;
#X connect 3 0 2 1;
#X connect 4 0 13 0;
#X connect 5 0 3 1;
#X connect 5 0 9 0;
#X connect 9 0 10 1;
#X connect 10 0 11 1;
#X connect 11 0 12 0;
#X connect 13 0 3 0;
#X connect 13 0 11 0;
#X restore 10 327 pd allpass100ms;
#N canvas 279 381 450 300 allpass100ms 0;
#X text 80 258 0 - 100 mSec allpass;
#X obj 77 69 inlet~;
#X obj 79 185 +~;
#X obj 99 154 *~;
#X obj 131 70 inlet;
#X obj 174 71 inlet;
#X text 77 50 sound;
#X text 135 49 time;
#X text 178 49 gain;
#X obj 182 95 * -1;
#X obj 178 155 *~;
#X obj 162 184 +~;
#X obj 231 239 outlet~;
#X obj 104 119 vd~ \$0-short4;
#X obj 72 239 delwrite~ \$0-short4 100;
#X connect 1 0 2 0;
#X connect 2 0 10 0;
#X connect 2 0 14 0;
#X connect 3 0 2 1;
#X connect 4 0 13 0;
#X connect 5 0 3 1;
#X connect 5 0 9 0;
#X connect 9 0 10 1;
#X connect 10 0 11 1;
#X connect 11 0 12 0;
#X connect 13 0 3 0;
#X connect 13 0 11 0;
#X restore 11 390 pd allpass100ms;
#N canvas 438 401 525 311 allpass100ms2tap 0;
#X text 50 228 0 - 100 mSec allpass;
#X obj 47 39 inlet~;
#X obj 49 155 +~;
#X obj 69 124 *~;
#X obj 101 40 inlet;
#X obj 144 41 inlet;
#X text 47 20 sound;
#X text 105 19 time;
#X text 148 19 gain;
#X obj 152 65 * -1;
#X obj 148 125 *~;
#X obj 132 154 +~;
#X obj 202 199 outlet~;
#X obj 261 201 outlet~;
#X obj 242 42 inlet;
#X text 241 24 time;
#X obj 377 201 outlet~;
#X obj 358 42 inlet;
#X text 357 24 time;
#X obj 74 89 delread~ \$0-short11;
#X obj 50 200 delwrite~ \$0-short11 100;
#X obj 249 81 delread~ \$0-short11;
#X obj 375 81 delread~ \$0-short11;
#X connect 1 0 2 0;
#X connect 2 0 10 0;
#X connect 2 0 20 0;
#X connect 3 0 2 1;
#X connect 4 0 19 0;
#X connect 5 0 3 1;
#X connect 5 0 9 0;
#X connect 9 0 10 1;
#X connect 10 0 11 1;
#X connect 11 0 12 0;
#X connect 14 0 21 0;
#X connect 17 0 22 0;
#X connect 19 0 3 0;
#X connect 19 0 11 0;
#X connect 21 0 13 0;
#X connect 22 0 16 0;
#X restore 355 397 pd allpass100ms2tap;
#N canvas 785 482 450 300 allpass100ms2tap 0;
#X text 60 238 0 - 100 mSec allpass;
#X obj 57 49 inlet~;
#X obj 59 165 +~;
#X obj 79 134 *~;
#X obj 111 50 inlet;
#X obj 154 51 inlet;
#X text 57 30 sound;
#X text 115 29 time;
#X text 158 29 gain;
#X obj 162 75 * -1;
#X obj 158 135 *~;
#X obj 142 164 +~;
#X obj 212 209 outlet~;
#X obj 271 211 outlet~;
#X obj 252 52 inlet;
#X text 251 34 time;
#X obj 387 211 outlet~;
#X obj 368 52 inlet;
#X text 367 34 time;
#X obj 84 99 delread~ \$0-short22;
#X obj 60 210 delwrite~ \$0-short22 100;
#X obj 259 91 delread~ \$0-short22;
#X obj 375 91 delread~ \$0-short22;
#X connect 1 0 2 0;
#X connect 2 0 10 0;
#X connect 2 0 20 0;
#X connect 3 0 2 1;
#X connect 4 0 19 0;
#X connect 5 0 3 1;
#X connect 5 0 9 0;
#X connect 9 0 10 1;
#X connect 10 0 11 1;
#X connect 11 0 12 0;
#X connect 14 0 21 0;
#X connect 17 0 22 0;
#X connect 19 0 3 0;
#X connect 19 0 11 0;
#X connect 21 0 13 0;
#X connect 22 0 16 0;
#X restore 534 394 pd allpass100ms2tap;
#N canvas 321 266 450 300 modallpass100ms 0;
#X text 53 269 0 - 100 mSec allpass;
#X obj 47 39 inlet~;
#X obj 52 213 +~;
#X obj 72 182 *~;
#X obj 101 40 inlet;
#X obj 144 41 inlet;
#X text 47 20 sound;
#X text 105 19 time;
#X text 148 19 gain;
#X obj 152 65 * -1;
#X obj 151 183 *~;
#X obj 135 212 +~;
#X obj 210 262 outlet~;
#X obj 192 40 inlet;
#X obj 195 66 osc~;
#X obj 80 123 +~;
#X text 189 19 freq;
#X obj 195 87 *~ 0.2;
#X obj 281 32 inlet;
#X obj 239 58 * 2;
#X obj 77 147 vd~ \$0-short111;
#X obj 53 241 delwrite~ \$0-short111 100;
#X connect 1 0 2 0;
#X connect 2 0 10 0;
#X connect 2 0 21 0;
#X connect 3 0 2 1;
#X connect 4 0 15 0;
#X connect 5 0 3 1;
#X connect 5 0 9 0;
#X connect 9 0 10 1;
#X connect 10 0 11 1;
#X connect 11 0 12 0;
#X connect 13 0 14 0;
#X connect 14 0 17 0;
#X connect 15 0 20 0;
#X connect 17 0 15 1;
#X connect 18 0 19 0;
#X connect 19 0 17 1;
#X connect 20 0 3 0;
#X connect 20 0 11 0;
#X restore 357 248 pd modallpass100ms;
#N canvas 698 250 450 300 modallpass100ms 0;
#X text 63 279 0 - 100 mSec allpass;
#X obj 57 49 inlet~;
#X obj 62 223 +~;
#X obj 82 192 *~;
#X obj 111 50 inlet;
#X obj 154 51 inlet;
#X text 57 30 sound;
#X text 115 29 time;
#X text 158 29 gain;
#X obj 162 75 * -1;
#X obj 161 193 *~;
#X obj 145 222 +~;
#X obj 220 272 outlet~;
#X obj 202 50 inlet;
#X obj 205 76 osc~;
#X obj 90 133 +~;
#X text 199 29 freq;
#X obj 205 97 *~ 0.2;
#X obj 291 42 inlet;
#X obj 249 68 * 2;
#X obj 87 157 vd~ \$0-short222;
#X obj 63 251 delwrite~ \$0-short222 100;
#X connect 1 0 2 0;
#X connect 2 0 10 0;
#X connect 2 0 21 0;
#X connect 3 0 2 1;
#X connect 4 0 15 0;
#X connect 5 0 3 1;
#X connect 5 0 9 0;
#X connect 9 0 10 1;
#X connect 10 0 11 1;
#X connect 11 0 12 0;
#X connect 13 0 14 0;
#X connect 14 0 17 0;
#X connect 15 0 20 0;
#X connect 17 0 15 1;
#X connect 18 0 19 0;
#X connect 19 0 17 1;
#X connect 20 0 3 0;
#X connect 20 0 11 0;
#X restore 536 245 pd modallpass100ms;
#X obj 353 690 *~ 0.125;
#X obj 562 682 *~ 0.125;
#X obj 271 495 delread~ \$0-dela 8.9;
#X obj 286 516 delread~ \$0-dela 99.8;
#X obj 310 564 delread~ \$0-delc 67;
#X obj 324 589 delread~ \$0-deld 66.8;
#X obj 355 642 delread~ \$0-delf 35.8;
#X obj 491 487 delread~ \$0-deld 11.8;
#X obj 506 508 delread~ \$0-deld 121.7;
#X obj 530 556 delread~ \$0-delf 89.7;
#X obj 544 581 delread~ \$0-dela 70.8;
#X obj 575 634 delread~ \$0-delc 4.1;
#X obj 11 64 delwrite~ \$0-predelay 200;
#X obj 11 89 delread~ \$0-predelay;
#X obj 383 119 delread~ \$0-delf 125;
#X obj 544 122 delread~ \$0-delc 106.28;
#X obj 534 274 delwrite~ \$0-deld 200;
#X obj 536 294 delread~ \$0-deld 149.62;
#X obj 355 277 delwrite~ \$0-dela 200;
#X obj 357 297 delread~ \$0-dela 141.69;
#X obj 325 444 delwrite~ \$0-delc 200;
#X obj 535 452 delwrite~ \$0-delf 200;
#X connect 0 0 72 0;
#X connect 1 0 2 0;
#X connect 2 0 97 0;
#X connect 5 0 6 0;
#X connect 6 0 19 1;
#X connect 6 0 20 0;
#X connect 7 0 76 0;
#X connect 9 0 76 2;
#X connect 10 0 9 0;
#X connect 10 0 63 0;
#X connect 11 0 77 2;
#X connect 12 0 11 0;
#X connect 12 0 62 0;
#X connect 13 0 14 0;
#X connect 13 0 61 0;
#X connect 14 0 78 2;
#X connect 15 0 16 0;
#X connect 15 0 60 0;
#X connect 16 0 79 2;
#X connect 18 0 59 0;
#X connect 18 0 66 0;
#X connect 18 0 65 0;
#X connect 19 0 7 0;
#X connect 20 0 21 0;
#X connect 21 0 7 1;
#X connect 22 0 80 0;
#X connect 23 0 22 0;
#X connect 24 0 25 0;
#X connect 25 0 26 0;
#X connect 25 0 22 1;
#X connect 25 0 32 1;
#X connect 26 0 27 0;
#X connect 27 0 23 1;
#X connect 27 0 33 1;
#X connect 29 0 69 0;
#X connect 29 0 68 0;
#X connect 29 0 30 0;
#X connect 29 0 58 0;
#X connect 30 0 80 3;
#X connect 31 0 42 0;
#X connect 31 0 64 0;
#X connect 31 0 71 0;
#X connect 32 0 81 0;
#X connect 33 0 32 0;
#X connect 34 0 70 0;
#X connect 34 0 67 0;
#X connect 34 0 47 0;
#X connect 34 0 57 0;
#X connect 35 0 75 0;
#X connect 36 0 38 1;
#X connect 37 0 83 0;
#X connect 38 0 82 0;
#X connect 39 0 40 0;
#X connect 40 0 35 0;
#X connect 40 0 36 0;
#X connect 40 0 73 0;
#X connect 40 0 74 0;
#X connect 42 0 83 2;
#X connect 43 0 44 0;
#X connect 44 0 45 0;
#X connect 45 0 46 0;
#X connect 46 0 48 0;
#X connect 47 0 81 3;
#X connect 48 0 49 0;
#X connect 49 0 84 0;
#X connect 51 0 52 0;
#X connect 52 0 53 0;
#X connect 53 0 54 0;
#X connect 54 0 55 0;
#X connect 55 0 56 0;
#X connect 56 0 85 0;
#X connect 57 0 81 4;
#X connect 58 0 80 4;
#X connect 59 0 82 2;
#X connect 60 0 79 1;
#X connect 61 0 78 1;
#X connect 62 0 77 1;
#X connect 63 0 76 1;
#X connect 64 0 83 1;
#X connect 65 0 82 3;
#X connect 66 0 82 1;
#X connect 67 0 81 1;
#X connect 68 0 80 1;
#X connect 69 0 80 2;
#X connect 70 0 81 2;
#X connect 71 0 83 3;
#X connect 72 0 96 0;
#X connect 73 0 105 0;
#X connect 74 0 104 0;
#X connect 75 0 37 1;
#X connect 76 0 77 0;
#X connect 77 0 78 0;
#X connect 78 0 79 0;
#X connect 79 0 38 0;
#X connect 79 0 37 0;
#X connect 80 0 74 1;
#X connect 80 1 44 1;
#X connect 80 2 55 1;
#X connect 81 0 73 1;
#X connect 81 1 48 1;
#X connect 81 2 52 1;
#X connect 82 0 102 0;
#X connect 83 0 100 0;
#X connect 84 0 17 0;
#X connect 85 0 50 0;
#X connect 86 0 43 0;
#X connect 87 0 43 1;
#X connect 88 0 45 1;
#X connect 89 0 46 1;
#X connect 90 0 49 1;
#X connect 91 0 51 0;
#X connect 92 0 51 1;
#X connect 93 0 53 1;
#X connect 94 0 54 1;
#X connect 95 0 56 1;
#X connect 97 0 19 0;
#X connect 98 0 36 1;
#X connect 99 0 35 1;
#X connect 101 0 33 0;
#X connect 103 0 23 0;
#X restore 36 265 pd platverb~;
#X text 300 30 datorro plate reverb;
#X obj 100 100 cnv 15 109 15 empty empty plateReverb(m2s) 2 9 0 8 -258401
-262144 0;
#X obj 105 118 hsl 100 15 0 200 0 0 empty empty pre-delay 5 7 0 8 -262144
-1 -1 0 1;
#X obj 105 136 hsl 100 15 0 1 0 0 empty empty bandwidth 5 7 0 8 -262144
-1 -1 0 1;
#X obj 105 154 hsl 100 15 0 1 0 0 empty empty damping 5 7 0 8 -262144
-1 -1 0 1;
#X obj 105 172 hsl 100 15 0 1 0 0 empty empty drywet 5 7 0 8 -262144
-1 -1 9900 1;
#X obj 38 48 inlet~;
#X obj -3 383 outlet~;
#X obj 88 48 inlet~;
#X obj 193 383 outlet~;
#X obj 319 63 r \$2-p.\$1.\$3.r;
#X obj 446 70 inlet;
#X obj 319 87 unpack f f f f;
#X obj 34 348 *~;
#X obj 217 354 *~;
#X obj -3 349 *~;
#X obj 178 354 *~;
#X obj 183 249 - 1;
#X obj 182 270 * -1;
#X obj 94 321 line~;
#X obj 95 296 pack f 50;
#X obj 183 321 line~;
#X obj 184 296 pack f 50;
#X msg 312 167 0.83;
#X obj 383 142 b;
#X obj 307 139 loadbang;
#X connect 0 0 14 0;
#X connect 0 1 15 1;
#X connect 3 0 0 1;
#X connect 4 0 0 2;
#X connect 5 0 0 3;
#X connect 6 0 18 0;
#X connect 6 0 21 0;
#X connect 7 0 0 0;
#X connect 7 0 16 0;
#X connect 9 0 0 0;
#X connect 9 0 17 0;
#X connect 11 0 13 0;
#X connect 11 0 25 0;
#X connect 12 0 13 0;
#X connect 13 0 3 0;
#X connect 13 1 4 0;
#X connect 13 2 5 0;
#X connect 13 3 6 0;
#X connect 14 0 8 0;
#X connect 15 0 10 0;
#X connect 16 0 8 0;
#X connect 17 0 10 0;
#X connect 18 0 19 0;
#X connect 19 0 23 0;
#X connect 20 0 16 1;
#X connect 20 0 17 1;
#X connect 21 0 22 0;
#X connect 22 0 15 0;
#X connect 22 0 14 1;
#X connect 23 0 20 0;
#X connect 24 0 0 4;
#X connect 25 0 24 0;
#X connect 26 0 24 0;
#X coords 0 -1 1 1 109 90 1 100 100;
