#N canvas 657 246 753 467 10;
#X obj 353 16 inlet~;
#X obj 353 196 outlet~;
#X obj 100 101 cnv 15 109 15 empty empty simpleRev~(s2s) 2 9 0 8 -258401
-262144 0;
#X obj 105 119 hsl 100 15 0 1 0 0 empty empty roomsize 5 7 0 8 -262144
-1 -1 0 1;
#X obj 105 137 hsl 100 15 0 1 0 0 empty empty damping 5 7 0 8 -262144
-1 -1 0 1;
#X obj 105 155 hsl 100 15 0 1 0 0 empty empty wet 5 7 0 8 -262144 -1
-1 0 1;
#X obj 199 37 r \$2-p.\$1.\$3.r;
#X obj 631 44 inlet;
#X obj 404 16 inlet~;
#X obj 404 195 outlet~;
#X obj 353 121 freeverb~;
#X msg 252 100 roomsize \$1;
#X msg 252 123 damping \$1;
#X msg 252 149 wet \$1;
#X obj 105 173 hsl 100 15 0 1 0 0 empty empty dry 5 7 0 8 -262144 -1
-1 0 1;
#X obj 199 61 unpack f f f f;
#X msg 252 171 dry \$1;
#X connect 0 0 10 0;
#X connect 3 0 11 0;
#X connect 4 0 12 0;
#X connect 5 0 13 0;
#X connect 6 0 15 0;
#X connect 7 0 15 0;
#X connect 8 0 10 1;
#X connect 10 0 1 0;
#X connect 10 1 9 0;
#X connect 11 0 10 0;
#X connect 12 0 10 0;
#X connect 13 0 10 0;
#X connect 14 0 16 0;
#X connect 15 0 3 0;
#X connect 15 1 4 0;
#X connect 15 2 5 0;
#X connect 15 3 14 0;
#X connect 16 0 10 0;
#X coords 0 -1 1 1 109 90 1 100 100;
