#N canvas 0 50 699 497 12;
#X obj 65 133 hsl 64 12 0 1 0 1 empty empty vol 15 6 1 8 -262144 -1
-1 945 1;
#X obj 24 145 *~;
#X obj 179 52 hsl 64 12 0 1 0 1 empty empty spread 15 6 1 8 -262144
-1 -1 315 1;
#N canvas 143 170 222 478 blast 0;
#X obj 3 -21 noise~;
#X obj 4 211 *~;
#X obj 4 90 clip~ -1 1;
#X obj 4 46 hip~ 20;
#X obj 4 191 bp~ 6000 1;
#X obj 105 97 *~;
#X obj 4 171 cos~;
#X obj 76 -67 -;
#X obj 28 -62 * 7000;
#X obj 76 -94 swap 1;
#X obj 4 271 hip~ 20;
#X obj 4 251 hip~ 20;
#X obj 4 231 hip~ 20;
#X obj 4 151 *~;
#X obj 20 131 +~ 0.5;
#X obj 4 24 vcf~ 7000 2;
#X obj 40 0 line~;
#X obj 6 -145 inlet;
#X obj 6 -124 t b f f;
#X msg 28 -41 \$1 30;
#X obj 4 68 *~ 50;
#X obj 76 -22 + 1.5;
#X obj 76 -43 * 3.5;
#X obj 4 311 outlet~;
#X obj 4 291 *~ 0.3;
#X obj 105 71 vline~;
#X msg 105 48 1 \, 0 \$1;
#X obj 105 24 f;
#X obj 137 -142 inlet decay;
#X obj 137 -41 * 7000;
#X obj 121 2 *;
#X obj 28 -92 pow 2;
#X connect 0 0 15 0;
#X connect 1 0 12 0;
#X connect 2 0 13 0;
#X connect 3 0 20 0;
#X connect 4 0 1 0;
#X connect 5 0 1 1;
#X connect 5 0 14 0;
#X connect 6 0 4 0;
#X connect 7 0 22 0;
#X connect 7 0 30 0;
#X connect 8 0 19 0;
#X connect 9 0 7 0;
#X connect 9 1 7 1;
#X connect 10 0 24 0;
#X connect 11 0 10 0;
#X connect 12 0 11 0;
#X connect 13 0 6 0;
#X connect 14 0 13 1;
#X connect 15 0 3 0;
#X connect 16 0 15 1;
#X connect 17 0 18 0;
#X connect 18 0 27 0;
#X connect 18 1 31 0;
#X connect 18 2 9 0;
#X connect 19 0 16 0;
#X connect 20 0 2 0;
#X connect 21 0 15 2;
#X connect 22 0 21 0;
#X connect 24 0 23 0;
#X connect 25 0 5 0;
#X connect 25 0 5 1;
#X connect 26 0 25 0;
#X connect 27 0 26 0;
#X connect 28 0 29 0;
#X connect 29 0 30 1;
#X connect 30 0 27 1;
#X connect 31 0 8 0;
#X restore 24 101 pd blast;
#X obj 179 89 hsl 64 12 0 1 0 1 empty empty decay 15 6 1 8 -262144
-1 -1 315 1;
#N canvas 585 385 245 430 blast 0;
#X obj 16 111 / 200;
#X obj 44 -71 del 80;
#X obj 120 11 random 5;
#X obj 120 33 + 25;
#X obj 120 -15 del 80;
#X obj 16 -131 random 8;
#X obj 16 -109 + 8;
#X obj 44 -48 random 10;
#X obj 44 -26 + 15;
#X obj 157 -132 random 100;
#X obj 81 -131 random 50;
#X obj 75 -173 t b b b b b;
#X obj 75 -202 del 30;
#X obj 112 -222 + 5;
#X obj 16 135 outlet noiseval;
#X obj 11 -272 inlet trigger;
#X obj 112 -273 inlet spread;
#X obj 158 -173 * 300;
#X obj 112 -243 * 100;
#X connect 0 0 14 0;
#X connect 1 0 4 0;
#X connect 1 0 7 0;
#X connect 2 0 3 0;
#X connect 3 0 0 0;
#X connect 4 0 2 0;
#X connect 5 0 6 0;
#X connect 6 0 0 0;
#X connect 7 0 8 0;
#X connect 8 0 0 0;
#X connect 9 0 4 1;
#X connect 10 0 1 1;
#X connect 11 0 1 0;
#X connect 11 1 5 0;
#X connect 11 2 10 0;
#X connect 11 3 9 0;
#X connect 12 0 11 0;
#X connect 13 0 12 1;
#X connect 15 0 12 0;
#X connect 16 0 17 0;
#X connect 16 0 18 0;
#X connect 17 0 10 1;
#X connect 17 0 9 1;
#X connect 18 0 13 0;
#X restore 24 64 pd blast control;
#X obj 24 241 dac~;
#X obj 24 12 loadbang;
#X obj 24 36 bng 15 250 50 0 empty empty empty 17 7 0 10 -262144 -1
-1;
#X obj 24 172 lop~ 500;
#X msg 154 114 0.15;
#X msg 176 31 0.05;
#X obj 24 219 *~;
#X obj 49 219 *~;
#X obj 42 194 adc~;
#X connect 0 0 1 1;
#X connect 1 0 9 0;
#X connect 2 0 5 1;
#X connect 3 0 1 0;
#X connect 4 0 3 1;
#X connect 5 0 3 0;
#X connect 7 0 8 0;
#X connect 7 0 11 0;
#X connect 7 0 10 0;
#X connect 8 0 5 0;
#X connect 9 0 12 0;
#X connect 9 0 13 0;
#X connect 10 0 0 0;
#X connect 11 0 2 0;
#X connect 11 0 4 0;
#X connect 12 0 6 0;
#X connect 13 0 6 1;
#X connect 14 0 12 1;
#X connect 14 1 13 1;
