#N canvas 911 271 189 123 12;
#X obj 6 7 noise~;
#X obj 6 67 dac~;
#X obj 6 37 *~;
#X obj 73 7 adc~;
#X obj 38 41 *~;
#X connect 0 0 2 0;
#X connect 0 0 4 0;
#X connect 2 0 1 0;
#X connect 3 0 2 1;
#X connect 3 1 4 1;
#X connect 4 0 1 1;
