#N canvas 911 271 319 448 12;
#X obj 48 400 dac~;
#X obj 47 376 *~;
#X obj 65 353 adc~;
#X obj 72 376 *~;
#X obj 48 203 noise~;
#X obj 48 329 *~;
#X obj 48 245 lop~ 70;
#X obj 48 266 lop~ 70;
#X obj 48 224 bp~ 70 1;
#X obj 143 261 *~;
#X obj 48 308 hip~ 5;
#X obj 143 140 line;
#X obj 143 238 sig~;
#X obj 143 310 lop~ 5;
#X obj 143 69 trigger b b;
#X obj 94 180 + 40;
#X msg 217 121 1 100;
#X obj 143 92 del 100;
#X msg 143 118 0 8000;
#X obj 94 159 * 100;
#X obj 143 283 *~;
#X obj 48 287 *~ 10;
#X obj 145 3 loadbang;
#X obj 145 27 tgl 15 0 empty empty empty 17 7 0 10 -262144 -1 -1 1
1;
#X obj 143 45 metro 100;
#X connect 1 0 0 0;
#X connect 2 0 1 1;
#X connect 2 1 3 1;
#X connect 3 0 0 1;
#X connect 4 0 8 0;
#X connect 5 0 1 0;
#X connect 5 0 3 0;
#X connect 6 0 7 0;
#X connect 7 0 21 0;
#X connect 8 0 6 0;
#X connect 9 0 20 0;
#X connect 9 0 20 1;
#X connect 10 0 5 0;
#X connect 11 0 12 0;
#X connect 11 0 19 0;
#X connect 12 0 9 0;
#X connect 12 0 9 1;
#X connect 13 0 5 1;
#X connect 14 0 17 0;
#X connect 14 1 16 0;
#X connect 15 0 7 1;
#X connect 15 0 6 1;
#X connect 15 0 8 1;
#X connect 16 0 11 0;
#X connect 17 0 18 0;
#X connect 18 0 11 0;
#X connect 19 0 15 0;
#X connect 20 0 13 0;
#X connect 21 0 10 0;
#X connect 22 0 23 0;
#X connect 23 0 24 0;
#X connect 24 0 14 0;
