#N canvas 0 22 523 350 10;
#X text 182 228 arg:;
#X obj 35 274 table \$0-table.2;
#X text 182 247 y dimension (size of the table);
#X text 182 266 x dimension (number of elements of each vector);
#X obj 5 1 cnv 15 500 60 empty empty 2d.tabwrite 20 12 0 14 -233017
-66577 0;
#X obj 58 132 list prepend element;
#X obj 328 186 print;
#X msg 12 107 clear;
#X obj 58 181 2d.tabwrite \$0-table.2 40 2;
#X obj 328 157 2d.tabread \$0-table.2 2;
#X msg 58 107 1 1 3;
#X obj 58 157 list trim;
#X msg 328 130 1;
#X text 191 148 or;
#X msg 223 149 element 1 1 4;
#X text 341 43 2013 Gilberto Bernardes;
#N canvas 333 426 494 344 META 0;
#X text 12 45 LICENSE GPL v3;
#X text 12 225 RELEASE_DATE 2013;
#X text 12 205 WEBSITE https://sites.google.com/site/eargram/;
#X text 12 185 AUTHOR Gilberto Bernardes;
#X text 12 165 LIBRARY earGram_abs;
#X text 12 65 DESCRIPTION write elements to a 2D table (matrix);
#X text 12 108 INLET_1 float (y index);
#X text 13 128 INLET_2 float (size of y dimension);
#X text 13 147 INLET_3 float (size of x dimension);
#X text 12 85 INLET_0 list element clear;
#X restore 454 326 pd META;
#X text 22 41 write elements to a 2D table (matrix);
#X connect 5 0 11 0;
#X connect 7 0 8 0;
#X connect 9 0 6 0;
#X connect 10 0 5 0;
#X connect 11 0 8 0;
#X connect 12 0 9 0;
#X connect 14 0 8 0;
