#N canvas 0 22 513 317 10;
#X obj 331 178 table \$0-table.1;
#X obj 27 162 list prepend set;
#X obj 27 188 list trim;
#X msg 27 215 32 34 49 75 18;
#X floatatom 27 112 5 0 0 0 - - -;
#X obj 6 5 cnv 15 500 60 empty empty 2d.tabwrite 20 12 0 14 -233017
-66577 0;
#X text 348 45 2013 Gilberto Bernardes;
#X obj 27 136 2d.tabread \$0-table.1;
#N canvas 333 426 494 344 META 0;
#X text 12 45 LICENSE GPL v3;
#X text 12 184 RELEASE_DATE 2013;
#X text 12 164 WEBSITE https://sites.google.com/site/eargram/;
#X text 12 144 AUTHOR Gilberto Bernardes;
#X text 12 124 LIBRARY earGram_abs;
#X text 12 65 DESCRIPTION read elements from a 2D table (matrix);
#X text 13 106 OUTLET_0 list;
#X text 12 85 INLET_0 float;
#X restore 452 288 pd META;
#X text 21 45 read elements from a 2D table (matrix);
#N canvas 134 390 555 337 fillTable 0;
#X obj 69 100 until;
#X obj 69 10 loadbang;
#X obj 69 70 200;
#X obj 69 131 random 100;
#X obj 69 188 list split 5;
#X obj 69 161 list prepend;
#X obj 69 38 t b b;
#X obj 122 232 f;
#X obj 152 232 + 1;
#X obj 189 215 0;
#X obj 69 215 t l b;
#X obj 69 261 2d.tabwrite \$0-table.1 40 5;
#X connect 0 0 3 0;
#X connect 1 0 6 0;
#X connect 2 0 0 0;
#X connect 3 0 5 0;
#X connect 4 0 10 0;
#X connect 4 2 5 1;
#X connect 5 0 4 0;
#X connect 6 0 2 0;
#X connect 6 1 9 0;
#X connect 7 0 8 0;
#X connect 7 0 11 1;
#X connect 8 0 7 1;
#X connect 9 0 7 1;
#X connect 10 0 11 0;
#X connect 10 1 7 0;
#X connect 10 1 5 1;
#X restore 331 153 pd fillTable;
#X connect 1 0 2 0;
#X connect 2 0 3 0;
#X connect 4 0 7 0;
#X connect 7 0 1 0;
