#N canvas 222 23 671 456 10;
#X obj 64 52 metro 150;
#X obj 64 30 tgl 15 0 empty empty empty 17 7 0 10 -262144 -1 -1 0 1
;
#X obj 64 229 euclid 5 0 8;
#X obj 64 78 f;
#X obj 94 78 + 1;
#X floatatom 64 120 5 0 0 0 - - -;
#X obj 64 271 bng 15 250 50 0 empty empty empty 17 7 0 10 -262144 -1
-1;
#X obj 64 291 60;
#X obj 64 335 noteout 10;
#X floatatom 87 168 5 0 0 1 nrHits - -;
#X floatatom 110 188 5 0 0 1 offset - -;
#X floatatom 133 207 5 0 0 1 nrPulses - -;
#X obj 264 271 bng 15 250 50 0 empty empty empty 17 7 0 10 -262144
-1 -1;
#X obj 264 335 noteout 10;
#X floatatom 287 168 5 0 0 1 nrHits - -;
#X floatatom 310 188 5 0 0 1 offset - -;
#X floatatom 333 207 5 0 0 1 nrPulses - -;
#X obj 264 291 63;
#X text 59 393 http://www.synthtopia.com/content/2015/11/20/an-introduction-to-euclidean-rhythms/
, f 84;
#X obj 64 99 % 8;
#X obj 464 271 bng 15 250 50 0 empty empty empty 17 7 0 10 -262144
-1 -1;
#X obj 464 335 noteout 10;
#X floatatom 487 168 5 0 0 1 nrHits - -;
#X floatatom 510 188 5 0 0 1 offset - -;
#X floatatom 533 207 5 0 0 1 nrPulses - -;
#X obj 264 229 euclid 5 3 8;
#X obj 464 291 45;
#X obj 464 314 makenote 75 200;
#X obj 464 229 euclid 3 0 8;
#X obj 264 314 makenote 70 200;
#X obj 64 314 makenote 127 200;
#X connect 0 0 3 0;
#X connect 1 0 0 0;
#X connect 2 0 6 0;
#X connect 3 0 4 0;
#X connect 3 0 19 0;
#X connect 4 0 3 1;
#X connect 5 0 2 0;
#X connect 5 0 25 0;
#X connect 5 0 28 0;
#X connect 6 0 7 0;
#X connect 7 0 30 0;
#X connect 9 0 2 1;
#X connect 10 0 2 2;
#X connect 11 0 2 3;
#X connect 12 0 17 0;
#X connect 14 0 25 1;
#X connect 15 0 25 2;
#X connect 16 0 25 3;
#X connect 17 0 29 0;
#X connect 19 0 5 0;
#X connect 20 0 26 0;
#X connect 22 0 28 1;
#X connect 23 0 28 2;
#X connect 24 0 28 3;
#X connect 25 0 12 0;
#X connect 26 0 27 0;
#X connect 27 0 21 0;
#X connect 27 1 21 1;
#X connect 28 0 20 0;
#X connect 29 0 13 0;
#X connect 29 1 13 1;
#X connect 30 0 8 0;
#X connect 30 1 8 1;
