#N canvas 261 226 469 432 10;
#X obj 44 57 inlet;
#X obj 44 204 t a b;
#X obj 44 265 outlet;
#X obj 217 53 inlet;
#X obj 217 76 bang;
#X obj 120 172 spigot;
#X obj 217 112 1;
#X obj 250 113 0;
#X obj 44 172 spigot 1;
#X obj 135 221 0;
#X obj 71 233 1;
#X obj 44 88 t a a;
#X obj 120 261 outlet;
#X connect 0 0 11 0;
#X connect 1 0 2 0;
#X connect 1 1 10 0;
#X connect 1 1 9 0;
#X connect 3 0 4 0;
#X connect 4 0 6 0;
#X connect 4 0 7 0;
#X connect 5 0 12 0;
#X connect 6 0 8 1;
#X connect 7 0 5 1;
#X connect 8 0 1 0;
#X connect 9 0 8 1;
#X connect 10 0 5 1;
#X connect 11 0 8 0;
#X connect 11 1 5 0;
