#N canvas 508 272 612 359 10;
#X obj 42 209 first;
#X obj 69 181 bng 15 250 50 0 empty empty empty 17 7 0 10 -262144 -1
-1;
#X text 91 178 anthing to reset;
#X floatatom 42 139 5 0 0 0 - - -;
#X symbolatom 81 139 10 0 0 0 - - -;
#X obj 42 245 print first;
#X obj 69 272 print remaining;
#N canvas 464 540 494 344 META 0;
#X text 12 45 LICENSE GPL v3;
#X text 12 215 RELEASE_DATE 2013;
#X text 12 195 WEBSITE https://sites.google.com/site/eargram/;
#X text 12 175 AUTHOR Gilberto Bernardes;
#X text 12 155 LIBRARY earGram_abs;
#X text 12 65 DESCRIPTION separates the firt received elemnt from the
remaining ones;
#X text 12 107 INLET_1 anything (reset);
#X text 12 93 INLET_0 anything;
#X text 12 122 OUTLET_0 anything;
#X text 12 136 OUTLET_1 anything;
#X restore 561 324 pd META;
#X obj 6 7 cnv 15 600 60 empty empty first 20 12 0 14 -233017 -66577
0;
#X text 20 47 separates the firt received elemnt from the remaining
ones;
#X text 461 45 2013 Gilberto Bernardes;
#X connect 0 0 5 0;
#X connect 0 1 6 0;
#X connect 1 0 0 1;
#X connect 3 0 0 0;
#X connect 4 0 0 0;
