#N canvas 249 23 1031 549 10;
#N canvas 450 380 668 329 resizeMtx 0;
#X obj 222 55 list length;
#X obj 66 131 *;
#X obj 66 19 inlet;
#X obj 66 88 + 1;
#X msg 222 119 resize \$1 \, const -1;
#X msg 66 153 resize \$1 \, const -1;
#X obj 66 109 t f f;
#X obj 66 175 array define \$1-trn;
#X obj 222 142 array define \$1-sfx;
#X obj 222 175 s \$0-max;
#X obj 221 253 s \$1-max;
#X obj 221 273 v \$1-max;
#X obj 291 253 s \$1-length;
#X obj 291 273 v \$1-length;
#N canvas 0 23 672 519 list-maximum 0;
#X obj 153 127 list-drip;
#X obj 153 150 route float;
#X obj 184 247 f;
#X obj 136 424 outlet;
#X obj 136 40 inlet;
#X obj 136 396 f;
#N canvas 0 22 450 300 once 0;
#X obj 110 75 inlet;
#X obj 105 187 spigot 1;
#X obj 110 104 t b f;
#X msg 125 151 0;
#X msg 165 99 1;
#X obj 165 63 inlet;
#X obj 86 234 outlet;
#X connect 0 0 2 0;
#X connect 1 0 6 0;
#X connect 2 0 3 0;
#X connect 2 1 1 0;
#X connect 3 0 1 1;
#X connect 4 0 1 1;
#X connect 5 0 4 0;
#X restore 290 213 pd once;
#X obj 136 335 t b b;
#X obj 153 180 t a a b;
#X obj 299 295 + 1;
#X obj 136 60 t b a b b;
#X obj 271 295 f 0;
#X obj 256 325 f;
#X obj 236 394 f;
#X obj 153 308 t f b;
#X obj 236 419 outlet;
#X obj 187 105 0;
#X obj 153 276 change;
#X obj 153 247 max;
#X text 351 213 prime [max] with first item once;
#X connect 0 0 1 0;
#X connect 1 0 8 0;
#X connect 2 0 18 1;
#X connect 4 0 10 0;
#X connect 5 0 3 0;
#X connect 6 0 18 1;
#X connect 7 0 5 0;
#X connect 7 1 13 0;
#X connect 8 0 18 0;
#X connect 8 1 6 0;
#X connect 8 2 11 0;
#X connect 9 0 11 1;
#X connect 10 0 7 0;
#X connect 10 1 0 0;
#X connect 10 2 6 1;
#X connect 10 3 16 0;
#X connect 11 0 9 0;
#X connect 11 0 12 1;
#X connect 12 0 13 1;
#X connect 13 0 15 0;
#X connect 14 0 5 1;
#X connect 14 1 12 0;
#X connect 16 0 11 1;
#X connect 17 0 14 0;
#X connect 18 0 2 0;
#X connect 18 0 17 0;
#X restore 66 67 pd list-maximum;
#X msg 362 119 resize \$1 \, const -1;
#X obj 362 142 array define \$1-lrs;
#X obj 66 40 t l l;
#X msg 562 248 clear;
#X obj 442 204 until;
#X obj 560 184 loadbang;
#X obj 560 209 1e+15;
#X obj 222 75 + 1;
#X obj 222 97 t f b;
#X obj 442 224 text set \$1-rsfx1;
#X obj 562 268 text define \$1-rsfx1;
#X connect 0 0 22 0;
#X connect 1 0 5 0;
#X connect 2 0 17 0;
#X connect 3 0 6 0;
#X connect 4 0 8 0;
#X connect 5 0 7 0;
#X connect 6 0 1 0;
#X connect 6 1 9 0;
#X connect 6 1 10 0;
#X connect 6 1 11 0;
#X connect 14 0 3 0;
#X connect 15 0 16 0;
#X connect 17 0 14 0;
#X connect 17 1 0 0;
#X connect 18 0 25 0;
#X connect 19 0 24 0;
#X connect 20 0 21 0;
#X connect 21 0 24 1;
#X connect 22 0 23 0;
#X connect 23 0 4 0;
#X connect 23 0 1 1;
#X connect 23 0 12 0;
#X connect 23 0 13 0;
#X connect 23 0 15 0;
#X connect 23 0 19 0;
#X connect 23 1 18 0;
#X restore 158 66 pd resizeMtx;
#X obj 143 90 list-enumerate;
#X obj 143 110 unpack;
#X obj 162 202 *;
#X obj 162 223 +;
#X obj 162 289 pack;
#X text 46 208 linha * max-var + coluna \, elemento, f 18;
#X floatatom 350 167 5 0 0 0 - - -;
#X text 389 165 k;
#X obj 525 224 *;
#X obj 525 245 +;
#X floatatom 525 309 5 0 0 0 - - -;
#X obj 396 251 + 1;
#X obj 625 353 + 1;
#X obj 544 442 f;
#X obj 559 421 + 1;
#X obj 525 266 t f f;
#X obj 525 353 f;
#X obj 525 374 t b b f;
#X obj 350 187 t f f;
#X obj 525 486 f;
#X obj 544 34 bng 15 250 50 0 empty empty empty 17 7 0 10 -262144 -1
-1;
#X obj 746 34 bng 15 250 50 0 empty empty empty 17 7 0 10 -262144 -1
-1;
#X obj 183 268 + 1;
#X obj 350 235 0;
#X obj 525 329 sel -1;
#X obj 350 208 sel -1;
#X obj 544 88 list-group 3;
#X obj 182 167 s \$0-i;
#X obj 162 310 s \$1-trn;
#X obj 183 247 r \$0-i;
#X obj 205 208 r \$0-lst-element;
#X obj 205 187 r \$0-max;
#X obj 209 125 s \$0-lst-element;
#X obj 350 146 array get \$1-sfx 0 1;
#X obj 350 274 array set \$1-sfx;
#X obj 397 230 r \$0-i;
#X obj 525 288 array get \$1-trn 0 1;
#X obj 557 230 r \$0-lst-element;
#X obj 579 374 array set \$1-sfx;
#X obj 625 332 r \$0-i;
#X obj 540 203 r \$0-max;
#X obj 654 73 r \$0-max;
#X obj 544 67 array get \$1-trn;
#X obj 746 67 array get \$1-sfx;
#X obj 746 119 print SFX;
#X obj 544 119 print TRN;
#X obj 83 19 inlet;
#X obj 566 34 inlet;
#X obj 766 34 inlet;
#X obj 559 400 r \$0-i;
#X obj 83 117 v \$1-max;
#X obj 83 138 outlet;
#X obj 98 183 outlet;
#X obj 98 162 v \$1-length;
#X obj 872 31 bng 15 250 50 0 empty empty empty 17 7 0 10 -262144 -1
-1;
#X obj 892 31 inlet;
#X obj 872 64 array get \$1-lrs;
#X obj 872 116 print LRS;
#X obj 544 463 array set \$1-trn;
#N canvas 725 170 450 300 reverseSFX 0;
#X obj 163 145 text define \$1-rsfx;
#X obj 24 125 array get \$1-sfx;
#X obj 24 40 t b b b;
#X msg 163 125 clear;
#X obj 43 61 array size \$1-sfx;
#X obj 43 101 text set \$1-rsfx;
#X obj 43 81 until;
#X obj 24 145 list-enumerate;
#X obj 24 253 text set \$1-rsfx;
#X obj 93 210 text get \$1-rsfx;
#X obj 24 231 list prepend;
#X obj 161 61 loadbang;
#X obj 161 86 1e+15;
#X obj 24 165 unpack;
#X obj 24 19 inlet;
#X obj 24 210 spigot;
#X obj 57 189 >= 0;
#X connect 1 0 7 0;
#X connect 2 0 1 0;
#X connect 2 1 4 0;
#X connect 2 2 3 0;
#X connect 3 0 0 0;
#X connect 4 0 6 0;
#X connect 6 0 5 0;
#X connect 7 0 13 0;
#X connect 9 0 10 1;
#X connect 10 0 8 0;
#X connect 11 0 12 0;
#X connect 12 0 5 1;
#X connect 13 0 15 0;
#X connect 13 1 9 0;
#X connect 13 1 16 0;
#X connect 13 1 8 1;
#X connect 14 0 2 0;
#X connect 15 0 10 0;
#X connect 16 0 15 1;
#X restore 128 338 pd reverseSFX;
#X obj 143 131 t f f f;
#X obj 83 43 t b b b b l l;
#N canvas 725 170 448 400 lrs 0;
#X obj 24 19 inlet;
#X text 176 20 // do online!!!;
#X obj 43 143 array get \$1-sfx;
#X obj 43 61 array size \$1-sfx;
#X obj 24 39 t b b b;
#X obj 43 81 until;
#X obj 43 101 f;
#X obj 73 101 + 1;
#X obj 104 86 0;
#X obj 221 226 list;
#X obj 53 205 list;
#X obj 53 266 list-drip;
#X obj 53 289 t a b;
#X obj 146 304 list-dripslow;
#X obj 53 226 list split;
#X obj 43 163 sel -1 0;
#X obj 88 185 t b b f;
#X obj 273 66 inlet;
#X obj 221 246 list split;
#X obj 43 121 t f f;
#X obj 278 226 + 1;
#X obj 274 89 list-rev;
#X connect 0 0 4 0;
#X connect 2 0 15 0;
#X connect 3 0 5 0;
#X connect 4 1 3 0;
#X connect 4 2 8 0;
#X connect 5 0 6 0;
#X connect 6 0 7 0;
#X connect 6 0 19 0;
#X connect 7 0 6 1;
#X connect 8 0 6 1;
#X connect 9 0 18 0;
#X connect 10 0 14 0;
#X connect 11 0 12 0;
#X connect 12 1 13 0;
#X connect 15 2 16 0;
#X connect 17 0 21 0;
#X connect 18 0 13 1;
#X connect 19 0 2 0;
#X connect 19 1 20 0;
#X connect 20 0 18 1;
#X restore 113 363 pd lrs;
#X connect 1 0 2 0;
#X connect 2 0 61 0;
#X connect 2 1 33 0;
#X connect 3 0 4 0;
#X connect 4 0 5 0;
#X connect 5 0 29 0;
#X connect 7 0 19 0;
#X connect 9 0 10 0;
#X connect 10 0 16 0;
#X connect 11 0 25 0;
#X connect 12 0 35 1;
#X connect 13 0 39 1;
#X connect 14 0 59 0;
#X connect 15 0 14 1;
#X connect 16 0 37 0;
#X connect 16 1 17 1;
#X connect 17 0 18 0;
#X connect 18 0 20 0;
#X connect 18 1 14 0;
#X connect 18 2 59 1;
#X connect 19 0 26 0;
#X connect 19 1 20 1;
#X connect 20 0 34 0;
#X connect 21 0 43 0;
#X connect 22 0 44 0;
#X connect 23 0 5 1;
#X connect 24 0 35 0;
#X connect 25 0 17 0;
#X connect 25 1 39 0;
#X connect 26 0 24 0;
#X connect 26 1 9 0;
#X connect 27 0 46 0;
#X connect 30 0 23 0;
#X connect 31 0 4 1;
#X connect 32 0 3 1;
#X connect 34 0 7 0;
#X connect 36 0 12 0;
#X connect 37 0 11 0;
#X connect 38 0 10 1;
#X connect 40 0 13 0;
#X connect 41 0 9 1;
#X connect 42 0 27 1;
#X connect 43 0 27 0;
#X connect 44 0 45 0;
#X connect 47 0 62 0;
#X connect 48 0 43 0;
#X connect 49 0 44 0;
#X connect 50 0 15 0;
#X connect 51 0 52 0;
#X connect 54 0 53 0;
#X connect 55 0 57 0;
#X connect 56 0 57 0;
#X connect 57 0 58 0;
#X connect 61 0 34 0;
#X connect 61 1 3 0;
#X connect 61 2 28 0;
#X connect 62 0 51 0;
#X connect 62 1 54 0;
#X connect 62 3 60 0;
#X connect 62 4 1 0;
#X connect 62 5 0 0;
#X connect 62 5 63 1;
