#N struct 1009-curve float x float y float a float b float abx float
aby;
#N canvas 288 23 583 470 10;
#X obj 120 207 bng 15 250 50 0 empty empty trn 17 7 0 10 -262144 -1
-1;
#X obj 120 228 bng 15 250 50 0 empty empty sfx 17 7 0 10 -262144 -1
-1;
#X obj 50 241 FO string;
#X obj 286 281 noteout;
#X msg 50 149 open;
#X obj 50 26 bng 15 250 50 0 empty empty empty 17 7 0 10 -262144 -1
-1;
#X obj 286 260 makenote 100 150, f 23;
#X floatatom 50 282 5 0 0 1 alphabetSize - -;
#X obj 240 114 delay;
#X obj 286 42 bng 15 250 50 0 empty empty empty 17 7 0 10 -260097 -1
-1;
#X msg 313 42 stop;
#X obj 286 191 t f f;
#X obj 421 228 list split 1;
#X obj 51 329 FOviz string;
#X floatatom 309 65 5 0 0 1 probabilityChange - -;
#X floatatom 355 107 5 0 0 1 goToState - -;
#X floatatom 332 85 5 0 0 1 region - -;
#X obj 286 237 list-group 2;
#N canvas 198 23 709 691 readTxt 0;
#X obj 228 216 textfile;
#X obj 228 186 until;
#X msg 294 202 read \$1 \, rewind;
#X text 243 240 time <midicommand> <data>;
#X obj 155 63 inlet;
#X obj 155 85 route open;
#X obj 155 106 route bang symbol, f 25;
#X obj 155 134 openpanel;
#X obj 228 260 unpack f f f f, f 16;
#X obj 228 148 t b a b;
#X msg 437 363 0;
#X obj 228 377 -;
#X obj 228 352 t f f;
#X obj 316 577 list prepend;
#X obj 411 591 t l;
#X obj 254 591 list;
#X obj 316 534 f;
#X obj 228 328 spigot;
#X obj 254 634 outlet;
#X obj 520 634 outlet;
#X obj 261 293 expr if($f1>=144 && $f1<160 && $f2>0 \, 1 \, 0);
#X obj 316 555 pack;
#X obj 228 420 moses 50;
#X obj 228 441 b;
#X obj 254 612 list prepend;
#X obj 273 441 t b b f;
#X obj 151 247 t b b;
#X obj 151 268 outlet;
#X obj 228 398 expr round($f1);
#X obj 678 154 seq;
#X msg 678 122 read;
#X obj 753 168 midiout;
#X obj 727 141 bng 15 250 50 0 empty empty empty 17 7 0 10 -262144
-1 -1;
#X msg 769 140 stop;
#X msg 855 189 bang;
#X text 892 188 resets [borax];
#X obj 678 217 cyclone/borax, f 30;
#X obj 916 237 cyclone/comment 0 11 helvetica ? 0 0 0 0 8- Note-On
Delta-time;
#X obj 863 256 cyclone/comment 263 11 helvetica ? 0 0 0 0 7- Event
of delta-time report;
#X obj 867 275 cyclone/comment 251 11 helvetica ? 0 0 0 0 6- Note duration
;
#X obj 818 290 cyclone/comment 256 11 helvetica ? 0 0 0 0 5- Event
of duration report;
#X obj 805 313 cyclone/comment 278 11 helvetica ? 0 0 0 0 4- Velocity
;
#X obj 782 331 cyclone/comment 285 11 helvetica ? 0 0 0 0 3- Pitch
;
#X obj 756 351 cyclone/comment 271 11 helvetica ? 0 0 0 0 2- Number
of voices;
#X obj 732 369 cyclone/comment 270 11 helvetica ? 0 0 0 0 1- Voice
number;
#X obj 711 389 cyclone/comment 283 11 helvetica ? 0 0 0 0 0- Note event
;
#X obj 678 387 nbx 2 14 -1e+37 1e+37 0 0 empty empty empty 0 -8 0 10
-228856 -1 -1 0 256;
#X obj 700 368 nbx 2 14 -1e+37 1e+37 0 0 empty empty empty 0 -8 0 10
-228856 -1 -1 0 256;
#X obj 722 349 nbx 2 14 -1e+37 1e+37 0 0 empty empty empty 0 -8 0 10
-228856 -1 -1 0 256;
#X obj 744 330 nbx 3 14 -1e+37 1e+37 0 0 empty empty empty 0 -8 0 10
-228856 -1 -1 0 256;
#X obj 766 311 nbx 3 14 -1e+37 1e+37 0 0 empty empty empty 0 -8 0 10
-228856 -1 -1 0 256;
#X obj 788 289 nbx 2 14 -1e+37 1e+37 0 0 empty empty empty 0 -8 0 10
-228856 -1 -1 0 256;
#X obj 810 273 nbx 5 14 -1e+37 1e+37 0 0 empty empty empty 0 -8 0 10
-228856 -1 -1 0 256;
#X obj 832 254 nbx 2 14 -1e+37 1e+37 0 0 empty empty empty 0 -8 0 10
-228856 -1 -1 0 256;
#X obj 855 238 nbx 5 14 -1e+37 1e+37 0 0 empty empty empty 0 -8 0 10
-228856 -1 -1 0 256;
#X connect 0 0 8 0;
#X connect 0 1 26 0;
#X connect 1 0 0 0;
#X connect 2 0 0 0;
#X connect 4 0 5 0;
#X connect 5 0 6 0;
#X connect 6 0 7 0;
#X connect 6 1 9 0;
#X connect 7 0 9 0;
#X connect 8 0 17 0;
#X connect 8 1 20 0;
#X connect 8 2 16 1;
#X connect 8 3 20 1;
#X connect 8 3 21 1;
#X connect 9 0 1 0;
#X connect 9 1 2 0;
#X connect 9 2 10 0;
#X connect 9 2 13 1;
#X connect 9 2 19 0;
#X connect 10 0 11 1;
#X connect 10 0 24 1;
#X connect 11 0 28 0;
#X connect 12 0 11 1;
#X connect 12 1 11 0;
#X connect 13 0 14 0;
#X connect 13 0 15 1;
#X connect 14 0 13 1;
#X connect 15 0 24 0;
#X connect 16 0 21 0;
#X connect 17 0 12 0;
#X connect 20 0 17 1;
#X connect 21 0 13 0;
#X connect 22 0 23 0;
#X connect 22 1 25 0;
#X connect 23 0 16 0;
#X connect 24 0 18 0;
#X connect 25 0 16 0;
#X connect 25 1 13 1;
#X connect 25 1 15 0;
#X connect 25 2 24 1;
#X connect 26 0 27 0;
#X connect 26 1 1 1;
#X connect 28 0 22 0;
#X connect 29 0 31 0;
#X connect 29 0 36 0;
#X connect 30 0 29 0;
#X connect 32 0 29 0;
#X connect 33 0 29 0;
#X connect 34 0 36 2;
#X connect 36 0 46 0;
#X connect 36 1 47 0;
#X connect 36 2 48 0;
#X connect 36 3 49 0;
#X connect 36 4 50 0;
#X connect 36 5 51 0;
#X connect 36 6 52 0;
#X connect 36 7 53 0;
#X connect 36 8 54 0;
#X restore 50 176 pd readTxt;
#N canvas 289 23 887 458 dict 0;
#X msg 403 97 clear;
#X obj 108 247 sel -1;
#X obj 108 203 t l l;
#X obj 108 268 list;
#X obj 139 315 f;
#X obj 165 315 + 1;
#X obj 154 293 0;
#X obj 81 32 inlet;
#X obj 403 76 inlet;
#X obj 81 94 list split 1;
#X obj 155 126 list-group 2;
#X obj 155 167 list prepend;
#X obj 250 181 t l;
#X obj 155 146 unpack;
#X obj 108 181 list;
#X obj 81 53 t l b;
#X obj 412 290 t l b;
#X obj 665 304 f;
#X obj 690 303 + 1;
#X obj 679 262 b;
#X obj 679 283 0;
#X obj 403 139 text define \$0-events;
#X obj 403 118 text define \$0-dict;
#X obj 403 160 text define \$0-eventsDur;
#X obj 412 342 text set \$0-events;
#X obj 624 342 text set \$0-eventsDur;
#X obj 108 226 text search \$0-dict;
#X obj 108 342 text set \$0-dict;
#X obj 239 329 list prepend;
#X obj 334 345 t l;
#X obj 22 393 list;
#X obj 22 27 inlet;
#X obj 108 289 t l b, f 6;
#X obj 81 117 t f b;
#X obj 22 414 outlet;
#X connect 0 0 21 0;
#X connect 0 0 22 0;
#X connect 0 0 23 0;
#X connect 1 0 3 0;
#X connect 1 1 28 0;
#X connect 2 0 26 0;
#X connect 2 1 3 1;
#X connect 3 0 32 0;
#X connect 4 0 5 0;
#X connect 4 0 27 1;
#X connect 4 0 28 0;
#X connect 5 0 4 1;
#X connect 6 0 4 1;
#X connect 7 0 15 0;
#X connect 8 0 0 0;
#X connect 8 0 6 0;
#X connect 8 0 19 0;
#X connect 8 0 28 1;
#X connect 9 0 33 0;
#X connect 9 1 10 0;
#X connect 9 1 16 0;
#X connect 10 0 13 0;
#X connect 11 0 12 0;
#X connect 11 0 14 1;
#X connect 12 0 11 1;
#X connect 13 0 11 0;
#X connect 14 0 2 0;
#X connect 15 0 9 0;
#X connect 15 1 11 1;
#X connect 16 0 24 0;
#X connect 16 1 17 0;
#X connect 17 0 18 0;
#X connect 17 0 24 1;
#X connect 17 0 25 1;
#X connect 18 0 17 1;
#X connect 19 0 20 0;
#X connect 20 0 17 1;
#X connect 26 0 1 0;
#X connect 28 0 29 0;
#X connect 28 0 30 1;
#X connect 29 0 28 1;
#X connect 30 0 34 0;
#X connect 31 0 30 0;
#X connect 32 0 27 0;
#X connect 32 1 4 0;
#X connect 33 0 25 0;
#X connect 33 1 14 0;
#X restore 50 203 pd dict;
#X f 10;
#X obj 286 215 text get \$0-events;
#X obj 421 207 text get \$0-eventsDur;
#X obj 286 152 nbx 5 30 -1e+37 1e+37 0 0 empty empty empty 0 -8 0 30
-262144 -1 -1 0 256;
#X text 29 392 region should not exlude sections but minimize the jumps
to different areas then the surroundings ... normal curve?;
#X text 31 430 memory to avoid duplicates? use the lrs?;
#X floatatom 101 262 5 0 0 1 nrStates - -;
#X obj 286 128 Fogen string;
#N canvas 0 23 738 408 MIDI-to-txt-conversion 0;
#X obj 79 275 seq;
#X msg 79 199 write \$1.txt;
#X obj 79 113 openpanel;
#X obj 79 155 t a a;
#X obj 79 89 inlet;
#X msg 183 199 read \$1;
#X connect 1 0 0 0;
#X connect 2 0 3 0;
#X connect 3 0 1 0;
#X connect 3 1 5 0;
#X connect 4 0 2 0;
#X connect 5 0 0 0;
#X restore 50 46 pd MIDI-to-txt-conversion;
#X obj 51 308 bng 15 250 50 0 empty empty empty 17 7 0 10 -262144 -1
-1;
#X obj 176 237 bng 15 250 50 0 empty empty lrs 17 7 0 10 -262144 -1
-1;
#X msg 139 151 0 1 1 2 0 1 2 3 0 1 2;
#X connect 0 0 2 1;
#X connect 1 0 2 2;
#X connect 2 0 7 0;
#X connect 2 1 25 0;
#X connect 4 0 18 0;
#X connect 5 0 27 0;
#X connect 6 0 3 0;
#X connect 6 1 3 1;
#X connect 8 0 26 0;
#X connect 9 0 26 0;
#X connect 10 0 8 0;
#X connect 11 0 20 0;
#X connect 11 1 21 0;
#X connect 12 0 8 0;
#X connect 12 0 6 2;
#X connect 14 0 26 1;
#X connect 15 0 26 3;
#X connect 16 0 26 2;
#X connect 17 0 6 0;
#X connect 18 0 19 0;
#X connect 18 1 19 1;
#X connect 18 2 19 2;
#X connect 19 0 2 0;
#X connect 20 0 17 0;
#X connect 21 0 12 0;
#X connect 22 0 11 0;
#X connect 26 0 22 0;
#X connect 28 0 13 0;
#X connect 29 0 2 3;
#X connect 30 0 2 0;
