#N canvas 458 155 822 392 10;
#X obj 570 123 v \$1-max;
#X obj 646 123 v \$1-length;
#X text 563 55 (mtx colunas \, linhas);
#X obj 570 73 r \$1-max;
#X obj 646 73 r \$1-length;
#X obj 570 102 loadbang;
#X obj 646 102 loadbang;
#X obj 509 100 s \$0-max;
#X obj 717 98 s \$0-length;
#X obj 46 110 random 100;
#X obj 142 85 inlet;
#X obj 293 331 outlet;
#X text 140 45 Probability of change (0-100), f 14;
#X obj 46 131 <;
#X obj 46 199 route 1 0, f 29;
#X obj 46 85 inlet;
#X obj 361 85 inlet;
#X text 358 45 (i);
#X obj 46 152 pack 0 0;
#X text 44 45 Metronome;
#X floatatom 570 144 5 0 0 0 - - -;
#X obj 552 123 bng 15 250 50 0 empty empty empty 17 7 0 10 -262144
-1 -1;
#X floatatom 646 144 5 0 0 0 - - -;
#X obj 628 123 bng 15 250 50 0 empty empty empty 17 7 0 10 -262144
-1 -1;
#X obj 46 242 random 100;
#X obj 46 284 pack f f;
#X obj 46 220 t b f;
#X text 252 45 Region (max-distance from i), f 14;
#X obj 252 85 inlet;
#X obj 91 130 r \$0-i;
#X obj 293 169 r \$0-i;
#X obj 252 106 s \$0-region;
#N canvas 297 23 1280 720 suffixLink 1;
#X obj 46 83 array get \$1-sfx 0 1;
#X obj 46 167 -;
#X obj 46 188 abs;
#X obj 46 251 f;
#X obj 46 230 sel 1 0;
#X obj 73 251 0;
#X obj 103 337 s \$0-i;
#X obj 46 27 inlet;
#X text 172 48 // finds the suffix link (longest repeating contex;
#X obj 167 265 outlet;
#X text 214 266 (outside region range move to forward link);
#X obj 46 272 + 1;
#X text 191 64 (adds local contraint);
#X obj 46 144 t f f;
#X obj 88 194 r \$0-region;
#X obj 291 172 r \$0-region;
#X obj 291 192 unpack;
#X obj 46 209 <;
#X text 86 144 // for single value distant region constraint;
#N canvas 0 23 487 445 filter-lastx 0;
#X obj 126 173 list-find;
#X obj 184 215 select 1;
#X obj 126 117 list-drip;
#X obj 126 142 t a a;
#X obj 184 242 list;
#X obj 107 58 inlet;
#X obj 183 265 list prepend;
#X obj 278 265 t a;
#X obj 107 327 list;
#X obj 107 83 t b a b b;
#X obj 107 353 outlet;
#X text 97 18 filter the elemnts in first list that exist in the second
list, f 62;
#X obj 184 194 == 0;
#X obj 204 58 r \$0-lastxUnits;
#X connect 0 1 12 0;
#X connect 1 0 4 0;
#X connect 2 0 3 0;
#X connect 3 0 0 0;
#X connect 3 1 4 1;
#X connect 4 0 6 0;
#X connect 5 0 9 0;
#X connect 6 0 7 0;
#X connect 6 0 8 1;
#X connect 7 0 6 1;
#X connect 8 0 10 0;
#X connect 9 0 8 0;
#X connect 9 1 2 0;
#X connect 9 2 8 1;
#X connect 9 3 6 1;
#X connect 12 0 1 0;
#X connect 13 0 0 1;
#X restore 46 292 pd filter-lastx;
#X obj 46 314 route bang;
#X text 144 291 (filter last sleected x units);
#X obj 202 215 expr if($f1>$f2 && $f1<$f3 && $f1!=$f4 \, 1 \, 0);
#X text 442 166 (filter last selected sfx), f 14;
#X obj 469 195 - 1;
#X obj 615 29 bng 15 250 50 0 empty empty empty 17 7 0 10 -262144 -1
-1;
#X obj 497 99 list append;
#X obj 936 246 list trim;
#X msg 674 320 \$1;
#X msg 766 305 set \, adddollar \$1;
#X obj 766 285 + 1;
#X obj 674 210 t l l;
#X obj 766 225 list length;
#X obj 766 265 random;
#X obj 766 245 t b f, f 6;
#X obj 559 358 s \$0-i;
#X obj 936 225 list prepend set;
#X obj 559 230 f;
#X obj 559 272 + 1;
#N canvas 282 23 487 445 filter-lastx 0;
#X obj 126 173 list-find;
#X obj 184 215 select 1;
#X obj 126 117 list-drip;
#X obj 126 142 t a a;
#X obj 184 242 list;
#X obj 107 58 inlet;
#X obj 183 265 list prepend;
#X obj 278 265 t a;
#X obj 107 327 list;
#X obj 107 83 t b a b b;
#X obj 107 353 outlet;
#X text 97 18 filter the elemnts in first list that exist in the second
list, f 62;
#X obj 184 194 == 0;
#X obj 204 58 r \$0-lastxUnits;
#X connect 0 1 12 0;
#X connect 1 0 4 0;
#X connect 2 0 3 0;
#X connect 3 0 0 0;
#X connect 3 1 4 1;
#X connect 4 0 6 0;
#X connect 5 0 9 0;
#X connect 6 0 7 0;
#X connect 6 0 8 1;
#X connect 7 0 6 1;
#X connect 8 0 10 0;
#X connect 9 0 8 0;
#X connect 9 1 2 0;
#X connect 9 2 8 1;
#X connect 9 3 6 1;
#X connect 12 0 1 0;
#X connect 13 0 0 1;
#X restore 663 169 pd filter-lastx;
#X obj 559 195 route bang;
#X obj 46 51 t f f b;
#X obj 564 70 list-find;
#X msg 936 266 133;
#N canvas 516 236 450 300 collect 0;
#X obj 195 37 inlet;
#X obj 41 37 inlet;
#X obj 41 144 outlet;
#X msg 195 74 set;
#X text 143 140 1993-2004 by Karlheinz Essl;
#X text 143 160 vs. 1.1;
#X obj 41 99 list trim;
#X obj 41 74 list prepend add2;
#X connect 0 0 3 0;
#X connect 1 0 7 0;
#X connect 3 0 2 0;
#X connect 6 0 2 0;
#X connect 7 0 6 0;
#X restore 806 179 pd collect;
#X obj 802 153 t l b;
#X obj 615 49 array get \$1-sfx;
#X obj 587 230 bng 15 250 50 0 empty empty empty 17 7 0 10 -262144
-1 -1;
#X obj 46 103 t f f;
#X obj 497 120 list-filter;
#X obj 715 72 r \$0-region;
#X obj 715 92 unpack;
#X floatatom 570 253 5 0 0 0 - - -;
#X obj 511 156 bng 15 250 50 0 empty empty empty 17 7 0 10 -262144
-1 -1;
#X obj 597 144 sel -1;
#X msg 806 201 168;
#X obj 597 112 expr if($f1!=0 && $f1>$f2 && $f1<$f3 && $f1!=$f4 &&
$f1!=$f5 \, $f1 \, -1);
#X obj 663 147 list-math + 1;
#X obj 663 190 route bang;
#X obj 823 92 - 1;
#N canvas 516 236 450 300 collect 0;
#X obj 195 37 inlet;
#X obj 41 37 inlet;
#X obj 41 144 outlet;
#X msg 195 74 set;
#X text 143 140 1993-2004 by Karlheinz Essl;
#X text 143 160 vs. 1.1;
#X obj 41 99 list trim;
#X obj 41 74 list prepend add2;
#X connect 0 0 3 0;
#X connect 1 0 7 0;
#X connect 3 0 2 0;
#X connect 6 0 2 0;
#X connect 7 0 6 0;
#X restore 889 177 pd collect;
#X obj 885 151 t l b;
#X msg 889 199 132;
#X obj 450 426 array get \$1-sfx 0 1;
#X obj 342 401 text get \$1-rsfx;
#X obj 534 489 text get \$1-rsfx;
#X text 577 427 // suffix link leaving the editing point (i);
#X text 452 386 // reverse suffix links leaving the editing point (i)
;
#X text 637 489 // reverse suffix links leaving the target of the suffix
link, f 61;
#X obj 401 524 list prepend;
#X obj 493 539 t l;
#X obj 495 468 t f f f;
#X obj 286 498 list;
#N canvas 516 236 450 300 collect 0;
#X obj 195 37 inlet;
#X obj 41 37 inlet;
#X obj 41 144 outlet;
#X msg 195 74 set;
#X text 143 140 1993-2004 by Karlheinz Essl;
#X text 143 160 vs. 1.1;
#X obj 41 99 list trim;
#X obj 41 74 list prepend add2;
#X connect 0 0 3 0;
#X connect 1 0 7 0;
#X connect 3 0 2 0;
#X connect 6 0 2 0;
#X connect 7 0 6 0;
#X restore 80 669 pd collect;
#X obj 80 647 t l b;
#X obj 342 421 route bang;
#X obj 534 509 route bang;
#X obj 450 446 sel -1 0;
#X obj 325 348 t f f b f;
#X obj 167 518 f;
#X obj 498 639 expr if($f1!=0 && $f1>$f2 && $f1<$f3 && $f1!=$f4 &&
$f1!=$f5 \, $f1 \, -1);
#X obj 167 538 + 1;
#X obj 291 548 list-unique;
#X obj 291 589 list-filter;
#X obj 571 591 r \$0-region;
#X obj 571 611 unpack;
#X msg 305 834 \$1;
#X msg 397 819 set \, adddollar \$1;
#X obj 397 799 + 1;
#X obj 305 724 t l l;
#X obj 397 739 list length;
#X obj 397 779 random;
#X obj 397 759 t b f, f 6;
#N canvas 282 23 487 445 filter-lastx 0;
#X obj 126 173 list-find;
#X obj 184 215 select 1;
#X obj 126 117 list-drip;
#X obj 126 142 t a a;
#X obj 184 242 list;
#X obj 107 58 inlet;
#X obj 183 265 list prepend;
#X obj 278 265 t a;
#X obj 107 327 list;
#X obj 107 83 t b a b b;
#X obj 107 353 outlet;
#X text 97 18 filter the elemnts in first list that exist in the second
list, f 62;
#X obj 184 194 == 0;
#X obj 204 58 r \$0-lastxUnits;
#X obj 204 78 list-math - 0;
#X connect 0 1 12 0;
#X connect 1 0 4 0;
#X connect 2 0 3 0;
#X connect 3 0 0 0;
#X connect 3 1 4 1;
#X connect 4 0 6 0;
#X connect 5 0 9 0;
#X connect 6 0 7 0;
#X connect 6 0 8 1;
#X connect 7 0 6 1;
#X connect 8 0 10 0;
#X connect 9 0 8 0;
#X connect 9 1 2 0;
#X connect 9 2 8 1;
#X connect 9 3 6 1;
#X connect 12 0 1 0;
#X connect 13 0 14 0;
#X connect 14 0 0 1;
#X restore 294 683 pd filter-lastx;
#X obj 294 704 route bang;
#X obj 291 609 route bang;
#X obj 164 565 s \$0-i;
#X obj 341 374 sel 0;
#X floatatom 431 355 5 0 0 0 - - -;
#X obj 243 555 bng 15 250 50 0 empty empty empty 17 7 0 10 -262144
-1 -1;
#X floatatom 661 585 5 0 0 0 - - -;
#X floatatom 729 573 5 0 0 0 - - -;
#X msg 80 691 21;
#X obj 286 518 route bang;
#X obj 291 568 route bang;
#X obj 498 669 sel -1;
#X connect 0 0 48 0;
#X connect 1 0 2 0;
#X connect 2 0 17 0;
#X connect 3 0 11 0;
#X connect 4 0 3 0;
#X connect 4 1 5 0;
#X connect 5 0 9 0;
#X connect 7 0 78 0;
#X connect 11 0 19 0;
#X connect 13 0 22 0;
#X connect 13 1 3 1;
#X connect 15 0 16 0;
#X connect 16 0 22 1;
#X connect 16 1 22 2;
#X connect 17 0 4 0;
#X connect 19 0 20 0;
#X connect 20 0 5 0;
#X connect 20 1 6 0;
#X connect 20 1 24 0;
#X connect 22 0 4 0;
#X connect 24 0 22 3;
#X connect 25 0 46 0;
#X connect 26 0 49 0;
#X connect 27 0 43 0;
#X connect 28 0 59 0;
#X connect 29 0 28 0;
#X connect 30 0 29 0;
#X connect 31 0 28 0;
#X connect 31 0 36 0;
#X connect 31 1 32 0;
#X connect 32 0 34 0;
#X connect 33 0 30 0;
#X connect 34 0 33 0;
#X connect 34 1 33 1;
#X connect 36 0 27 0;
#X connect 37 0 38 0;
#X connect 37 0 52 0;
#X connect 39 0 58 0;
#X connect 40 0 37 0;
#X connect 40 0 47 0;
#X connect 40 1 57 0;
#X connect 41 0 0 0;
#X connect 41 1 1 1;
#X connect 41 1 37 1;
#X connect 41 1 56 4;
#X connect 41 2 25 0;
#X connect 41 2 26 1;
#X connect 42 0 26 1;
#X connect 42 0 45 0;
#X connect 44 0 55 0;
#X connect 45 0 44 0;
#X connect 45 1 44 1;
#X connect 46 0 42 1;
#X connect 48 0 26 0;
#X connect 48 0 13 0;
#X connect 48 1 42 0;
#X connect 49 0 40 0;
#X connect 49 0 61 0;
#X connect 49 1 56 0;
#X connect 50 0 51 0;
#X connect 51 0 56 1;
#X connect 51 1 56 2;
#X connect 54 1 49 1;
#X connect 56 0 54 0;
#X connect 57 0 39 0;
#X connect 58 0 37 0;
#X connect 58 1 31 0;
#X connect 59 0 56 3;
#X connect 60 0 62 0;
#X connect 61 0 60 0;
#X connect 61 1 60 1;
#X connect 63 0 77 0;
#X connect 64 0 75 0;
#X connect 65 0 76 0;
#X connect 69 0 70 0;
#X connect 69 0 72 1;
#X connect 70 0 69 1;
#X connect 71 0 63 0;
#X connect 71 1 69 0;
#X connect 71 2 65 0;
#X connect 72 0 103 0;
#X connect 73 0 102 0;
#X connect 74 0 73 0;
#X connect 74 1 73 1;
#X connect 75 1 69 0;
#X connect 76 1 69 0;
#X connect 77 0 79 0;
#X connect 77 1 72 0;
#X connect 77 2 71 0;
#X connect 78 0 63 0;
#X connect 78 1 97 0;
#X connect 78 2 69 1;
#X connect 78 2 72 1;
#X connect 78 3 79 1;
#X connect 78 3 80 4;
#X connect 78 3 98 0;
#X connect 79 0 81 0;
#X connect 80 0 105 0;
#X connect 81 0 96 0;
#X connect 82 0 104 0;
#X connect 83 0 95 0;
#X connect 83 1 80 0;
#X connect 84 0 85 0;
#X connect 85 0 80 1;
#X connect 85 0 100 0;
#X connect 85 1 80 2;
#X connect 85 1 101 0;
#X connect 86 0 81 0;
#X connect 86 0 80 3;
#X connect 87 0 86 0;
#X connect 88 0 87 0;
#X connect 89 0 86 0;
#X connect 89 1 90 0;
#X connect 90 0 92 0;
#X connect 91 0 88 0;
#X connect 92 0 91 0;
#X connect 92 1 91 1;
#X connect 93 0 94 0;
#X connect 94 0 79 0;
#X connect 94 0 99 0;
#X connect 94 1 89 0;
#X connect 94 1 74 0;
#X connect 95 0 79 0;
#X connect 95 0 99 0;
#X connect 95 1 93 0;
#X connect 97 1 64 0;
#X connect 103 0 79 0;
#X connect 103 0 99 0;
#X connect 103 1 82 0;
#X connect 104 0 99 0;
#X connect 104 1 83 0;
#X connect 105 1 83 1;
#X restore 71 326 pd suffixLink;
#N canvas 53 23 884 422 forwardLink 0;
#X obj 504 290 list trim;
#X msg 504 310 80;
#X obj 128 141 array get \$1-trn;
#X obj 128 118 *;
#X obj 174 103 r \$0-max;
#X msg 242 364 \$1;
#X msg 334 349 set \, adddollar \$1;
#X text 229 140 i;
#X obj 334 329 + 1;
#X obj 128 167 list-filter;
#X obj 242 254 t l l;
#X obj 334 269 list length;
#X obj 334 309 random;
#X obj 334 289 t b f, f 6;
#X text 554 167 Local constraint to select neighbour indixes!;
#X obj 128 379 s \$0-i;
#X obj 334 123 r \$0-region;
#X obj 128 33 inlet;
#X obj 504 269 list prepend set;
#X obj 288 95 expr if($f1!=-1 && abs($f1-$f2)<$f3 \, 1 \, 0);
#X obj 334 143 unpack;
#X text 413 71 i;
#X text 288 76 new trn;
#X text 538 73 region;
#X text 559 94 // previous single value distance "region" constraint
;
#X obj 128 187 route bang;
#X obj 128 73 t f f;
#X obj 128 244 f;
#X obj 128 266 + 1;
#X obj 204 167 expr if($f1!=-1 && $f1>$f2 && $f1<$f3 \, 1 \, 0);
#N canvas 0 23 487 445 filter-lastx 0;
#X obj 126 173 list-find;
#X obj 184 215 select 1;
#X obj 126 117 list-drip;
#X obj 126 142 t a a;
#X obj 184 242 list;
#X obj 107 58 inlet;
#X obj 183 265 list prepend;
#X obj 278 265 t a;
#X obj 107 327 list;
#X obj 107 83 t b a b b;
#X obj 107 353 outlet;
#X text 97 18 filter the elemnts in first list that exist in the second
list, f 62;
#X obj 184 194 == 0;
#X obj 204 58 r \$0-lastxUnits;
#X connect 0 1 12 0;
#X connect 1 0 4 0;
#X connect 2 0 3 0;
#X connect 3 0 0 0;
#X connect 3 1 4 1;
#X connect 4 0 6 0;
#X connect 5 0 9 0;
#X connect 6 0 7 0;
#X connect 6 0 8 1;
#X connect 7 0 6 1;
#X connect 8 0 10 0;
#X connect 9 0 8 0;
#X connect 9 1 2 0;
#X connect 9 2 8 1;
#X connect 9 3 6 1;
#X connect 12 0 1 0;
#X connect 13 0 0 1;
#X restore 185 209 pd filter-lastx;
#X obj 185 229 route bang;
#X obj 168 339 bng 15 250 50 0 empty empty empty 17 7 0 10 -262144
-1 -1;
#X obj 153 216 bng 15 250 50 0 empty empty empty 17 7 0 10 -262144
-1 -1;
#X obj 514 223 list trim;
#X msg 514 243 80;
#X obj 514 202 list prepend set;
#X connect 0 0 1 0;
#X connect 2 0 9 0;
#X connect 3 0 2 0;
#X connect 4 0 3 1;
#X connect 4 0 2 1;
#X connect 5 0 15 0;
#X connect 6 0 5 0;
#X connect 8 0 6 0;
#X connect 9 0 25 0;
#X connect 9 1 29 0;
#X connect 10 0 5 0;
#X connect 10 0 18 0;
#X connect 10 1 11 0;
#X connect 11 0 13 0;
#X connect 12 0 8 0;
#X connect 13 0 12 0;
#X connect 13 1 12 1;
#X connect 16 0 20 0;
#X connect 17 0 26 0;
#X connect 18 0 0 0;
#X connect 20 0 29 1;
#X connect 20 1 29 2;
#X connect 25 0 27 0;
#X connect 25 0 33 0;
#X connect 25 1 30 0;
#X connect 25 1 36 0;
#X connect 26 0 3 0;
#X connect 26 1 27 1;
#X connect 27 0 28 0;
#X connect 28 0 15 0;
#X connect 28 0 32 0;
#X connect 29 0 9 1;
#X connect 30 0 31 0;
#X connect 31 0 27 0;
#X connect 31 1 10 0;
#X connect 34 0 35 0;
#X connect 36 0 34 0;
#X restore 46 347 pd forwardLink;
#N canvas 0 23 450 300 forwardLink 0;
#X obj 78 97 s \$0-i;
#X obj 78 53 inlet;
#X obj 78 74 + 1;
#X connect 1 0 2 0;
#X connect 2 0 0 0;
#X restore 131 220 pd forwardLink;
#X obj 293 196 t f f;
#X obj 341 331 outlet;
#X obj 392 281 array get \$1-trn;
#X obj 341 306 list-find;
#X obj 341 210 t f b, f 9;
#X obj 392 236 f;
#X obj 361 106 s \$0-i;
#X text 291 353 (i \, symbol);
#X obj 392 258 *;
#X obj 438 244 r \$0-max;
#X obj 46 305 route 0 1;
#N canvas 401 23 427 252 last?goToSfx 0;
#X obj 158 54 r \$0-length;
#X obj 89 44 inlet;
#X obj 159 104 array get \$1-sfx 0 1;
#X obj 89 89 moses;
#X obj 89 170 outlet;
#X obj 159 149 s \$0-i;
#X obj 89 65 swap;
#X obj 89 119 swap, f 6;
#X obj 89 140 pack;
#X obj 159 125 + 1;
#X obj 261 38 array get \$1-sfx 0 1;
#X floatatom 261 58 5 0 0 0 - - -;
#X floatatom 263 12 5 0 0 0 - - -;
#X obj 158 74 - 1;
#X connect 0 0 13 0;
#X connect 1 0 6 0;
#X connect 2 0 9 0;
#X connect 3 0 7 0;
#X connect 3 1 2 0;
#X connect 6 0 3 0;
#X connect 6 1 7 1;
#X connect 7 0 8 0;
#X connect 7 1 8 1;
#X connect 8 0 4 0;
#X connect 9 0 5 0;
#X connect 10 0 11 0;
#X connect 12 0 10 0;
#X connect 13 0 3 1;
#X restore 46 176 pd last?goToSfx;
#X obj 46 263 > 0;
#X obj 443 189 list-lastx 4;
#X obj 443 209 s \$0-lastxUnits;
#X floatatom 512 170 5 0 0 0 - - -;
#X obj 362 176 - 0;
#X connect 0 0 7 0;
#X connect 0 0 20 0;
#X connect 1 0 8 0;
#X connect 1 0 22 0;
#X connect 3 0 7 0;
#X connect 4 0 8 0;
#X connect 5 0 0 0;
#X connect 6 0 1 0;
#X connect 9 0 13 0;
#X connect 10 0 13 1;
#X connect 13 0 18 0;
#X connect 14 0 26 0;
#X connect 14 1 34 0;
#X connect 15 0 9 0;
#X connect 16 0 41 0;
#X connect 18 0 46 0;
#X connect 21 0 0 0;
#X connect 23 0 1 0;
#X connect 24 0 47 0;
#X connect 25 0 45 0;
#X connect 26 0 24 0;
#X connect 26 1 25 1;
#X connect 28 0 31 0;
#X connect 29 0 18 1;
#X connect 30 0 35 0;
#X connect 32 0 25 0;
#X connect 35 0 11 0;
#X connect 35 0 51 0;
#X connect 35 1 39 0;
#X connect 37 0 38 1;
#X connect 38 0 36 0;
#X connect 39 0 40 1;
#X connect 39 0 38 0;
#X connect 39 1 40 0;
#X connect 40 0 43 0;
#X connect 43 0 37 0;
#X connect 44 0 43 1;
#X connect 44 0 37 1;
#X connect 45 0 33 0;
#X connect 45 1 32 0;
#X connect 46 0 14 0;
#X connect 47 0 25 0;
#X connect 48 0 49 0;
#X connect 50 0 48 1;
#X connect 51 0 48 0;
