#N struct 1137-curve float x float y float a float b float abx float
aby;
#N canvas 45 23 1030 582 10;
#N canvas 0 178 1026 574 guts 0;
#N canvas 118 243 519 148 line 0;
#X obj 17 19 struct \$0-line float x float y;
#X obj 17 44 drawpolygon -x 0 3 0 0 1000 0;
#X restore 742 39 pd line;
#X obj 68 123 until;
#X obj 68 144 f;
#X obj 95 144 + 1;
#X obj 130 128 0;
#X obj 68 193 array get \$1-sfx 0 1;
#X obj 68 38 bng 15 250 50 0 empty empty empty 17 7 0 10 -262144 -1
-1;
#X obj 113 441 pack f f f f;
#X obj 277 282 abs;
#X obj 365 221 *;
#X obj 113 236 *;
#X obj 360 188 expr 1000/$f1;
#X obj 365 242 i;
#X obj 151 318 i;
#X obj 113 278 i;
#N canvas 310 456 519 148 curve 0;
#X obj 17 19 struct \$0-curve float x float y float a float b float
abx float aby;
#X obj 17 64 drawcurve -x 0 1 a 500 abx aby b 500;
#X restore 742 19 pd curve;
#X obj 68 165 t f f;
#X obj 113 257 t f f;
#X obj 277 261 -;
#X obj 151 296 / 2;
#X obj 113 299 t f f;
#X obj 136 340 +;
#X obj 159 368 + 500;
#X obj 68 80 v \$1-length;
#X text 88 37 sfx;
#X obj 79 327 min;
#X obj 660 467 pointer;
#X msg 660 444 traverse pd-\$1-viz \, bang;
#X msg 739 131 clear;
#X obj 739 152 s pd-\$1-viz;
#X obj 456 99 until;
#X obj 456 120 f;
#X obj 483 120 + 1;
#X obj 456 35 t b b;
#X obj 456 14 bng 15 250 50 0 empty empty empty 17 7 0 10 -262144 -1
-1;
#X obj 501 457 pack f f f f;
#X obj 665 338 abs;
#X obj 501 489 append \$0-curve a abx aby b;
#X obj 660 422 symbol \$1;
#X obj 751 273 *;
#X obj 501 292 *;
#X obj 765 236 expr 1000/$f1;
#X obj 755 329 i;
#X obj 559 394 i;
#X obj 501 334 i;
#X obj 456 77 t f f b b;
#X obj 501 313 t f f;
#X obj 665 317 -;
#X obj 559 372 / 2;
#X obj 501 355 t f f;
#X obj 524 416 +;
#X obj 524 394 min;
#X obj 68 101 t f f;
#X obj 68 59 t b b b;
#X obj 456 209 array get \$1-trn;
#X obj 558 130 v \$1-max;
#X obj 456 230 list-drip;
#X obj 456 270 sel -1;
#X obj 68 214 sel -1;
#X obj 159 389 i;
#X obj 136 361 i;
#X obj 605 395 expr int(abs(1000-$f1)-500);
#X text 476 13 trn;
#X obj 518 104 4;
#X obj 456 181 *;
#X obj 456 56 v \$1-length;
#X obj 456 141 t f f;
#X obj 65 14 inlet;
#X connect 1 0 2 0;
#X connect 2 0 3 0;
#X connect 2 0 16 0;
#X connect 3 0 2 1;
#X connect 4 0 2 1;
#X connect 5 0 58 0;
#X connect 6 0 53 0;
#X connect 7 0 37 0;
#X connect 8 0 19 0;
#X connect 8 0 22 0;
#X connect 9 0 12 0;
#X connect 9 0 18 1;
#X connect 10 0 17 0;
#X connect 11 0 9 1;
#X connect 11 0 10 1;
#X connect 12 0 7 3;
#X connect 12 0 25 1;
#X connect 13 0 21 1;
#X connect 14 0 20 0;
#X connect 16 0 5 0;
#X connect 16 1 9 0;
#X connect 17 0 14 0;
#X connect 17 1 18 0;
#X connect 18 0 8 0;
#X connect 19 0 13 0;
#X connect 20 0 7 0;
#X connect 20 1 25 0;
#X connect 21 0 60 0;
#X connect 22 0 59 0;
#X connect 23 0 52 0;
#X connect 25 0 21 0;
#X connect 26 0 37 4;
#X connect 27 0 26 0;
#X connect 28 0 29 0;
#X connect 30 0 31 0;
#X connect 31 0 32 0;
#X connect 31 0 66 0;
#X connect 32 0 31 1;
#X connect 33 0 65 0;
#X connect 33 1 63 0;
#X connect 34 0 33 0;
#X connect 35 0 37 0;
#X connect 36 0 48 0;
#X connect 36 0 61 0;
#X connect 38 0 27 0;
#X connect 39 0 42 0;
#X connect 39 0 47 1;
#X connect 40 0 46 0;
#X connect 41 0 39 1;
#X connect 41 0 40 1;
#X connect 42 0 35 3;
#X connect 42 0 51 1;
#X connect 43 0 50 1;
#X connect 44 0 49 0;
#X connect 45 0 30 0;
#X connect 45 1 41 0;
#X connect 45 2 38 0;
#X connect 45 3 28 0;
#X connect 45 3 55 0;
#X connect 46 0 44 0;
#X connect 46 1 47 0;
#X connect 47 0 36 0;
#X connect 48 0 43 0;
#X connect 49 0 35 0;
#X connect 49 1 51 0;
#X connect 50 0 35 1;
#X connect 51 0 50 0;
#X connect 52 0 1 0;
#X connect 52 1 11 0;
#X connect 53 0 23 0;
#X connect 53 1 4 0;
#X connect 53 2 33 0;
#X connect 54 0 56 0;
#X connect 55 0 64 1;
#X connect 55 0 54 1;
#X connect 56 0 57 0;
#X connect 57 1 40 0;
#X connect 58 1 10 0;
#X connect 59 0 7 2;
#X connect 60 0 7 1;
#X connect 61 0 35 2;
#X connect 63 0 31 1;
#X connect 64 0 54 0;
#X connect 65 0 45 0;
#X connect 66 0 64 0;
#X connect 66 1 39 0;
#X connect 67 0 6 0;
#X restore 7 34 pd guts;
#N canvas 0 23 450 300 \$1-viz 0;
#X scalar 1137-curve 0 0 404 16 210 111 \;;
#X scalar 1137-curve 0 0 20 16 18 495 \;;
#X scalar 1137-curve 0 0 28 20 24 491 \;;
#X scalar 1137-curve 0 0 553 20 286 -33 \;;
#X scalar 1137-curve 0 0 173 20 96 347 \;;
#X scalar 1137-curve 0 0 24 20 22 495 \;;
#X scalar 1137-curve 0 0 28 24 26 495 \;;
#X scalar 1137-curve 0 0 33 28 30 495 \;;
#X scalar 1137-curve 0 0 132 28 79 396 \;;
#X scalar 1137-curve 0 0 37 33 35 495 \;;
#X scalar 1137-curve 0 0 82 33 57 450 \;;
#X scalar 1137-curve 0 0 41 37 39 495 \;;
#X scalar 1137-curve 0 0 838 37 437 -301 \;;
#X scalar 1137-curve 0 0 45 37 41 491 \;;
#X scalar 1137-curve 0 0 314 37 175 223 \;;
#X scalar 1137-curve 0 0 115 37 76 421 \;;
#X scalar 1137-curve 0 0 210 37 123 326 \;;
#X scalar 1137-curve 0 0 809 37 423 -272 \;;
#X scalar 1137-curve 0 0 838 41 439 -297 \;;
#X scalar 1137-curve 0 0 45 41 43 495 \;;
#X scalar 1137-curve 0 0 314 41 177 227 \;;
#X scalar 1137-curve 0 0 115 41 78 425 \;;
#X scalar 1137-curve 0 0 809 41 425 -268 \;;
#X scalar 1137-curve 0 0 49 45 47 495 \;;
#X scalar 1137-curve 0 0 185 45 115 359 \;;
#X scalar 1137-curve 0 0 194 45 119 351 \;;
#X scalar 1137-curve 0 0 909 45 476 -363 \;;
#X scalar 1137-curve 0 0 917 45 480 -371 \;;
#X scalar 1137-curve 0 0 53 49 51 495 \;;
#X scalar 1137-curve 0 0 863 49 456 -314 \;;
#X scalar 1137-curve 0 0 90 49 69 458 \;;
#X scalar 1137-curve 0 0 181 49 115 367 \;;
#X scalar 1137-curve 0 0 293 49 170 256 \;;
#X scalar 1137-curve 0 0 950 49 499 -400 \;;
#X scalar 1137-curve 0 0 66 49 57 483 \;;
#X scalar 1137-curve 0 0 57 53 55 495 \;;
#X scalar 1137-curve 0 0 392 53 222 161 \;;
#X scalar 1137-curve 0 0 61 57 59 495 \;;
#X scalar 1137-curve 0 0 66 61 63 495 \;;
#X scalar 1137-curve 0 0 70 66 68 495 \;;
#X scalar 1137-curve 0 0 74 70 72 495 \;;
#X scalar 1137-curve 0 0 173 70 121 396 \;;
#X scalar 1137-curve 0 0 123 70 96 446 \;;
#X scalar 1137-curve 0 0 78 74 76 495 \;;
#X scalar 1137-curve 0 0 82 78 80 495 \;;
#X scalar 1137-curve 0 0 86 82 84 495 \;;
#X scalar 1137-curve 0 0 90 86 88 495 \;;
#X scalar 1137-curve 0 0 950 86 517 -363 \;;
#X scalar 1137-curve 0 0 243 90 166 347 \;;
#X scalar 1137-curve 0 0 442 90 265 148 \;;
#X scalar 1137-curve 0 0 268 90 178 322 \;;
#X scalar 1137-curve 0 0 475 90 282 115 \;;
#X scalar 1137-curve 0 0 615 90 352 -24 \;;
#X scalar 1137-curve 0 0 549 90 319 41 \;;
#X scalar 1137-curve 0 0 400 90 244 190 \;;
#X scalar 1137-curve 0 0 466 90 278 123 \;;
#X scalar 1137-curve 0 0 95 90 92 495 \;;
#X scalar 1137-curve 0 0 367 90 228 223 \;;
#X scalar 1137-curve 0 0 516 90 302 74 \;;
#X scalar 1137-curve 0 0 524 90 306 66 \;;
#X scalar 1137-curve 0 0 99 95 97 495 \;;
#X scalar 1137-curve 0 0 103 99 101 495 \;;
#X scalar 1137-curve 0 0 107 103 105 495 \;;
#X scalar 1137-curve 0 0 111 107 109 495 \;;
#X scalar 1137-curve 0 0 115 111 113 495 \;;
#X scalar 1137-curve 0 0 119 115 117 495 \;;
#X scalar 1137-curve 0 0 123 119 121 495 \;;
#X scalar 1137-curve 0 0 128 123 125 495 \;;
#X scalar 1137-curve 0 0 132 128 130 495 \;;
#X scalar 1137-curve 0 0 136 132 134 495 \;;
#X scalar 1137-curve 0 0 140 136 138 495 \;;
#X scalar 1137-curve 0 0 239 136 187 396 \;;
#X scalar 1137-curve 0 0 144 140 142 495 \;;
#X scalar 1137-curve 0 0 148 144 146 495 \;;
#X scalar 1137-curve 0 0 152 148 150 495 \;;
#X scalar 1137-curve 0 0 157 152 154 495 \;;
#X scalar 1137-curve 0 0 161 157 159 495 \;;
#X scalar 1137-curve 0 0 165 161 163 495 \;;
#X scalar 1137-curve 0 0 169 165 167 495 \;;
#X scalar 1137-curve 0 0 173 169 171 495 \;;
#X scalar 1137-curve 0 0 177 173 175 495 \;;
#X scalar 1137-curve 0 0 181 177 179 495 \;;
#X scalar 1137-curve 0 0 185 181 183 495 \;;
#X scalar 1137-curve 0 0 289 185 236 396 \;;
#X scalar 1137-curve 0 0 190 185 187 495 \;;
#X scalar 1137-curve 0 0 194 185 189 491 \;;
#X scalar 1137-curve 0 0 194 190 192 495 \;;
#X scalar 1137-curve 0 0 198 194 196 495 \;;
#X scalar 1137-curve 0 0 479 194 336 214 \;;
#X scalar 1137-curve 0 0 219 194 206 475 \;;
#X scalar 1137-curve 0 0 318 194 255 376 \;;
#X scalar 1137-curve 0 0 202 198 200 495 \;;
#X scalar 1137-curve 0 0 380 198 288 318 \;;
#X scalar 1137-curve 0 0 330 198 264 367 \;;
#X scalar 1137-curve 0 0 206 202 204 495 \;;
#X scalar 1137-curve 0 0 309 206 257 396 \;;
#X scalar 1137-curve 0 0 210 206 208 495 \;;
#X scalar 1137-curve 0 0 214 210 212 495 \;;
#X scalar 1137-curve 0 0 219 214 216 495 \;;
#X scalar 1137-curve 0 0 223 219 221 495 \;;
#X scalar 1137-curve 0 0 227 223 225 495 \;;
#X scalar 1137-curve 0 0 231 227 229 495 \;;
#X scalar 1137-curve 0 0 235 231 233 495 \;;
#X scalar 1137-curve 0 0 239 235 237 495 \;;
#X scalar 1137-curve 0 0 243 239 241 495 \;;
#X scalar 1137-curve 0 0 247 243 245 495 \;;
#X scalar 1137-curve 0 0 252 247 249 495 \;;
#X scalar 1137-curve 0 0 280 247 263 466 \;;
#X scalar 1137-curve 0 0 256 252 254 495 \;;
#X scalar 1137-curve 0 0 260 256 258 495 \;;
#X scalar 1137-curve 0 0 264 260 262 495 \;;
#X scalar 1137-curve 0 0 268 264 266 495 \;;
#X scalar 1137-curve 0 0 367 264 315 396 \;;
#X scalar 1137-curve 0 0 272 268 270 495 \;;
#X scalar 1137-curve 0 0 454 268 360 314 \;;
#X scalar 1137-curve 0 0 615 268 441 152 \;;
#X scalar 1137-curve 0 0 276 272 274 495 \;;
#X scalar 1137-curve 0 0 280 276 278 495 \;;
#X scalar 1137-curve 0 0 285 280 282 495 \;;
#X scalar 1137-curve 0 0 289 285 287 495 \;;
#X scalar 1137-curve 0 0 863 289 576 -74 \;;
#X scalar 1137-curve 0 0 293 289 291 495 \;;
#X scalar 1137-curve 0 0 297 293 295 495 \;;
#X scalar 1137-curve 0 0 318 293 305 475 \;;
#X scalar 1137-curve 0 0 301 297 299 495 \;;
#X scalar 1137-curve 0 0 305 301 303 495 \;;
#X scalar 1137-curve 0 0 309 305 307 495 \;;
#X scalar 1137-curve 0 0 314 309 311 495 \;;
#X scalar 1137-curve 0 0 318 314 316 495 \;;
#X scalar 1137-curve 0 0 322 318 320 495 \;;
#X scalar 1137-curve 0 0 326 322 324 495 \;;
#X scalar 1137-curve 0 0 330 326 328 495 \;;
#X scalar 1137-curve 0 0 334 330 332 495 \;;
#X scalar 1137-curve 0 0 338 334 336 495 \;;
#X scalar 1137-curve 0 0 342 338 340 495 \;;
#X scalar 1137-curve 0 0 347 342 344 495 \;;
#X scalar 1137-curve 0 0 351 347 349 495 \;;
#X scalar 1137-curve 0 0 355 351 353 495 \;;
#X scalar 1137-curve 0 0 359 355 357 495 \;;
#X scalar 1137-curve 0 0 363 359 361 495 \;;
#X scalar 1137-curve 0 0 367 363 365 495 \;;
#X scalar 1137-curve 0 0 371 367 369 495 \;;
#X scalar 1137-curve 0 0 376 371 373 495 \;;
#X scalar 1137-curve 0 0 380 376 378 495 \;;
#X scalar 1137-curve 0 0 384 380 382 495 \;;
#X scalar 1137-curve 0 0 388 384 386 495 \;;
#X scalar 1137-curve 0 0 392 388 390 495 \;;
#X scalar 1137-curve 0 0 764 392 577 128 \;;
#X scalar 1137-curve 0 0 396 392 394 495 \;;
#X scalar 1137-curve 0 0 413 392 402 479 \;;
#X scalar 1137-curve 0 0 541 396 468 355 \;;
#X scalar 1137-curve 0 0 623 396 509 272 \;;
#X scalar 1137-curve 0 0 400 396 398 495 \;;
#X scalar 1137-curve 0 0 516 396 455 380 \;;
#X scalar 1137-curve 0 0 404 400 402 495 \;;
#X scalar 1137-curve 0 0 694 404 548 210 \;;
#X scalar 1137-curve 0 0 433 404 418 471 \;;
#X scalar 1137-curve 0 0 438 404 420 466 \;;
#X scalar 1137-curve 0 0 904 404 653 0 \;;
#X scalar 1137-curve 0 0 409 404 406 495 \;;
#X scalar 1137-curve 0 0 586 404 494 318 \;;
#X scalar 1137-curve 0 0 665 404 534 239 \;;
#X scalar 1137-curve 0 0 495 404 449 409 \;;
#X scalar 1137-curve 0 0 685 404 544 219 \;;
#X scalar 1137-curve 0 0 785 404 594 119 \;;
#X scalar 1137-curve 0 0 892 404 647 12 \;;
#X scalar 1137-curve 0 0 764 409 586 144 \;;
#X scalar 1137-curve 0 0 512 409 460 396 \;;
#X scalar 1137-curve 0 0 413 409 411 495 \;;
#X scalar 1137-curve 0 0 421 413 417 491 \;;
#X scalar 1137-curve 0 0 417 413 415 495 \;;
#X scalar 1137-curve 0 0 421 417 419 495 \;;
#X scalar 1137-curve 0 0 425 421 423 495 \;;
#X scalar 1137-curve 0 0 429 425 427 495 \;;
#X scalar 1137-curve 0 0 433 429 431 495 \;;
#X scalar 1137-curve 0 0 822 433 627 111 \;;
#X scalar 1137-curve 0 0 487 433 459 446 \;;
#X scalar 1137-curve 0 0 438 433 435 495 \;;
#X scalar 1137-curve 0 0 760 433 596 173 \;;
#X scalar 1137-curve 0 0 586 433 509 347 \;;
#X scalar 1137-curve 0 0 665 433 548 268 \;;
#X scalar 1137-curve 0 0 495 433 463 438 \;;
#X scalar 1137-curve 0 0 685 433 559 247 \;;
#X scalar 1137-curve 0 0 785 433 608 148 \;;
#X scalar 1137-curve 0 0 892 433 662 41 \;;
#X scalar 1137-curve 0 0 442 438 440 495 \;;
#X scalar 1137-curve 0 0 450 438 444 487 \;;
#X scalar 1137-curve 0 0 574 438 506 363 \;;
#X scalar 1137-curve 0 0 549 438 493 388 \;;
#X scalar 1137-curve 0 0 466 438 452 471 \;;
#X scalar 1137-curve 0 0 458 442 450 483 \;;
#X scalar 1137-curve 0 0 446 442 444 495 \;;
#X scalar 1137-curve 0 0 731 442 586 210 \;;
#X scalar 1137-curve 0 0 450 446 448 495 \;;
#X scalar 1137-curve 0 0 574 446 510 371 \;;
#X scalar 1137-curve 0 0 549 446 497 396 \;;
#X scalar 1137-curve 0 0 454 450 452 495 \;;
#X scalar 1137-curve 0 0 615 450 532 334 \;;
#X scalar 1137-curve 0 0 458 454 456 495 \;;
#X scalar 1137-curve 0 0 607 454 530 347 \;;
#X scalar 1137-curve 0 0 731 454 592 223 \;;
#X scalar 1137-curve 0 0 462 458 460 495 \;;
#X scalar 1137-curve 0 0 636 458 546 322 \;;
#X scalar 1137-curve 0 0 685 458 571 272 \;;
#X scalar 1137-curve 0 0 714 462 588 247 \;;
#X scalar 1137-curve 0 0 466 462 464 495 \;;
#X scalar 1137-curve 0 0 669 466 567 297 \;;
#X scalar 1137-curve 0 0 471 466 468 495 \;;
#X scalar 1137-curve 0 0 739 471 605 231 \;;
#X scalar 1137-curve 0 0 475 471 473 495 \;;
#X scalar 1137-curve 0 0 479 475 477 495 \;;
#X scalar 1137-curve 0 0 483 479 481 495 \;;
#X scalar 1137-curve 0 0 487 483 485 495 \;;
#X scalar 1137-curve 0 0 760 483 621 223 \;;
#X scalar 1137-curve 0 0 586 483 534 396 \;;
#X scalar 1137-curve 0 0 491 487 489 495 \;;
#X scalar 1137-curve 0 0 665 487 575 322 \;;
#X scalar 1137-curve 0 0 495 487 491 491 \;;
#X scalar 1137-curve 0 0 892 487 689 95 \;;
#X scalar 1137-curve 0 0 880 491 685 111 \;;
#X scalar 1137-curve 0 0 495 491 493 495 \;;
#X scalar 1137-curve 0 0 892 491 691 99 \;;
#X scalar 1137-curve 0 0 499 495 497 495 \;;
#X scalar 1137-curve 0 0 504 499 501 495 \;;
#X scalar 1137-curve 0 0 508 504 506 495 \;;
#X scalar 1137-curve 0 0 512 508 510 495 \;;
#X scalar 1137-curve 0 0 541 512 526 471 \;;
#X scalar 1137-curve 0 0 516 512 514 495 \;;
#X scalar 1137-curve 0 0 520 516 518 495 \;;
#X scalar 1137-curve 0 0 524 520 522 495 \;;
#X scalar 1137-curve 0 0 528 524 526 495 \;;
#X scalar 1137-curve 0 0 533 528 530 495 \;;
#X scalar 1137-curve 0 0 537 533 535 495 \;;
#X scalar 1137-curve 0 0 541 537 539 495 \;;
#X scalar 1137-curve 0 0 545 541 543 495 \;;
#X scalar 1137-curve 0 0 574 545 559 471 \;;
#X scalar 1137-curve 0 0 549 545 547 495 \;;
#X scalar 1137-curve 0 0 933 549 741 115 \;;
#X scalar 1137-curve 0 0 553 549 551 495 \;;
#X scalar 1137-curve 0 0 557 553 555 495 \;;
#X scalar 1137-curve 0 0 561 557 559 495 \;;
#X scalar 1137-curve 0 0 566 561 563 495 \;;
#X scalar 1137-curve 0 0 570 566 568 495 \;;
#X scalar 1137-curve 0 0 574 570 572 495 \;;
#X scalar 1137-curve 0 0 578 574 576 495 \;;
#X scalar 1137-curve 0 0 582 578 580 495 \;;
#X scalar 1137-curve 0 0 760 582 670 322 \;;
#X scalar 1137-curve 0 0 586 582 584 495 \;;
#X scalar 1137-curve 0 0 847 586 716 239 \;;
#X scalar 1137-curve 0 0 590 586 588 495 \;;
#X scalar 1137-curve 0 0 640 586 612 446 \;;
#X scalar 1137-curve 0 0 595 590 592 495 \;;
#X scalar 1137-curve 0 0 599 595 597 495 \;;
#X scalar 1137-curve 0 0 603 599 601 495 \;;
#X scalar 1137-curve 0 0 607 603 605 495 \;;
#X scalar 1137-curve 0 0 611 607 609 495 \;;
#X scalar 1137-curve 0 0 615 611 613 495 \;;
#X scalar 1137-curve 0 0 619 615 617 495 \;;
#X scalar 1137-curve 0 0 623 619 621 495 \;;
#X scalar 1137-curve 0 0 628 623 625 495 \;;
#X scalar 1137-curve 0 0 632 628 630 495 \;;
#X scalar 1137-curve 0 0 636 632 634 495 \;;
#X scalar 1137-curve 0 0 640 636 638 495 \;;
#X scalar 1137-curve 0 0 644 640 642 495 \;;
#X scalar 1137-curve 0 0 648 644 646 495 \;;
#X scalar 1137-curve 0 0 652 648 650 495 \;;
#X scalar 1137-curve 0 0 657 652 654 495 \;;
#X scalar 1137-curve 0 0 661 657 659 495 \;;
#X scalar 1137-curve 0 0 665 661 663 495 \;;
#X scalar 1137-curve 0 0 669 665 667 495 \;;
#X scalar 1137-curve 0 0 735 665 700 429 \;;
#X scalar 1137-curve 0 0 673 669 671 495 \;;
#X scalar 1137-curve 0 0 677 673 675 495 \;;
#X scalar 1137-curve 0 0 681 677 679 495 \;;
#X scalar 1137-curve 0 0 685 681 683 495 \;;
#X scalar 1137-curve 0 0 690 685 687 495 \;;
#X scalar 1137-curve 0 0 694 690 692 495 \;;
#X scalar 1137-curve 0 0 797 694 745 396 \;;
#X scalar 1137-curve 0 0 698 694 696 495 \;;
#X scalar 1137-curve 0 0 772 694 733 421 \;;
#X scalar 1137-curve 0 0 702 698 700 495 \;;
#X scalar 1137-curve 0 0 706 702 704 495 \;;
#X scalar 1137-curve 0 0 710 706 708 495 \;;
#X scalar 1137-curve 0 0 714 710 712 495 \;;
#X scalar 1137-curve 0 0 719 714 716 495 \;;
#X scalar 1137-curve 0 0 723 719 721 495 \;;
#X scalar 1137-curve 0 0 727 723 725 495 \;;
#X scalar 1137-curve 0 0 731 727 729 495 \;;
#X scalar 1137-curve 0 0 735 731 733 495 \;;
#X scalar 1137-curve 0 0 739 735 737 495 \;;
#X scalar 1137-curve 0 0 743 739 741 495 \;;
#X scalar 1137-curve 0 0 747 743 745 495 \;;
#X scalar 1137-curve 0 0 752 747 749 495 \;;
#X scalar 1137-curve 0 0 756 752 754 495 \;;
#X scalar 1137-curve 0 0 760 756 758 495 \;;
#X scalar 1137-curve 0 0 764 760 762 495 \;;
#X scalar 1137-curve 0 0 768 764 766 495 \;;
#X scalar 1137-curve 0 0 772 768 770 495 \;;
#X scalar 1137-curve 0 0 776 772 774 495 \;;
#X scalar 1137-curve 0 0 780 776 778 495 \;;
#X scalar 1137-curve 0 0 785 780 782 495 \;;
#X scalar 1137-curve 0 0 789 785 787 495 \;;
#X scalar 1137-curve 0 0 793 789 791 495 \;;
#X scalar 1137-curve 0 0 797 793 795 495 \;;
#X scalar 1137-curve 0 0 801 797 799 495 \;;
#X scalar 1137-curve 0 0 805 801 803 495 \;;
#X scalar 1137-curve 0 0 838 805 821 466 \;;
#X scalar 1137-curve 0 0 809 805 807 495 \;;
#X scalar 1137-curve 0 0 814 809 811 495 \;;
#X scalar 1137-curve 0 0 818 814 816 495 \;;
#X scalar 1137-curve 0 0 822 818 820 495 \;;
#X scalar 1137-curve 0 0 826 822 824 495 \;;
#X scalar 1137-curve 0 0 830 826 828 495 \;;
#X scalar 1137-curve 0 0 834 830 832 495 \;;
#X scalar 1137-curve 0 0 838 834 836 495 \;;
#X scalar 1137-curve 0 0 867 838 852 471 \;;
#X scalar 1137-curve 0 0 842 838 840 495 \;;
#X scalar 1137-curve 0 0 847 842 844 495 \;;
#X scalar 1137-curve 0 0 851 847 849 495 \;;
#X scalar 1137-curve 0 0 855 851 853 495 \;;
#X scalar 1137-curve 0 0 859 855 857 495 \;;
#X scalar 1137-curve 0 0 863 859 861 495 \;;
#X scalar 1137-curve 0 0 867 863 865 495 \;;
#X scalar 1137-curve 0 0 871 867 869 495 \;;
#X scalar 1137-curve 0 0 876 871 873 495 \;;
#X scalar 1137-curve 0 0 880 876 878 495 \;;
#X scalar 1137-curve 0 0 884 880 882 495 \;;
#X scalar 1137-curve 0 0 892 880 886 487 \;;
#X scalar 1137-curve 0 0 888 884 886 495 \;;
#X scalar 1137-curve 0 0 892 884 888 491 \;;
#X scalar 1137-curve 0 0 892 888 890 495 \;;
#X scalar 1137-curve 0 0 896 892 894 495 \;;
#X scalar 1137-curve 0 0 900 896 898 495 \;;
#X scalar 1137-curve 0 0 904 900 902 495 \;;
#X scalar 1137-curve 0 0 909 904 906 495 \;;
#X scalar 1137-curve 0 0 913 909 911 495 \;;
#X scalar 1137-curve 0 0 954 909 931 454 \;;
#X scalar 1137-curve 0 0 983 909 946 425 \;;
#X scalar 1137-curve 0 0 917 913 915 495 \;;
#X scalar 1137-curve 0 0 921 917 919 495 \;;
#X scalar 1137-curve 0 0 925 921 923 495 \;;
#X scalar 1137-curve 0 0 929 925 927 495 \;;
#X scalar 1137-curve 0 0 933 929 931 495 \;;
#X scalar 1137-curve 0 0 938 933 935 495 \;;
#X scalar 1137-curve 0 0 942 938 940 495 \;;
#X scalar 1137-curve 0 0 946 942 944 495 \;;
#X scalar 1137-curve 0 0 950 946 948 495 \;;
#X scalar 1137-curve 0 0 954 950 952 495 \;;
#X scalar 1137-curve 0 0 958 954 956 495 \;;
#X scalar 1137-curve 0 0 983 954 968 471 \;;
#X scalar 1137-curve 0 0 962 958 960 495 \;;
#X scalar 1137-curve 0 0 983 958 970 475 \;;
#X scalar 1137-curve 0 0 966 962 964 495 \;;
#X scalar 1137-curve 0 0 983 962 972 479 \;;
#X scalar 1137-curve 0 0 971 966 968 495 \;;
#X scalar 1137-curve 0 0 983 966 974 483 \;;
#X scalar 1137-curve 0 0 975 971 973 495 \;;
#X scalar 1137-curve 0 0 983 971 977 487 \;;
#X scalar 1137-curve 0 0 979 975 977 495 \;;
#X scalar 1137-curve 0 0 983 975 979 491 \;;
#X scalar 1137-curve 0 0 983 979 981 495 \;;
#X scalar 1137-curve 0 0 987 983 985 495 \;;
#X scalar 1137-curve 0 0 995 983 989 487 \;;
#X scalar 1137-curve 0 0 991 987 989 495 \;;
#X scalar 1137-curve 0 0 995 991 993 495 \;;
#X scalar 1137-curve 0 0 0 4 2 504 \;;
#X scalar 1137-curve 0 0 4 8 6 504 \;;
#X scalar 1137-curve 0 0 0 12 6 512 \;;
#X scalar 1137-curve 0 0 0 16 8 516 \;;
#X scalar 1137-curve 0 0 0 20 10 520 \;;
#X scalar 1137-curve 0 0 20 24 22 504 \;;
#X scalar 1137-curve 0 0 4 28 16 524 \;;
#X scalar 1137-curve 0 0 8 33 20 524 \;;
#X scalar 1137-curve 0 0 8 37 22 528 \;;
#X scalar 1137-curve 0 0 37 41 39 504 \;;
#X scalar 1137-curve 0 0 0 45 22 545 \;;
#X scalar 1137-curve 0 0 4 49 26 545 \;;
#X scalar 1137-curve 0 0 8 53 30 545 \;;
#X scalar 1137-curve 0 0 45 57 51 512 \;;
#X scalar 1137-curve 0 0 49 61 55 512 \;;
#X scalar 1137-curve 0 0 16 66 40 549 \;;
#X scalar 1137-curve 0 0 20 70 44 549 \;;
#X scalar 1137-curve 0 0 28 74 50 545 \;;
#X scalar 1137-curve 0 0 33 78 55 545 \;;
#X scalar 1137-curve 0 0 45 82 63 537 \;;
#X scalar 1137-curve 0 0 49 86 67 537 \;;
#X scalar 1137-curve 0 0 0 90 45 590 \;;
#X scalar 1137-curve 0 0 0 95 47 595 \;;
#X scalar 1137-curve 0 0 4 99 51 595 \;;
#X scalar 1137-curve 0 0 8 103 55 595 \;;
#X scalar 1137-curve 0 0 37 107 72 570 \;;
#X scalar 1137-curve 0 0 41 111 76 570 \;;
#X scalar 1137-curve 0 0 66 115 90 549 \;;
#X scalar 1137-curve 0 0 70 119 94 549 \;;
#X scalar 1137-curve 0 0 24 123 73 599 \;;
#X scalar 1137-curve 0 0 28 128 77 599 \;;
#X scalar 1137-curve 0 0 0 132 66 632 \;;
#X scalar 1137-curve 0 0 4 136 70 632 \;;
#X scalar 1137-curve 0 0 8 140 74 632 \;;
#X scalar 1137-curve 0 0 45 144 94 599 \;;
#X scalar 1137-curve 0 0 49 148 98 599 \;;
#X scalar 1137-curve 0 0 53 152 102 599 \;;
#X scalar 1137-curve 0 0 57 157 106 599 \;;
#X scalar 1137-curve 0 0 61 161 110 599 \;;
#X scalar 1137-curve 0 0 66 165 115 599 \;;
#X scalar 1137-curve 0 0 70 169 119 599 \;;
#X scalar 1137-curve 0 0 45 173 109 628 \;;
#X scalar 1137-curve 0 0 49 177 113 628 \;;
#X scalar 1137-curve 0 0 45 181 113 636 \;;
#X scalar 1137-curve 0 0 45 185 115 640 \;;
#X scalar 1137-curve 0 0 185 190 187 504 \;;
#X scalar 1137-curve 0 0 0 194 97 694 \;;
#X scalar 1137-curve 0 0 4 198 101 694 \;;
#X scalar 1137-curve 0 0 8 202 105 694 \;;
#X scalar 1137-curve 0 0 37 206 121 669 \;;
#X scalar 1137-curve 0 0 12 210 111 698 \;;
#X scalar 1137-curve 0 0 194 214 204 520 \;;
#X scalar 1137-curve 0 0 0 219 109 719 \;;
#X scalar 1137-curve 0 0 4 223 113 719 \;;
#X scalar 1137-curve 0 0 8 227 117 719 \;;
#X scalar 1137-curve 0 0 132 231 181 599 \;;
#X scalar 1137-curve 0 0 136 235 185 599 \;;
#X scalar 1137-curve 0 0 90 239 164 648 \;;
#X scalar 1137-curve 0 0 4 243 123 739 \;;
#X scalar 1137-curve 0 0 8 247 127 739 \;;
#X scalar 1137-curve 0 0 37 252 144 714 \;;
#X scalar 1137-curve 0 0 45 256 150 710 \;;
#X scalar 1137-curve 0 0 49 260 154 710 \;;
#X scalar 1137-curve 0 0 90 264 176 673 \;;
#X scalar 1137-curve 0 0 90 268 178 677 \;;
#X scalar 1137-curve 0 0 243 272 257 528 \;;
#X scalar 1137-curve 0 0 247 276 261 528 \;;
#X scalar 1137-curve 0 0 45 280 162 735 \;;
#X scalar 1137-curve 0 0 185 285 234 599 \;;
#X scalar 1137-curve 0 0 49 289 168 739 \;;
#X scalar 1137-curve 0 0 194 293 243 599 \;;
#X scalar 1137-curve 0 0 198 297 247 599 \;;
#X scalar 1137-curve 0 0 202 301 251 599 \;;
#X scalar 1137-curve 0 0 206 305 255 599 \;;
#X scalar 1137-curve 0 0 41 309 175 768 \;;
#X scalar 1137-curve 0 0 293 314 303 520 \;;
#X scalar 1137-curve 0 0 0 318 159 818 \;;
#X scalar 1137-curve 0 0 194 322 258 628 \;;
#X scalar 1137-curve 0 0 198 326 262 628 \;;
#X scalar 1137-curve 0 0 132 330 231 698 \;;
#X scalar 1137-curve 0 0 136 334 235 698 \;;
#X scalar 1137-curve 0 0 239 338 288 599 \;;
#X scalar 1137-curve 0 0 243 342 292 599 \;;
#X scalar 1137-curve 0 0 247 347 296 599 \;;
#X scalar 1137-curve 0 0 252 351 301 599 \;;
#X scalar 1137-curve 0 0 256 355 305 599 \;;
#X scalar 1137-curve 0 0 260 359 309 599 \;;
#X scalar 1137-curve 0 0 264 363 313 599 \;;
#X scalar 1137-curve 0 0 0 367 183 867 \;;
#X scalar 1137-curve 0 0 194 371 282 677 \;;
#X scalar 1137-curve 0 0 198 376 286 677 \;;
#X scalar 1137-curve 0 0 45 380 212 834 \;;
#X scalar 1137-curve 0 0 49 384 216 834 \;;
#X scalar 1137-curve 0 0 53 388 220 834 \;;
#X scalar 1137-curve 0 0 0 392 196 892 \;;
#X scalar 1137-curve 0 0 90 396 242 805 \;;
#X scalar 1137-curve 0 0 16 400 208 884 \;;
#X scalar 1137-curve 0 0 0 404 202 904 \;;
#X scalar 1137-curve 0 0 392 409 400 516 \;;
#X scalar 1137-curve 0 0 392 413 402 520 \;;
#X scalar 1137-curve 0 0 413 417 415 504 \;;
#X scalar 1137-curve 0 0 396 421 408 524 \;;
#X scalar 1137-curve 0 0 400 425 412 524 \;;
#X scalar 1137-curve 0 0 404 429 416 524 \;;
#X scalar 1137-curve 0 0 404 433 418 528 \;;
#X scalar 1137-curve 0 0 90 438 263 847 \;;
#X scalar 1137-curve 0 0 404 442 422 537 \;;
#X scalar 1137-curve 0 0 438 446 442 508 \;;
#X scalar 1137-curve 0 0 268 450 358 681 \;;
#X scalar 1137-curve 0 0 442 454 448 512 \;;
#X scalar 1137-curve 0 0 433 458 445 524 \;;
#X scalar 1137-curve 0 0 438 462 450 524 \;;
#X scalar 1137-curve 0 0 0 466 233 966 \;;
#X scalar 1137-curve 0 0 90 471 280 880 \;;
#X scalar 1137-curve 0 0 194 475 334 780 \;;
#X scalar 1137-curve 0 0 404 479 441 574 \;;
#X scalar 1137-curve 0 0 433 483 457 549 \;;
#X scalar 1137-curve 0 0 433 487 459 553 \;;
#X scalar 1137-curve 0 0 487 491 489 504 \;;
#X scalar 1137-curve 0 0 0 495 247 995 \;;
#X scalar 1137-curve 0 0 16 499 257 983 \;;
#X scalar 1137-curve 0 0 404 504 453 599 \;;
#X scalar 1137-curve 0 0 409 508 458 599 \;;
#X scalar 1137-curve 0 0 396 512 453 615 \;;
#X scalar 1137-curve 0 0 0 516 258 1016 \;;
#X scalar 1137-curve 0 0 90 520 304 929 \;;
#X scalar 1137-curve 0 0 0 524 262 1024 \;;
#X scalar 1137-curve 0 0 404 528 465 623 \;;
#X scalar 1137-curve 0 0 409 533 470 623 \;;
#X scalar 1137-curve 0 0 512 537 524 524 \;;
#X scalar 1137-curve 0 0 442 541 491 599 \;;
#X scalar 1137-curve 0 0 446 545 495 599 \;;
#X scalar 1137-curve 0 0 20 549 284 1028 \;;
#X scalar 1137-curve 0 0 404 553 478 648 \;;
#X scalar 1137-curve 0 0 409 557 483 648 \;;
#X scalar 1137-curve 0 0 512 561 536 549 \;;
#X scalar 1137-curve 0 0 541 566 553 524 \;;
#X scalar 1137-curve 0 0 545 570 557 524 \;;
#X scalar 1137-curve 0 0 475 574 524 599 \;;
#X scalar 1137-curve 0 0 479 578 528 599 \;;
#X scalar 1137-curve 0 0 483 582 532 599 \;;
#X scalar 1137-curve 0 0 12 586 299 1074 \;;
#X scalar 1137-curve 0 0 404 590 496 685 \;;
#X scalar 1137-curve 0 0 438 595 516 657 \;;
#X scalar 1137-curve 0 0 450 599 524 648 \;;
#X scalar 1137-curve 0 0 454 603 528 648 \;;
#X scalar 1137-curve 0 0 446 607 526 661 \;;
#X scalar 1137-curve 0 0 450 611 530 661 \;;
#X scalar 1137-curve 0 0 392 615 503 723 \;;
#X scalar 1137-curve 0 0 396 619 507 723 \;;
#X scalar 1137-curve 0 0 268 623 445 855 \;;
#X scalar 1137-curve 0 0 454 628 540 673 \;;
#X scalar 1137-curve 0 0 458 632 544 673 \;;
#X scalar 1137-curve 0 0 586 636 610 549 \;;
#X scalar 1137-curve 0 0 466 640 552 673 \;;
#X scalar 1137-curve 0 0 471 644 557 673 \;;
#X scalar 1137-curve 0 0 475 648 561 673 \;;
#X scalar 1137-curve 0 0 479 652 565 673 \;;
#X scalar 1137-curve 0 0 483 657 569 673 \;;
#X scalar 1137-curve 0 0 487 661 573 673 \;;
#X scalar 1137-curve 0 0 466 665 565 698 \;;
#X scalar 1137-curve 0 0 4 669 336 1165 \;;
#X scalar 1137-curve 0 0 90 673 381 1082 \;;
#X scalar 1137-curve 0 0 442 677 559 735 \;;
#X scalar 1137-curve 0 0 458 681 569 723 \;;
#X scalar 1137-curve 0 0 0 685 342 1185 \;;
#X scalar 1137-curve 0 0 404 690 546 785 \;;
#X scalar 1137-curve 0 0 4 694 349 1190 \;;
#X scalar 1137-curve 0 0 90 698 393 1107 \;;
#X scalar 1137-curve 0 0 442 702 572 760 \;;
#X scalar 1137-curve 0 0 458 706 581 747 \;;
#X scalar 1137-curve 0 0 462 710 585 747 \;;
#X scalar 1137-curve 0 0 442 714 578 772 \;;
#X scalar 1137-curve 0 0 446 719 582 772 \;;
#X scalar 1137-curve 0 0 450 723 586 772 \;;
#X scalar 1137-curve 0 0 454 727 590 772 \;;
#X scalar 1137-curve 0 0 665 731 698 566 \;;
#X scalar 1137-curve 0 0 471 735 603 764 \;;
#X scalar 1137-curve 0 0 442 739 590 797 \;;
#X scalar 1137-curve 0 0 446 743 594 797 \;;
#X scalar 1137-curve 0 0 574 747 660 673 \;;
#X scalar 1137-curve 0 0 578 752 664 673 \;;
#X scalar 1137-curve 0 0 582 756 668 673 \;;
#X scalar 1137-curve 0 0 409 760 584 851 \;;
#X scalar 1137-curve 0 0 404 764 583 859 \;;
#X scalar 1137-curve 0 0 694 768 731 574 \;;
#X scalar 1137-curve 0 0 0 772 386 1272 \;;
#X scalar 1137-curve 0 0 404 776 589 871 \;;
#X scalar 1137-curve 0 0 433 780 606 847 \;;
#X scalar 1137-curve 0 0 0 785 392 1285 \;;
#X scalar 1137-curve 0 0 404 789 596 884 \;;
#X scalar 1137-curve 0 0 694 793 743 599 \;;
#X scalar 1137-curve 0 0 8 797 402 1289 \;;
#X scalar 1137-curve 0 0 37 801 419 1264 \;;
#X scalar 1137-curve 0 0 41 805 423 1264 \;;
#X scalar 1137-curve 0 0 0 809 404 1309 \;;
#X scalar 1137-curve 0 0 404 814 608 909 \;;
#X scalar 1137-curve 0 0 433 818 625 884 \;;
#X scalar 1137-curve 0 0 694 822 758 628 \;;
#X scalar 1137-curve 0 0 797 826 811 528 \;;
#X scalar 1137-curve 0 0 801 830 815 528 \;;
#X scalar 1137-curve 0 0 805 834 819 528 \;;
#X scalar 1137-curve 0 0 404 838 620 933 \;;
#X scalar 1137-curve 0 0 586 842 714 756 \;;
#X scalar 1137-curve 0 0 4 847 425 1342 \;;
#X scalar 1137-curve 0 0 45 851 447 1305 \;;
#X scalar 1137-curve 0 0 185 855 519 1169 \;;
#X scalar 1137-curve 0 0 289 859 574 1070 \;;
#X scalar 1137-curve 0 0 838 863 850 524 \;;
#X scalar 1137-curve 0 0 433 867 649 933 \;;
#X scalar 1137-curve 0 0 487 871 679 884 \;;
#X scalar 1137-curve 0 0 491 876 683 884 \;;
#X scalar 1137-curve 0 0 491 880 685 888 \;;
#X scalar 1137-curve 0 0 880 884 882 504 \;;
#X scalar 1137-curve 0 0 884 888 886 504 \;;
#X scalar 1137-curve 0 0 0 892 446 1392 \;;
#X scalar 1137-curve 0 0 0 896 448 1396 \;;
#X scalar 1137-curve 0 0 404 900 651 995 \;;
#X scalar 1137-curve 0 0 45 904 474 1359 \;;
#X scalar 1137-curve 0 0 0 909 454 1409 \;;
#X scalar 1137-curve 0 0 45 913 478 1367 \;;
#X scalar 1137-curve 0 0 0 917 458 1417 \;;
#X scalar 1137-curve 0 0 4 921 462 1417 \;;
#X scalar 1137-curve 0 0 90 925 507 1334 \;;
#X scalar 1137-curve 0 0 549 929 739 880 \;;
#X scalar 1137-curve 0 0 28 933 480 1404 \;;
#X scalar 1137-curve 0 0 33 938 485 1404 \;;
#X scalar 1137-curve 0 0 82 942 511 1359 \;;
#X scalar 1137-curve 0 0 86 946 515 1359 \;;
#X scalar 1137-curve 0 0 909 950 929 541 \;;
#X scalar 1137-curve 0 0 909 954 931 545 \;;
#X scalar 1137-curve 0 0 954 958 956 504 \;;
#X scalar 1137-curve 0 0 958 962 960 504 \;;
#X scalar 1137-curve 0 0 962 966 964 504 \;;
#X scalar 1137-curve 0 0 966 971 968 504 \;;
#X scalar 1137-curve 0 0 971 975 973 504 \;;
#X scalar 1137-curve 0 0 975 979 977 504 \;;
#X scalar 1137-curve 0 0 0 983 491 1483 \;;
#X scalar 1137-curve 0 0 909 987 948 578 \;;
#X scalar 1137-curve 0 0 983 991 987 508 \;;
#X scalar 1137-curve 0 0 983 995 989 512 \;;
#X coords 0 0 1000 1000 1000 500 1 100 100;
#X restore 7 60 pd \$1-viz;
#X obj 7 5 inlet;
#X connect 2 0 0 0;
