#N canvas 295 23 985 585 10;
#X obj 25 127 until;
#X obj 25 148 f;
#X obj 52 148 + 1;
#X obj 87 133 0;
#X obj 25 197 array get \$1-sfx 0 1;
#X obj 8 38 bng 15 250 50 0 empty empty empty 17 7 0 10 -262144 -1
-1;
#X obj 234 296 abs;
#X obj 322 225 *;
#X obj 70 263 *;
#X obj 337 202 expr 1000/$f1;
#X obj 322 246 i;
#X obj 123 345 i;
#X obj 70 305 i;
#N canvas 310 456 519 148 curve 0;
#X obj 17 19 struct \$0-curve float x float y float a float b float
abx float aby float color;
#X obj 17 64 drawcurve -x color 1 a 500 abx aby b 500;
#X restore 742 39 pd curve;
#X obj 25 169 t f f;
#X obj 70 284 t f f;
#X obj 234 275 -;
#X obj 124 323 / 2;
#X obj 70 326 t f f;
#X obj 97 367 +;
#X obj 110 413 + 500;
#X obj 25 84 v \$1-length;
#X text 28 37 sfx;
#X obj 97 346 min;
#X obj 811 418 pointer;
#X msg 739 131 clear;
#X obj 456 99 until;
#X obj 456 120 f;
#X obj 483 120 + 1;
#X obj 426 35 t b b;
#X obj 426 14 bng 15 250 50 0 empty empty empty 17 7 0 10 -262144 -1
-1;
#X obj 659 338 abs;
#X obj 751 273 *;
#X obj 495 292 *;
#X obj 765 236 expr 1000/$f1;
#X obj 755 329 i;
#X obj 553 394 i;
#X obj 495 334 i;
#X obj 495 313 t f f;
#X obj 659 317 -;
#X obj 553 372 / 2;
#X obj 495 355 t f f;
#X obj 518 416 +;
#X obj 518 394 min;
#X obj 25 105 t f f;
#X obj 456 209 array get \$1-trn;
#X obj 558 130 v \$1-max;
#X obj 456 230 list-drip;
#X obj 110 434 i;
#X obj 97 387 i;
#X obj 599 395 expr int(abs(1000-$f1)-500);
#X text 446 13 trn;
#X obj 456 181 *;
#X obj 426 56 v \$1-length;
#X obj 456 141 t f f;
#X obj 8 14 inlet;
#N canvas 118 243 519 148 readingPoint 0;
#X obj 17 19 struct \$0-readingPoint float x float y;
#X obj 17 44 drawpolygon -x 950 1 0 0 0 1000;
#X restore 742 59 pd readingPoint;
#X msg 453 520 0 0;
#X obj 452 543 append \$0-readingPoint x y;
#X obj 682 543 set \$0-readingPoint x;
#X obj 781 516 pointer;
#X obj 781 473 symbol \$2;
#X msg 781 493 traverse pd-\$1 \, next;
#X obj 841 119 inlet;
#X obj 799 288 *;
#X obj 739 152 s pd-\$2;
#X msg 811 395 traverse pd-\$1 \, bang;
#X obj 811 373 symbol \$2;
#X obj 822 445 bng 15 250 50 0 empty empty empty 17 7 0 10 -262144
-1 -1;
#N canvas 552 23 728 488 interface 0;
#X obj 243 451 pointer;
#X obj 110 96 unpack s p f;
#X obj 17 96 route click;
#X obj 17 117 t b b;
#X obj 17 138 timer;
#X obj 17 180 sel 1;
#X obj 17 159 < 200;
#X obj 144 119 get \$0-sliderInfinity a b;
#X obj 144 139 t f f, f 8;
#X obj 144 161 min;
#X obj 189 161 max;
#X obj 144 244 pack f f;
#X obj 144 221 i;
#X obj 189 221 i;
#N canvas 0 23 450 300 alternate 0;
#X obj 86 10 inlet;
#X obj 158 244 outlet;
#X obj 285 244 outlet;
#X obj 158 217 spigot;
#X obj 285 217 spigot;
#X obj 158 57 trigger anything bang;
#X obj 86 34 route reset;
#X msg 86 75 0;
#X obj 86 54 bang;
#X obj 300 108 i;
#X obj 300 130 == 0;
#X obj 300 150 t f f f;
#X text 40 295 (c) 2006 IOhannes m zmoelnig \, licensed under GnuGPL
v2.0;
#X text 44 318 original abstraction (c) 2005 Hans Christoph Steiner
;
#X obj 322 181 == 0;
#X connect 0 0 6 0;
#X connect 3 0 1 0;
#X connect 4 0 2 0;
#X connect 5 0 3 0;
#X connect 5 0 4 0;
#X connect 5 1 9 0;
#X connect 6 0 8 0;
#X connect 6 1 5 0;
#X connect 7 0 9 1;
#X connect 8 0 7 0;
#X connect 9 0 10 0;
#X connect 10 0 11 0;
#X connect 11 0 3 1;
#X connect 11 1 14 0;
#X connect 11 2 9 1;
#X connect 14 0 4 1;
#X restore 17 201 pd alternate;
#X text 478 53 (a \, 0);
#X text 568 23 (b \, 100);
#X text 478 23 (a \, 100);
#X text 568 53 (b \, 0);
#X msg 243 429 traverse pd-\$1 \, bang;
#X obj 243 408 symbol \$2;
#X obj 16 307 inlet;
#X obj 16 467 append \$0-sliderInfinity c x y a b;
#X obj 17 19 struct \$0-sliderInfinity float x float y float a float
b float c;
#X obj 217 333 950;
#X obj 245 333 999;
#X obj 217 386 set \$0-sliderInfinity c;
#X obj 144 181 expr_scale 0 1000 0 100;
#X obj 189 201 expr_scale 0 1000 0 100;
#X obj 279 153 r \$3-nrUnits;
#X obj 16 392 t l b;
#X obj 16 368 pack 999 0 1000;
#X obj 16 348 f 999;
#X obj 17 223 1;
#X obj 86 223 0;
#X obj 217 314 sel 1 0, f 10;
#X obj 17 246 s \$3-infiniteLoop;
#X obj 144 266 s \$3-infiniteRange;
#X obj 217 294 r \$3-infiniteLoop;
#X obj 38 62 filledpolygon c c 0 a(0:1000) 0 a(0:1000) 50 b(0:1000)
50 b(0:1000) 0;
#X msg 16 416 \$1 0 475 \$2 \$3;
#X obj 352 335 pointer;
#X obj 16 327 t b b;
#X obj 352 293 symbol \$2;
#X msg 352 313 traverse pd-\$1 \, next;
#X obj 217 353 spigot;
#X obj 407 271 == 2;
#X obj 407 251 r \$3-presetXY;
#X connect 0 0 22 5;
#X connect 1 1 7 0;
#X connect 2 0 3 0;
#X connect 3 0 4 0;
#X connect 3 1 4 1;
#X connect 4 0 6 0;
#X connect 5 0 14 0;
#X connect 6 0 5 0;
#X connect 7 0 8 0;
#X connect 7 1 9 1;
#X connect 7 1 10 1;
#X connect 8 0 9 0;
#X connect 8 1 10 0;
#X connect 9 0 27 0;
#X connect 9 0 31 1;
#X connect 10 0 28 0;
#X connect 10 0 31 2;
#X connect 11 0 37 0;
#X connect 12 0 11 0;
#X connect 13 0 11 1;
#X connect 14 0 33 0;
#X connect 14 1 34 0;
#X connect 19 0 0 0;
#X connect 20 0 19 0;
#X connect 21 0 42 0;
#X connect 23 0 1 0;
#X connect 23 0 2 0;
#X connect 24 0 32 1;
#X connect 24 0 45 0;
#X connect 25 0 32 1;
#X connect 25 0 45 0;
#X connect 27 0 12 0;
#X connect 28 0 13 0;
#X connect 29 0 27 4;
#X connect 29 0 28 4;
#X connect 30 0 40 0;
#X connect 30 1 20 0;
#X connect 31 0 30 0;
#X connect 32 0 31 0;
#X connect 33 0 36 0;
#X connect 34 0 36 0;
#X connect 35 0 24 0;
#X connect 35 1 25 0;
#X connect 38 0 35 0;
#X connect 40 0 22 0;
#X connect 41 0 26 1;
#X connect 42 0 43 0;
#X connect 42 1 32 0;
#X connect 43 0 44 0;
#X connect 44 0 41 0;
#X connect 45 0 26 0;
#X connect 46 0 45 1;
#X connect 47 0 46 0;
#X restore 8 493 pd interface;
#X f 38;
#X text 96 218 // exclude the 0 to make connection to beggining, f
26;
#X obj 337 178 - 1;
#X obj 764 214 - 1;
#X obj 518 104 1;
#X text 550 94 // starts on 1 to avoid clutter;
#X obj 8 468 bng 15 250 50 0 empty empty empty 17 7 0 10 -262144 -1
-1;
#X obj 8 59 t b b b b;
#X obj 426 77 t b b f f b b b;
#X obj 70 468 pack f f f f f;
#X obj 495 489 append \$0-curve a abx aby b color;
#X obj 70 241 t f b;
#X obj 194 411 999;
#X obj 204 431 222;
#X obj 24 247 t f b;
#X obj 495 270 t f b;
#X obj 495 457 pack f f f f f;
#X obj 622 417 999;
#X obj 611 444 222;
#X obj 25 218 moses 1;
#X obj 456 251 moses 0;
#X connect 0 0 1 0;
#X connect 1 0 2 0;
#X connect 1 0 14 0;
#X connect 2 0 1 1;
#X connect 3 0 1 1;
#X connect 4 0 88 0;
#X connect 5 0 76 0;
#X connect 6 0 17 0;
#X connect 6 0 20 0;
#X connect 7 0 10 0;
#X connect 7 0 16 1;
#X connect 8 0 15 0;
#X connect 9 0 7 1;
#X connect 9 0 8 1;
#X connect 10 0 23 1;
#X connect 10 0 78 3;
#X connect 11 0 19 1;
#X connect 12 0 18 0;
#X connect 14 0 4 0;
#X connect 14 1 7 0;
#X connect 15 0 12 0;
#X connect 15 1 16 0;
#X connect 16 0 6 0;
#X connect 17 0 11 0;
#X connect 18 0 78 0;
#X connect 18 1 23 0;
#X connect 19 0 49 0;
#X connect 20 0 48 0;
#X connect 21 0 44 0;
#X connect 23 0 19 0;
#X connect 24 0 58 2;
#X connect 24 0 79 5;
#X connect 25 0 65 0;
#X connect 26 0 27 0;
#X connect 27 0 28 0;
#X connect 27 0 54 0;
#X connect 28 0 27 1;
#X connect 29 0 53 0;
#X connect 29 1 73 0;
#X connect 30 0 29 0;
#X connect 31 0 40 0;
#X connect 31 0 50 0;
#X connect 32 0 35 0;
#X connect 32 0 39 1;
#X connect 33 0 38 0;
#X connect 34 0 32 1;
#X connect 34 0 33 1;
#X connect 34 0 64 1;
#X connect 35 0 43 1;
#X connect 35 0 85 3;
#X connect 36 0 42 1;
#X connect 37 0 41 0;
#X connect 38 0 37 0;
#X connect 38 1 39 0;
#X connect 39 0 31 0;
#X connect 40 0 36 0;
#X connect 41 0 85 0;
#X connect 41 1 43 0;
#X connect 42 0 85 1;
#X connect 43 0 42 0;
#X connect 44 0 0 0;
#X connect 44 1 71 0;
#X connect 45 0 47 0;
#X connect 46 0 52 1;
#X connect 46 0 45 1;
#X connect 47 0 89 0;
#X connect 48 0 78 2;
#X connect 49 0 78 1;
#X connect 50 0 85 2;
#X connect 52 0 45 0;
#X connect 53 0 77 0;
#X connect 54 0 52 0;
#X connect 54 1 32 0;
#X connect 55 0 5 0;
#X connect 57 0 58 0;
#X connect 60 0 59 1;
#X connect 61 0 62 0;
#X connect 62 0 60 0;
#X connect 63 0 64 0;
#X connect 64 0 59 0;
#X connect 66 0 24 0;
#X connect 67 0 66 0;
#X connect 68 0 61 0;
#X connect 71 0 9 0;
#X connect 72 0 34 0;
#X connect 73 0 27 1;
#X connect 75 0 69 0;
#X connect 76 1 21 0;
#X connect 76 2 3 0;
#X connect 76 3 30 0;
#X connect 77 0 61 0;
#X connect 77 1 57 0;
#X connect 77 2 26 0;
#X connect 77 3 72 0;
#X connect 77 4 67 0;
#X connect 77 5 46 0;
#X connect 77 5 75 0;
#X connect 77 6 25 0;
#X connect 78 0 79 0;
#X connect 80 0 8 0;
#X connect 80 1 81 0;
#X connect 81 0 78 4;
#X connect 82 0 78 4;
#X connect 83 0 8 0;
#X connect 83 1 82 0;
#X connect 84 0 33 0;
#X connect 84 1 86 0;
#X connect 85 0 79 0;
#X connect 86 0 85 4;
#X connect 87 0 85 4;
#X connect 88 0 83 0;
#X connect 88 1 80 0;
#X connect 89 1 84 0;
