#N canvas 0 23 431 384 10;
#N canvas 0 23 450 300 equalPan 0;
#X obj 78 53 inlet~;
#X obj 99 188 cos~;
#X obj 78 219 *~;
#X obj 245 109 *~ 0.25;
#X obj 189 188 cos~;
#X obj 168 219 *~;
#X obj 242 142 -~ 0.25;
#X obj 78 258 outlet~;
#X obj 168 258 outlet~;
#X obj 245 23 inlet;
#X obj 245 49 clip 0 1;
#X obj 245 87 sig~;
#X connect 0 0 2 0;
#X connect 0 0 5 0;
#X connect 1 0 2 1;
#X connect 2 0 7 0;
#X connect 3 0 1 0;
#X connect 3 0 6 0;
#X connect 4 0 5 1;
#X connect 5 0 8 0;
#X connect 6 0 4 0;
#X connect 9 0 10 0;
#X connect 10 0 11 0;
#X connect 11 0 3 0;
#X restore 92 274 pd equalPan;
#X obj 92 220 *~;
#X obj 92 41 inlet;
#X obj 92 163 tabplay~ \$2;
#X obj 92 305 outlet~;
#X obj 155 305 outlet~;
#X obj 92 241 *~;
#X obj 92 138 pack f f;
#N canvas 0 23 184 358 envelope 0;
#X obj 65 100 -~ 0.5;
#X obj 65 201 clip~ -0.5 0.5;
#X obj 65 226 cos~;
#X obj 65 125 wrap~;
#X obj 65 154 -~ 0.5;
#X obj 65 274 *~ -0.5;
#X obj 65 249 -~ 1;
#X obj 65 179 *~ 20;
#X obj 65 74 line~;
#X msg 65 51 0 \, 1 \$1;
#X obj 65 30 inlet;
#X obj 65 295 outlet~;
#X connect 0 0 3 0;
#X connect 1 0 2 0;
#X connect 2 0 6 0;
#X connect 3 0 4 0;
#X connect 4 0 7 0;
#X connect 5 0 11 0;
#X connect 6 0 5 0;
#X connect 7 0 1 0;
#X connect 8 0 0 0;
#X connect 9 0 8 0;
#X connect 10 0 9 0;
#X restore 198 206 pd envelope;
#X obj 298 206 switch~;
#X obj 360 137 1;
#X obj 298 180 0;
#X obj 92 65 t l b;
#X obj 298 158 delay;
#X obj 198 144 / 44.1;
#X text 137 40 (unintStart unitEnd gain pan);
#X text 8 5 // this abstraction is used in a clone object to create
a granulator., f 69;
#X obj 92 93 unpack f f f f s;
#X msg 185 116 set \$1;
#X connect 0 0 4 0;
#X connect 0 1 5 0;
#X connect 1 0 6 0;
#X connect 2 0 12 0;
#X connect 3 0 1 0;
#X connect 6 0 0 0;
#X connect 7 0 3 0;
#X connect 8 0 1 1;
#X connect 10 0 9 0;
#X connect 11 0 9 0;
#X connect 12 0 17 0;
#X connect 12 1 10 0;
#X connect 13 0 11 0;
#X connect 14 0 13 0;
#X connect 14 0 8 0;
#X connect 17 0 7 0;
#X connect 17 1 7 1;
#X connect 17 1 14 0;
#X connect 17 2 6 1;
#X connect 17 3 0 1;
#X connect 17 4 18 0;
#X connect 18 0 3 0;
