#N canvas 0 22 590 494 10;
#X floatatom 46 230 5 0 0 0 - - -;
#X obj -37 135 f;
#X obj -38 209 random 2;
#X floatatom -29 231 5 0 0 0 - - -;
#X obj -38 161 t b b f;
#X obj -38 265 sel 0 1;
#X obj 43 350 +;
#X obj 37 264 + 1;
#X floatatom 154 272 5 0 0 0 - - -;
#X obj 20 321 *;
#X msg -38 294 -1;
#X obj 154 202 moses 0;
#X obj 228 202 moses 100;
#X obj 154 226 * -1;
#X obj 319 205 * -1;
#X obj 319 230 + 200;
#X msg -4 294 1;
#X text 210 271 output;
#X text -29 247 sign;
#X text 46 246 magnitude;
#X text -9 378 add prev value;
#X text -12 395 to random increment;
#X obj 109 46 inlet;
#X obj 155 459 outlet;
#X obj 155 294 / 100;
#X obj 109 102 \$1;
#X obj 316 102 \$4;
#X obj 250 102 \$3;
#X obj 168 102 \$2;
#X obj 431 7 loadbang;
#X obj 250 149 int;
#X obj 37 210 random;
#X obj 431 32 t b b b b;
#X obj 168 155 -;
#X obj 155 340 *;
#X text 187 353 new range;
#X obj 109 123 t f f;
#X obj 155 369 +;
#X obj 168 47 inlet;
#X obj 250 46 inlet;
#X obj 316 46 inlet;
#X text 93 30 low limit;
#X text 155 30 high limit;
#X text 236 30 magnatude %;
#X text 312 30 start position %;
#X obj -37 47 inlet;
#X text -40 30 bang output;
#X obj -37 95 bng 15 250 50 0 empty empty empty 17 7 0 10 -262144 -1
-1;
#X connect 1 0 4 0;
#X connect 2 0 3 0;
#X connect 2 0 5 0;
#X connect 4 0 2 0;
#X connect 4 1 31 0;
#X connect 4 2 6 1;
#X connect 5 0 10 0;
#X connect 5 1 16 0;
#X connect 6 0 11 0;
#X connect 7 0 9 1;
#X connect 8 0 1 1;
#X connect 8 0 24 0;
#X connect 9 0 6 0;
#X connect 10 0 9 0;
#X connect 11 0 13 0;
#X connect 11 1 12 0;
#X connect 12 0 8 0;
#X connect 12 1 14 0;
#X connect 13 0 8 0;
#X connect 14 0 15 0;
#X connect 15 0 8 0;
#X connect 16 0 9 0;
#X connect 22 0 25 0;
#X connect 24 0 34 0;
#X connect 25 0 36 0;
#X connect 26 0 1 1;
#X connect 27 0 30 0;
#X connect 28 0 33 0;
#X connect 29 0 32 0;
#X connect 30 0 31 1;
#X connect 31 0 0 0;
#X connect 31 0 7 0;
#X connect 32 0 28 0;
#X connect 32 1 25 0;
#X connect 32 2 27 0;
#X connect 32 3 26 0;
#X connect 33 0 34 1;
#X connect 34 0 37 0;
#X connect 36 0 37 1;
#X connect 36 1 33 1;
#X connect 37 0 23 0;
#X connect 38 0 28 0;
#X connect 39 0 27 0;
#X connect 40 0 26 0;
#X connect 45 0 47 0;
#X connect 47 0 1 0;
