#N canvas 0 22 610 364 10;
#X obj 38 250 randomWalk 0 1000 20 50;
#X obj 38 180 metro 300;
#X obj 38 147 tgl 15 0 empty empty empty 17 7 0 10 -262144 -1 -1 0
1;
#X floatatom 38 285 5 0 0 0 - - -;
#X text 255 217 low limit;
#X text 257 196 high limit;
#X text 256 240 magnatude %;
#X text 254 266 start position %;
#X obj 3 4 cnv 15 600 60 empty empty randomWalk 20 12 0 14 -233017
-66577 0;
#X text 256 176 arg:;
#X floatatom 75 207 5 0 0 0 - - -;
#X floatatom 104 225 5 0 0 0 - - -;
#X floatatom 148 217 5 0 0 0 - - -;
#X floatatom 196 219 5 0 0 0 - - -;
#X text 449 42 2013 Gilberto Bernardes;
#N canvas 617 207 494 344 META 0;
#X text 12 45 LICENSE GPL v3;
#X text 12 255 RELEASE_DATE 2013;
#X text 12 235 WEBSITE https://sites.google.com/site/eargram/;
#X text 12 215 AUTHOR Gilberto Bernardes;
#X text 12 195 LIBRARY earGram_abs;
#X text 13 176 OUTLET_0 float;
#X text 12 65 DESCRIPTION random walk;
#X text 12 85 INLET_0 bang;
#X text 11 103 INLET_1 float (high limit);
#X text 11 120 INLET_2 float (low limit);
#X text 11 138 INLET_3 float (magnatude in %);
#X text 11 155 INLET_4 float (start position %);
#X restore 547 336 pd META;
#X text 22 45 random walk;
#X connect 0 0 3 0;
#X connect 1 0 0 0;
#X connect 2 0 1 0;
#X connect 10 0 0 1;
#X connect 11 0 0 2;
#X connect 12 0 0 3;
#X connect 13 0 0 4;
