#N canvas 101 112 377 311 10;
#X obj 76 50 inlet;
#X obj 76 248 outlet;
#X obj 76 147 *;
#X obj 76 72 route float bang;
#X obj 122 101 t b b;
#X obj 149 175 -1;
#X obj 110 176 f;
#X obj 76 101 t f b;
#X obj 76 219 array get \$1;
#X obj 224 117 loadbang;
#X obj 224 140 value n.\$1;
#X obj 223 162 r n.\$1;
#X connect 0 0 3 0;
#X connect 2 0 8 0;
#X connect 3 0 7 0;
#X connect 3 1 4 0;
#X connect 4 0 8 0;
#X connect 4 1 5 0;
#X connect 5 0 8 1;
#X connect 6 0 8 1;
#X connect 7 0 2 0;
#X connect 7 1 6 0;
#X connect 8 0 1 0;
#X connect 9 0 10 0;
#X connect 10 0 2 1;
#X connect 10 0 6 1;
#X connect 11 0 2 1;
#X connect 11 0 6 1;
