#N canvas 372 23 792 655 10;
#X obj 29 20 inlet;
#X obj 29 49 route add clear dimensions nrCases;
#X obj 79 155 s \$0-clear;
#X obj 129 133 s \$0-dimensions;
#X obj 179 111 s \$0-nrCases;
#X obj 29 310 f;
#X obj 29 371 until;
#X obj 29 335 t f b f;
#X obj 29 398 f;
#X obj 58 398 + 1;
#X obj 92 381 0;
#X obj 439 45 r \$0-clear;
#X obj 267 47 loadbang;
#X obj 439 192 array define \$0-featureVectors;
#X msg 439 70 const 0;
#X obj 571 48 r \$0-nrCases;
#X obj 571 70 t f f;
#X obj 571 92 *;
#X msg 571 114 resize \$1;
#X obj 666 48 r \$0-dimensions;
#X obj 666 156 *;
#X obj 666 70 t b f;
#X msg 666 178 resize \$1;
#X obj 48 279 array set \$0-featureVectors;
#X obj 29 213 t b l b;
#X obj 127 227 f;
#X obj 142 182 r \$0-clear;
#X obj 142 204 0;
#X obj 245 539 array get \$0-featureVectors;
#X obj 245 517 *;
#X obj 78 579 *;
#X obj 63 603 +;
#X obj 206 579 *;
#X obj 206 603 +;
#X obj 29 494 array get \$0-featureVectors;
#X obj 29 473 *;
#X obj 29 420 t f f;
#X obj 240 565 r \$0-nrCases;
#X obj 666 130 f 1;
#X obj 186 235 r \$0-dimensions;
#X obj 154 227 + 1;
#X obj 127 249 *;
#X obj 324 502 r \$0-dimensions;
#X obj 108 458 r \$0-dimensions;
#X obj 469 129 array define \$1;
#X obj 267 97 \$2;
#X obj 295 119 \$3;
#X obj 528 311 v n.\$1;
#X obj 529 331 s n.\$1;
#X obj 515 285 r \$0-nrCases;
#X obj 29 633 array set \$1;
#X obj 172 633 array set \$1;
#X obj 109 554 list-cosine;
#X obj 324 144 symbol \$4;
#X obj 267 74 t b b b, f 10;
#X obj 29 554 list-euclid;
#X obj 29 534 spigot 1;
#X obj 109 534 spigot 0;
#X obj 324 164 sel euclid cosine;
#X obj 324 184 1;
#X obj 373 184 0;
#X obj 155 514 == 0;
#X connect 0 0 1 0;
#X connect 1 0 24 0;
#X connect 1 1 2 0;
#X connect 1 2 3 0;
#X connect 1 3 4 0;
#X connect 5 0 7 0;
#X connect 6 0 8 0;
#X connect 7 0 6 0;
#X connect 7 1 10 0;
#X connect 7 2 29 0;
#X connect 7 2 33 1;
#X connect 7 2 30 0;
#X connect 8 0 9 0;
#X connect 8 0 36 0;
#X connect 9 0 8 1;
#X connect 10 0 8 1;
#X connect 11 0 14 0;
#X connect 12 0 54 0;
#X connect 14 0 13 0;
#X connect 14 0 44 0;
#X connect 15 0 16 0;
#X connect 15 0 20 0;
#X connect 15 0 38 1;
#X connect 16 0 17 0;
#X connect 16 1 17 1;
#X connect 17 0 18 0;
#X connect 18 0 44 0;
#X connect 19 0 21 0;
#X connect 20 0 22 0;
#X connect 21 0 38 0;
#X connect 21 1 20 1;
#X connect 22 0 13 0;
#X connect 24 0 5 0;
#X connect 24 1 23 0;
#X connect 24 2 25 0;
#X connect 25 0 5 1;
#X connect 25 0 40 0;
#X connect 25 0 41 0;
#X connect 26 0 27 0;
#X connect 27 0 25 1;
#X connect 28 0 52 1;
#X connect 28 0 55 1;
#X connect 29 0 28 0;
#X connect 30 0 31 1;
#X connect 31 0 50 1;
#X connect 32 0 33 0;
#X connect 33 0 51 1;
#X connect 34 0 56 0;
#X connect 34 0 57 0;
#X connect 35 0 34 0;
#X connect 36 0 35 0;
#X connect 36 1 31 0;
#X connect 36 1 32 0;
#X connect 37 0 32 1;
#X connect 37 0 30 1;
#X connect 38 0 20 0;
#X connect 39 0 41 1;
#X connect 40 0 25 1;
#X connect 41 0 23 1;
#X connect 42 0 29 1;
#X connect 42 0 28 1;
#X connect 43 0 35 1;
#X connect 43 0 34 1;
#X connect 45 0 4 0;
#X connect 46 0 3 0;
#X connect 49 0 47 0;
#X connect 49 0 48 0;
#X connect 52 0 51 0;
#X connect 52 0 50 0;
#X connect 53 0 58 0;
#X connect 54 0 45 0;
#X connect 54 1 46 0;
#X connect 54 2 53 0;
#X connect 55 0 50 0;
#X connect 55 0 51 0;
#X connect 56 0 55 0;
#X connect 57 0 52 0;
#X connect 58 0 59 0;
#X connect 58 1 60 0;
#X connect 59 0 56 1;
#X connect 59 0 61 0;
#X connect 60 0 56 1;
#X connect 60 0 61 0;
#X connect 61 0 57 1;
