#N canvas 548 23 586 557 10;
#N canvas 0 22 450 300 degree2rad 0;
#X obj 89 96 inlet;
#X obj 89 182 outlet;
#X obj 161 137 / 45;
#X obj 161 71 loadbang;
#X obj 89 130 f;
#X obj 161 114 atan;
#X msg 161 93 1;
#X obj 89 154 *;
#X connect 0 0 4 0;
#X connect 2 0 7 1;
#X connect 3 0 6 0;
#X connect 4 0 7 0;
#X connect 5 0 2 0;
#X connect 6 0 5 0;
#X connect 7 0 1 0;
#X restore 118 260 pd degree2rad;
#N canvas 0 22 461 345 pol2cart 0;
#X text 304 151 x=r*cos(phi);
#X text 305 166 y=r*sin(phi);
#X obj 109 92 inlet r;
#X obj 189 92 inlet phi;
#X obj 92 341 outlet x;
#X obj 189 341 outlet y;
#X obj 148 170 t f f;
#X obj 148 194 cos;
#X obj 178 194 sin;
#X obj 92 211 t f f;
#X obj 92 247 * 1;
#X obj 122 246 * 0;
#X text 73 36 convert polar to cartesian coordinates;
#X connect 2 0 9 0;
#X connect 3 0 6 0;
#X connect 6 0 7 0;
#X connect 6 1 8 0;
#X connect 7 0 10 1;
#X connect 8 0 11 1;
#X connect 9 0 10 0;
#X connect 9 1 11 0;
#X connect 10 0 4 0;
#X connect 11 0 5 0;
#X restore 55 287 pd pol2cart;
#X obj 88 94 list length;
#X obj 241 101 \$1;
#X obj 55 363 +;
#X obj 82 363 f;
#X obj 118 425 +;
#X obj 146 425 f;
#X obj 24 380 f;
#X obj 45 442 f;
#X obj 241 73 loadbang;
#X obj 55 165 list-drip;
#X obj 55 142 spigot;
#X obj 88 118 ==;
#X obj 24 59 t b b l l b;
#X obj 188 189 0;
#X obj 241 218 expr 360/$f1;
#X obj 55 189 t f b;
#X obj 118 235 *;
#X obj 118 204 f;
#X obj 148 204 + 1;
#X obj 24 465 pack;
#X obj 24 514 outlet;
#X obj 24 5 inlet;
#X obj 24 33 route list dimensions weights;
#X obj 138 55 t l l;
#X obj 504 89 list-accum;
#X obj 336 175 list-dripslow;
#X obj 441 110 list-math /;
#X obj 441 130 list-map;
#X obj 497 130 expr_scale 0 1 0 360;
#X obj 420 154 list;
#X obj 336 195 t f b;
#X obj 336 215 +;
#X obj 363 216 f;
#X obj 394 206 0;
#X connect 0 0 1 1;
#X connect 1 0 4 0;
#X connect 1 1 6 0;
#X connect 2 0 13 0;
#X connect 3 0 16 0;
#X connect 3 0 13 1;
#X connect 4 0 5 0;
#X connect 4 0 8 1;
#X connect 5 0 4 1;
#X connect 6 0 7 0;
#X connect 6 0 9 1;
#X connect 7 0 6 1;
#X connect 8 0 21 0;
#X connect 9 0 21 1;
#X connect 10 0 3 0;
#X connect 11 0 17 0;
#X connect 12 0 11 0;
#X connect 13 0 12 1;
#X connect 14 0 8 0;
#X connect 14 1 9 0;
#X connect 14 2 12 0;
#X connect 14 3 2 0;
#X connect 14 4 15 0;
#X connect 14 4 31 0;
#X connect 14 4 35 0;
#X connect 15 0 5 0;
#X connect 15 0 7 0;
#X connect 15 0 19 1;
#X connect 16 0 18 1;
#X connect 17 0 1 0;
#X connect 17 1 27 0;
#X connect 19 0 20 0;
#X connect 19 0 18 0;
#X connect 20 0 19 1;
#X connect 21 0 22 0;
#X connect 23 0 24 0;
#X connect 24 0 14 0;
#X connect 24 1 13 1;
#X connect 24 1 16 0;
#X connect 24 2 25 0;
#X connect 25 0 28 0;
#X connect 25 1 26 0;
#X connect 26 0 28 1;
#X connect 27 0 32 0;
#X connect 28 0 29 0;
#X connect 29 0 31 1;
#X connect 29 1 30 0;
#X connect 30 0 29 1;
#X connect 31 0 27 1;
#X connect 32 0 33 0;
#X connect 32 1 34 0;
#X connect 33 0 34 1;
#X connect 34 0 0 0;
#X connect 34 0 33 1;
#X connect 35 0 34 1;
