#N canvas 62 22 715 454 10;
#X msg 204 197 dimensions \$1;
#N canvas 50 424 738 379 plotGraphics 0;
#X obj -38 139 pointer;
#X obj -38 45 t b b;
#N canvas 234 165 486 132 pt-template 0;
#X obj 6 8 struct \$0-pt float x float y;
#X obj 14 49 filledpolygon 900 900 0 -2 -2 2 -2 2 2 -2 2 -2 -2;
#X restore -188 249 pd pt-template;
#X obj -197 10 inlet;
#X msg 11 62 clear;
#X obj 11 85 s pd-\$0-plot;
#X obj -38 85 \$0;
#X msg -38 112 traverse pd-\$1-plot \, bang;
#X text -197 186 (plot points);
#X obj 11 34 loadbang;
#N canvas 567 89 600 392 label-template 0;
#X obj 140 114 drawnumber n 0 0 0;
#X obj 145 63 struct \$0-label float x float y float n;
#X restore -187 283 pd label-template;
#X obj -159 84 f;
#X obj -131 85 + 1;
#X obj -197 39 t a b;
#X obj -97 64 0;
#X obj -199 117 unpack;
#X obj -199 156 append \$0-label x y n;
#X obj -38 12 inlet;
#X connect 0 0 16 3;
#X connect 1 0 6 0;
#X connect 1 0 14 0;
#X connect 1 1 4 0;
#X connect 3 0 13 0;
#X connect 4 0 5 0;
#X connect 6 0 7 0;
#X connect 7 0 0 0;
#X connect 9 0 4 0;
#X connect 11 0 12 0;
#X connect 11 0 16 2;
#X connect 12 0 11 1;
#X connect 13 0 15 0;
#X connect 13 1 11 0;
#X connect 14 0 11 1;
#X connect 15 0 16 0;
#X connect 15 1 16 1;
#X connect 17 0 1 0;
#X restore 36 324 pd plotGraphics;
#N canvas 0 22 629 468 listRandom 0;
#X obj 84 4 inlet;
#X msg 83 121 seed \$1;
#X obj 171 362 list prepend;
#X obj 264 363 t a;
#X obj 171 266 until;
#X obj 148 119 t b b b;
#X obj 148 383 list;
#X obj 266 41 inlet;
#X obj 83 96 route seed;
#X obj 148 416 outlet;
#X text 84 -22 seed/bang;
#X text 267 17 length;
#X obj 171 245 f 1;
#X obj 266 140 max 1;
#X obj 84 45 until;
#X obj 171 332 + 1;
#X obj 171 300 random 98;
#X connect 0 0 14 0;
#X connect 1 0 16 0;
#X connect 2 0 3 0;
#X connect 2 0 6 1;
#X connect 3 0 2 1;
#X connect 4 0 16 0;
#X connect 5 0 6 0;
#X connect 5 1 12 0;
#X connect 5 2 2 1;
#X connect 6 0 9 0;
#X connect 7 0 13 0;
#X connect 8 0 1 0;
#X connect 8 1 5 0;
#X connect 12 0 4 0;
#X connect 13 0 12 1;
#X connect 14 0 8 0;
#X connect 15 0 2 0;
#X connect 16 0 15 0;
#X restore 36 162 pd listRandom;
#X floatatom 204 146 5 0 0 1 1)nr_of_dimensions - -;
#X floatatom 36 111 5 0 0 1 2)nr_of_cases - -;
#X obj 7 -6 cnv 15 700 60 empty empty startCoordinates 20 12 0 14 -233017
-66577 0;
#N canvas 51 164 477 398 \$0-plot 0;
#X coords -150 -150 150 150 250 250 1;
#X restore 435 87 pd \$0-plot;
#X obj 36 256 starCoordinates 10;
#X obj 152 309 bng 15 250 50 0 empty empty clear 17 7 0 10 -262144
-1 -1;
#X obj 36 136 t f b;
#X text 26 32 reduces high dimensional vectors to 2D;
#X text 558 33 2013 Gilberto Bernardes;
#N canvas 811 236 494 344 META 0;
#X text 12 45 LICENSE GPL v3;
#X text 12 179 RELEASE_DATE 2013;
#X text 12 162 WEBSITE https://sites.google.com/site/eargram/;
#X text 12 143 AUTHOR Gilberto Bernardes;
#X text 12 124 LIBRARY earGram_abs;
#X text 12 64 DESCRIPTION reduces high dimensional vectors to 2D;
#X text 12 83 INLET_0 list bang dimensions;
#X text 12 102 OUTLET_0 list;
#X restore 657 419 pd META;
#X text 216 308 arg:;
#X text 215 330 dimensionality of the input vector;
#X connect 0 0 7 0;
#X connect 2 0 7 0;
#X connect 3 0 2 1;
#X connect 3 0 0 0;
#X connect 4 0 9 0;
#X connect 7 0 1 0;
#X connect 8 0 1 1;
#X connect 9 0 2 0;
#X connect 9 1 8 0;
