#N canvas 55 22 1062 764 10;
#X obj 45 -18 inlet;
#X text 713 248 variance = M2/(n-1);
#X text 713 282 variance_n = M2/n;
#X text 741 212 M2 = M2 + delta*(x-mean);
#X text 741 196 mean = mean + delta/n;
#X obj 207 129 f;
#X obj 236 129 + 1;
#X obj 45 455 /;
#X obj 192 507 /;
#X obj 122 182 -;
#X text 741 180 delta = x - mean;
#X text 741 164 n = n + 1;
#X text 216 180 n;
#X obj 74 455 - 1;
#X obj 333 112 0;
#X obj 257 280 /;
#X obj 257 303 +;
#X obj 288 303 f;
#X obj 88 386 +;
#X obj 116 385 f;
#X obj 122 206 t f f;
#X obj 88 112 t b f f b;
#X obj 88 338 f;
#X obj 125 345 -;
#X obj 88 362 *;
#X obj 45 533 outlet;
#X obj 192 533 outlet;
#X obj 45 403 f;
#X obj 207 156 + 1;
#X obj 45 507 sqrt;
#X obj 45 481 t f f;
#X obj 91 534 outlet;
#X text 45 558 std;
#X text 716 142 for x in data:;
#X text 695 42 def online_variance(data):;
#X text 718 76 mean = 0;
#X text 718 91 M2 = 0;
#X text 718 61 n = 0;
#X text 84 559 variance;
#X text 193 558 variance_n;
#X text 715 307 return (std \, variance \, variance_n);
#X text 621 386 Donald E. Knuth (1998). The Art of Computer Programming
\, volume 2: Seminumerical Algorithms \, 3rd edn. \, p. 232 Boston:
Addison-Wesley.;
#X text 623 466 B. P. Welford (1962)."Note on a method for calculating
corrected sums of squares and products". Technometrics 4(3):419420.
;
#X text 620 552 taken from:;
#X text 621 571 http://en.wikipedia.org/wiki/Algorithms_for_calculating_variance
;
#X text 598 18 pseudo-code algorithm;
#X text 622 356 algorithm due to:;
#X text 624 440 that cites:;
#X obj 242 533 outlet;
#X text 265 557 mean;
#X obj 334 87 b;
#X text 90 404 M2;
#X text 269 322 mean;
#X text 123 226 delta;
#X obj 242 506 f;
#X obj 45 11 route bang float reset;
#X text 838 641 2011 Gilberto Bernardes;
#X text 713 265 std = sqrt(M2/(n-1));
#X obj 401 532 outlet;
#X obj 401 505 f;
#X text 415 560 n;
#X obj 297 531 outlet;
#X obj 297 504 f;
#X obj 351 531 outlet;
#X obj 351 504 f;
#X text 311 559 min;
#X text 365 559 max;
#X obj 299 413 first;
#X obj 299 451 min;
#X obj 354 453 max;
#X obj 382 453 f;
#X obj 326 452 f;
#X obj 45 429 t f f b b b b;
#X connect 0 0 55 0;
#X connect 5 0 6 0;
#X connect 5 0 28 0;
#X connect 6 0 5 1;
#X connect 7 0 30 0;
#X connect 8 0 26 0;
#X connect 9 0 20 0;
#X connect 13 0 7 1;
#X connect 14 0 9 1;
#X connect 14 0 5 1;
#X connect 14 0 17 0;
#X connect 14 0 19 0;
#X connect 15 0 16 0;
#X connect 16 0 17 0;
#X connect 16 0 23 1;
#X connect 16 0 9 1;
#X connect 16 0 54 1;
#X connect 17 0 16 1;
#X connect 18 0 19 0;
#X connect 18 0 27 1;
#X connect 19 0 18 1;
#X connect 20 0 22 1;
#X connect 20 1 15 0;
#X connect 21 0 22 0;
#X connect 21 1 23 0;
#X connect 21 2 9 0;
#X connect 21 2 67 0;
#X connect 21 3 5 0;
#X connect 22 0 24 0;
#X connect 23 0 24 1;
#X connect 24 0 18 0;
#X connect 27 0 72 0;
#X connect 28 0 15 1;
#X connect 28 0 13 0;
#X connect 28 0 8 1;
#X connect 28 0 59 1;
#X connect 29 0 25 0;
#X connect 30 0 29 0;
#X connect 30 1 31 0;
#X connect 50 0 14 0;
#X connect 54 0 48 0;
#X connect 55 0 27 0;
#X connect 55 1 21 0;
#X connect 55 2 50 0;
#X connect 55 2 67 1;
#X connect 59 0 58 0;
#X connect 62 0 61 0;
#X connect 64 0 63 0;
#X connect 67 0 68 0;
#X connect 67 0 69 0;
#X connect 67 1 71 0;
#X connect 67 1 70 0;
#X connect 68 0 71 0;
#X connect 69 0 70 0;
#X connect 70 0 69 1;
#X connect 70 0 64 1;
#X connect 71 0 68 1;
#X connect 71 0 62 1;
#X connect 72 0 7 0;
#X connect 72 1 8 0;
#X connect 72 2 54 0;
#X connect 72 3 62 0;
#X connect 72 4 64 0;
#X connect 72 5 59 0;
