#N canvas 436 22 516 432 10;
#X floatatom 135 386 15 0 0 1 std - -;
#X floatatom 146 360 15 0 0 1 variance - -;
#X floatatom 158 332 15 0 0 1 variance_n - -;
#X floatatom 169 306 15 0 0 1 mean - -;
#X obj 7 6 cnv 15 500 60 empty empty stats 20 12 0 14 -233017 -66577
0;
#N canvas 495 306 494 344 META 0;
#X text 12 45 LICENSE GPL v3;
#X text 12 284 RELEASE_DATE 2013;
#X text 12 264 WEBSITE https://sites.google.com/site/eargram/;
#X text 12 244 AUTHOR Gilberto Bernardes;
#X text 12 25 KEYWORDS;
#X text 12 224 LIBRARY earGram_abs;
#X text 12 114 OUTLET_0 float (std);
#X text 13 134 OUTLET_1 float (variance);
#X text 14 154 OUTLET_2 float (variance/n);
#X text 15 174 OUTLET_3 float (mean);
#X text 16 194 OUTLET_4 float (nr of occurrences);
#X text 12 65 DESCRIPTION calculates basic stratics of a stream of
floats;
#X text 12 95 INLET_0 float bang reset;
#X restore 455 404 pd META;
#X msg 235 188 reset;
#X obj 135 154 random 100;
#X obj 135 130 metro 200;
#X floatatom 135 179 5 0 0 0 - - -;
#X obj 135 105 tgl 15 0 empty empty empty 17 7 0 10 -262144 -1 -1 0
1;
#X floatatom 204 230 15 0 0 1 n - -;
#X text 355 46 2013 Gilberto Bernardes;
#X obj 312 190 bng 15 250 50 0 empty empty compute 20 7 0 10 -262144
-1 -1;
#X obj 135 205 stats ------;
#X text 24 44 calculates basic statistics of a stream of floats;
#X floatatom 181 279 15 0 0 1 min - -;
#X floatatom 192 253 15 0 0 1 max - -;
#X connect 6 0 14 0;
#X connect 7 0 9 0;
#X connect 8 0 7 0;
#X connect 9 0 14 0;
#X connect 10 0 8 0;
#X connect 13 0 14 0;
#X connect 14 0 0 0;
#X connect 14 1 1 0;
#X connect 14 2 2 0;
#X connect 14 3 3 0;
#X connect 14 4 16 0;
#X connect 14 5 17 0;
#X connect 14 6 11 0;
