#N struct 1213-dot float x float y float c float Nr;
#N struct 1213-pointer float x float y float c float lx float ly float
cx float cy float rx float ry float ex float ey;
#N canvas 299 354 959 381 10;
#X obj 329 13 inlet;
#N canvas 214 23 450 300 structure-dot 0;
#X obj 20 104 route click;
#X obj 119 231 outlet;
#X obj 20 163 get \$0-dot x y Nr;
#X obj 20 184 pack;
#X obj 20 254 outlet;
#X obj 20 78 struct \$0-dot float x float y float c float Nr;
#X obj 20 125 once;
#X obj 20 229 t a b;
#X obj 20 205 list prepend -1;
#X obj 20 52 drawpolygon c 1 -10 -10 -10 10 10 10 10 -10 -10 -10;
#X connect 0 0 6 0;
#X connect 2 0 3 0;
#X connect 2 1 3 1;
#X connect 2 2 1 0;
#X connect 3 0 8 0;
#X connect 5 0 0 0;
#X connect 6 0 2 0;
#X connect 7 0 4 0;
#X connect 7 1 6 1;
#X connect 8 0 7 0;
#X restore 576 97 pd structure-dot;
#N canvas 715 23 478 361 struct-pointer 0;
#X floatatom 147 143 5 0 0 0 - - -;
#X floatatom 212 143 5 0 0 0 - - -;
#X obj 18 198 outlet;
#X text 79 248 constrain to the bounds of -100 and 100;
#X obj 83 83 t p p p;
#X obj 83 225 set \$0-pointer lx ly;
#X obj 216 225 set \$0-pointer rx ry;
#X obj 49 60 unpack s p f;
#X obj 22 253 inlet;
#X obj 49 19 struct \$0-pointer float x float y float c float lx float
ly float cx float cy float rx float ry float ex float ey;
#X obj 83 108 get \$0-pointer c cx cy;
#X obj 18 176 pack f f f;
#X obj 83 197 - 20;
#X obj 141 198 - 20;
#X obj 216 197 + 20;
#X obj 274 197 + 20;
#X obj 82 298 drawpolygon -x c 1 -508 cy 508 cy;
#X obj 82 318 drawpolygon -x c 1 cx -508 cx 508;
#X obj 82 267 filledpolygon c c 1 cx(-500:500) cy(-500:500) lx ly rx
ly rx ry lx ry lx ly;
#X obj 47 155 + 500;
#X obj 77 155 + 500;
#X connect 0 0 12 0;
#X connect 0 0 14 0;
#X connect 0 0 19 0;
#X connect 1 0 13 0;
#X connect 1 0 15 0;
#X connect 1 0 20 0;
#X connect 4 0 10 0;
#X connect 4 1 5 2;
#X connect 4 2 6 2;
#X connect 7 1 4 0;
#X connect 8 0 16 0;
#X connect 8 0 17 0;
#X connect 8 0 18 0;
#X connect 9 0 7 0;
#X connect 10 0 11 0;
#X connect 10 1 0 0;
#X connect 10 2 1 0;
#X connect 11 0 2 0;
#X connect 12 0 5 0;
#X connect 13 0 5 1;
#X connect 14 0 6 0;
#X connect 15 0 6 1;
#X connect 19 0 11 1;
#X connect 20 0 11 2;
#X restore 576 74 pd struct-pointer;
#X obj 663 205 outlet;
#X obj 0 0 cnv 15 300 300 empty empty empty 20 12 0 14 -1 -66577 0
;
#X text 686 96 get info from clicks on the dots;
#X text 686 73 get info from mouse position;
#N canvas 15 278 519 148 struct-square 0;
#X obj 17 19 struct \$0-square float x float y float c float s;
#X obj 17 44 filledpolygon -x c c 0 0 0 s 0 s s 0 s;
#X restore 576 120 pd struct-square;
#N canvas 0 23 863 323 pointer 0;
#X obj 251 123 r \$0-gp;
#X obj 62 40 unpack;
#X obj 62 19 inlet;
#X obj 62 109 t f f;
#X obj 62 151 set \$0-pointer cx cy lx ly rx ry;
#X obj 611 107 pointer;
#X obj 332 26 loadbang;
#X msg 611 83 traverse pd-\$1-pad-area \, bang;
#X obj 332 69 t b f;
#X obj 392 26 r \$0-clear;
#X obj 11 195 outlet;
#X obj 11 152 pack;
#X obj 332 130 append \$0-pointer x y c cx cy lx ly rx ry ex ey;
#X obj 11 173 list prepend 999;
#X obj 332 151 s \$0-gp;
#X obj 125 123 - 20;
#X obj 156 123 - 20;
#X obj 188 123 + 20;
#X obj 219 123 + 20;
#X obj 62 87 clip 0 1000;
#X obj 95 60 clip 0 1000;
#X msg 332 108 500 500 999 0 0 -20 -20 20 20 0 0;
#X obj 332 48 \$1;
#X connect 0 0 4 6;
#X connect 1 0 19 0;
#X connect 1 1 20 0;
#X connect 2 0 1 0;
#X connect 3 0 4 0;
#X connect 3 1 15 0;
#X connect 3 1 17 0;
#X connect 5 0 12 11;
#X connect 6 0 22 0;
#X connect 7 0 5 0;
#X connect 8 0 21 0;
#X connect 8 1 7 0;
#X connect 9 0 22 0;
#X connect 11 0 13 0;
#X connect 12 0 14 0;
#X connect 13 0 10 0;
#X connect 15 0 4 2;
#X connect 16 0 4 3;
#X connect 17 0 4 4;
#X connect 18 0 4 5;
#X connect 19 0 3 0;
#X connect 19 0 11 0;
#X connect 20 0 4 1;
#X connect 20 0 11 1;
#X connect 20 0 16 0;
#X connect 20 0 18 0;
#X connect 21 0 12 0;
#X connect 22 0 8 0;
#X restore 477 191 pd pointer;
#N canvas 0 23 450 300 clear 0;
#X obj 37 37 inlet;
#X obj 37 125 s \$0-clear;
#X obj 37 58 t b b;
#X msg 64 80 clear;
#X obj 64 102 s pd-\$1-pad-area;
#X connect 0 0 2 0;
#X connect 2 0 1 0;
#X connect 2 1 3 0;
#X connect 3 0 4 0;
#X restore 527 167 pd clear;
#N canvas 583 326 614 190 struct-circle 0;
#X obj 49 61 drawcurve c 1 -r -r r -r r r -r r -r -r;
#X obj 49 21 struct \$0-circle float x float y float c float r float
-r;
#X restore 576 143 pd struct-circle;
#X obj 329 34 route addDot addSquare addCircle pos clear pointer;
#N canvas 0 23 448 187 circle 0;
#X obj 214 111 pointer;
#X msg 214 87 traverse pd-\$1-pad-area \, bang;
#X obj 214 41 r \$0-clear;
#X obj 39 41 inlet;
#X obj 39 125 append \$0-circle c x y -r r;
#X obj 214 63 \$1;
#X connect 0 0 4 5;
#X connect 1 0 0 0;
#X connect 2 0 5 0;
#X connect 3 0 4 0;
#X connect 5 0 1 0;
#X restore 428 217 pd circle;
#N canvas 0 23 457 182 dot 0;
#X obj 204 92 pointer;
#X msg 204 68 traverse pd-\$1-pad-area \, bang;
#X obj 58 23 inlet;
#X obj 204 23 r \$0-clear;
#X obj 58 106 append \$0-dot x y c Nr;
#X obj 204 44 \$1;
#X connect 0 0 4 4;
#X connect 1 0 0 0;
#X connect 2 0 4 0;
#X connect 3 0 5 0;
#X connect 5 0 1 0;
#X restore 329 268 pd dot;
#N canvas 0 23 604 217 square 0;
#X obj 249 129 pointer;
#X msg 249 106 traverse pd-\$1-pad-area \, bang;
#X obj 249 64 r \$0-clear;
#X obj 73 64 inlet;
#X obj 73 143 append \$0-square c x y s;
#X obj 249 85 \$1;
#X connect 0 0 4 4;
#X connect 1 0 0 0;
#X connect 2 0 5 0;
#X connect 3 0 4 0;
#X connect 5 0 1 0;
#X restore 378 242 pd square;
#N canvas 371 23 909 744 \$1-pad-area 0;
#X scalar 1213-dot 454.135 491.914 90 0 \;;
#X scalar 1213-dot 467.6 593.826 88 1 \;;
#X scalar 1213-dot 909.397 943.679 990 2 \;;
#X scalar 1213-dot 833.184 966.482 990 3 \;;
#X scalar 1213-dot 747.292 525.919 209 4 \;;
#X scalar 1213-dot 854.949 509.971 838 5 \;;
#X scalar 1213-dot 413.801 532.049 830 6 \;;
#X scalar 1213-dot 860.631 519.806 209 7 \;;
#X scalar 1213-dot 577.883 712.458 900 8 \;;
#X scalar 1213-dot 839.786 429.821 306 9 \;;
#X scalar 1213-dot 793.139 491.715 999 10 \;;
#X scalar 1213-dot 980.966 659.766 990 11 \;;
#X scalar 1213-dot 509.831 713.714 900 12 \;;
#X scalar 1213-dot 840.279 523.776 209 13 \;;
#X scalar 1213-dot 0 0 999 14 \;;
#X scalar 1213-dot 893.695 548.027 990 15 \;;
#X scalar 1213-dot 542.471 660.307 900 16 \;;
#X scalar 1213-dot 761.643 348.566 999 17 \;;
#X scalar 1213-dot 550.397 561.879 209 18 \;;
#X scalar 1213-dot 315.176 857.583 999 19 \;;
#X scalar 1213-dot 493.082 632.876 900 20 \;;
#X scalar 1213-dot 864.961 518.168 999 21 \;;
#X scalar 1213-dot 314.149 556.569 999 22 \;;
#X scalar 1213-dot 846.256 523.794 209 23 \;;
#X scalar 1213-dot 603.726 793.414 900 24 \;;
#X scalar 1213-dot 846.77 446.054 999 25 \;;
#X scalar 1213-dot 745.482 489.567 999 26 \;;
#X scalar 1213-dot 899.318 512.613 990 27 \;;
#X scalar 1213-dot 500.904 686.088 900 28 \;;
#X scalar 1213-dot 1000 1000 990 29 \;;
#X scalar 1213-pointer 500 500 999 368.503 400.873 388.503 420.873
408.503 440.873 0 0 \;;
#X coords -40 -40 1039 1039 300 300 2 0 0;
#X restore 0 0 pd \$1-pad-area;
#X connect 0 0 11 0;
#X connect 1 0 3 0;
#X connect 2 0 3 0;
#X connect 8 0 3 0;
#X connect 11 0 13 0;
#X connect 11 1 14 0;
#X connect 11 2 12 0;
#X connect 11 3 8 0;
#X connect 11 4 9 0;
#X connect 11 5 2 0;
#X coords 0 0 1 1 300 300 2 0 0;
