#N struct 1363-xt float x float y;
#N struct 1363-yt float x float y;
#N struct 1364-xt float x float y;
#N struct 1364-yt float x float y;
#N canvas 84 64 1117 891 12;
#X obj 102 133 mtof~;
#X floatatom 102 95 5 0 0 0 - - -;
#X obj 308 279 hsl 128 15 0 1 0 0 empty empty empty -2 -8 0 10 -262144
-1 -1 0 1;
#X text 441 278 Amplitude Modulation;
#X floatatom 305 306 5 0 0 0 - - -;
#X obj 197 441 dac~;
#X obj 290 397 pp.spectrum~;
#X obj 262 487 scope~ 130 130 256 3 128 -1 1 0 0 0 0 205 229 232 74
79 77 96 98 102 0 empty;
#X obj 230 361 *~;
#X obj 98 12 tgl 15 0 empty empty empty 17 7 0 10 -262144 -1 -1 0 1
;
#N canvas 258 133 538 496 notes 0;
#X obj 74 19 inlet;
#X text 280 18 Note Sequence;
#X obj 79 300 tabread notes;
#X floatatom 79 264 5 0 0 0 - - -;
#X floatatom 79 337 5 0 0 0 - - -;
#X obj 74 126 i 0;
#X obj 126 160 + 1;
#X obj 126 197 % 7;
#X text 126 125 counter;
#X obj 74 93 bng 15 250 50 0 empty empty empty 17 7 0 10 -262144 -1
-1;
#X obj 82 390 outlet;
#X obj 280 160 table notes;
#X msg 279 87 \; notes 0 55 57 55 62 60 62 64;
#X obj 74 56 metro 100;
#X connect 0 0 13 0;
#X connect 0 0 12 0;
#X connect 2 0 4 0;
#X connect 3 0 2 0;
#X connect 4 0 10 0;
#X connect 5 0 6 0;
#X connect 5 0 3 0;
#X connect 6 0 7 0;
#X connect 7 0 5 1;
#X connect 9 0 5 0;
#X connect 13 0 9 0;
#X restore 98 39 pd notes;
#X obj 182 218 +~;
#X obj 267 75 osc~;
#X floatatom 268 12 5 0 0 0 - - -;
#X obj 261 133 *~;
#X floatatom 397 48 5 0 0 0 - - -;
#N canvas 873 193 450 300 open_original_file 0;
#X obj 142 61 openpanel;
#X obj 142 135 readsf~;
#X msg 142 98 open \$1;
#X obj 142 172 dac~;
#X obj 223 172 pp.spectrum~;
#X obj 142 28 bng 15 250 50 0 empty empty empty 17 7 0 10 -262144 -1
-1;
#X msg 100 98 1;
#X connect 0 0 2 0;
#X connect 1 0 3 0;
#X connect 1 0 3 1;
#X connect 1 0 4 0;
#X connect 2 0 1 0;
#X connect 5 0 0 0;
#X connect 6 0 1 0;
#X restore 529 12 pd open_original_file;
#X obj 182 249 phasor~;
#X obj 182 280 triangle~;
#X connect 0 0 11 0;
#X connect 1 0 0 0;
#X connect 2 0 4 0;
#X connect 4 0 8 1;
#X connect 8 0 6 0;
#X connect 8 0 7 0;
#X connect 8 0 5 0;
#X connect 8 0 5 1;
#X connect 9 0 10 0;
#X connect 10 0 1 0;
#X connect 11 0 17 0;
#X connect 12 0 14 0;
#X connect 13 0 12 0;
#X connect 14 0 11 1;
#X connect 15 0 14 1;
#X connect 17 0 18 0;
#X connect 18 0 8 0;
