#N struct 1004-xt float x float y;
#N struct 1004-yt float x float y;
#N struct 1005-xt float x float y;
#N struct 1005-yt float x float y;
#N canvas 952 0 958 956 12;
#X floatatom 269 153 5 0 0 0 - - -;
#X obj 247 464 dac~;
#X obj 390 464 pp.spectrum~;
#X obj 362 517 scope~ 704 258 256 3 128 -1 1 0 0 0 0 205 229 232 74
79 77 96 98 102 0 empty;
#X obj 269 52 tgl 30 0 empty empty empty 17 7 0 10 -204800 -1 -1 0
1;
#N canvas 1137 277 538 496 notes 0;
#X obj 74 19 inlet;
#X text 280 18 Note Sequence;
#X floatatom 74 163 5 0 0 0 - - -;
#X floatatom 74 236 5 0 0 0 - - -;
#X obj 74 272 outlet;
#X obj 281 130 array define notes_sequence;
#X obj 74 199 array get notes_sequence 0 1;
#X obj 74 93 bng 15 250 50 0 empty empty empty 17 7 0 10 -262144 -1
-1;
#X obj 74 126 counter 0 7;
#X msg 281 93 0 40 43 45 43 50 48 50 52;
#X obj 74 56 metro 91;
#X obj 161 272 send note;
#X connect 0 0 9 0;
#X connect 0 0 10 0;
#X connect 2 0 6 0;
#X connect 3 0 4 0;
#X connect 3 0 11 0;
#X connect 6 0 3 0;
#X connect 7 0 8 0;
#X connect 8 0 2 0;
#X connect 9 0 5 0;
#X connect 10 0 7 0;
#X restore 269 108 pd notes;
#X obj 382 192 *~;
#X floatatom 448 145 5 0 0 0 - - -;
#N canvas -9 -9 1920 966 open_original_file 0;
#X obj 142 61 openpanel;
#X obj 142 135 readsf~;
#X msg 142 98 open \$1;
#X obj 142 206 dac~;
#X obj 223 172 pp.spectrum~;
#X obj 142 28 bng 15 250 50 0 empty empty empty 17 7 0 10 -262144 -1
-1;
#X msg 100 98 1;
#X obj 197 235 scope~ 620 477 256 3 128 -1 1 0 0 0 0 205 229 232 74
79 77 96 98 102 0 empty;
#X connect 0 0 2 0;
#X connect 1 0 3 0;
#X connect 1 0 3 1;
#X connect 1 0 4 0;
#X connect 1 0 7 0;
#X connect 2 0 1 0;
#X connect 5 0 0 0;
#X connect 6 0 1 0;
#X restore 719 52 pd open_original_file;
#X obj 33 184 mtof;
#X floatatom 33 229 5 0 0 0 - - -;
#X text 224 27 Starts the music;
#X text 600 27 Sub-patch to open the original file and show its spectrum
;
#X text 4 249 Shows the note;
#X text 3 268 frequency for;
#X text 4 289 debugging puposes;
#X obj 155 103 send start;
#N canvas 189 99 755 760 amplitude_modulation 1;
#X obj 37 87 inlet~;
#X obj 119 393 outlet~;
#X obj 222 120 hsl 128 15 0 1 0 0 empty empty empty -2 -8 0 10 -262144
-1 -1 12700 1;
#X floatatom 219 139 5 0 0 0 - - -;
#X obj 117 193 *~;
#X obj 162 70 line;
#X floatatom 162 93 5 0 0 0 - - -;
#X msg 162 47 \$1 500;
#X obj 162 28 tgl 15 0 empty start empty 17 7 0 10 -262144 -1 -1 0
1;
#X obj 37 150 *~;
#X obj 219 97 inlet;
#X text 358 119 [0 \, 1];
#X obj 119 357 *~;
#X obj 243 363 vline~;
#X obj 229 189 receive note;
#X floatatom 278 254 5 0 0 0 - - -;
#X obj 251 218 bng 15 250 50 0 empty empty empty 17 7 0 10 -262144
-1 -1;
#X floatatom 329 256 5 0 0 0 - - -;
#X floatatom 384 256 5 0 0 0 - - -;
#X floatatom 444 254 5 0 0 0 - - -;
#X obj 275 298 pack f f f f;
#X msg 240 326 1 \$1 \, 0.8 \$2 \$1 \, 0 \$3 \$4;
#X obj 407 289 +;
#X text 323 190 ADSR envelope;
#X floatatom 444 191 5 0 0 0 - - -;
#X obj 444 167 line;
#X obj 444 86 bng 15 250 50 0 empty empty empty 17 7 0 10 -262144 -1
-1;
#X obj 444 9 receive start;
#X obj 562 101 delay 5 1 sec;
#X obj 503 188 tgl 20 0 empty empty empty 17 7 0 10 -204786 -1 -1 1
1;
#X obj 444 214 *;
#X obj 444 35 bng 15 250 50 0 empty empty empty 17 7 0 10 -262144 -1
-1;
#X obj 444 59 delay 5 1 sec;
#X msg 562 127 81 5000 100;
#X text 525 187 toggle to modify the Release;
#X text 525 205 start time;
#X obj 503 156 receive enable_Release_Effect;
#X msg 444 116 81 \, 20 5000 100;
#X connect 0 0 9 0;
#X connect 2 0 3 0;
#X connect 3 0 4 1;
#X connect 4 0 12 0;
#X connect 5 0 6 0;
#X connect 6 0 9 1;
#X connect 7 0 5 0;
#X connect 8 0 7 0;
#X connect 9 0 4 0;
#X connect 10 0 2 0;
#X connect 12 0 1 0;
#X connect 13 0 12 1;
#X connect 14 0 16 0;
#X connect 15 0 20 0;
#X connect 15 0 22 0;
#X connect 16 0 15 0;
#X connect 16 0 17 0;
#X connect 16 0 18 0;
#X connect 16 0 19 0;
#X connect 17 0 20 1;
#X connect 18 0 20 2;
#X connect 19 0 22 1;
#X connect 20 0 21 0;
#X connect 21 0 13 0;
#X connect 22 0 20 3;
#X connect 24 0 30 0;
#X connect 25 0 24 0;
#X connect 26 0 37 0;
#X connect 26 0 28 0;
#X connect 27 0 31 0;
#X connect 28 0 33 0;
#X connect 29 0 30 1;
#X connect 30 0 19 0;
#X connect 31 0 32 0;
#X connect 32 0 26 0;
#X connect 33 0 25 0;
#X connect 36 0 29 0;
#X connect 37 0 25 0;
#X restore 269 397 pd amplitude_modulation;
#X obj 430 317 hsl 128 15 0 1 0 0 empty empty empty -2 -8 0 10 -262144
-1 -1 12700 1;
#X text 571 316 Amplitude Modulation [0 \, 1];
#N canvas 1192 404 450 300 record_attempt 0;
#X obj 22 271 writesf~ 2;
#X msg 81 125 open on_the_run.wav;
#X obj 81 231 inlet~;
#X msg 81 203 start;
#X msg 22 125 stop;
#X obj 22 19 receive start;
#X obj 22 71 sel 0 1;
#X obj 22 47 tgl 15 0 empty empty empty 17 7 0 10 -262144 -1 -1 0 1
;
#X obj 81 172 bng 15 250 50 0 empty empty empty 17 7 0 10 -262144 -1
-1;
#X connect 1 0 0 0;
#X connect 1 0 8 0;
#X connect 2 0 0 0;
#X connect 2 0 0 1;
#X connect 3 0 0 0;
#X connect 4 0 0 0;
#X connect 5 0 7 0;
#X connect 6 0 4 0;
#X connect 6 1 1 0;
#X connect 7 0 6 0;
#X connect 8 0 3 0;
#X restore 101 464 pd record_attempt;
#X obj 269 195 mtof~;
#N canvas 345 175 450 300 filters 0;
#X obj 32 10 inlet~;
#X obj 42 158 outlet~;
#X obj 376 115 vsl 15 128 0 1000 0 0 empty empty empty 0 -9 0 10 -262144
-1 -1 1000 1;
#X obj 245 4 inlet;
#X obj 273 48 mtof;
#X obj 37 96 lop~ 100;
#X floatatom 189 112 5 0 0 0 - - -;
#X obj 134 161 bp~ 100 1;
#X obj 402 161 vsl 15 128 0 1 0 0 empty empty empty 0 -9 0 10 -262144
-1 -1 12700 1;
#X floatatom 215 158 5 0 0 0 - - -;
#X connect 0 0 5 0;
#X connect 0 0 7 0;
#X connect 2 0 6 0;
#X connect 3 0 4 0;
#X connect 6 0 5 1;
#X connect 6 0 7 1;
#X connect 7 0 1 0;
#X connect 8 0 9 0;
#X connect 9 0 7 2;
#X restore 269 312 pd filters;
#X obj 269 276 square~;
#N canvas 484 469 577 384 ring_modulation 0;
#X obj 308 270 inlet~;
#X obj 290 353 outlet~;
#X floatatom 126 232 5 0 0 0 - - -;
#X obj 289 324 *~;
#X obj 126 279 osc~;
#X obj 126 208 line;
#X obj 18 97 bng 15 250 50 0 empty empty empty 17 7 0 10 -262144 -1
-1;
#X msg 18 158 0 \, 10 5000 100;
#X msg 156 156 0 5000 100;
#X obj 18 5 receive start;
#X obj 156 130 delay 5 1 sec;
#X obj 185 229 tgl 20 0 empty empty empty 17 7 0 10 -203904 -1 -1 0
1;
#X text 207 228 toggle to enable RM;
#X obj 185 197 receive enable_RM;
#X obj 126 255 *;
#X obj 18 31 bng 15 250 50 0 empty empty empty 17 7 0 10 -262144 -1
-1;
#X obj 18 64 delay 5 1 sec;
#X connect 0 0 3 1;
#X connect 2 0 14 0;
#X connect 3 0 1 0;
#X connect 4 0 3 0;
#X connect 5 0 2 0;
#X connect 6 0 7 0;
#X connect 6 0 10 0;
#X connect 7 0 5 0;
#X connect 8 0 5 0;
#X connect 9 0 15 0;
#X connect 10 0 8 0;
#X connect 11 0 14 1;
#X connect 13 0 11 0;
#X connect 14 0 4 0;
#X connect 15 0 16 0;
#X connect 16 0 6 0;
#X restore 269 353 pd ring_modulation;
#X obj 269 242 +~;
#X obj 382 147 osc~;
#X floatatom 382 98 5 0 0 0 - - -;
#X obj 639 137 tgl 20 0 empty empty empty 17 7 0 10 -203904 -1 -1 0
1;
#X obj 639 178 send enable_RM;
#X obj 793 136 tgl 20 0 empty empty empty 17 7 0 10 -204786 -1 -1 1
1;
#X obj 793 177 send enable_release_effect;
#X text 638 202 pd ring_modulation;
#X text 792 202 pd amplitude_modulation;
#X connect 0 0 21 0;
#X connect 0 0 9 0;
#X connect 4 0 16 0;
#X connect 4 0 5 0;
#X connect 5 0 0 0;
#X connect 6 0 25 1;
#X connect 7 0 6 1;
#X connect 9 0 10 0;
#X connect 17 0 1 0;
#X connect 17 0 1 1;
#X connect 17 0 2 0;
#X connect 17 0 3 0;
#X connect 17 0 20 0;
#X connect 18 0 17 1;
#X connect 21 0 25 0;
#X connect 22 0 24 0;
#X connect 23 0 22 0;
#X connect 24 0 17 0;
#X connect 25 0 23 0;
#X connect 26 0 6 0;
#X connect 27 0 26 0;
#X connect 28 0 29 0;
#X connect 30 0 31 0;
