#N struct 1004-xt float x float y;
#N struct 1004-yt float x float y;
#N struct 1005-xt float x float y;
#N struct 1005-yt float x float y;
#N canvas 224 0 1427 956 12;
#X floatatom 269 150 5 0 0 0 - - -;
#X obj 269 463 dac~;
#X obj 412 463 pp.spectrum~;
#X obj 412 516 scope~ 618 99 256 3 128 -1 1 0 0 0 0 205 229 232 74
79 77 96 98 102 0 empty;
#X obj 269 52 tgl 30 0 empty empty empty 17 7 0 10 -204800 -1 -1 0
1;
#N canvas 1137 277 538 496 notes 0;
#X obj 74 19 inlet;
#X text 280 18 Note Sequence;
#X floatatom 74 163 5 0 0 0 - - -;
#X floatatom 74 236 5 0 0 0 - - -;
#X obj 74 272 outlet;
#X obj 281 130 array define notes_sequence;
#X obj 74 199 array get notes_sequence 0 1;
#X obj 74 93 bng 15 250 50 0 empty empty empty 17 7 0 10 -262144 -1
-1;
#X obj 74 126 counter 0 7;
#X msg 281 93 0 40 43 45 43 50 48 50 52;
#X obj 74 56 metro 91;
#X obj 161 272 send note;
#X connect 0 0 9 0;
#X connect 0 0 10 0;
#X connect 2 0 6 0;
#X connect 3 0 4 0;
#X connect 3 0 11 0;
#X connect 6 0 3 0;
#X connect 7 0 8 0;
#X connect 8 0 2 0;
#X connect 9 0 5 0;
#X connect 10 0 7 0;
#X restore 269 108 pd notes;
#N canvas 952 0 958 956 open_original_file 0;
#X obj 142 61 openpanel;
#X obj 142 135 readsf~;
#X msg 142 98 open \$1;
#X obj 142 206 dac~;
#X obj 223 172 pp.spectrum~;
#X obj 142 28 bng 15 250 50 0 empty empty empty 17 7 0 10 -262144 -1
-1;
#X msg 100 98 1;
#X obj 197 235 scope~ 620 477 256 3 128 -1 1 0 0 0 0 205 229 232 74
79 77 96 98 102 0 empty;
#X connect 0 0 2 0;
#X connect 1 0 3 0;
#X connect 1 0 3 1;
#X connect 1 0 4 0;
#X connect 1 0 7 0;
#X connect 2 0 1 0;
#X connect 5 0 0 0;
#X connect 6 0 1 0;
#X restore 719 52 pd open_original_file;
#X floatatom 53 259 5 0 0 0 - - -;
#X text 224 27 Starts the music;
#X text 600 27 Sub-patch to open the original file and show its spectrum
;
#X obj 145 152 send start;
#N canvas 1286 0 624 956 amplitude_modulation 1;
#X obj 37 147 inlet~;
#X obj 119 453 outlet~;
#X obj 222 180 hsl 128 15 0 1 0 0 empty empty empty -2 -8 0 10 -262144
-1 -1 2900 1;
#X floatatom 219 199 5 0 0 0 - - -;
#X obj 117 253 *~;
#X obj 162 130 line;
#X floatatom 162 153 5 0 0 0 - - -;
#X msg 162 107 \$1 500;
#X obj 162 88 tgl 15 0 empty empty empty 17 7 0 10 -262144 -1 -1 0
1;
#X obj 37 210 *~;
#X obj 219 157 inlet;
#X text 358 179 [0 \, 1];
#X obj 119 417 *~;
#N canvas 717 55 958 956 adsr_envelope 0;
#X obj 22 307 vline~;
#X obj 22 11 receive note;
#X floatatom 22 167 5 0 0 0 - - -;
#X obj 22 67 bng 15 250 50 0 empty empty empty 17 7 0 10 -262144 -1
-1;
#X floatatom 75 168 5 0 0 0 - - -;
#X floatatom 128 168 5 0 0 0 - - -;
#X floatatom 237 166 5 0 0 0 - - -;
#X obj 22 236 pack f f f f;
#X msg 22 270 1 \$1 \, 0.8 \$2 \$1 \, 0 \$3 \$4;
#X obj 128 205 +;
#X text 116 12 ADSR envelope;
#X obj 22 346 outlet~;
#X obj 237 98 inlet;
#X text 163 208 Release Start Time;
#X obj 194 37 receive start;
#X msg 128 74 set 10;
#X msg 194 74 set 81;
#X text 312 292 ADSR: A - Attack \; D - Decay \; S - Sustain \; R -
Release.;
#X text 13 167 A;
#X text 64 168 D;
#X text 117 167 R;
#X obj 237 122 unpack f f;
#X connect 0 0 11 0;
#X connect 1 0 3 0;
#X connect 2 0 7 0;
#X connect 2 0 9 0;
#X connect 3 0 2 0;
#X connect 3 0 4 0;
#X connect 3 0 5 0;
#X connect 3 0 6 0;
#X connect 4 0 7 1;
#X connect 5 0 7 2;
#X connect 6 0 9 1;
#X connect 7 0 8 0;
#X connect 8 0 0 0;
#X connect 9 0 7 3;
#X connect 12 0 21 0;
#X connect 14 0 15 0;
#X connect 14 0 16 0;
#X connect 15 0 2 0;
#X connect 15 0 4 0;
#X connect 15 0 5 0;
#X connect 16 0 6 0;
#X connect 21 0 6 0;
#X connect 21 1 4 0;
#X restore 163 373 pd adsr_envelope;
#X obj 60 40 receive start;
#X obj 162 40 receive stop;
#N canvas 16 354 843 471 release_effect 0;
#X floatatom 24 191 5 0 0 0 - - -;
#X obj 24 167 line;
#X obj 24 86 bng 15 250 50 0 empty empty empty 17 7 0 10 -262144 -1
-1;
#X obj 24 9 receive start;
#X obj 142 101 delay 5 1 sec;
#X obj 143 188 tgl 20 0 empty empty empty 17 7 0 10 -204786 -1 -1 1
1;
#X obj 24 214 *;
#X obj 24 35 bng 15 250 50 0 empty empty empty 17 7 0 10 -262144 -1
-1;
#X obj 24 59 delay 5 1 sec;
#X msg 142 127 81 5000 100;
#X obj 24 329 outlet;
#X text 165 187 toggle to modify the Release start time, f 23;
#X obj 140 9 receive stop;
#X msg 140 33 stop;
#X obj 24 251 sel 0;
#X msg 24 275 81;
#X obj 143 156 receive enable_release_effect;
#X msg 24 116 81 \, 50 5000 100;
#X connect 0 0 6 0;
#X connect 1 0 0 0;
#X connect 2 0 17 0;
#X connect 2 0 4 0;
#X connect 3 0 7 0;
#X connect 4 0 9 0;
#X connect 5 0 6 1;
#X connect 6 0 14 0;
#X connect 7 0 8 0;
#X connect 8 0 2 0;
#X connect 9 0 1 0;
#X connect 12 0 13 0;
#X connect 13 0 8 0;
#X connect 13 0 4 0;
#X connect 14 0 15 0;
#X connect 14 1 10 0;
#X connect 15 0 10 0;
#X connect 16 0 5 0;
#X connect 17 0 1 0;
#X coords 0 0 1 1 85 60 0;
#X restore 163 283 pd release_effect;
#N canvas 1286 0 624 956 decay_effect 0;
#X floatatom 24 191 5 0 0 0 - - -;
#X obj 24 167 line;
#X obj 24 86 bng 15 250 50 0 empty empty empty 17 7 0 10 -262144 -1
-1;
#X obj 24 9 receive start;
#X obj 142 101 delay 5 1 sec;
#X obj 143 188 tgl 20 0 empty empty empty 17 7 0 10 -204786 -1 -1 0
1;
#X obj 24 214 *;
#X obj 24 35 bng 15 250 50 0 empty empty empty 17 7 0 10 -262144 -1
-1;
#X obj 24 59 delay 5 1 sec;
#X obj 24 329 outlet;
#X obj 140 9 receive stop;
#X msg 140 33 stop;
#X obj 24 251 sel 0;
#X msg 24 116 10 \, 60 5000 100;
#X msg 142 127 10 5000 100;
#X msg 24 275 10;
#X obj 143 157 receive enable_decay_effect;
#X text 165 188 toggle to modify the Decay duration, f 24;
#X connect 0 0 6 0;
#X connect 1 0 0 0;
#X connect 2 0 13 0;
#X connect 2 0 4 0;
#X connect 3 0 7 0;
#X connect 4 0 14 0;
#X connect 5 0 6 1;
#X connect 6 0 12 0;
#X connect 7 0 8 0;
#X connect 8 0 2 0;
#X connect 10 0 11 0;
#X connect 11 0 8 0;
#X connect 11 0 4 0;
#X connect 12 0 15 0;
#X connect 12 1 9 0;
#X connect 13 0 1 0;
#X connect 14 0 1 0;
#X connect 15 0 9 0;
#X connect 16 0 5 0;
#X coords 0 0 1 1 85 60 0;
#X restore 216 312 pd decay_effect;
#X obj 163 338 pack f f;
#X connect 0 0 9 0;
#X connect 2 0 3 0;
#X connect 3 0 4 1;
#X connect 4 0 12 0;
#X connect 5 0 6 0;
#X connect 6 0 9 1;
#X connect 7 0 5 0;
#X connect 8 0 7 0;
#X connect 9 0 4 0;
#X connect 10 0 2 0;
#X connect 12 0 1 0;
#X connect 13 0 12 1;
#X connect 14 0 8 0;
#X connect 15 0 8 0;
#X connect 16 0 18 0;
#X connect 17 0 18 1;
#X connect 18 0 13 0;
#X restore 269 397 pd amplitude_modulation;
#X obj 430 355 hsl 128 15 0 1 0 0 empty empty empty -2 -8 0 10 -262144
-1 -1 2900 1;
#X text 565 354 Amplitude Modulation [0 \, 1];
#N canvas 338 326 450 403 record_attempt 0;
#X obj 22 333 writesf~ 2;
#X msg 171 155 open on_the_run.wav;
#X obj 171 261 inlet~;
#X msg 171 233 start;
#X msg 22 195 stop;
#X obj 22 19 receive start;
#X obj 22 101 sel 0 1;
#X obj 22 77 tgl 15 0 empty empty empty 17 7 0 10 -262144 -1 -1 0 1
;
#X obj 171 202 bng 15 250 50 0 empty empty empty 17 7 0 10 -262144
-1 -1;
#X obj 22 155 delay 500 1 msec;
#X obj 39 46 receive stop;
#X connect 1 0 0 0;
#X connect 1 0 8 0;
#X connect 2 0 0 0;
#X connect 2 0 0 1;
#X connect 3 0 0 0;
#X connect 4 0 0 0;
#X connect 5 0 7 0;
#X connect 6 0 9 0;
#X connect 6 1 1 0;
#X connect 7 0 6 0;
#X connect 8 0 3 0;
#X connect 9 0 4 0;
#X connect 10 0 7 0;
#X restore 123 463 pd record_attempt;
#N canvas 1218 242 532 536 filters 1;
#X obj 32 10 inlet~;
#X obj 32 408 outlet~;
#X floatatom 63 235 5 0 0 0 - - -;
#X obj 33 369 bp~ 100 1;
#X floatatom 93 336 5 0 0 0 - - -;
#X obj 66 205 hsl 128 15 100 600 0 0 empty empty empty -2 -8 0 10 -262144
-1 -1 1270 1;
#X obj 96 307 hsl 128 15 0.01 1 0 0 empty empty empty -2 -8 0 10 -262144
-1 -1 1155 1;
#X obj 63 64 receive start;
#X text 334 16 Warning: Don't forget to change these values when you
open the patch, f 22;
#X text 238 168 Center Frequency It should start at 100;
#X text 232 305 Q It should start at 1;
#N canvas -9 -9 1920 966 set_center_frequency 0;
#X obj 20 9 inlet;
#X floatatom 20 118 5 0 0 0 - - -;
#X obj 20 94 line;
#X obj 187 107 tgl 20 0 empty empty empty 17 7 0 10 -261234 -1 -1 0
1;
#X obj 20 141 *;
#X text 209 106 toggle to enable center frequency effect, f 16;
#X obj 187 75 receive enable_center_freq_fx;
#X obj 20 246 outlet;
#X obj 20 177 sel 0;
#X obj 124 170 receive start;
#X msg 20 46 150 \, 600 5000 100;
#X msg 20 211 150;
#X connect 0 0 10 0;
#X connect 1 0 4 0;
#X connect 2 0 1 0;
#X connect 3 0 4 1;
#X connect 4 0 8 0;
#X connect 6 0 3 0;
#X connect 8 0 11 0;
#X connect 8 1 7 0;
#X connect 9 0 11 0;
#X connect 10 0 2 0;
#X connect 11 0 7 0;
#X restore 63 173 pd set_center_frequency;
#N canvas 899 71 562 956 set_q 0;
#X obj 23 5 inlet;
#X floatatom 23 269 5 0 0 0 - - -;
#X obj 23 245 line;
#X obj 180 38 tgl 20 0 empty empty empty 17 7 0 10 -261682 -1 -1 1
1;
#X obj 23 317 outlet;
#X obj 180 6 receive enable_q_fx;
#X text 202 37 toggle to enable Q effect, f 16;
#X msg 162 227 1;
#X obj 162 117 sel 0;
#X msg 23 29 1;
#X obj 162 94 *;
#X obj 196 179 receive start;
#X msg 23 216 1 \, 0.1 5000 100;
#X connect 0 0 9 0;
#X connect 1 0 4 0;
#X connect 2 0 1 0;
#X connect 3 0 10 1;
#X connect 5 0 3 0;
#X connect 7 0 4 0;
#X connect 8 0 7 0;
#X connect 8 1 12 0;
#X connect 9 0 10 0;
#X connect 10 0 8 0;
#X connect 11 0 7 0;
#X connect 12 0 2 0;
#X restore 93 271 pd set_q;
#X obj 63 139 bng 15 250 50 0 empty empty empty 17 7 0 10 -262144 -1
-1;
#X obj 63 97 bng 15 250 50 0 empty empty empty 17 7 0 10 -262144 -1
-1;
#X obj 188 44 receive stop;
#X msg 188 68 stop;
#X obj 63 116 delay 19 1 sec;
#X connect 0 0 3 0;
#X connect 2 0 3 1;
#X connect 3 0 1 0;
#X connect 4 0 3 2;
#X connect 5 0 2 0;
#X connect 6 0 4 0;
#X connect 7 0 14 0;
#X connect 11 0 5 0;
#X connect 12 0 6 0;
#X connect 13 0 11 0;
#X connect 13 0 12 0;
#X connect 14 0 17 0;
#X connect 15 0 16 0;
#X connect 16 0 17 0;
#X connect 17 0 13 0;
#X restore 269 312 pd filters;
#X obj 269 270 square~;
#N canvas 352 457 577 384 ring_modulation 0;
#X obj 308 270 inlet~;
#X obj 290 353 outlet~;
#X floatatom 126 232 5 0 0 0 - - -;
#X obj 289 324 *~;
#X obj 126 208 line;
#X obj 18 97 bng 15 250 50 0 empty empty empty 17 7 0 10 -262144 -1
-1;
#X msg 18 158 0 \, 10 5000 100;
#X msg 156 156 0 5000 100;
#X obj 18 5 receive start;
#X obj 156 130 delay 5 1 sec;
#X obj 185 229 tgl 20 0 empty empty empty 17 7 0 10 -203904 -1 -1 0
1;
#X text 207 228 toggle to enable RM;
#X obj 185 197 receive enable_RM;
#X obj 126 255 *;
#X obj 18 31 bng 15 250 50 0 empty empty empty 17 7 0 10 -262144 -1
-1;
#X obj 18 64 delay 5 1 sec;
#X text 362 272 Carrier Signal;
#X text 3 280 Modulating Signal;
#X obj 156 5 receive stop;
#X msg 156 29 stop;
#X obj 126 279 osc~;
#X connect 0 0 3 1;
#X connect 2 0 13 0;
#X connect 3 0 1 0;
#X connect 4 0 2 0;
#X connect 5 0 6 0;
#X connect 5 0 9 0;
#X connect 6 0 4 0;
#X connect 7 0 4 0;
#X connect 8 0 14 0;
#X connect 9 0 7 0;
#X connect 10 0 13 1;
#X connect 12 0 10 0;
#X connect 13 0 20 0;
#X connect 14 0 15 0;
#X connect 15 0 5 0;
#X connect 18 0 19 0;
#X connect 19 0 15 0;
#X connect 19 0 9 0;
#X connect 20 0 3 0;
#X restore 269 353 pd ring_modulation;
#X text 568 378 Warning: Don't forget to change this value when you
open the patch, f 54;
#X text 24 279 Shows the note frequency for debugging puposes, f 18
;
#N canvas 1043 204 671 462 frequency_modulation 1;
#X obj 172 322 *~;
#X floatatom 278 265 5 0 0 0 - - -;
#X obj 172 277 osc~;
#X floatatom 172 228 5 0 0 0 - - -;
#X text 87 29 Carrier Frequency, f 10;
#X obj 38 407 outlet~;
#X obj 39 37 inlet;
#X text 275 243 Deviation, f 10;
#X text 170 187 Modulation Frequency, f 10;
#X obj 371 242 tgl 20 0 empty empty empty 17 7 0 10 -262130 -1 -1 1
1;
#X obj 371 210 receive enable_FM;
#X text 396 241 toggle to enable FM, f 20;
#X obj 70 172 receive note;
#X obj 70 196 mtof;
#X obj 278 299 *;
#X obj 278 184 line;
#X obj 278 116 bng 15 250 50 0 empty empty empty 17 7 0 10 -262144
-1 -1;
#X obj 278 34 receive start;
#X obj 416 139 delay 5 1 sec;
#X obj 278 60 bng 15 250 50 0 empty empty empty 17 7 0 10 -262144 -1
-1;
#X obj 278 83 delay 5 1 sec;
#X obj 416 34 receive stop;
#X msg 416 58 stop;
#X msg 416 165 20 5000 100;
#X msg 278 147 20 \, 175 5000 100;
#X obj 39 362 +~;
#X connect 0 0 25 1;
#X connect 1 0 14 0;
#X connect 2 0 0 0;
#X connect 3 0 2 0;
#X connect 6 0 25 0;
#X connect 9 0 14 1;
#X connect 10 0 9 0;
#X connect 12 0 13 0;
#X connect 13 0 3 0;
#X connect 14 0 0 1;
#X connect 15 0 1 0;
#X connect 16 0 24 0;
#X connect 16 0 18 0;
#X connect 17 0 19 0;
#X connect 18 0 23 0;
#X connect 19 0 20 0;
#X connect 20 0 16 0;
#X connect 21 0 22 0;
#X connect 22 0 20 0;
#X connect 22 0 18 0;
#X connect 23 0 15 0;
#X connect 24 0 15 0;
#X connect 25 0 5 0;
#X restore 269 240 pd frequency_modulation;
#X obj 269 191 mtof;
#X obj 145 94 sel 1;
#X obj 177 129 send stop;
#N canvas 0 50 815 299 effects_toggles 0;
#X obj 19 37 tgl 20 0 empty empty empty 17 7 0 10 -203904 -1 -1 0 1
;
#X obj 19 78 send enable_RM;
#X obj 168 37 tgl 20 0 empty empty empty 17 7 0 10 -204786 -1 -1 0
1;
#X obj 168 78 send enable_release_effect;
#X text 18 102 pd ring_modulation;
#X text 167 103 pd amplitude_modulation > pd release_effect, f 26
;
#X obj 576 37 tgl 20 0 empty empty empty 17 7 0 10 -262130 -1 -1 0
1;
#X obj 576 78 send enable_FM;
#X text 575 103 pd frequency_modulation;
#X obj 20 145 tgl 20 0 empty empty empty 17 7 0 10 -261234 -1 -1 0
1;
#X obj 20 186 send enable_center_freq_fx;
#X text 20 210 pd filters > pd set_center_frequency, f 20;
#X obj 217 145 tgl 20 0 empty empty empty 17 7 0 10 -261682 -1 -1 0
1;
#X obj 217 186 send enable_q_fx;
#X text 217 210 pd filters > pd set_q, f 14;
#X obj 370 37 tgl 20 0 empty empty empty 17 7 0 10 -204786 -1 -1 0
1;
#X obj 370 78 send enable_decay_effect;
#X text 369 103 pd amplitude_modulation > pd decay_effect, f 26;
#X connect 0 0 1 0;
#X connect 2 0 3 0;
#X connect 6 0 7 0;
#X connect 9 0 10 0;
#X connect 12 0 13 0;
#X connect 15 0 16 0;
#X restore 700 199 pd effects_toggles;
#X text 650 176 SUB-PATCH TO TOGGLE THE EFFECTS;
#X connect 0 0 21 0;
#X connect 4 0 5 0;
#X connect 4 0 22 0;
#X connect 5 0 0 0;
#X connect 11 0 2 0;
#X connect 11 0 3 0;
#X connect 11 0 14 0;
#X connect 11 0 1 0;
#X connect 11 0 1 1;
#X connect 12 0 11 1;
#X connect 15 0 17 0;
#X connect 16 0 15 0;
#X connect 17 0 11 0;
#X connect 20 0 16 0;
#X connect 21 0 20 0;
#X connect 21 0 7 0;
#X connect 22 0 10 0;
#X connect 22 1 23 0;
