#N struct 1004-xt float x float y;
#N struct 1004-yt float x float y;
#N struct 1005-xt float x float y;
#N struct 1005-yt float x float y;
#N canvas 952 0 958 956 12;
#X obj 269 197 mtof~;
#X floatatom 269 153 5 0 0 0 - - -;
#X obj 247 444 dac~;
#X obj 390 444 pp.spectrum~;
#X obj 362 517 scope~ 130 130 256 3 128 -1 1 0 0 0 0 205 229 232 74
79 77 96 98 102 0 empty;
#X obj 269 52 tgl 30 0 empty empty empty 17 7 0 10 -204800 -1 -1 1
1;
#N canvas 1319 355 538 496 notes 0;
#X obj 74 19 inlet;
#X text 280 18 Note Sequence;
#X floatatom 74 163 5 0 0 0 - - -;
#X floatatom 74 236 5 0 0 0 - - -;
#X obj 74 272 outlet;
#X obj 281 130 array define notes_sequence;
#X obj 74 199 array get notes_sequence 0 1;
#X obj 74 93 bng 15 250 50 0 empty empty empty 17 7 0 10 -262144 -1
-1;
#X obj 74 126 counter 0 7;
#X msg 281 93 0 40 43 45 43 50 48 50 52;
#X obj 74 56 metro 91;
#X connect 0 0 9 0;
#X connect 0 0 10 0;
#X connect 2 0 6 0;
#X connect 3 0 4 0;
#X connect 6 0 3 0;
#X connect 7 0 8 0;
#X connect 8 0 2 0;
#X connect 9 0 5 0;
#X connect 10 0 7 0;
#X restore 269 108 pd notes;
#X obj 269 242 +~;
#X floatatom 388 103 5 0 0 0 - - -;
#X obj 388 192 *~;
#X floatatom 517 138 5 0 0 0 - - -;
#N canvas 873 193 450 300 open_original_file 0;
#X obj 142 61 openpanel;
#X obj 142 135 readsf~;
#X msg 142 98 open \$1;
#X obj 142 172 dac~;
#X obj 223 172 pp.spectrum~;
#X obj 142 28 bng 15 250 50 0 empty empty empty 17 7 0 10 -262144 -1
-1;
#X msg 100 98 1;
#X connect 0 0 2 0;
#X connect 1 0 3 0;
#X connect 1 0 3 1;
#X connect 1 0 4 0;
#X connect 2 0 1 0;
#X connect 5 0 0 0;
#X connect 6 0 1 0;
#X restore 719 52 pd open_original_file;
#X obj 269 287 phasor~;
#X obj 269 332 triangle~;
#X obj 33 184 mtof;
#X floatatom 33 229 5 0 0 0 - - -;
#X text 224 27 Starts the music;
#X text 600 27 Sub-patch to open the original file and show its spectrum
;
#X obj 388 147 osc~;
#X text 4 249 Shows the note;
#X text 3 268 frequency for;
#X text 4 289 debugging puposes;
#X obj 155 103 send start;
#N canvas -9 -9 1920 966 amplitude_modulation 0;
#X obj 37 67 inlet~;
#X obj 117 207 outlet~;
#X obj 222 100 hsl 128 15 0 1 0 0 empty empty empty -2 -8 0 10 -262144
-1 -1 12700 1;
#X floatatom 219 119 5 0 0 0 - - -;
#X obj 117 173 *~;
#X obj 162 50 line;
#X floatatom 162 73 5 0 0 0 - - -;
#X msg 162 27 \$1 500;
#X obj 162 8 tgl 15 0 empty start empty 17 7 0 10 -262144 -1 -1 1 1
;
#X obj 37 130 *~;
#X obj 219 77 inlet;
#X text 358 99 [0 \, 1];
#X connect 0 0 9 0;
#X connect 2 0 3 0;
#X connect 3 0 4 1;
#X connect 4 0 1 0;
#X connect 5 0 6 0;
#X connect 6 0 9 1;
#X connect 7 0 5 0;
#X connect 8 0 7 0;
#X connect 9 0 4 0;
#X connect 10 0 2 0;
#X restore 269 377 pd amplitude_modulation;
#X obj 430 317 hsl 128 15 0 1 0 0 empty empty empty -2 -8 0 10 -262144
-1 -1 12700 1;
#X text 571 316 Amplitude Modulation [0 \, 1];
#N canvas 1275 504 450 300 record_attempt 0;
#X obj 22 221 writesf~ 2;
#X msg 81 125 open on_the_run.wav;
#X obj 81 181 inlet~;
#X msg 81 153 start;
#X msg 22 125 stop;
#X obj 22 19 receive start;
#X obj 22 71 sel 0 1;
#X obj 22 47 tgl 15 0 empty empty empty 17 7 0 10 -262144 -1 -1 1 1
;
#X connect 1 0 3 0;
#X connect 1 0 0 0;
#X connect 2 0 0 0;
#X connect 2 0 0 1;
#X connect 3 0 0 0;
#X connect 4 0 0 0;
#X connect 5 0 7 0;
#X connect 6 0 4 0;
#X connect 6 1 1 0;
#X connect 7 0 6 0;
#X restore 101 444 pd record_attempt;
#X connect 0 0 7 0;
#X connect 1 0 14 0;
#X connect 1 0 0 0;
#X connect 5 0 22 0;
#X connect 5 0 6 0;
#X connect 6 0 1 0;
#X connect 7 0 12 0;
#X connect 8 0 18 0;
#X connect 9 0 7 1;
#X connect 10 0 9 1;
#X connect 12 0 13 0;
#X connect 13 0 23 0;
#X connect 14 0 15 0;
#X connect 18 0 9 0;
#X connect 23 0 2 0;
#X connect 23 0 2 1;
#X connect 23 0 3 0;
#X connect 23 0 4 0;
#X connect 23 0 26 0;
#X connect 24 0 23 1;
