#N canvas -8 0 958 956 12;
#X msg 49 97 0;
#X obj 49 31 inlet;
#X obj 49 181 outlet;
#X msg 79 97 2;
#X msg 109 97 4;
#X msg 139 97 5;
#X msg 170 97 7;
#X msg 200 97 9;
#X msg 230 97 11;
#X msg 260 97 12;
#X msg 259 130 1;
#X msg 289 130 3;
#X msg 319 130 6;
#X msg 349 130 8;
#X msg 381 130 10;
#X obj 548 83 outlet;
#X msg 419 132 14;
#X msg 451 132 16;
#X text 83 47 qwertyui23567op90;
#X obj 49 64 sel 113 119 101 114 116 121 117 105 50 51 53 54 55 111
112 57 48, f 68;
#X msg 487 132 13;
#X msg 519 132 15;
#X connect 0 0 2 0;
#X connect 1 0 19 0;
#X connect 3 0 2 0;
#X connect 4 0 2 0;
#X connect 5 0 2 0;
#X connect 6 0 2 0;
#X connect 7 0 2 0;
#X connect 8 0 2 0;
#X connect 9 0 2 0;
#X connect 10 0 2 0;
#X connect 11 0 2 0;
#X connect 12 0 2 0;
#X connect 13 0 2 0;
#X connect 14 0 2 0;
#X connect 16 0 2 0;
#X connect 17 0 2 0;
#X connect 19 0 0 0;
#X connect 19 1 3 0;
#X connect 19 2 4 0;
#X connect 19 3 5 0;
#X connect 19 4 6 0;
#X connect 19 5 7 0;
#X connect 19 6 8 0;
#X connect 19 7 9 0;
#X connect 19 8 10 0;
#X connect 19 9 11 0;
#X connect 19 10 12 0;
#X connect 19 11 13 0;
#X connect 19 12 14 0;
#X connect 19 13 16 0;
#X connect 19 14 17 0;
#X connect 19 15 20 0;
#X connect 19 16 21 0;
#X connect 19 17 15 0;
#X connect 20 0 2 0;
#X connect 21 0 2 0;
