#N canvas 0 50 450 300 12;
#X obj 162 35 inlet;
#X obj 162 228 *~;
#X obj 162 252 outlet~;
#X obj 335 185 *~;
#X obj 335 209 *~;
#X obj 162 120 mtof;
#X obj 335 161 line~;
#X msg 335 136 \$1 50;
#X obj 162 59 unpack f f;
#X obj 335 112 / 127;
#N canvas 399 332 858 539 select_wave 0;
#X obj 92 90 phasor~;
#X obj 220 90 square~;
#X obj 160 121 triangle~;
#X obj 471 11 receive waveform;
#X obj 36 211 *~;
#X obj 91 211 *~;
#X obj 161 211 *~;
#X obj 36 255 outlet~;
#X obj 37 37 inlet;
#X msg 245 143 1;
#X msg 359 143 1;
#X msg 510 143 1;
#X msg 762 192 0;
#X msg 282 144 0;
#X msg 401 143 0;
#X msg 560 144 0;
#X obj 471 35 sel 0 1 2 3;
#X obj 37 91 osc~;
#X obj 229 213 *~;
#X msg 607 145 1;
#X msg 657 146 0;
#X connect 0 0 2 0;
#X connect 0 0 5 0;
#X connect 1 0 18 0;
#X connect 2 0 6 0;
#X connect 3 0 16 0;
#X connect 4 0 7 0;
#X connect 5 0 7 0;
#X connect 6 0 7 0;
#X connect 8 0 0 0;
#X connect 8 0 1 0;
#X connect 8 0 17 0;
#X connect 9 0 4 1;
#X connect 10 0 5 1;
#X connect 11 0 6 1;
#X connect 12 0 6 1;
#X connect 12 0 5 1;
#X connect 12 0 4 1;
#X connect 13 0 4 1;
#X connect 14 0 5 1;
#X connect 15 0 6 1;
#X connect 16 0 9 0;
#X connect 16 0 14 0;
#X connect 16 0 15 0;
#X connect 16 0 20 0;
#X connect 16 1 10 0;
#X connect 16 1 13 0;
#X connect 16 1 15 0;
#X connect 16 1 20 0;
#X connect 16 2 11 0;
#X connect 16 2 13 0;
#X connect 16 2 14 0;
#X connect 16 2 20 0;
#X connect 16 3 13 0;
#X connect 16 3 14 0;
#X connect 16 3 15 0;
#X connect 16 3 19 0;
#X connect 16 4 12 0;
#X connect 17 0 4 0;
#X connect 18 0 7 0;
#X connect 19 0 18 1;
#X connect 20 0 18 1;
#X restore 162 154 pd select_wave;
#X connect 0 0 8 0;
#X connect 1 0 2 0;
#X connect 3 0 4 0;
#X connect 3 0 4 1;
#X connect 4 0 1 1;
#X connect 5 0 10 0;
#X connect 6 0 3 0;
#X connect 6 0 3 1;
#X connect 7 0 6 0;
#X connect 8 0 5 0;
#X connect 8 1 9 0;
#X connect 9 0 7 0;
#X connect 10 0 1 0;
