#N canvas 494 309 466 444 12;
#N canvas -170 199 958 956 synthesizer 0;
#X obj 412 659 dac~;
#X obj 20 425 pack f f f;
#X obj 20 319 notein;
#X obj 20 459 clone poly_voice 16;
#X obj 20 397 - 1;
#X obj 411 543 *~;
#X obj 432 494 hsl 128 15 0 1 0 0 empty empty empty -2 -8 0 10 -262144
-1 -1 0 1;
#X msg 119 263 stop;
#X obj 413 60 hsl 50 15 0 1 0 0 \$0-master-volume empty MASTER 5 22
0 10 -33289 -262144 -45076 0 1;
#X floatatom 429 514 5 0 0 0 - - -;
#X obj 413 100 hsl 50 15 1000 0 0 0 tempo empty TEMPO 7 22 0 10 -33289
-262144 -45076 0 1;
#N canvas 468 142 1094 658 power-btn 0;
#X obj 100 100 tgl 40 0 empty empty empty -1 14 0 40 -135305 -135305
-262144 0 1;
#X obj 100 188 sel 0;
#X msg 132 215 symbol #0c7019;
#X msg 100 244 symbol #850823;
#X text 210 246 Red;
#X text 240 213 Green;
#X text 179 165 Sends Power Message;
#X msg 17 140 \; pd dsp \$1;
#X obj 192 140 s power;
#X obj 278 42 loadbang;
#X msg 278 66 0;
#X obj 120 120 image images/power.png 0;
#X msg 100 58 color \$1 \$1 0;
#X connect 0 0 1 0;
#X connect 0 0 8 0;
#X connect 0 0 7 0;
#X connect 1 0 3 0;
#X connect 1 1 2 0;
#X connect 2 0 12 0;
#X connect 3 0 12 0;
#X connect 9 0 10 0;
#X connect 10 0 1 0;
#X connect 12 0 0 0;
#X coords 0 -1 1 1 40 40 2 100 100;
#X restore 801 50 pd power-btn;
#X obj 411 627 *~;
#X obj 411 140 hradio 11 1 0 5 empty empty OCTAVE 10 17 0 10 -262144
-1 -1 2;
#X obj 320 93 loadbang;
#X msg 320 121 set 2;
#X obj 501 59 vradio 23 1 0 4 empty empty WAVE 1 98 0 10 -262144 -1
-1 0;
#X obj 543 96 image images/sawtooth.png 0;
#X obj 542 141 image images/square.png 0;
#X obj 543 118 image images/triangle.png 0;
#X obj 966 151 send waveform;
#X obj 501 1 loadbang;
#X msg 501 25 0;
#X obj 543 71 image images/sine.png 0;
#X text 1068 150 poly_voice patch receives the waveform value;
#N canvas 712 388 1085 451 amp_eg 0;
#X obj 200 50 cnv 15 200 95 empty empty empty 20 12 0 14 -233017 -66577
0;
#X text 276 55 AMP EG;
#X obj 206 79 hsl 90 15 0 1023 0 0 empty empty ATTACK 28 22 0 10 -1
-262144 -1 8900 1;
#X obj 305 79 hsl 90 15 0 1023 0 0 empty empty DECAY 30 22 0 10 -1
-262144 -1 8900 1;
#X obj 206 111 hsl 90 15 0 1023 0 0 empty empty SUSTAIN 27 22 0 10
-1 -262144 -1 8900 1;
#X obj 305 111 hsl 90 15 0 1023 0 0 empty empty RELEASE 26 22 0 10
-1 -262144 -1 8900 1;
#X obj 180 291 outlet~;
#X obj 180 267 vline~;
#X msg 180 243 0 \, 1 \$1 \, 0.7 \$2 \$1 \, 0 \$3 \$4;
#X obj 219 167 +;
#X obj 284 186 +;
#X obj 78 138 r tempo;
#X obj 46 176 metro;
#X obj 14 55 r power;
#X obj 14 79 sel 0;
#X msg 14 142 stop;
#X obj 46 116 bng 15 250 50 0 empty empty empty 17 7 0 10 -262144 -1
-1;
#X obj 180 219 pack f f f f f;
#X obj 146 9 loadbang;
#X msg 146 33 1023;
#X connect 2 0 9 1;
#X connect 2 0 17 1;
#X connect 3 0 10 1;
#X connect 3 0 17 2;
#X connect 4 0 9 0;
#X connect 5 0 17 3;
#X connect 7 0 6 0;
#X connect 8 0 7 0;
#X connect 9 0 10 0;
#X connect 10 0 17 4;
#X connect 11 0 12 1;
#X connect 12 0 17 0;
#X connect 13 0 14 0;
#X connect 14 0 15 0;
#X connect 14 1 16 0;
#X connect 15 0 12 0;
#X connect 16 0 12 0;
#X connect 17 0 8 0;
#X connect 18 0 19 0;
#X connect 19 0 2 0;
#X connect 19 0 4 0;
#X connect 19 0 3 0;
#X connect 19 0 5 0;
#X coords 0 -1 1 1 200 93 2 200 50;
#X restore 586 59 pd amp_eg;
#X obj 411 580 *~;
#X obj 429 471 r \$0-master-volume;
#X obj 429 602 r power;
#N canvas 989 409 450 300 filter 0;
#X obj 100 100 cnv 15 150 80 empty empty empty 20 12 0 14 -228856 -66577
0;
#X text 152 101 Filter;
#X obj 111 123 hsl 128 15 0 1023 0 0 empty empty CUTOFF 46 22 0 10
-1 -262144 -1 12700 1;
#X obj 111 153 hsl 128 15 0 200 0 0 empty empty RESONANCE 38 22 0 10
-1 -262144 -1 0 1;
#X obj 28 25 inlet~;
#X text 92 27 Signal;
#X obj 108 55 loadbang;
#X obj 26 247 outlet~;
#X obj 27 212 bob~;
#X msg 162 80 0;
#X msg 108 80 1023;
#X obj 108 193 / 25;
#X connect 2 0 8 1;
#X connect 3 0 11 0;
#X connect 4 0 8 0;
#X connect 6 0 10 0;
#X connect 6 0 9 0;
#X connect 8 0 7 0;
#X connect 9 0 3 0;
#X connect 10 0 2 0;
#X connect 11 0 8 2;
#X coords 0 -1 1 1 150 80 2 100 100;
#X restore 411 169 pd filter;
#N canvas 952 0 958 956 keyboard 0;
#X obj 100 17 inlet;
#X obj 100 425 outlet;
#X msg 618 281 lowc 3;
#X obj 618 249 loadbang;
#X text 677 288 No Lowest C = 3;
#X text 144 14 Octave Up / Down;
#X text 398 7 Keyboard Key;
#X obj 363 8 key;
#N canvas 246 329 979 966 octave 0;
#X obj 147 10 inlet;
#X obj 113 341 f 2;
#X obj 161 153 -;
#X obj 161 186 sel 0;
#X msg 193 255 oct \$1;
#X obj 193 228 * -1;
#X obj 83 78 v oct-n;
#X obj 113 280 -;
#X floatatom 113 368 5 0 0 0 - - -;
#X floatatom 113 312 5 0 0 0 - - -;
#X obj 99 245 v oct-n;
#X floatatom 83 135 5 0 0 0 - - -;
#X obj 147 63 bng 15 250 50 0 empty empty empty 17 7 0 10 -262144 -1
-1;
#X obj 17 386 bng 15 250 50 0 empty empty empty 17 7 0 10 -262144 -1
-1;
#X floatatom 230 172 5 0 0 0 - - -;
#X obj 147 36 t b f;
#X obj 99 203 t b f;
#X obj 193 287 outlet;
#X msg 17 322 send oct-n;
#X obj 17 290 loadbang;
#X obj 311 287 outlet;
#X connect 0 0 15 0;
#X connect 1 0 8 0;
#X connect 2 0 3 0;
#X connect 2 0 14 0;
#X connect 3 1 16 0;
#X connect 3 1 5 0;
#X connect 4 0 17 0;
#X connect 5 0 4 0;
#X connect 5 0 20 0;
#X connect 6 0 11 0;
#X connect 7 0 9 0;
#X connect 8 0 13 0;
#X connect 9 0 1 0;
#X connect 10 0 7 0;
#X connect 11 0 2 0;
#X connect 12 0 6 0;
#X connect 13 0 18 0;
#X connect 15 0 12 0;
#X connect 15 1 2 1;
#X connect 16 0 10 0;
#X connect 16 1 7 1;
#X connect 18 0 1 0;
#X connect 19 0 18 0;
#X restore 100 137 pd octave;
#X obj 252 112 loadbang;
#X floatatom 252 204 5 0 0 0 - - -;
#X obj 252 227 bng 15 250 50 0 empty empty empty 17 7 0 10 -262144
-1 -1;
#X obj 486 80 - 32;
#X obj 363 61 kb-key-value;
#X obj 486 107 kb-key-value;
#X obj 363 85 t b f;
#X obj 486 133 t b f;
#X obj 363 176 * 12;
#X obj 363 200 +;
#X msg 252 144 send center-c;
#X obj 363 152 v center-c;
#X floatatom 627 33 5 0 0 0 - - -;
#X obj 750 74 - 32;
#X obj 627 55 kb-key-value;
#X obj 750 101 kb-key-value;
#X obj 627 79 t b f;
#X obj 750 127 t b f;
#X obj 627 146 v center-c;
#X obj 627 9 keyup;
#X text 673 10 Keyboard Key Up;
#X obj 627 171 * 12;
#X obj 627 195 +;
#X obj 160 226 +;
#X obj 252 180 f 5;
#X msg 32 250 flush;
#X msg 627 222 off \$1;
#X msg 627 406 \$1 0;
#X obj 363 228 makenote 100 600000;
#X floatatom 363 39 5 0 0 0 - - -;
#X obj 100 301 cnv 15 441 60 empty empty empty 20 12 0 14 -42934 -262144
0;
#X obj 100 313 keyboard 21 80 3 3 0 0 empty empty;
#X text 252 374 q;
#X text 272 374 w;
#X text 292 374 e;
#X text 314 374 r;
#X text 335 374 t;
#X text 356 374 y;
#X text 377 374 u;
#X text 398 374 i;
#X text 262 299 2;
#X text 285 299 3;
#X text 326 299 5;
#X text 349 299 6;
#X text 368 299 7;
#X obj 160 162 t b f;
#X obj 160 186 v center-c;
#X text 420 374 o;
#X text 441 374 p;
#X text 407 299 9;
#X text 430 299 0;
#X connect 0 0 8 0;
#X connect 2 0 40 0;
#X connect 3 0 2 0;
#X connect 7 0 38 0;
#X connect 8 0 40 0;
#X connect 8 1 54 0;
#X connect 9 0 19 0;
#X connect 10 0 11 0;
#X connect 11 0 19 0;
#X connect 12 0 14 0;
#X connect 13 0 15 0;
#X connect 13 1 12 0;
#X connect 14 0 16 0;
#X connect 15 0 20 0;
#X connect 15 1 18 1;
#X connect 16 0 20 0;
#X connect 16 1 18 1;
#X connect 17 0 18 0;
#X connect 18 0 37 0;
#X connect 19 0 33 0;
#X connect 20 0 17 0;
#X connect 21 0 23 0;
#X connect 22 0 24 0;
#X connect 23 0 25 0;
#X connect 23 1 22 0;
#X connect 24 0 26 0;
#X connect 25 0 27 0;
#X connect 25 1 31 1;
#X connect 26 0 27 0;
#X connect 26 1 31 1;
#X connect 27 0 30 0;
#X connect 28 0 21 0;
#X connect 30 0 31 0;
#X connect 31 0 35 0;
#X connect 31 0 36 0;
#X connect 32 0 33 0;
#X connect 33 0 10 0;
#X connect 34 0 40 0;
#X connect 35 0 40 0;
#X connect 36 0 1 0;
#X connect 37 0 40 0;
#X connect 37 1 40 1;
#X connect 38 0 13 0;
#X connect 40 0 1 0;
#X connect 54 0 55 0;
#X connect 54 1 32 1;
#X connect 55 0 32 0;
#X coords 0 -1 1 1 441 93 2 100 300;
#X restore 400 257 pd keyboard;
#X text 850 300 Keyboard sub-patch;
#X msg 228 350 \$1 \$2;
#X obj 20 370 poly 5, f 10;
#X obj 228 447 s note;
#X msg 228 374 \$1;
#N canvas 207 317 914 645 sequencer 0;
#X obj 100 150 cnv 15 250 80 empty empty empty 20 12 0 14 -233017 -66577
0;
#X text 105 154 Sequencer;
#N canvas 0 50 758 639 play-button 0;
#X obj 100 100 tgl 40 0 empty empty empty -1 14 0 40 -135305 -135305
-262144 0 1;
#X obj 100 188 sel 0;
#X msg 132 215 symbol #0c7019;
#X msg 100 244 symbol #850823;
#X text 210 246 Red;
#X text 240 213 Green;
#X obj 278 42 loadbang;
#X msg 278 66 0;
#X obj 120 121 image images/play.png 0;
#X msg 100 58 color \$1 \$1 0;
#X obj 192 140 s play;
#X text 179 165 Sends Play Message;
#X connect 0 0 1 0;
#X connect 0 0 10 0;
#X connect 1 0 3 0;
#X connect 1 1 2 0;
#X connect 2 0 9 0;
#X connect 3 0 9 0;
#X connect 6 0 7 0;
#X connect 7 0 1 0;
#X connect 9 0 0 0;
#X coords 0 -1 1 1 40 40 2 100 100;
#X restore 257 152 pd play-button;
#N canvas 0 50 450 300 play-button 0;
#X obj 100 100 tgl 40 0 empty empty empty -1 14 0 40 -135305 -135305
-262144 0 1;
#X obj 100 188 sel 0;
#X msg 132 215 symbol #0c7019;
#X msg 100 244 symbol #850823;
#X text 210 246 Red;
#X text 240 213 Green;
#X obj 278 42 loadbang;
#X msg 278 66 0;
#X msg 100 58 color \$1 \$1 0;
#X obj 120 120 image images/record.png 0;
#X obj 192 140 s record;
#X text 179 167 Sends Record Message;
#X connect 0 0 1 0;
#X connect 0 0 10 0;
#X connect 1 0 3 0;
#X connect 1 1 2 0;
#X connect 2 0 8 0;
#X connect 3 0 8 0;
#X connect 6 0 7 0;
#X connect 7 0 1 0;
#X connect 8 0 0 0;
#X coords 0 -1 1 1 40 40 2 100 100;
#X restore 307 152 pd play-button;
#X obj 104 207 sequencer-voice;
#X obj 133 207 sequencer-voice;
#X obj 162 207 sequencer-voice;
#X obj 191 207 sequencer-voice;
#X obj 221 207 sequencer-voice;
#X obj 251 207 sequencer-voice;
#X obj 281 207 sequencer-voice;
#X obj 310 207 sequencer-voice;
#X obj 272 38 r tempo;
#X obj 102 13 r play;
#X obj 104 423 outlet~;
#X obj 102 37 tgl 15 0 empty empty empty 17 7 0 10 -262144 -1 -1 0
1;
#X msg 272 62 tempo \$1 msec;
#X obj 102 80 metro \$1 1 sec;
#X obj 104 359 +~;
#X obj 134 341 +~;
#X obj 162 324 +~;
#X obj 191 306 +~;
#X obj 221 288 +~;
#X obj 252 270 +~;
#X obj 281 252 +~;
#X obj 102 128 sel 0 1 2 3 4 5 6 7;
#X obj 102 104 counter 0 7;
#X obj 110 177 hsl 50 15 0 1 0 0 empty empty Volume 5 22 0 10 -33289
-262144 -45076 0 1;
#X obj 104 383 *~;
#N canvas 0 50 450 300 play-button 0;
#X text 87 177 Sends Trash Message;
#X obj 100 150 s trash;
#X obj 100 100 bng 40 250 50 0 empty empty empty 17 7 0 10 -1 -1 -1
;
#X obj 120 120 image images/trash.png 0;
#X connect 2 0 1 0;
#X coords 0 -1 1 1 40 40 2 100 100;
#X restore 207 152 pd play-button;
#X connect 4 0 18 0;
#X connect 5 0 19 0;
#X connect 6 0 20 0;
#X connect 7 0 21 0;
#X connect 8 0 22 0;
#X connect 9 0 23 0;
#X connect 10 0 24 0;
#X connect 11 0 24 1;
#X connect 12 0 16 0;
#X connect 13 0 15 0;
#X connect 15 0 17 0;
#X connect 16 0 17 0;
#X connect 17 0 26 0;
#X connect 18 0 28 0;
#X connect 19 0 18 1;
#X connect 20 0 19 1;
#X connect 21 0 20 1;
#X connect 22 0 21 1;
#X connect 23 0 22 1;
#X connect 24 0 23 1;
#X connect 25 0 4 0;
#X connect 25 1 5 0;
#X connect 25 2 6 0;
#X connect 25 3 7 0;
#X connect 25 4 8 0;
#X connect 25 5 9 0;
#X connect 25 6 10 0;
#X connect 25 7 11 0;
#X connect 26 0 25 0;
#X connect 27 0 28 1;
#X connect 28 0 14 0;
#X coords 0 -1 1 1 250 80 2 100 150;
#X restore 579 169 pd sequencer;
#X obj 248 248 +~;
#X connect 1 0 3 0;
#X connect 2 0 33 0;
#X connect 2 1 33 1;
#X connect 3 0 37 0;
#X connect 4 0 1 0;
#X connect 5 0 26 0;
#X connect 6 0 9 0;
#X connect 7 0 33 0;
#X connect 9 0 5 1;
#X connect 12 0 0 0;
#X connect 12 0 0 1;
#X connect 13 0 30 0;
#X connect 14 0 15 0;
#X connect 15 0 13 0;
#X connect 16 0 20 0;
#X connect 21 0 22 0;
#X connect 22 0 16 0;
#X connect 25 0 26 1;
#X connect 26 0 12 0;
#X connect 27 0 6 0;
#X connect 28 0 12 1;
#X connect 29 0 5 0;
#X connect 30 0 32 0;
#X connect 32 0 33 0;
#X connect 32 0 35 0;
#X connect 33 0 4 0;
#X connect 33 1 1 1;
#X connect 33 2 1 2;
#X connect 35 0 34 0;
#X connect 36 0 37 1;
#X connect 37 0 29 0;
#X coords 0 -1 1 1 441 300 2 400 50;
#X restore 12 10 pd synthesizer;
#X text 16 330 Remarks: Due to library limitations \, the keys won't
appear with color when you're using your keyboard \, if you keep pressing
a key \, the note will be repeated (you can disable this setting on
your OS settings \, or click several times in the key so that it can
be released) \, and if you change the octave the key's names will be
overlapped by a new keyboard image.;
