#N canvas 181 384 469 326 12;
#N canvas 15 69 1920 966 synthesizer 1;
#X obj 412 659 dac~;
#X obj 20 422 pack f f f;
#X obj 20 316 notein;
#X obj 20 367 poly 16, f 10;
#X obj 20 456 clone poly_voice 16;
#X obj 20 394 - 1;
#X obj 411 543 *~;
#X obj 432 494 hsl 128 15 0 1 0 0 empty empty empty -2 -8 0 10 -262144
-1 -1 6998 1;
#X msg 119 263 stop;
#X obj 400 269 keyboard 21 80 3 3 0 0 empty empty;
#X floatatom 179 170 5 0 0 0 - - -;
#X text 214 145 Keyboard Key;
#X obj 413 60 hsl 50 15 0 1 0 0 \$0-master-volume empty Master 5 22
0 10 -33289 -262144 -45076 2700 1;
#X floatatom 429 514 5 0 0 0 - - -;
#X obj 506 646 scope~ 130 130 256 3 128 -1 1 0 0 0 0 205 229 232 74
79 77 96 98 102 0 empty;
#X text 171 106 TODO: DELETE;
#X obj 413 100 hsl 50 15 1000 0 0 0 tempo empty Tempo 7 22 0 10 -33289
-262144 -45076 0 1;
#X obj 19 176 r tempo;
#X obj 19 200 metro \$1;
#N canvas 462 129 1094 658 power-btn 0;
#X obj 100 100 tgl 40 0 empty empty 🔘 -1 14 0 40 -262144 -262144
-14087 1 1;
#X msg 100 58 color 0 0 \$1;
#X obj 100 188 sel 0;
#X msg 132 215 symbol #0c7019;
#X msg 100 244 symbol #850823;
#X text 210 246 Red;
#X text 240 213 Green;
#X text 179 165 Sends Power Message;
#X msg 99 317 \; pd dsp \$1;
#X obj 192 140 s power;
#X obj 278 42 loadbang;
#X msg 278 66 0;
#X connect 0 0 2 0;
#X connect 0 0 9 0;
#X connect 1 0 0 0;
#X connect 2 0 4 0;
#X connect 2 0 8 0;
#X connect 2 1 3 0;
#X connect 2 1 8 0;
#X connect 3 0 1 0;
#X connect 4 0 1 0;
#X connect 10 0 11 0;
#X connect 11 0 2 0;
#X coords 0 -1 1 1 40 40 2 100 100;
#X restore 801 50 pd power-btn;
#X obj 411 627 *~;
#X obj 411 140 hradio 11 1 0 5 empty empty Octave 10 17 0 10 -262144
-1 -1 2;
#N canvas 554 228 979 966 octave 0;
#X obj 147 10 inlet;
#X obj 113 341 f 2;
#X obj 161 153 -;
#X obj 161 186 sel 0;
#X msg 193 255 oct \$1;
#X obj 193 228 * -1;
#X obj 83 78 v oct-n;
#X obj 113 280 -;
#X floatatom 113 368 5 0 0 0 - - -;
#X floatatom 113 312 5 0 0 0 - - -;
#X obj 99 245 v oct-n;
#X floatatom 83 135 5 0 0 0 - - -;
#X obj 147 63 bng 15 250 50 0 empty empty empty 17 7 0 10 -262144 -1
-1;
#X obj 17 386 bng 15 250 50 0 empty empty empty 17 7 0 10 -262144 -1
-1;
#X floatatom 230 172 5 0 0 0 - - -;
#X obj 147 36 t b f;
#X obj 99 203 t b f;
#X obj 193 287 outlet;
#X msg 17 322 send oct-n;
#X obj 17 290 loadbang;
#X connect 0 0 15 0;
#X connect 1 0 8 0;
#X connect 2 0 3 0;
#X connect 2 0 14 0;
#X connect 3 1 16 0;
#X connect 3 1 5 0;
#X connect 4 0 17 0;
#X connect 5 0 4 0;
#X connect 6 0 11 0;
#X connect 7 0 9 0;
#X connect 8 0 13 0;
#X connect 9 0 1 0;
#X connect 10 0 7 0;
#X connect 11 0 2 0;
#X connect 12 0 6 0;
#X connect 13 0 18 0;
#X connect 15 0 12 0;
#X connect 15 1 2 1;
#X connect 16 0 10 0;
#X connect 16 1 7 1;
#X connect 18 0 1 0;
#X connect 19 0 18 0;
#X restore 324 151 pd octave;
#X obj 300 46 loadbang;
#X msg 299 250 lowc 3;
#X msg 320 121 set 2;
#X obj 501 59 vradio 23 1 0 4 empty empty Wave 1 98 0 10 -262144 -1
-1 0;
#X obj 543 96 image images/sawtooth.png 0;
#X obj 542 141 image images/square.png 0;
#X obj 543 118 image images/triangle.png 0;
#X obj 966 151 send waveform;
#X obj 501 1 loadbang;
#X msg 501 25 0;
#X obj 543 71 image images/sine.png 0;
#X text 1068 150 poly_voice patch receives the waveform value;
#N canvas 578 275 1105 451 amp_eg 0;
#X text 276 55 AMP EG;
#X obj 206 79 hsl 90 15 0 1023 0 0 empty empty ATTACK 28 22 0 10 -1
-262144 -1 1700 1;
#X obj 305 79 hsl 90 15 0 1023 0 0 empty empty DECAY 30 22 0 10 -1
-262144 -1 800 1;
#X obj 206 111 hsl 90 15 0 1023 0 0 empty empty SUSTAIN 27 22 0 10
-1 -262144 -1 1700 1;
#X obj 305 111 hsl 90 15 0 1023 0 0 empty empty RELEASE 26 22 0 10
-1 -262144 -1 4100 1;
#X obj 180 291 outlet~;
#X obj 180 267 vline~;
#X msg 180 243 0 \, 1 \$1 \, 0.7 \$2 \$1 \, 0 \$3 \$4;
#X obj 219 167 +;
#X obj 284 186 +;
#X obj 78 138 r tempo;
#X obj 46 176 metro;
#X obj 14 55 r power;
#X obj 14 79 sel 0;
#X msg 14 142 stop;
#X obj 46 116 bng 15 250 50 0 empty empty empty 17 7 0 10 -262144 -1
-1;
#X obj 180 219 pack f f f f f;
#X connect 1 0 8 1;
#X connect 1 0 16 1;
#X connect 2 0 9 1;
#X connect 2 0 16 2;
#X connect 3 0 8 0;
#X connect 4 0 16 3;
#X connect 6 0 5 0;
#X connect 7 0 6 0;
#X connect 8 0 9 0;
#X connect 9 0 16 4;
#X connect 10 0 11 1;
#X connect 11 0 16 0;
#X connect 12 0 13 0;
#X connect 13 0 14 0;
#X connect 13 1 15 0;
#X connect 14 0 11 0;
#X connect 15 0 11 0;
#X connect 16 0 7 0;
#X coords 0 -1 1 1 200 93 2 200 50;
#X restore 586 59 pd amp_eg;
#X obj 411 580 *~;
#X obj 429 471 r \$0-master-volume;
#X obj 429 602 r power;
#X obj 179 146 key;
#X obj 179 201 makenote 100 1000;
#N canvas 989 409 450 300 filter 0;
#X text 152 104 Filter;
#X obj 111 127 hsl 128 15 0 1023 0 0 empty empty CUTOFF 46 22 0 10
-1 -262144 -1 12700 1;
#X obj 111 157 hsl 128 15 0 200 0 0 empty empty RESONANCE 38 22 0 10
-1 -262144 -1 0 1;
#X obj 28 25 inlet~;
#X text 92 27 Signal;
#X obj 108 55 loadbang;
#X obj 26 247 outlet~;
#X obj 27 212 bob~;
#X msg 162 80 0;
#X msg 108 80 1023;
#X obj 108 193 / 25;
#X connect 1 0 7 1;
#X connect 2 0 10 0;
#X connect 3 0 7 0;
#X connect 5 0 9 0;
#X connect 5 0 8 0;
#X connect 7 0 6 0;
#X connect 8 0 2 0;
#X connect 9 0 1 0;
#X connect 10 0 7 2;
#X coords 0 -1 1 1 150 85 2 100 100;
#X restore 410 173 pd filter;
#X text 227 381 TODO: 100 -> \$2;
#X msg 229 348 \$1 100;
#X connect 1 0 4 0;
#X connect 2 0 3 0;
#X connect 2 1 3 1;
#X connect 3 0 5 0;
#X connect 3 1 1 1;
#X connect 3 2 1 2;
#X connect 4 0 41 0;
#X connect 5 0 1 0;
#X connect 6 0 36 0;
#X connect 7 0 13 0;
#X connect 8 0 3 0;
#X connect 9 0 43 0;
#X connect 10 0 40 0;
#X connect 13 0 6 1;
#X connect 17 0 18 0;
#X connect 20 0 0 0;
#X connect 20 0 0 1;
#X connect 20 0 14 0;
#X connect 21 0 22 0;
#X connect 22 0 9 0;
#X connect 23 0 24 0;
#X connect 23 0 25 0;
#X connect 24 0 9 0;
#X connect 25 0 21 0;
#X connect 26 0 30 0;
#X connect 31 0 32 0;
#X connect 32 0 26 0;
#X connect 35 0 36 1;
#X connect 36 0 20 0;
#X connect 37 0 7 0;
#X connect 38 0 20 1;
#X connect 39 0 10 0;
#X connect 41 0 6 0;
#X connect 43 0 3 0;
#X coords 0 -1 1 1 441 300 2 400 50;
#X restore 12 10 pd synthesizer;
