#N canvas 0 50 450 300 12;
#X obj 52 35 inlet;
#X obj 52 228 *~;
#X obj 52 252 outlet~;
#X obj 225 185 *~;
#X obj 225 209 *~;
#X obj 52 129 mtof;
#X obj 225 161 line~;
#X msg 225 136 \$1 50;
#X obj 52 59 unpack f f;
#X obj 225 112 / 127;
#X obj 52 153 phasor~;
#X obj 52 177 triangle~;
#X connect 0 0 8 0;
#X connect 1 0 2 0;
#X connect 3 0 4 0;
#X connect 3 0 4 1;
#X connect 4 0 1 1;
#X connect 5 0 10 0;
#X connect 6 0 3 0;
#X connect 6 0 3 1;
#X connect 7 0 6 0;
#X connect 8 0 5 0;
#X connect 8 1 9 0;
#X connect 9 0 7 0;
#X connect 10 0 11 0;
#X connect 11 0 1 0;
