#N canvas 450 80 1252 736 12;
#N canvas 328 15 1482 908 synthesizer 0;
#X obj 22 796 dac~;
#X text 164 571 // clone creates any number of copies of a desired
abstraction (a patch loaded as an object in another patch), f 55;
#X obj 21 520 pack f f f;
#X obj 21 274 notein;
#X text 106 462 // voice allocator (define as the argument the number
of voices);
#X obj 21 465 poly 16, f 10;
#X obj 21 577 clone poly_voice 16;
#X obj 21 492 - 1;
#X msg 52 358 60 110;
#X msg 122 358 67 100;
#X msg 192 358 60 0;
#X obj 121 505 print;
#X obj 21 700 *~;
#X obj 42 651 hsl 128 15 0 1 0 0 empty empty empty -2 -8 0 10 -262144
-1 -1 778 1;
#X msg 268 364 stop;
#X obj 400 269 keyboard 21 80 3 3 0 0 empty empty;
#X floatatom 409 358 5 0 0 0 - - -;
#X obj 179 146 key;
#X floatatom 179 170 5 0 0 0 - - -;
#X text 214 145 Keyboard Key;
#X obj 413 60 hsl 50 15 0 1 0 0 master-volume empty Master 5 22 0 10
-33289 -262144 -45076 300 1;
#X obj 39 628 r master-volume;
#X floatatom 39 671 5 0 0 0 - - -;
#X obj 236 654 scope~ 130 130 256 3 128 -1 1 0 0 0 0 205 229 232 74
79 77 96 98 102 0 empty;
#X msg 409 384 \$1 100;
#X obj 179 193 makenote 10;
#X text 171 106 TODO: DELETE;
#X obj 413 100 hsl 50 15 1000 0 0 0 tempo empty Tempo 7 22 0 10 -33289
-262144 -45076 0 1;
#X obj 19 176 r tempo;
#X obj 19 200 metro \$1;
#N canvas 462 129 1094 658 power-btn 0;
#X obj 100 100 tgl 40 0 empty empty 🔘 -1 14 0 40 -262144 -262144
-135305 0 1;
#X msg 100 58 color 0 0 \$1;
#X obj 100 188 sel 0;
#X msg 132 215 symbol #0c7019;
#X msg 100 244 symbol #850823;
#X text 210 246 Red;
#X text 240 213 Green;
#X obj 192 140 s power;
#X text 179 165 Sends Power Message;
#X connect 0 0 2 0;
#X connect 0 0 7 0;
#X connect 1 0 0 0;
#X connect 2 0 4 0;
#X connect 2 1 3 0;
#X connect 3 0 1 0;
#X connect 4 0 1 0;
#X coords 0 -1 1 1 40 40 2 100 100;
#X restore 801 50 pd power-btn;
#X obj 21 764 *~;
#X obj 39 740 r power;
#X obj 411 140 hradio 11 1 0 5 empty empty Octave 10 17 0 10 -262144
-1 -1 2;
#N canvas 554 228 979 966 octave 0;
#X obj 147 10 inlet;
#X obj 113 341 f 2;
#X obj 161 153 -;
#X obj 161 186 sel 0;
#X msg 193 255 oct \$1;
#X obj 193 228 * -1;
#X obj 83 78 v oct-n;
#X obj 113 280 -;
#X floatatom 113 368 5 0 0 0 - - -;
#X floatatom 113 312 5 0 0 0 - - -;
#X obj 99 245 v oct-n;
#X floatatom 83 135 5 0 0 0 - - -;
#X obj 147 63 bng 15 250 50 0 empty empty empty 17 7 0 10 -262144 -1
-1;
#X obj 17 386 bng 15 250 50 0 empty empty empty 17 7 0 10 -262144 -1
-1;
#X floatatom 230 172 5 0 0 0 - - -;
#X obj 147 36 t b f;
#X obj 99 203 t b f;
#X obj 193 287 outlet;
#X msg 17 322 send oct-n;
#X obj 17 290 loadbang;
#X connect 0 0 15 0;
#X connect 1 0 8 0;
#X connect 2 0 3 0;
#X connect 2 0 14 0;
#X connect 3 1 16 0;
#X connect 3 1 5 0;
#X connect 4 0 17 0;
#X connect 5 0 4 0;
#X connect 6 0 11 0;
#X connect 7 0 9 0;
#X connect 8 0 13 0;
#X connect 9 0 1 0;
#X connect 10 0 7 0;
#X connect 11 0 2 0;
#X connect 12 0 6 0;
#X connect 13 0 18 0;
#X connect 15 0 12 0;
#X connect 15 1 2 1;
#X connect 16 0 10 0;
#X connect 16 1 7 1;
#X connect 18 0 1 0;
#X connect 19 0 18 0;
#X restore 324 151 pd octave;
#X obj 300 46 loadbang;
#X msg 299 250 lowc 3;
#X msg 320 121 set 2;
#X connect 2 0 6 0;
#X connect 3 0 5 0;
#X connect 3 1 5 1;
#X connect 5 0 7 0;
#X connect 5 0 11 0;
#X connect 5 1 2 1;
#X connect 5 2 2 2;
#X connect 6 0 12 0;
#X connect 6 0 23 0;
#X connect 7 0 2 0;
#X connect 8 0 5 0;
#X connect 9 0 5 0;
#X connect 10 0 5 0;
#X connect 12 0 31 0;
#X connect 13 0 22 0;
#X connect 14 0 5 0;
#X connect 15 0 16 0;
#X connect 16 0 24 0;
#X connect 17 0 18 0;
#X connect 18 0 25 0;
#X connect 21 0 13 0;
#X connect 22 0 12 1;
#X connect 24 0 5 0;
#X connect 28 0 29 0;
#X connect 31 0 0 0;
#X connect 31 0 0 1;
#X connect 32 0 31 1;
#X connect 33 0 34 0;
#X connect 34 0 15 0;
#X connect 35 0 36 0;
#X connect 35 0 37 0;
#X connect 36 0 15 0;
#X connect 37 0 33 0;
#X coords 0 -1 1 1 441 300 2 400 50;
#X restore 700 168 pd synthesizer;
