#N struct 1828-xt float x float y;
#N struct 1828-yt float x float y;
#N canvas 776 79 940 821 12;
#X obj 100 100 cnv 15 20 20 empty empty empty 20 12 0 14 -1 -66577
0;
#X text 303 158 Red;
#X obj 187 9 loadbang;
#X msg 187 33 0;
#X msg 187 210 color \$1 \$1 0;
#X msg 219 88 symbol #000000;
#X obj 102 102 tgl 15 0 empty empty empty 17 7 0 10 -1 -1 -262144 0
1;
#X msg 187 158 symbol #ff0823;
#X obj 187 61 sel 1;
#X text 327 89 Black;
#X obj 27 145 r record;
#X obj 27 187 *;
#X obj 27 211 sel 1;
#X obj 178 292 loadbang;
#X obj 178 331 f 0;
#X obj 27 235 t b;
#X obj 80 263 r note;
#X obj 27 288 pack b f;
#X obj 27 312 unpack b f;
#X floatatom 178 355 5 0 0 0 - - -;
#X obj 274 292 inlet;
#X msg 274 326 0;
#X obj 274 350 +;
#X obj 274 483 outlet~;
#X obj 274 381 mtof;
#N canvas 399 332 858 539 select_wave 0;
#X obj 92 90 phasor~;
#X obj 220 90 square~;
#X obj 160 121 triangle~;
#X obj 471 11 receive waveform;
#X obj 36 211 *~;
#X obj 91 211 *~;
#X obj 161 211 *~;
#X obj 36 255 outlet~;
#X obj 37 37 inlet;
#X msg 245 143 1;
#X msg 359 143 1;
#X msg 510 143 1;
#X msg 762 192 0;
#X msg 282 144 0;
#X msg 401 143 0;
#X msg 560 144 0;
#X obj 471 35 sel 0 1 2 3;
#X obj 37 91 osc~;
#X obj 229 213 *~;
#X msg 607 145 1;
#X msg 657 146 0;
#X connect 0 0 2 0;
#X connect 0 0 5 0;
#X connect 1 0 18 0;
#X connect 2 0 6 0;
#X connect 3 0 16 0;
#X connect 4 0 7 0;
#X connect 5 0 7 0;
#X connect 6 0 7 0;
#X connect 8 0 0 0;
#X connect 8 0 1 0;
#X connect 8 0 17 0;
#X connect 9 0 4 1;
#X connect 10 0 5 1;
#X connect 11 0 6 1;
#X connect 12 0 6 1;
#X connect 12 0 5 1;
#X connect 12 0 4 1;
#X connect 13 0 4 1;
#X connect 14 0 5 1;
#X connect 15 0 6 1;
#X connect 16 0 9 0;
#X connect 16 0 14 0;
#X connect 16 0 15 0;
#X connect 16 0 20 0;
#X connect 16 1 10 0;
#X connect 16 1 13 0;
#X connect 16 1 15 0;
#X connect 16 1 20 0;
#X connect 16 2 11 0;
#X connect 16 2 13 0;
#X connect 16 2 14 0;
#X connect 16 2 20 0;
#X connect 16 3 13 0;
#X connect 16 3 14 0;
#X connect 16 3 15 0;
#X connect 16 3 19 0;
#X connect 16 4 12 0;
#X connect 17 0 4 0;
#X connect 18 0 7 0;
#X connect 19 0 18 1;
#X connect 20 0 18 1;
#X restore 274 415 pd select_wave;
#X obj 432 475 pp.spectrum~;
#X obj 274 450 *~;
#X obj 560 404 print;
#X msg 442 353 0 \, 1 50 \, 0 50 50;
#X obj 442 387 vline~;
#X connect 2 0 3 0;
#X connect 3 0 8 0;
#X connect 4 0 6 0;
#X connect 5 0 4 0;
#X connect 6 0 8 0;
#X connect 6 0 11 1;
#X connect 7 0 4 0;
#X connect 8 0 7 0;
#X connect 8 1 5 0;
#X connect 10 0 11 0;
#X connect 11 0 12 0;
#X connect 12 0 15 0;
#X connect 13 0 14 0;
#X connect 14 0 19 0;
#X connect 14 0 22 1;
#X connect 15 0 17 0;
#X connect 16 0 17 1;
#X connect 17 0 18 0;
#X connect 18 1 14 0;
#X connect 20 0 21 0;
#X connect 20 0 29 0;
#X connect 21 0 22 0;
#X connect 22 0 24 0;
#X connect 24 0 25 0;
#X connect 25 0 26 0;
#X connect 25 0 27 0;
#X connect 27 0 23 0;
#X connect 29 0 28 0;
#X connect 29 0 30 0;
#X connect 30 0 27 1;
#X coords 0 -1 1 1 20 20 2 100 100;
