#N canvas 736 231 1099 616 12;
#X obj 9 82 vline~;
#X obj 9 106 *~ -1;
#X obj 9 154 cos~;
#X obj 9 178 *~;
#X obj 9 226 *~;
#X obj 10 346 dac~;
#X obj 9 5 r trigger-footstep;
#X obj 10 304 *~;
#X obj 49 304 *~;
#X obj 296 14 bng 15 250 50 0 empty empty empty 17 7 0 10 -262144 -1
-1;
#X obj 9 130 +~ 0.25;
#X obj 9 202 *~ 2;
#X msg 9 58 0 0 0 \, 0.5 \$1 0;
#X obj 57 184 noise~;
#X obj 57 208 lop~ 20 20;
#X obj 9 29 expr random(400 \, 500);
#X obj 42 256 adc~;
#X connect 0 0 1 0;
#X connect 1 0 10 0;
#X connect 2 0 3 0;
#X connect 2 0 3 1;
#X connect 3 0 11 0;
#X connect 4 0 7 0;
#X connect 4 0 8 0;
#X connect 6 0 15 0;
#X connect 7 0 5 0;
#X connect 8 0 5 1;
#X connect 9 0 15 0;
#X connect 10 0 2 0;
#X connect 11 0 4 0;
#X connect 12 0 0 0;
#X connect 13 0 14 0;
#X connect 14 0 4 1;
#X connect 15 0 12 0;
#X connect 16 0 7 1;
#X connect 16 1 8 1;
