#N canvas 0 50 1365 630 12;
#X floatatom 72 303 5 0 0 0 - - -;
#X text 109 304 // duration of grain;
#X obj 38 219 hsl 128 15 0 1 0 0 empty empty empty -2 -8 0 10 -262144
-1 -1 0 0;
#X obj 35 299 *;
#X obj 69 281 r \$0-sfSize;
#X obj 35 52 tgl 15 0 empty empty on/off 17 7 0 10 -262144 -1 -1 0
1;
#X obj 35 180 / 100;
#X obj 35 130 metro 20;
#X floatatom 88 101 5 0 0 1 metronome - -;
#X floatatom 144 130 5 0 0 0 - - -;
#X obj 35 156 randomWalk 100 2;
#X obj 35 377 clone grain 200;
#X msg 35 353 next \$1 \$2 \$3;
#X obj 35 326 pack f 50 f;
#X obj 284 284 random 100;
#X obj 284 307 / 100;
#X obj 35 244 t f b;
#X obj 670 58 bng 20 250 50 0 empty empty empty 17 7 0 10 -228856 -1
-1;
#X text 695 57 <=;
#X floatatom 670 150 15 0 0 0 - - -;
#X text 716 57 load a soundfile into an array;
#X floatatom 670 196 15 0 0 0 - - -;
#X obj 670 172 / 44.1;
#X obj 670 120 soundfiler;
#X text 788 149 // number of samples of sf;
#X text 788 199 // duration of the sf (in ms);
#X obj 1012 167 s \$0-sfSize;
#X obj 252 40 loadbang;
#X msg 88 76 20;
#X msg 144 78 2;
#X msg 252 64 100;
#X msg 670 95 read -resize zombie.wav sample;
#X obj 964 63 array define sample;
#X obj 670 13 r load-file;
#X obj 35 15 r trigger-zombie;
#X obj 35 490 dac~;
#X obj 137 403 *~ 3;
#X obj 35 402 *~ 3;
#X obj 210 443 adc~;
#X obj 36 461 *~;
#X obj 137 470 *~;
#X connect 0 0 13 1;
#X connect 2 0 16 0;
#X connect 3 0 13 0;
#X connect 4 0 3 1;
#X connect 5 0 7 0;
#X connect 6 0 2 0;
#X connect 7 0 10 0;
#X connect 8 0 7 1;
#X connect 9 0 10 2;
#X connect 10 0 6 0;
#X connect 11 0 37 0;
#X connect 11 1 36 0;
#X connect 12 0 11 0;
#X connect 13 0 12 0;
#X connect 14 0 15 0;
#X connect 15 0 13 2;
#X connect 16 0 3 0;
#X connect 16 1 14 0;
#X connect 17 0 31 0;
#X connect 19 0 22 0;
#X connect 19 0 26 0;
#X connect 22 0 21 0;
#X connect 23 0 19 0;
#X connect 27 0 28 0;
#X connect 27 0 29 0;
#X connect 27 0 30 0;
#X connect 28 0 8 0;
#X connect 29 0 9 0;
#X connect 30 0 0 0;
#X connect 31 0 23 0;
#X connect 33 0 17 0;
#X connect 34 0 5 0;
#X connect 36 0 40 0;
#X connect 37 0 39 0;
#X connect 38 0 39 1;
#X connect 38 1 40 1;
#X connect 39 0 35 0;
#X connect 40 0 35 1;
