#N canvas 397 165 1365 630 12;
#X floatatom 72 303 5 0 0 0 - - -;
#X text 109 304 // duration of grain;
#X obj 38 219 hsl 128 15 0 1 0 0 empty empty empty -2 -8 0 10 -262144
-1 -1 0 0;
#X obj 35 299 *;
#X obj 71 280 r \$0-sfSize;
#X obj 35 52 tgl 15 0 empty empty on/off 17 7 0 10 -262144 -1 -1 0
1;
#X obj 35 180 / 100;
#X obj 35 130 metro 20;
#X floatatom 88 101 5 0 0 1 metronome - -;
#X floatatom 144 130 5 0 0 0 - - -;
#X obj 35 156 randomWalk 100 2;
#X obj 35 377 clone grain 200;
#X msg 35 353 next \$1 \$2 \$3;
#X obj 35 326 pack f 50 f;
#X obj 284 284 random 100;
#X obj 284 307 / 100;
#X obj 35 244 t f b;
#X obj 670 58 bng 20 250 50 0 empty empty empty 17 7 0 10 -228856 -1
-1;
#X text 695 57 <=;
#X floatatom 670 150 15 0 0 0 - - -;
#X text 716 57 load a soundfile into an array;
#X floatatom 670 196 15 0 0 0 - - -;
#X obj 670 172 / 44.1;
#X obj 670 120 soundfiler;
#X text 788 149 // number of samples of sf;
#X text 788 199 // duration of the sf (in ms);
#X obj 1012 167 s \$0-sfSize;
#X obj 252 40 loadbang;
#X msg 88 76 20;
#X msg 144 78 2;
#X msg 252 64 100;
#X msg 670 95 read -resize zombie.wav sample;
#X obj 964 63 array define sample;
#X obj 670 13 r load-file;
#X obj 35 15 r trigger-zombie;
#X obj 35 490 dac~;
#X obj 137 403 *~ 3;
#X obj 35 402 *~ 3;
#X obj 397 5 r trigger-death;
#X obj 397 98 line~;
#X obj 397 223 dac~;
#X obj 397 123 tabread4~ sample;
#X msg 397 72 0 \, \$2 \$3;
#X obj 397 47 pack f f f;
#X obj 55 431 adc~;
#X obj 36 461 *~;
#X obj 137 470 *~;
#X obj 398 197 *~;
#X obj 422 197 *~;
#X obj 397 147 *~ 3;
#X obj 670 225 / 6;
#X obj 416 172 adc~;
#X text 512 5 Death Sound;
#X text 158 15 Zombie Voice;
#X text 756 15 Load Zombie File;
#X obj 422 406 hsl 64 12 0 1 0 1 empty empty vol 15 6 1 8 -262144 -1
-1 2205 1;
#X obj 401 421 *~;
#N canvas 143 170 766 571 blast 0;
#X obj 3 -21 noise~;
#X obj 4 211 *~;
#X obj 4 90 clip~ -1 1;
#X obj 105 97 *~;
#X obj 4 171 cos~;
#X obj 76 -67 -;
#X obj 76 -94 swap 1;
#X obj 4 151 *~;
#X obj 40 0 line~;
#X obj 6 -145 inlet;
#X obj 6 -124 t b f f;
#X msg 28 -41 \$1 30;
#X obj 4 311 outlet~;
#X obj 4 291 *~ 0.3;
#X obj 105 71 vline~;
#X msg 105 48 1 \, 0 \$1;
#X obj 105 24 f;
#X obj 137 -142 inlet decay;
#X obj 121 2 *;
#X obj 28 -92 pow 2;
#X obj 4 24 vcf~ 7000 2;
#X obj 28 -62 * 10000;
#X obj 137 -41 * 10000;
#X obj 76 -43 * 3.5;
#X obj 76 -22 + 1.5;
#X obj 4 46 hip~ 20;
#X obj 4 68 *~ 50;
#X obj 20 131 +~ 0.5;
#X obj 5 190 bp~ 6000 1;
#X obj 4 251 hip~ 10;
#X obj 4 271 hip~ 10;
#X obj 4 231 hip~ 10;
#X connect 0 0 20 0;
#X connect 1 0 31 0;
#X connect 2 0 7 0;
#X connect 3 0 1 1;
#X connect 3 0 27 0;
#X connect 4 0 28 0;
#X connect 5 0 18 0;
#X connect 5 0 23 0;
#X connect 6 0 5 0;
#X connect 6 1 5 1;
#X connect 7 0 4 0;
#X connect 8 0 20 1;
#X connect 9 0 10 0;
#X connect 10 0 16 0;
#X connect 10 1 19 0;
#X connect 10 2 6 0;
#X connect 11 0 8 0;
#X connect 13 0 12 0;
#X connect 14 0 3 0;
#X connect 14 0 3 1;
#X connect 15 0 14 0;
#X connect 16 0 15 0;
#X connect 17 0 22 0;
#X connect 18 0 16 1;
#X connect 19 0 21 0;
#X connect 20 0 25 0;
#X connect 21 0 11 0;
#X connect 22 0 18 1;
#X connect 23 0 24 0;
#X connect 24 0 20 2;
#X connect 25 0 26 0;
#X connect 26 0 2 0;
#X connect 27 0 7 1;
#X connect 28 0 1 0;
#X connect 29 0 30 0;
#X connect 30 0 13 0;
#X connect 31 0 29 0;
#X restore 401 359 pd blast;
#X obj 457 343 hsl 64 12 0 1 0 1 empty empty decay 15 6 1 8 -262144
-1 -1 63 1;
#X obj 401 545 dac~;
#X obj 401 303 bng 15 250 50 0 empty empty empty 17 7 0 10 -262144
-1 -1;
#X obj 397 28 bng 15 250 50 0 empty empty empty 17 7 0 10 -262144 -1
-1;
#X obj 401 469 *~ 3;
#X obj 401 445 lop~ 100;
#X msg 454 318 0.01;
#X msg 401 334 0.2;
#X obj 401 280 r trigger-hit;
#X obj 401 517 *~;
#X obj 425 517 *~;
#X obj 419 491 adc~;
#X text 505 281 Hit;
#X obj 629 320 r val;
#X msg 419 382 0.35;
#X connect 0 0 13 1;
#X connect 2 0 16 0;
#X connect 3 0 13 0;
#X connect 4 0 3 1;
#X connect 5 0 7 0;
#X connect 6 0 2 0;
#X connect 7 0 10 0;
#X connect 8 0 7 1;
#X connect 9 0 10 2;
#X connect 10 0 6 0;
#X connect 11 0 37 0;
#X connect 11 1 36 0;
#X connect 12 0 11 0;
#X connect 13 0 12 0;
#X connect 14 0 15 0;
#X connect 15 0 13 2;
#X connect 16 0 3 0;
#X connect 16 1 14 0;
#X connect 17 0 31 0;
#X connect 19 0 22 0;
#X connect 19 0 26 0;
#X connect 19 0 43 1;
#X connect 21 0 50 0;
#X connect 22 0 21 0;
#X connect 23 0 19 0;
#X connect 27 0 28 0;
#X connect 27 0 29 0;
#X connect 27 0 30 0;
#X connect 28 0 8 0;
#X connect 29 0 9 0;
#X connect 30 0 0 0;
#X connect 31 0 23 0;
#X connect 33 0 17 0;
#X connect 34 0 5 0;
#X connect 36 0 46 0;
#X connect 37 0 45 0;
#X connect 38 0 61 0;
#X connect 39 0 41 0;
#X connect 41 0 49 0;
#X connect 42 0 39 0;
#X connect 43 0 42 0;
#X connect 44 0 45 1;
#X connect 44 1 46 1;
#X connect 45 0 35 0;
#X connect 46 0 35 1;
#X connect 47 0 40 0;
#X connect 48 0 40 1;
#X connect 49 0 47 0;
#X connect 49 0 48 0;
#X connect 50 0 43 2;
#X connect 51 0 47 1;
#X connect 51 1 48 1;
#X connect 55 0 56 1;
#X connect 56 0 63 0;
#X connect 57 0 56 0;
#X connect 58 0 57 1;
#X connect 60 0 65 0;
#X connect 60 0 64 0;
#X connect 60 0 72 0;
#X connect 61 0 43 0;
#X connect 62 0 67 0;
#X connect 62 0 68 0;
#X connect 63 0 62 0;
#X connect 64 0 58 0;
#X connect 65 0 57 0;
#X connect 66 0 60 0;
#X connect 67 0 59 0;
#X connect 68 0 59 1;
#X connect 69 0 67 1;
#X connect 69 1 68 1;
#X connect 71 0 55 0;
#X connect 72 0 55 0;
