#N canvas 970 45 653 584 10;
#X obj 20 116 *~ 0.8;
#X obj 21 201 dac~;
#N canvas 119 38 246 155 nwave 0;
#X obj 0 143 vline~;
#X obj 21 48 t a a;
#X obj 0 100 pack f f;
#X obj 51 75 + 1;
#X msg 0 122 1 1 0 \, -1 \$1 1 \, 0 1 \$2;
#X obj 21 0 inlet;
#X obj 10 168 delwrite~ i 40;
#X obj 116 167 delread~ i 40;
#X obj 0 233 outlet~;
#X obj 116 187 lop~ 100;
#X obj 116 0 inlet weaponheight;
#X msg 21 24 2;
#X connect 0 0 6 0;
#X connect 0 0 8 0;
#X connect 1 0 2 0;
#X connect 1 1 3 0;
#X connect 2 0 4 0;
#X connect 3 0 2 1;
#X connect 4 0 0 0;
#X connect 5 0 11 0;
#X connect 7 0 9 0;
#X connect 9 0 8 0;
#X connect 10 0 7 0;
#X connect 11 0 1 0;
#X restore 20 82 pd nwave;
#X floatatom 73 41 5 0 0 2 shockwave - -;
#X floatatom 80 69 5 10 100 2 height - -;
#X obj 20 56 del 44;
#X obj 20 7 r trigger-shoot;
#X obj 36 136 adc~;
#X obj 20 181 *~;
#X obj 42 181 *~;
#X connect 0 0 8 0;
#X connect 0 0 9 0;
#X connect 2 0 0 0;
#X connect 3 0 5 1;
#X connect 4 0 2 1;
#X connect 5 0 2 0;
#X connect 6 0 5 0;
#X connect 7 0 8 1;
#X connect 7 1 9 1;
#X connect 8 0 1 0;
#X connect 9 0 1 1;
