#N canvas 536 0 1212 956 12;
#X floatatom 147 320 5 0 0 0 - - -;
#X floatatom 181 342 5 0 0 0 - - -;
#X msg 13 215 0 0 0 \, 0.5 \$1 0;
#X obj 13 239 vline~;
#X obj 13 263 *~ -1;
#X obj 13 287 +~ 0.25;
#X obj 13 311 cos~;
#X obj 13 335 *~;
#X obj 13 359 *~ 2;
#X obj 13 383 *~;
#X obj 13 186 expr random(50 \, 100);
#X obj 13 163 bng 15 250 50 0 empty empty empty 17 7 0 10 -262144 -1
-1;
#X obj 13 49 tgl 15 0 empty empty empty 17 7 0 10 -262144 -1 -1 0 1
;
#X obj 54 117 delay 131.25 1 msec;
#X obj 132 7 r health-value;
#X obj 13 80 metro 1000;
#X obj 13 7 r heart-beat;
#X text 236 7 [0-1];
#X obj 132 67 + 131.25;
#X obj 285 99 print health;
#X obj 305 172 print heart;
#X obj 115 298 noise~;
#X obj 114 365 bp~ 30 0.4;
#X obj 132 43 * 218.75;
#X obj 80 34 * 625;
#X obj 80 58 + 375;
#X obj 13 461 dac~;
#X obj 171 418 expr (1 - $f1) * 0.25 + 0.5;
#X obj 13 437 *~ 0.5;
#X obj 132 388 <= 0;
#X msg 52 407 0;
#X obj 171 388 > 0;
#X connect 0 0 22 1;
#X connect 1 0 22 2;
#X connect 2 0 3 0;
#X connect 3 0 4 0;
#X connect 4 0 5 0;
#X connect 5 0 6 0;
#X connect 6 0 7 0;
#X connect 6 0 7 1;
#X connect 7 0 8 0;
#X connect 8 0 9 0;
#X connect 9 0 28 0;
#X connect 10 0 2 0;
#X connect 11 0 10 0;
#X connect 12 0 15 0;
#X connect 13 0 11 0;
#X connect 14 0 19 0;
#X connect 14 0 23 0;
#X connect 14 0 24 0;
#X connect 14 0 29 0;
#X connect 14 0 31 0;
#X connect 15 0 11 0;
#X connect 15 0 13 0;
#X connect 16 0 12 0;
#X connect 16 0 20 0;
#X connect 18 0 13 1;
#X connect 21 0 22 0;
#X connect 22 0 9 1;
#X connect 23 0 18 0;
#X connect 24 0 25 0;
#X connect 25 0 15 1;
#X connect 27 0 28 1;
#X connect 28 0 26 0;
#X connect 28 0 26 1;
#X connect 29 0 30 0;
#X connect 30 0 28 1;
#X connect 31 0 27 0;
