#N canvas 824 300 829 585 12;
#X obj 6 56 bng 15 250 50 0 empty empty empty 17 7 0 10 -262144 -1
-1;
#X obj 6 138 tgl 15 0 empty empty empty 17 7 0 10 -262144 -1 -1 0 1
;
#X obj 333 117 bp~ 710 34;
#X obj 420 117 bp~ 1100 34;
#X obj 512 117 bp~ 2640 34;
#X obj 6 183 *~;
#X obj 333 141 +~;
#X obj 333 165 +~;
#X obj 5 212 *~;
#X obj 100 194 vline~;
#X msg 100 153 0 \, 1 50 \, 0.5 800 50 \, 0 100 850;
#X obj 332 87 phasor~ 60;
#X obj 332 65 vline~;
#X msg 109 46 60 \, 240 150 \, 60 150 800;
#X obj 85 71 delay 1000;
#X obj 6 8 loadbang;
#X obj 24 236 adc~;
#X obj 6 266 *~;
#X obj 6 290 dac~;
#X obj 32 266 *~;
#X connect 0 0 1 0;
#X connect 0 0 10 0;
#X connect 0 0 13 0;
#X connect 0 0 14 0;
#X connect 1 0 5 0;
#X connect 2 0 6 0;
#X connect 3 0 6 1;
#X connect 4 0 7 1;
#X connect 5 0 8 0;
#X connect 6 0 7 0;
#X connect 7 0 5 1;
#X connect 8 0 17 0;
#X connect 8 0 19 0;
#X connect 9 0 8 1;
#X connect 10 0 9 0;
#X connect 11 0 2 0;
#X connect 11 0 3 0;
#X connect 11 0 4 0;
#X connect 12 0 11 0;
#X connect 13 0 12 0;
#X connect 14 0 1 0;
#X connect 15 0 0 0;
#X connect 16 0 17 1;
#X connect 16 1 19 1;
#X connect 17 0 18 0;
#X connect 19 0 18 1;
